<?xml version="1.0" encoding="UTF-8"?>
<svg xmlns="http://www.w3.org/2000/svg" xmlns:xlink="http://www.w3.org/1999/xlink" viewBox="0 0 375 293.05">
  <defs>
    <style>
      .cls-1, .cls-2, .cls-3 {
        fill: none;
      }

      .cls-4, .cls-2, .cls-3, .cls-5 {
        stroke-miterlimit: 10;
        stroke-width: .5px;
      }

      .cls-4, .cls-2, .cls-5 {
        stroke: #fff;
      }

      .cls-4, .cls-6 {
        fill: #00306b;
      }

      .cls-7, .cls-5 {
        fill: #47607e;
      }

      .cls-8 {
        mix-blend-mode: multiply;
      }

      .cls-8, .cls-9 {
        opacity: .25;
      }

      .cls-10, .cls-9 {
        fill: #80d0da;
      }

      .cls-11 {
        fill: url(#radial-gradient);
      }

      .cls-12 {
        fill: #d5d6d9;
      }

      .cls-13 {
        isolation: isolate;
      }

      .cls-3 {
        stroke: #9fa6ad;
      }

      .cls-14 {
        opacity: .46;
      }

      .cls-15 {
        fill: #b1b5bb;
      }

      .cls-16 {
        fill: #48a9bf;
      }

      .cls-17 {
        clip-path: url(#clippath);
      }
    </style>
    <clipPath id="clippath">
      <circle class="cls-1" cx="188.8" cy="138.81" r="13.6"/>
    </clipPath>
    <radialGradient id="radial-gradient" cx="188.72" cy="138.76" fx="188.72" fy="138.76" r="11.93" gradientUnits="userSpaceOnUse">
      <stop offset=".82" stop-color="#231f20" stop-opacity="0"/>
      <stop offset="1" stop-color="#231f20" stop-opacity=".5"/>
    </radialGradient>
  </defs>
  <g class="cls-13">
    <g id="road">
      <path class="cls-12" d="M257.41,165.93v-50.66h38.96v-4.24h-34.07v-34.07h-3.99v19.03h-63.09c-.43-1.65-1.47-3.06-2.87-3.96v-14.69s-6.43,0-6.56.13v14.2c-1.72.85-3.02,2.42-3.51,4.32h-74.23v12.8l-21.06,3.52.6,3.73,24.46-3.93-.31-1.94v-10.46h14.14v56l-29.86,5.48.79,4.3,29.89-5.49,11.39,11.39v29.89h3.73v-29.06h41.88c.41,1.09,1.14,2.02,2.09,2.66v27.62h6.56v-27.91c.76-.62,1.36-1.44,1.71-2.37h67.34v-2.31h25.97v-3.86h-30.63l-.04-.13h.71ZM185.02,123.23c-7.08,1.68-12.34,8.04-12.34,15.63s5.27,13.95,12.34,15.63v11.85c-.61.6-1.08,1.33-1.37,2.16h-43.12v.06l-10.93-10.93v-48.82l9.1-9.1h43.7c.47,1.44,1.39,2.67,2.62,3.49v20.03ZM253.69,161.69l-6.81,6.81h-52.77c-.28-.82-.75-1.56-1.37-2.16v-11.91c6.95-1.77,12.09-8.07,12.09-15.57s-5.14-13.8-12.09-15.57v-20.28c1.1-.82,1.93-1.97,2.36-3.3h53.07l5.51,5.51v56.46Z"/>
    </g>
    <g id="sidewalk">
      <rect class="cls-12" x="19.33" y="167.83" width="10.65" height="25.97" transform="translate(196.23 118.64) rotate(77.84)"/>
      <rect class="cls-12" x="175.06" y="266.99" width="27.28" height="25.97"/>
    </g>
    <g id="terraces">
      <rect class="cls-15" x="60.95" width="12.34" height="11.89"/>
      <rect class="cls-15" y="26.23" width="6.56" height="14.72"/>
      <rect class="cls-15" x="2.28" y="47.87" width="8.75" height="16.01" transform="translate(-11.65 2.67) rotate(-12.19)"/>
      <rect class="cls-15" x="8.79" y="83.74" width="6.58" height="12.7" transform="translate(-18.75 4.58) rotate(-12.19)"/>
      <rect class="cls-15" x="11.75" y="97.5" width="6.58" height="12.68" transform="translate(-21.59 5.52) rotate(-12.19)"/>
      <rect class="cls-15" x="17.11" y="128.29" width="6.13" height="12.75" transform="translate(-24.71 6.11) rotate(-10.73)"/>
      <rect class="cls-15" x="93.6" y="123.47" width="10.56" height="31.57" transform="translate(-24.19 20.84) rotate(-10.73)"/>
      <polygon class="cls-15" points="119.45 87.67 119.45 76.54 107.18 76.54 104.08 73.44 100.97 76.54 87.88 76.54 87.88 82.84 81.05 83.52 82.22 95.29 81.75 95.76 82.32 96.33 83.32 106.3 95.54 105.08 94.87 98.38 105.58 87.67 119.45 87.67"/>
      <rect class="cls-15" x="21.14" y="142.25" width="5.76" height="22.26" transform="translate(-31.82 8.52) rotate(-12.18)"/>
      <rect class="cls-15" x="75.28" width="12.34" height="11.89"/>
      <rect class="cls-15" x="106.72" width="12.28" height="11.89"/>
      <rect class="cls-15" x="120.99" width="12.28" height="11.89"/>
      <rect class="cls-15" x="152.43" width="23.47" height="11.89"/>
      <rect class="cls-15" x="201.22" width="23.47" height="11.89"/>
      <rect class="cls-6" x="177.89" y="9.75" width="21.25" height="67.65"/>
      <rect class="cls-15" x="243.78" width="12.41" height="11.89"/>
      <rect class="cls-15" x="258.12" width="12.41" height="11.89"/>
      <rect class="cls-15" x="289.62" width="12.41" height="11.89"/>
      <rect class="cls-15" x="303.96" width="12.41" height="11.89"/>
      <rect class="cls-15" x="362.59" y="25.07" width="12.41" height="22.31"/>
      <rect class="cls-15" x="362.59" y="56.83" width="9.97" height="12.02"/>
      <rect class="cls-15" x="362.59" y="71.3" width="9.97" height="12.02"/>
      <rect class="cls-15" x="362.59" y="102.69" width="9.97" height="12.02"/>
      <rect class="cls-15" x="362.59" y="117.16" width="9.97" height="12.02"/>
      <rect class="cls-15" x="362.59" y="148.55" width="9.97" height="12.02"/>
      <rect class="cls-15" x="359.29" y="163.02" width="13.27" height="21.43"/>
      <rect class="cls-15" x="125.31" y="266.99" width="35.09" height="17.45"/>
      <rect class="cls-15" x="223.73" y="266.99" width="21.22" height="12.73"/>
      <rect class="cls-15" x="257.8" y="265.84" width="45.35" height="13.89"/>
      <polygon class="cls-12" points="39.09 256.84 32.98 257.99 34.84 267.32 27.77 268.54 31.69 288.08 35.7 293.05 57.82 292.88 57.67 283.9 58.76 283.9 58.76 269.37 45.39 254.46 39.09 256.84"/>
      <polygon class="cls-15" points="133.34 200.78 133.34 191.78 123.31 191.78 110.06 178.4 108.65 170.95 98.88 172.36 100.93 183.29 118.81 200.9 133.34 200.78"/>
      <rect class="cls-15" x="147.09" y="181.87" width="18.64" height="9.26"/>
      <rect class="cls-15" x="212.41" y="175.57" width="45.39" height="15.94"/>
      <rect class="cls-15" x="252.53" y="132.24" width="40.57" height="13.57" transform="translate(411.84 -133.79) rotate(90)"/>
      <polygon class="cls-15" points="267.44 75.67 267.44 87.24 275.29 87.24 279.66 91.74 287.89 83.9 279.66 75.75 267.44 75.67"/>
      <polygon class="cls-15" points="281.33 93.28 289.3 85.31 296.63 92.81 296.63 104.86 286.73 104.86 286.73 99.33 281.33 93.28"/>
      <rect class="cls-15" x="228.74" y="78.07" width="26.4" height="9.26"/>
      <rect class="cls-15" x="121.42" y="78.07" width="27.26" height="9.26"/>
      <rect class="cls-15" x="206.11" y="78.07" width="20.57" height="9.26"/>
      <rect class="cls-15" x="150.91" y="78.07" width="21.94" height="9.26"/>
      <polygon class="cls-6" points="119.96 52.14 149.11 52.14 149.11 77.51 119.92 77.51 119.96 52.14"/>
    </g>
    <g id="_1st_Floor_Building_Fill" data-name="1st Floor Building Fill">
      <path class="cls-4" d="M199.36,77.47h57.8v-.86h5.74v-.69h16.8l17.06,17.49v22.37h-16.72v45.37h7.29v22.95l-7.2,8.23-100.63-.43h-36.86v9.51h-23.83l-17.83-18-4.11-22.03,1.29-.26-9.26-43.89-4.2-24.52,16.46-16.29h18.94v1.07h57.8V9.88h-13.09v1.46h-31.93v-1.97h-25.8v1.89h-19.89v-1.5h-25.46v1.2h-10.5v1.63H18.99v-1.54h-7.54l-6.47,6.26s-.09,7.93-.09,7.93h1.29v22.84h2.79l7.16,34.84-2.27.39,5.06,25.84,2.36-.43,3.9,18.56-1.33.34-2.14.43,7.2,36.43,2.4-.6,4.2,20.74-10.29,2.19,13.76,70.59,6.3-2.06v8.49l6.43,6.43h7.46v4.63h60.69v-1.03h12.09v-2.57h22.37v2.44h11.7v-4.89h9.77v5.27h26.1v-5.01h9.39v4.63h12.92v-2.96h20.38v3.21h58.44v-7.67h47.94v1.37h7.89l6.26-6.26v-7.71h-1.46v-22.8h2.14v-46.2h-4.63v-9.36h2.23v-26.04h-2.23v-19.33h2.31v-27.02h-2.31v-19.09h2.4v-26.36h-2.4v-10.54h3.51v-23.32h1.2v-7.8l-5.91-6.09h-8.14v1.37h-36v-1.37h-25.37v1.2h-20.23v-1.37h-25.89v1.54h-31.63v-1.29h-13.5l.19,67.63Z"/>
      <polygon class="cls-15" points="303.15 279.72 257.8 279.72 257.8 265.84 267.06 265.84 267.06 268.71 293.29 268.79 293.46 265.84 303.15 265.84 303.15 279.72"/>
      <polygon class="cls-6" points="234.37 191.85 234.37 225.54 179.53 225.54 179.53 214.22 179.35 214.22 179.35 191.85 234.37 191.85"/>
      <polygon class="cls-6" points="245.01 191.97 245.01 225.53 288.4 225.53 288.4 218.65 300.17 218.65 309.94 208.94 296.95 196.4 296.95 190.43 293.03 190.43 293.03 183.87 287.33 183.87 280.04 191.97 245.01 191.97"/>
      <path class="cls-7" d="M119.84,231.57h-34.59l-6.81-7.14-9.13-46.55-43.33,9,12.86,70.08,6.3-2.06v8.49l6.43,6.43h7.46v4.83h14.57s0-29.52,0-29.52l7.54-7.54,38.57-.09s-.12-6.18.13-5.94Z"/>
      <polyline class="cls-7" points="73.42 274.39 73.42 245.14 81.34 237.81 97.98 237.81 97.98 274.32"/>
      <rect class="cls-7" x="97.93" y="237.68" width="21.77" height="36.97"/>
    </g>
    <g id="pond">
      <g class="cls-17">
        <rect class="cls-16" x="163.76" y="123.03" width="48.9" height="30.37"/>
        <path class="cls-9" d="M214.71,134.57c-.37-.25-.44-.28-.64-.61-.2-.34-.7-.61-.91-1.11-.22-.5-.16-1.13.12-1.36.28-.23.2-.34.5-.53.29-.19.43-.28.68-.63.25-.35.84-.32,1.18-.23.34.09.55.4.55.4l.25-.28s-.46-.86-1.25-1.41c-.79-.55-1.2-.81-1.72-1.29s-.77-.29-1.22-.89c-.45-.6-.98-.7-1.14-1.4-.16-.7-.28-1.38-.36-2.05-.09-.67-.24-.93-.03-1.38.21-.46.17-.55.78-.69s1.19-.58,1.19-.58l-.05-.17s-.63.58-1.08.49c-.45-.1-.87.22-1.31.27-.44.04-.58.19-1.06.09s-.81.15-1.6.33c-.79.18-1.79.41-2.29.21-.49-.19-.38-.41-.87-.75s-.37-.73-.73-1.1c-.36-.37-.43-.8-.81-1.53-.38-.73-.48-.93-.48-.93l-.24.12s.08.2.22.68c.14.49.32.54.47,1.04.15.5.32.59.26.86-.06.28-.19.63-.38.84-.19.21-.46.39-.91.56-.45.17-.32.38-.68.4-.36.02-.63-.04-1.04.54-.41.58-.4.97-1.14,1.34-.74.37-.98.58-1.4.59-1.59.04-2.89-.18-3.42-.18-.94,0-1.46-.28-1.64-.4.03-.03.05-.06.08-.1.31-.37.38-.42.59-.6.21-.18.13-.17.43-.37.3-.2.62-.4.94-.62.33-.22.63-.18.63-.18l-1.23-.71c-.83,1.95-.83,1.33-1.04,1.72-.21.39-.23.47-.54.7-.32.23-.53.76-1.01,1.03-.47.27-1.11.28-1.36.03-.26-.25-.36-.16-.59-.43-.22-.27-.33-.4-.7-.61-.37-.21-.41-.8-.36-1.14.05-.35.33-.59.33-.59l-.3-.22s-.8.56-1.26,1.4c-.46.84-.67,1.28-1.09,1.85-.12.16-.19.3-.24.42-.16-.08-.52-.28-.96-.59-.6-.42-.74-.73-.92-.84s-.45-.79-.46-.83-.4.04-.38.07.27.51.18.65-.6.45-.91.47-1.48.15-2.07.3-1.22.39-1.76.69-.92.35-1.32.19h0c-.45-.24-.68-.11-1.16-.57-.54-.52-1.08-.54-1.35-1.2s-.49-1.31-.69-1.97c-.19-.65-.38-.88-.25-1.36.13-.48.08-.57.66-.81s1.08-.76,1.08-.76l-.08-.16s-.53.67-.99.65-.82.36-1.25.47-.54.28-1.03.26-.78.28-1.53.58c-.75.3-1.71.69-2.22.57s-.44-.35-.98-.61c-.54-.26-.48-.66-.9-.97s-.55-.72-1.04-1.38-.62-.84-.62-.84l-.21.16s.11.18.33.64.4.48.63.95.4.53.39.81-.09.65-.25.89-.39.46-.81.7c-.42.24-.26.43-.61.51s-.63.06-.94.7-.24,1.02-.91,1.51-.91.62-1.29.81-.49.1-.85.3-.86.31-.86.31l.17.51s.14-.15.66-.26.51-.38.79-.31.46-.26.74-.18.34-.08.55.48.52.65.76,1.21.52.52.7,1.12.22.79-.16.99-.42.36-1.16,1.07-.7.86-.7.86l.15.06s.9-1.21,1.26-1.43.34-.52.82-.53.85-.11,1.35-.38.37-.01.92-.17.53-.01,1.16-.13.69-.02.98-.01.52.3,1,.48.65.6.79.92.26.86.46,1.2.09.6.27.95c.18.35-.08,1.12-.32,1.48-.19.08-.37.15-.5.17-.37.07-.37.06-.83.31-.46.26-.59-.03-1.34.35-.75.38-.9.45-1.49.72-.59.27-.49.15-.83.27-.34.12-.43.23-.86.19-.43-.04-.77-.05-1.06-.34-.29-.28-.28-.49-.53-.68-.25-.19-.36-.33-.67-.7-.31-.37-.35-.44-.49-.68-.14-.24-.15-.16-.29-.49-.15-.33-.29-.67-.45-1.03-.16-.36-.08-.65-.08-.65l-.9,1.1c1.79,1.14,1.17,1.04,1.53,1.31s.43.3.6.65c.18.35.66.65.85,1.16.19.51.1,1.14-.19,1.35-.29.21-.22.33-.52.51-.3.18-.45.26-.72.59-.27.33-.85.27-1.19.17-.33-.11-.53-.43-.53-.43l-.26.26s.42.88,1.17,1.48c.76.59,1.15.87,1.64,1.38.49.51.75.34,1.17.96.42.62.94.76,1.06,1.46.12.71.2,1.39.25,2.07.05.68.19.94-.05,1.38-.24.44-.21.48-.82.65-1.77.48-3.24,1.76-3.24,1.76l.52.17s1.04-1.41,1.48-1.28c.62.18.39-.58,2.49-.58.44,0,.59-.16,1.06-.03.48.13.82-.11,1.62-.24.8-.13,1.81-.3,2.3-.08.48.22.35.43.82.8.47.37.33.75.67,1.14.34.39.38.82.72,1.57.34.75.42.96.42.96l.24-.11s-.07-.2-.18-.7c-.11-.5-.29-.56-.41-1.07-.12-.51-.28-.6-.21-.87.07-.27.23-.62.43-.81.13-.13.3-.24.52-.35.54-.17.97.22,1.78.2.81-.02,1.54.29,2.17.45s1.93-.18,2.27-.27.76.33,1.19.35,1.55.78,1.46,1.51c-.1.16-.24.32-.48.49-.67.48-.91.62-1.29.81s-.49.1-.85.3-.86.31-.86.31l.17.51s.14-.15.66-.26.51-.38.79-.31.46-.26.74-.18.34-.08.55.48.52.65.76,1.21.52.52.7,1.12.22.79-.16.99-.42.36-1.16,1.07-.7.86-.7.86l.15.06s.9-1.21,1.26-1.43.34-.52.82-.53.85-.11,1.35-.38.37-.01.92-.17.53-.01,1.16-.13.69-.02.98-.01.52.3,1,.48.65.6.79.92.26.86.46,1.2.09.6.27.95-.09,1.15-.34,1.51-.33.48-.33.48l.19.47s.72-.61,1.07-.75.35-.13.74-.48.58-.1,1.24-.63.79-.63,1.3-1.02.45-.25.75-.44.37-.31.8-.37.76-.11,1.11.1.38.42.66.55.43.25.81.54.44.36.63.56.18.12.39.42.43.6.66.91.21.62.21.62l.65-1.26c-1.99-.73-1.37-.76-1.77-.95s-.48-.2-.73-.51-.79-.49-1.08-.95-.34-1.09-.1-1.36.15-.37.4-.61.38-.35.57-.73.78-.45,1.12-.42.61.3.61.3l.2-.31s-.6-.78-1.46-1.19-1.31-.61-1.9-1-.81-.17-1.35-.69-1.08-.54-1.35-1.2-.49-1.31-.69-1.97-.38-.88-.25-1.36.08-.57.66-.81c.24-.1.46-.24.64-.38,0,0,0,0,0,0,0,0,0,0,0,0,.12-.09.23-.18.3-.25.34-.21.32-.5.8-.51.48-.01.85-.11,1.35-.38s.37-.01.92-.17.53-.01,1.16-.13.69-.02.98-.01.52.3,1,.48.65.6.79.92.26.86.46,1.2.09.6.27.95-.09,1.15-.34,1.51-.33.48-.33.48l.19.47s.72-.61,1.07-.75.35-.13.74-.48.58-.1,1.24-.63.79-.63,1.3-1.02.45-.25.75-.44.37-.31.8-.37.76-.11,1.11.1.38.42.66.55.43.25.81.54.44.36.63.56.18.12.39.42.43.6.66.91.21.62.21.62l.65-1.26c-1.99-.73-1.37-.76-1.77-.95s-.48-.2-.73-.51-.79-.49-1.08-.95-.34-1.09-.1-1.36.15-.37.4-.61.38-.35.57-.73.78-.45,1.12-.42.61.3.61.3l.2-.31s-.6-.78-1.46-1.19-1.31-.61-1.9-1-.81-.17-1.35-.69-1.08-.54-1.35-1.2c-.27-.66-.49-1.31-.69-1.97s-.38-.88-.25-1.36c.02-.08.04-.16.06-.22.25-.14.76-.43,1.03-.49.37-.09.37-.08.81-.36.44-.28.59,0,1.32-.43.73-.42.88-.5,1.45-.8s.48-.17.81-.31c.33-.14.42-.25.85-.24.43.01.77.01,1.08.28.31.27.31.47.57.65.26.18.38.31.71.66.33.35.38.42.53.65.16.23.16.15.32.47.16.32.33.66.51,1,.18.35.11.64.11.64l.84-1.15c-1.85-1.04-1.23-.97-1.6-1.22ZM162.94,125.49c-.02.39-.11.59-.2.65-.09.06-.25-.2-.33-.39s-.12-.17-.34-.37-.15-.26,0-.52.31-.24.55-.49.26-.27.38.07-.04.66-.07,1.06ZM209.87,121.63c.02-.12.18-.18.29-.18.11,0,.28-.11.35-.04.07.08.05.13-.01.29-.06.16-.11.24-.16.24-.08,0-.14.03-.22-.04-.08-.07-.26-.16-.24-.28ZM205.63,122.17c.29-.02.27-.22.67-.28.4-.06.87-.13,1.34-.25.46-.12,1.25-.16,1.52-.12.27.04.62.43.92.64.3.21.27.44.35,1.13.08.68.31,1.84.29,2.07-.02.24-.09.42-.52.69,0,0-.19.05-.33.08-.14.03-.4.13-.61.2-.22.07-.38.17-.59.21-.21.05-.69-.21-.95-.53-.26-.31-.15-.55-.58-.8-.43-.25-.36-.38-.67-.59-.31-.21-.01-.14-.6-.77-.59-.63-.64-.84-.72-1.17-.08-.33.19-.49.48-.51ZM208.27,127.93c.08.21.2.38.21.52.01.14,0,.2-.24.14-.1-.02-.29-.13-.45-.09-.15.04-.1-.11-.25-.05-.16.05-.09,0-.37-.01-.28-.02-.41-.02-.64-.15-.23-.13-.53-.14-.69-.22-.16-.08-.16-.36.1-.6.26-.24.53-.22.84-.25.31-.03.39-.13.59-.08s.16,0,.34.06c.18.05.07.13.25.29s.22.23.31.44ZM203.38,120.47c.04-.16.05-.23.19-.19.14.05.19,0,.32.2.13.19.29.47.42.7.13.24.38.41.56.53.19.12.3.34.22.46-.08.11-.12.22-.33.19-.22-.04-.3-.28-.56-.41-.26-.13-.4-.12-.56-.43-.16-.31-.35-.5-.39-.67-.04-.17.08-.23.12-.39ZM202.12,121.49c.14-.1.33-.2.55-.18.23.01.49-.05.58.05.1.1.06.27-.05.48-.11.21-.21.16-.44.18-.23.02-.3.07-.44.07-.15,0-.29-.03-.36-.19-.03-.08.01-.29.15-.4ZM199.82,123.91c.05-.38.12-.34.22-.77.09-.43.25-.21.37-.55.12-.34.38-.33.63-.3.25.03.64.04.82-.02.18-.05.8-.19,1.15-.16.35.03.9.04,1.28.39.38.35.74.36.94.82s.3.33.45.86c.15.53.39.59.96,1.18.56.59.82,1.28.54,1.39-.28.11-.45.24-.74.34-.29.1-.56.31-.79.45-.23.15-.53.25-.81.31-.28.07-.18-.07-.56.14-.38.21-.43.18-.74.27-.31.09-.4.27-.72.21s-.72.14-.98.08c-.26-.05-.8-.02-1.27-.35-.28-.19-.5-.38-.79-.94-.3-.56-.46-1.38-.37-1.62.09-.24.29-.45.28-.95-.01-.49.08-.42.13-.8ZM206.08,132.94c.12.38-.27,1.12-.57,1.43-.06.06-.11.11-.15.16-.21.11-.41.24-.63.3-.43.11-.54.28-1.03.26s-.78.28-1.53.58c-.75.3-1.71.69-2.22.57s-.44-.35-.98-.61-.48-.66-.9-.97-.55-.72-1.04-1.38c-.07-.09-.13-.18-.19-.26-.16-.38-.35-.64-.16-1.21.19-.56.39-.97,1.11-1.63.34-.31.79-.7,1.02-.79.39-.15.41-.46.89-.39.48.07.86.02,1.39-.16s.37.05.94-.02c.57-.07.52.07,1.16.05.64-.02.68.09.97.14.29.06.46.38.91.64.45.25.55.69.63,1.03.08.34.12.9.26,1.26.15.36,0,.6.11.99ZM205.09,135.38c-.03.17-.07.25-.12.26-.08.01-.13.06-.22,0s-.28-.11-.28-.24.15-.2.26-.22.26-.16.34-.09.07.12.03.29ZM194.03,139.29c-.67.48-.91.62-1.29.81s-.49.1-.85.3c-.14.08-.31.15-.46.2-.01,0-.02,0-.04.01h0s-.08.02-.11.03c-.31.08-.5-.04-.69-.2-.36-.31-.96-.85-1.1-1.11-.2-.37-.5-.36-.49-.85.01-.48-.07-.86-.31-1.37-.24-.51,0-.37-.12-.93-.13-.56.02-.53-.08-1.16-.09-.63.01-.69.04-.98.03-.29.33-.5.53-.97.2-.47.63-.62.96-.74.33-.12.88-.21,1.22-.4.35-.19.6-.06.97-.22.37-.16,1.14.15,1.49.41,0,0,0,0,.01,0,.55,1.14,2.37.26,2.74.94.02.05.05.1.07.15.21.46.4.48.63.95s.4.53.39.81-.09.65-.25.89-.39.46-.81.7-.26.43-.61.51-.63.06-.94.7-.24,1.02-.91,1.51ZM194.53,140.5c-.02.39-.11.59-.2.65-.09.06-.25-.2-.33-.39s-.12-.17-.34-.37-.15-.26,0-.52.31-.24.55-.49.26-.27.38.07-.04.66-.07,1.06ZM190.47,144.57c.06.29.06,1.55-.09,1.76,0,.01-.02.02-.02.03-.09.04-.19.09-.31.13-.75.3-1.71.69-2.22.57s-.44-.35-.98-.61-.48-.66-.9-.97.73-1.33.24-1.99c-.23-.31-.39-.58-.49-.77h0s0,0-.01-.02c-.09-.17-.13-.27-.14-.3-.03-.09-.06-.21-.08-.35-.09-.52-.36-.52-.27-.8.08-.28-.23-.47-.14-.75.09-.28-.06-.34.51-.53.57-.18.68-.48,1.25-.7.57-.22.54-.49,1.16-.64.61-.15.8-.18.98.21.16.35.3.42.8.98,0,0,.21.24.43.94.22.71.03,1.46,0,2.2s.22,1.29.28,1.58ZM185.69,146.54c-.07-.16.04-.24.06-.4s.01-.24.16-.21.19-.02.35.15.36.42.53.63.44.35.64.44.35.29.29.42-.09.24-.29.24c-.22,0-.34-.22-.62-.31s-.42-.06-.62-.34-.43-.44-.49-.6ZM185.79,147.51c-.08.22-.18.19-.4.25s-.28.11-.43.13-.29.02-.38-.13c-.04-.08-.03-.29.09-.42s.29-.25.52-.27.47-.12.58-.04.1.26.02.48ZM176.06,144.99c-.07.38-.14.34-.26.76-.12.42-.26.2-.4.53-.14.34-.4.3-.64.26-.24-.04-.64-.07-.82-.03-.18.04-.81.14-1.16.09-.34-.05-.9-.09-1.26-.46-.36-.37-.72-.4-.89-.87-.17-.47-.28-.35-.4-.88-.12-.53-.36-.61-.89-1.23-.53-.62-.74-1.32-.46-1.42.29-.1.46-.21.75-.29.29-.08.58-.28.81-.41.24-.13.54-.21.83-.27.29-.05.18.08.56-.11.39-.19.44-.16.75-.23.31-.07.41-.24.73-.17.32.07.72-.09.98-.03.26.07.8.07,1.25.42.26.21.48.4.74.98.26.58.38,1.41.27,1.64-.11.23-.31.44-.33.93-.02.49-.1.41-.17.79ZM168.7,141.33c-.2-.07-.16-.01-.34-.07-.18-.06-.06-.13-.23-.3-.17-.17-.21-.24-.28-.45-.07-.21-.18-.4-.18-.53,0-.14,0-.2.25-.13.1.03.28.15.44.11.16-.03.09.11.25.07.16-.05.09,0,.37.04.28.04.4.04.63.18.22.14.52.17.67.26.15.09.14.36-.13.59-.27.23-.54.19-.85.2-.31.01-.39.11-.6.04ZM170.32,135.62c-.1-.39.33-1.1.65-1.4.2-.14.41-.29.55-.35.35-.15.35-.13.74-.48s.58-.1,1.24-.63c.65-.53.79-.63,1.3-1.02.52-.39.45-.25.75-.44s.37-.31.8-.37.76-.11,1.11.1.38.42.66.55.43.25.81.54c.38.29.44.36.63.56s.18.12.39.42.43.6.66.91c.08.11.13.21.16.3-.09.09-.18.19-.28.38-.28.52-.68.45-1.01.85-.03.03-1.51,1.5-1.9,1.63-.4.13-.95,1.77-1.38,1.99-.47.24-.6.67-1.14.82-.54.16-.36-.07-.94-.03-.57.04-.52-.1-1.16-.12s-.67-.12-.96-.2c-.28-.07-.44-.41-.87-.69-.43-.28-.51-.72-.57-1.07-.06-.35-.07-.9-.19-1.27-.13-.37.04-.6-.06-.99ZM175.99,130.44c-.01-.24.07-.33.13-.51s.01-.36.12-.4.2.11.3.16.46,0,.55.03.24.16.28.43-.01.27-.29.44-.33.07-.6.16-.34.11-.45,0c-.09-.09-.04-.07-.06-.3ZM179.66,128.11c.1.26.27.51.32.78.09.43.25.55.21,1.05-.05.49.24.79.51,1.56.19.56.43,1.23.48,1.75-1.62-.62-1.09-.66-1.47-.84-.4-.19-.48-.2-.73-.51-.25-.3-.79-.49-1.08-.95s-.34-1.09-.1-1.36.15-.37.4-.61.38-.35.57-.73c.19-.38.64-.49.89-.14ZM186.33,130.73c.03-.19.12-.08.26-.28.14-.2.2-.25.4-.35.2-.1.36-.24.5-.27.14-.03.19-.03.17.22-.01.11-.1.3-.04.45.06.15-.1.11-.02.26.07.15.02.09.03.37,0,.28.02.41-.08.65-.1.24-.08.54-.14.71-.06.17-.34.2-.61-.03-.27-.23-.28-.5-.34-.8-.06-.31-.17-.37-.14-.58.03-.21-.01-.16.02-.35ZM187.87,131.29c-.02-.46-.1-.57.11-1.09.21-.52.38-.77.45-1.15.08-.38.14-.72.33-.92.19-.19.03-.19.28-.42s.76-.66,1.14-.94c.37-.28.39.06.7.2.31.14.64.49.72.83.08.34.3.44.45,1.07.15.63.56.96.72,1.21.16.24.31.63.15.91-.04.07-.08.05-.23.08-.16.04-.29.04-.61.25-.31.21-.59.32-.99.38s-.65.08-.87.22c-.22.14-.55.3-.86.4-.31.1-.37.17-.79.15-.43-.02-.63-.16-.71-.49-.07-.33.03-.23.01-.7ZM188.32,132.83c.23.06.46-.03.45.14,0,.15-.15.25-.3.36-.15.1-.32.34-.47.44-.15.09-.4-.1-.5-.2-.1-.11-.21-.35-.2-.43,0-.08.16-.23.35-.27s.43-.08.66-.02ZM186.35,132c.13.28.37.52.54.74s.3.5.4.77c.1.27-.05.19.2.54.25.35.23.41.35.7.12.3.31.36.29.69-.02.33.21.7.19.97-.02.27.07.8-.21,1.31-.16.3-.32.54-.84.89-.52.36-1.32.61-1.57.54-.24-.07-.48-.24-.97-.17-.49.07-.43-.03-.81-.04-.38,0-.36-.09-.79-.13-.44-.04-.24-.23-.59-.31-.36-.09-.37-.34-.36-.59,0-.25-.04-.64-.11-.82-.07-.17-.28-.78-.28-1.13,0-.35-.06-.9.25-1.31.3-.41.28-.77.71-1.02.44-.25.3-.33.8-.54.51-.21.54-.46,1.07-1.08.53-.63,1.18-.95,1.33-.69.14.27.28.42.41.7ZM185.37,139.91c-.19.07-.17.11-.39.32-.21.2-.27.13-.52-.03-.25-.16-.22-.33-.47-.57-.25-.25-.26-.27.09-.38.34-.11.66.08,1.05.12.39.04.59.14.64.23.05.09-.21.24-.41.31ZM181.19,134.15c.1-.2.31-.33.43-.27.12.06.23.1.22.3-.01.22-.24.33-.35.6-.1.28-.08.41-.37.6-.29.19-.46.4-.62.46-.16.06-.23-.06-.4-.08-.17-.02-.24-.02-.21-.17s-.01-.19.16-.34c.18-.15.43-.34.65-.5.22-.16.37-.42.47-.62ZM181,135.8c.08-.11.26-.09.48,0,.22.09.18.19.23.42.04.23.1.29.11.43.02.15,0,.29-.15.37-.08.04-.29.02-.41-.11-.12-.13-.23-.3-.24-.53-.01-.23-.1-.48-.02-.59ZM185.14,130.85c-.28.29-.53.21-.73.66-.2.45-.34.4-.51.73-.17.33-.14.03-.7.68-.56.66-.77.73-1.09.85-.32.12-.51-.14-.56-.42s-.25-.25-.35-.64c-.1-.39-.23-.85-.4-1.3-.17-.45-.3-1.23-.28-1.5.01-.27.36-.67.53-.99.17-.32.41-.32,1.08-.47s1.79-.51,2.03-.52c.24-.01.43.04.74.44,0,0,.07.18.12.32.05.14.17.38.26.59.09.21.21.36.28.56s-.14.71-.42,1ZM180.81,128.92c-.06.09-.13.27-.25.27-.12,0-.19-.16-.21-.27-.02-.11-.14-.27-.07-.34.07-.08.13-.06.29-.02.17.04.25.08.25.14,0,.08.05.14-.01.22ZM171.35,140.55c-.12.08-.38.15-.45.13-.08-.02-.2-.19-.21-.39-.01-.2,0-.44.09-.66.09-.22.05-.46.21-.43.14.03.22.19.3.35.08.17.29.37.35.54.07.16-.16.38-.28.46ZM176.68,143.85c.11-.38.23-.56.34-.59.1-.04.2.25.23.45.04.2.08.19.25.43s.09.28-.11.5c-.2.22-.36.16-.64.36-.29.2-.31.21-.36-.15-.05-.36.19-.64.29-1.02ZM177.38,143.54c-.09-.59-.37-.75-.49-1.35-.12-.6-.39-.62-.44-1.25-.05-.63-.09-1.1.14-1.47.33-.52.43-1.75,1.3-2.28.88-.53,1.26-1.17,1.69-1.15,0,0,.01,0,.02,0,.06.02.14.03.2.04.28.03.65.12.87.29.23.17.44.42.66.84s.41.28.47.63c.06.35.02.63.65.98.62.35,1.01.29,1.46.98.45.7.57.94.74,1.33.17.39.13.48.26.87.06.19.15.36.24.5-.19.15-.88.64-1.33.59-1.04-.11-2.71.69-3.3.61-.29-.04-2.45.56-2.71.42-.26-.14-.35,0-.43-.59ZM196.25,132.21c-.24.29-.39.47-.95.37s-.84-.62-.73-.98c.07-.24.26-.31.52-.35.56.03,1.48-.15,1.5-.04.02.13-.1.7-.34.99ZM196.79,136.5c.12-.12.29-.25.52-.27s.47-.12.58-.04.1.26.02.48-.18.19-.4.25-.28.11-.43.13-.29.02-.38-.13c-.04-.08-.03-.29.09-.42ZM197.81,135.7c-.07-.16.04-.24.06-.4s.01-.24.16-.21.19-.02.35.15.36.42.53.63.44.35.64.44.35.29.29.42-.09.24-.29.24c-.22,0-.34-.22-.62-.31s-.42-.06-.62-.34-.43-.44-.49-.6ZM204.78,128.07c.12-.08.37-.17.45-.16s.21.18.23.38c.03.2.03.44-.05.66-.08.23-.02.46-.18.44-.14-.02-.23-.17-.32-.34s-.31-.36-.38-.52c-.08-.16.14-.39.26-.47ZM198.51,124.32c.19-.23.35-.18.62-.4.27-.22.3-.23.37.13.07.35-.15.65-.23,1.03-.08.38-.2.57-.3.61-.1.04-.21-.24-.26-.44-.05-.2-.1-.19-.27-.42-.18-.23-.1-.28.08-.51ZM191.4,125.14c.05-.07.1-.13.14-.18.17-.05,1.92-.6,3.55-.53.53.02,1.56-.02,1.83.09.27.11.93.22,1.19.34.26.12.35-.02.47.56.12.59.41.73.56,1.32.15.59.43.59.51,1.22.08.63.1.81-.31.95-.41.14-.47.29-1.31.87-.04.03-.08.05-.11.08,0,0,0,0,0,0-.48.32-.63.3-1.66.42-.49.05-.81.2-1.12.34-.54.16-1.19.36-1.41.14-.01-.02-.03-.04-.05-.06h0c-.04-.08-.08-.13-.12-.15-.02-.03-.05-.06-.07-.09-.33-.41-.07-.59-.57-1.27-.49-.68-.59-.82-.96-1.35-.37-.54-.22-.46-.4-.77s-.3-.39-.33-.82c-.03-.43-.07-.77.16-1.11ZM190.02,125.99c.05-.1.02-.46.06-.55s.17-.23.44-.26c.27-.03.27.02.42.31.15.29.05.33.13.6.08.27.1.34-.02.45-.09.09-.07.04-.31.04-.24,0-.32-.08-.5-.16-.18-.08-.36-.03-.4-.14-.04-.11.12-.2.17-.3ZM186.12,125.62c.12-.19.19-.49.19-.49.25-.77.38-1.07.69-1.36.31-.29.59-.48.87-.37.29.1.43.27.51.45.08.18,0,.28.25.48.25.2.26.23.51.34.25.11.18.3.27.61.1.31.19.48-.05,1.02-.24.54-.14.5-.32.72-.18.22-.11.46-.27.62-.15.16-.11.4-.31.59-.2.19-.15.14-.31.43-.16.3-.14.41-.54.64-.39.23-.68.74-1.09.86s-.58-.04-.68-.16c-.1-.12-.14-.19-.25-.44-.11-.25-.31-.35-.34-.75-.04-.4-.15-.33-.13-.55.02-.21-.14-.4.04-.75.18-.35.18-.44.31-.81.13-.36.24-.3.47-.6s.06-.31.18-.5ZM181.4,124.57c1.61-.07,2.15-.76,2.81-.16s1.25,1.67,1.25,1.67l.14-.22c-.06.13-.16.28-.35.45-.54.51-.59,1.05-1.27,1.29-.68.24-1.34.43-2,.59-.66.16-.89.34-1.37.18-.48-.16-.57-.11-.77-.7-.05-.15-.12-.29-.19-.42,0-.02-.02-.04-.04-.07h0c-.1-.17-.21-.31-.29-.42-.21-.3-.42-.59-.42-.59-.58-.6.9-1.52,2.51-1.58ZM174.78,124.91c.36.16.45.16.82.27s.31.22.62.44.31.04.51.16.49.17.49.17c.79.21,1.09.33,1.39.62s.51.56.42.85-.25.44-.43.53-.28.01-.47.27-.21.27-.31.53-.29.19-.6.3-.47.21-1.02,0-.51-.11-.73-.28-.46-.09-.63-.24-.4-.09-.61-.28-.15-.15-.45-.29-.42-.12-.66-.51-.78-.64-.91-1.04.01-.58.12-.69.18-.15.43-.27.34-.33.73-.38.33-.17.54-.16.39-.16.75,0ZM173.13,120.17c.11-.02.26-.16.34-.09s.07.12.03.29c-.03.17-.07.25-.12.26-.08.01-.13.06-.22,0s-.28-.11-.28-.24.15-.2.26-.22ZM168.77,121.6c.28-.07.24-.26.62-.38s.84-.27,1.28-.46,1.21-.36,1.48-.36.69.33,1.01.48.34.39.53,1.06c.19.66.6,1.76.62,2s-.02.43-.4.76c0,0-.18.08-.31.13s-.37.19-.57.29-.35.22-.55.3-.72-.1-1.02-.37c-.3-.27-.24-.52-.7-.7s-.42-.31-.75-.47-.03-.13-.72-.66-.76-.73-.9-1.04c-.13-.31.11-.52.39-.58ZM166.28,120.29c.01-.17.01-.24.16-.21s.19-.02.35.15c.16.17.36.42.53.63s.44.35.64.44.35.29.29.42c-.06.12-.09.24-.29.24-.22,0-.34-.22-.62-.31-.28-.09-.42-.06-.62-.34s-.43-.44-.49-.6.04-.24.06-.4ZM165.2,121.49c.12-.12.29-.25.52-.27s.47-.12.58-.04.1.26.02.48c-.08.22-.18.19-.4.25-.22.06-.28.11-.43.13s-.29.02-.38-.13c-.04-.08-.03-.29.09-.42ZM169.63,128.34c-.04.24.05.46-.11.46-.15,0-.26-.13-.37-.28s-.36-.3-.46-.45.08-.4.18-.51.34-.22.42-.22.24.15.29.34.1.43.06.66ZM168.9,127.34c-.27.11-.19-.04-.53.22s-.39.25-.69.38-.35.33-.67.33-.69.25-.95.24-.79.11-1.31-.15c-.3-.15-.55-.29-.93-.8s-.67-1.29-.62-1.54.21-.49.12-.98.01-.43,0-.81.07-.36.09-.8.21-.25.28-.61.33-.38.57-.39.64-.07.81-.15.76-.31,1.11-.34c.35-.02.9-.1,1.33.18.43.28.79.24,1.06.66s.35.28.58.78.48.52,1.13,1.01,1.01,1.13.75,1.29-.4.3-.67.45-.51.39-.71.57-.48.33-.75.44ZM169.92,126.79c.21-.28.48-.3.79-.38s.36-.19.57-.17.16-.02.35,0c.19.02.09.11.29.25s.26.19.37.38.26.35.29.48.04.19-.21.18c-.11,0-.31-.08-.45-.02s-.11-.09-.26-.01c-.15.08-.09.02-.37.04-.28.02-.4.04-.65-.04s-.54-.05-.71-.11-.21-.33,0-.61ZM170.89,131.04c-.08-.39-.11-.64-.26-.85s-.33-.53-.44-.84-.19-.36-.19-.79.12-.64.45-.73.24.02.7-.02c.46-.04.56-.12,1.09.06s.79.34,1.17.39.73.1.93.28.19.02.44.26.7.73,1,1.09-.04.39-.17.71-.46.66-.8.76-.43.33-1.04.51c-.62.18-.93.61-1.17.78s-.62.34-.9.19c-.07-.04-.05-.07-.1-.23s-.06-.29-.28-.6c-.22-.3-.35-.57-.43-.97ZM165.41,136.15c.19-.28.59-.55.94-.58.35-.03.49-.23,1.13-.27.64-.04,1.04-.39,1.31-.51.27-.11.68-.2.92,0,.06.05.03.08.04.25.01.16,0,.3.15.64.15.34.22.63.21,1.04,0,.4-.03.65.07.89.1.24.21.59.25.91.04.32.11.39.02.81-.09.42-.26.6-.6.62-.34.02-.23-.07-.69-.13-.46-.05-.58,0-1.05-.29-.48-.29-.7-.5-1.06-.63-.36-.14-.69-.26-.85-.47-.16-.22-.18-.06-.37-.35-.19-.28-.52-.86-.74-1.28-.22-.42.13-.37.32-.66ZM163.58,136.2c.01-.27.07-.26.38-.37.31-.1.33,0,.62-.03.28-.03.35-.04.44.1.07.11.03.08-.01.31-.04.23-.14.3-.24.46s-.09.35-.21.37c-.12.02-.17-.15-.26-.22-.09-.07-.45-.1-.53-.15-.08-.05-.2-.2-.18-.48ZM165,141.88c-.32-.23-.41-.25-.74-.44s-.26-.29-.51-.56c-.25-.27-.3-.11-.46-.26s-.45-.27-.45-.27c-.72-.38-.99-.55-1.23-.9-.23-.35-.37-.66-.22-.92.15-.27.34-.37.53-.42.19-.05.28.05.52-.16.24-.21.27-.22.42-.45.15-.23.33-.12.65-.17.32-.04.51-.11,1,.22.49.33.47.22.65.43.18.21.43.19.56.37.13.18.38.17.53.4.16.23.11.17.38.38.26.21.38.21.54.64.16.43.62.79.66,1.22.05.42-.14.57-.27.64-.13.07-.21.1-.47.17-.27.07-.4.25-.8.22-.4-.03-.35.09-.56.04-.21-.06-.42.07-.74-.16ZM165.89,146.69c-.03.12-.19.17-.3.16s-.29.1-.35.02c-.06-.08-.04-.14.03-.29.07-.16.12-.23.18-.23.08,0,.14-.03.22.05.08.07.25.17.22.29ZM170.16,146.4c-.29,0-.29.2-.69.24-.4.04-.88.08-1.35.18-.47.09-1.26.09-1.53.03-.26-.06-.6-.47-.88-.69-.28-.22-.24-.46-.29-1.14-.04-.69-.2-1.85-.18-2.09s.11-.41.56-.66c0,0,.19-.04.34-.06.14-.03.4-.11.62-.16.22-.06.39-.14.6-.18.21-.03.68.25.92.58.24.33.12.56.53.83.41.27.34.4.63.62.3.23,0,.14.56.8s.59.88.65,1.21c.06.34-.22.48-.51.49ZM172.31,148.22c-.05.16-.06.23-.2.17s-.19-.02-.31-.22c-.12-.2-.26-.48-.38-.73-.12-.24-.35-.43-.53-.57-.18-.13-.28-.36-.2-.47.08-.11.14-.21.34-.17.22.05.28.29.54.44.26.15.39.14.53.46.14.32.32.52.36.69.03.17-.09.22-.14.38ZM173.06,147.43c-.22-.03-.49.02-.58-.08-.09-.1-.04-.27.08-.48.12-.2.22-.15.45-.15.23,0,.3-.05.45-.04.15,0,.29.04.34.21.03.09-.03.29-.18.39-.15.09-.34.18-.56.15ZM177.49,147.9c-.15.02,0,0-.06,0s-.56-.11-1.13-.31-.89-.16-1.31-.16-.82-.21-.67-.4h0c.08-.08.14-.14.33-.14.33,0,.58.07.96-.35h0c.25-.21.41-.11.57.08s.98.7,1.03.82.43.45.28.47ZM181.41,148.01c-.52-.25-.56.09-1.09-.22s-2.12.2-2.47,0-2.15-1.38-1.69-2.05h0c.16-.23.35-.43.76-.6.76-.33,1.44-.54,1.85-.65.41-.1,3-1.06,4.64-1.07.41,0,2.44.13,2.44.13l-.36-.61s.03.03.04.04c.16.26.33.56.43.78.21.46-.34.62-.29,1.12.05.52-.24.67-.25.95s-.09.65-.25.89-.39.46-.81.7-.26.43-.61.51c-.28.06-.51.06-.75.38-.38.3-1.08-.05-1.6-.3ZM182.41,151.34c-.02.39-.11.59-.2.65-.09.06-.25-.2-.33-.39s-.12-.17-.34-.37-.15-.26,0-.52.31-.24.55-.49.26-.27.38.07-.04.66-.07,1.06ZM189.1,154.19c-.04.24.05.46-.11.46-.15,0-.26-.13-.37-.28s-.36-.3-.46-.45.08-.4.18-.51.34-.22.42-.22.24.15.29.34.1.43.06.66ZM188.37,153.19c-.27.11-.19-.04-.53.22s-.39.25-.69.38-.35.33-.67.33-.69.25-.95.24-.79.11-1.31-.15c-.3-.15-.55-.29-.93-.8s-.67-1.29-.62-1.54.21-.49.12-.98.01-.43,0-.81.07-.36.09-.8.21-.25.28-.61.33-.38.57-.39.64-.07.81-.15.76-.31,1.11-.34.9-.1,1.33.18.79.24,1.06.66.35.28.58.78.48.52,1.13,1.01,1.01,1.13.75,1.29-.4.3-.67.45-.51.39-.71.57-.48.33-.75.44ZM189.39,152.64c.21-.28.48-.3.79-.38s.36-.19.57-.17.16-.02.35,0,.09.11.29.25.26.19.37.38.26.35.29.48.04.19-.21.18c-.11,0-.31-.08-.45-.02s-.11-.09-.26-.01-.09.02-.37.04-.4.04-.65-.04-.54-.05-.71-.11-.21-.33,0-.61ZM195.07,156.45c-.12.31-.46.66-.8.76s-.43.33-1.04.51-.93.61-1.17.78-.62.34-.9.19c-.07-.04-.05-.07-.1-.23s-.06-.29-.28-.6-.35-.57-.43-.97-.11-.64-.26-.85-.33-.53-.44-.84-.19-.36-.19-.79.12-.64.45-.73.24.02.7-.02.56-.12,1.09.06.79.34,1.17.39.73.1.93.28.19.02.44.26.7.73,1,1.09-.04.39-.17.71ZM196.56,156.44c-.28.17-.33.07-.6.16s-.34.11-.45,0c-.09-.09-.04-.07-.06-.3s.07-.33.13-.51.01-.36.12-.4.2.11.3.16.46,0,.55.03.24.16.28.43-.01.27-.29.44ZM194.25,150.76c.36.16.45.16.82.27s.31.22.62.44.31.04.51.16.49.17.49.17c.79.21,1.09.33,1.39.62s.51.56.42.85-.25.44-.43.53-.28.01-.47.27-.21.27-.31.53-.29.19-.6.3-.47.21-1.02,0-.51-.11-.73-.28-.46-.09-.63-.24-.4-.09-.61-.28-.15-.15-.45-.29-.42-.12-.66-.51-.78-.64-.91-1.04.01-.58.12-.69.18-.15.43-.27.34-.33.73-.38.33-.17.54-.16.39-.16.75,0ZM193.16,147.79c.19.66.6,1.76.62,2s-.02.43-.4.76c0,0-.18.08-.31.13s-.37.19-.57.29-.35.22-.55.3-.72-.1-1.02-.37-.24-.52-.7-.7-.42-.31-.75-.47-.03-.13-.72-.66-.76-.73-.9-1.04.11-.52.39-.58.24-.26.62-.38.84-.27,1.28-.46,1.21-.36,1.48-.36.69.33,1.01.48.34.39.53,1.06ZM192.34,146.25c0-.12.15-.2.26-.22s.26-.16.34-.09.07.12.03.29-.07.25-.12.26c-.08.01-.13.06-.22,0s-.28-.11-.28-.24ZM195.22,144.28c-.16.08-.26.16-.37.27h0s-.02.02-.07.07c-.05.05-.1.1-.16.16-.2.19-.49.42-.76.41-.46-.02-.82.36-1.25.47s-.54.28-1.03.26c-.18,0-.34.03-.5.09,0,0-.24.02-.33-.1-.09-.12-.08-1.28-.37-2.1-.29-.82.6-2.45,1.01-2.71.1-.05.25-.1.45-.14.52-.11.51-.38.79-.31s.46-.26.74-.18.34-.08.55.48.52.65.76,1.21.52.52.7,1.12.22.79-.16.99ZM201.22,143.35c-.04.24.05.46-.11.46-.15,0-.26-.13-.37-.28s-.36-.3-.46-.45.08-.4.18-.51.34-.22.42-.22.24.15.29.34.1.43.06.66ZM200.49,142.35c-.27.11-.19-.04-.53.22s-.39.25-.69.38-.35.33-.67.33-.69.25-.95.24-.79.11-1.31-.15c-.3-.15-.55-.29-.93-.8s-.67-1.29-.62-1.54.21-.49.12-.98.01-.43,0-.81.07-.36.09-.8c.02-.44.21-.25.28-.61s.33-.38.57-.39.64-.07.81-.15.76-.31,1.11-.34.9-.1,1.33.18.79.24,1.06.66.35.28.58.78c.24.49.48.52,1.13,1.01.65.49,1.01,1.13.75,1.29s-.4.3-.67.45-.51.39-.71.57-.48.33-.75.44ZM201.51,141.8c.21-.28.48-.3.79-.38s.36-.19.57-.17.16-.02.35,0,.09.11.29.25.26.19.37.38.26.35.29.48.04.19-.21.18c-.11,0-.31-.08-.45-.02s-.11-.09-.26-.01-.09.02-.37.04-.4.04-.65-.04-.54-.05-.71-.11c-.17-.06-.21-.33,0-.61ZM207.19,145.61c-.12.31-.46.66-.8.76s-.43.33-1.04.51-.93.61-1.17.78-.62.34-.9.19c-.07-.04-.05-.07-.1-.23s-.06-.29-.28-.6-.35-.57-.43-.97-.11-.64-.26-.85-.33-.53-.44-.84-.19-.36-.19-.79.12-.64.45-.73.24.02.7-.02.56-.12,1.09.06.79.34,1.17.39.73.1.93.28.19.02.44.26.7.73,1,1.09-.04.39-.17.71ZM208.68,145.6c-.28.17-.33.07-.6.16s-.34.11-.45,0c-.09-.09-.04-.07-.06-.3s.07-.33.13-.51.01-.36.12-.4.2.11.3.16.46,0,.55.03.24.16.28.43-.01.27-.29.44ZM206.37,139.92c.36.16.45.16.82.27s.31.22.62.44.31.04.51.16.49.17.49.17c.79.21,1.09.33,1.39.62s.51.56.42.85-.25.44-.43.53-.28.01-.47.27-.21.27-.31.53-.29.19-.6.3-.47.21-1.02,0-.51-.11-.73-.28-.46-.09-.63-.24-.4-.09-.61-.28-.15-.15-.45-.29-.42-.12-.66-.51-.78-.64-.91-1.04.01-.58.12-.69.18-.15.43-.27.34-.33.73-.38.33-.17.54-.16.39-.16.75,0ZM205.28,136.95c.19.66.6,1.76.62,2,.02.24-.02.43-.4.76,0,0-.18.08-.31.13s-.37.19-.57.29-.35.22-.55.3-.72-.1-1.02-.37-.24-.52-.7-.7-.42-.31-.75-.47c-.34-.16-.03-.13-.72-.66-.69-.53-.76-.73-.9-1.04s.11-.52.39-.58.24-.26.62-.38.84-.27,1.28-.46,1.21-.36,1.48-.36.69.33,1.01.48.34.39.53,1.06ZM210.95,132.13c-.17.29-.56.58-.91.63-.35.05-.47.25-1.11.33-.64.08-1.02.45-1.28.58-.17.09-.41.16-.62.15l-.06-.12s-.03.04-.08.1c-.05-.02-.1-.04-.15-.08-.07-.05-.04-.08-.06-.24-.02-.16,0-.3-.18-.63-.17-.34-.25-.62-.27-1.02-.02-.4,0-.65-.12-.88-.11-.23-.24-.58-.31-.9-.06-.32-.13-.39-.06-.81.07-.42.22-.61.56-.65.34-.04.23.06.69.09.46.03.57-.03,1.07.23.49.26.72.46,1.09.57.37.12.7.22.88.43.17.21.18.05.39.32.21.27.57.83.81,1.23s-.11.38-.28.67ZM212.41,132.36c-.3.12-.33.01-.61.06-.28.05-.35.06-.44-.07-.07-.1-.03-.07,0-.31.03-.23.12-.31.21-.48.1-.17.07-.35.19-.38.12-.03.18.14.27.2.09.06.45.07.54.12.08.05.21.19.21.47,0,.27-.05.26-.36.39ZM212.79,130.85c-.32.06-.5.14-1.01-.16-.51-.3-.48-.19-.68-.39-.2-.2-.44-.16-.58-.33-.14-.17-.39-.15-.55-.37-.17-.22-.12-.17-.4-.36-.28-.19-.39-.19-.57-.6-.18-.42-.66-.76-.73-1.18-.07-.42.1-.57.23-.66.13-.08.2-.12.46-.2.26-.08.38-.27.78-.26.4,0,.35-.11.56-.07.21.04.41-.09.74.12.33.21.42.23.77.4.35.17.27.27.54.53.27.26.3.09.47.24.17.14.46.24.46.24.74.34,1.02.49,1.28.83.25.34.41.63.27.91-.14.27-.31.39-.51.45-.19.06-.28-.03-.51.19-.23.22-.25.23-.39.47-.14.24-.32.14-.64.21Z"/>
        <g class="cls-14">
          <path class="cls-10" d="M189.42,131.41s.86-.69,1.38-.63c1.04.11,2.71-.69,3.3-.61.29.04,2.45-.56,2.71-.42.26.14.35,0,.43.59.09.59.37.75.49,1.35.12.6.39.62.44,1.25.05.63.09,1.1-.14,1.47-.33.52-.43,1.75-1.3,2.28-.88.53-1.26,1.17-1.69,1.15s.08.51.08.51c0,0,1.51-1.5,1.9-1.64.4-.13.95-1.77,1.38-1.99.47-.24.6-.67,1.14-.82.54-.16.36.07.94.03.57-.04.52.1,1.16.12.64.01.67.12.96.2.28.07.44.41.87.69s.51.72.57,1.07c.06.35.07.9.19,1.27.13.37-.04.6.06.99.1.39-.33,1.1-.65,1.4s-.42.4-.42.4l.09.5s.83-.44,1.2-.51c.37-.07.37-.06.83-.31.46-.26.59.03,1.34-.35.75-.38.9-.45,1.49-.72.59-.27.49-.15.83-.27.34-.12.43-.23.86-.19s.77.05,1.06.34c.29.28.28.49.53.68.25.19.36.33.67.7.31.37.35.45.49.68s.15.16.29.49.29.67.45,1.03c.16.36.08.65.08.65l.9-1.1c-1.79-1.14-1.17-1.04-1.53-1.31-.35-.27-.43-.3-.6-.65-.18-.35-.66-.65-.85-1.16-.19-.51-.1-1.14.19-1.35.29-.21.22-.33.52-.51.3-.18.45-.26.72-.59.27-.33.85-.27,1.19-.17.33.11.53.43.53.43l.26-.26s-.42-.88-1.17-1.48c-.76-.59-1.15-.87-1.64-1.38-.49-.51-.75-.34-1.17-.96-.42-.62-.94-.76-1.06-1.46-.12-.71-.2-1.39-.25-2.07-.05-.68-.19-.94.05-1.38.24-.44.21-.48.82-.65,1.77-.48,3.24-1.76,3.24-1.76l-.52-.17s-1.04,1.41-1.48,1.28c-.62-.18-.39.58-2.49.58-.44,0-.59.16-1.06.03-.48-.13-.82.11-1.62.24-.8.13-1.81.3-2.3.08-.48-.22-.35-.43-.82-.8-.47-.37-.33-.75-.67-1.14-.34-.39-.38-.82-.72-1.57-.34-.75-.42-.96-.42-.96l-.24.11s.07.2.18.7c.11.5.29.56.41,1.07.12.51.28.6.21.87-.07.27-.23.62-.43.81-.2.2-.48.37-.94.51-.46.14-.34.36-.7.36-.36,0-.63-.08-1.07.48s-.45.95-1.21,1.28c-.76.33-1.44.54-1.85.65-.41.1-3,1.06-4.64,1.07-.41,0-2.44-.13-2.44-.13l.64,1.08ZM203.86,134.26c-.09.22-.05.46-.21.43-.14-.03-.22-.19-.3-.35-.08-.17-.29-.37-.35-.54-.07-.16.16-.38.28-.46.12-.08.38-.15.45-.13.08.02.2.19.21.39.01.2,0,.44-.09.66ZM204.48,132.81c.27-.23.54-.19.85-.2.31-.01.39-.11.6-.04.2.07.16.01.34.07.18.06.06.13.23.3.17.17.21.24.28.45s.18.4.18.53,0,.2-.25.13c-.1-.03-.28-.15-.44-.11s-.09-.11-.25-.07-.09,0-.37-.04c-.28-.04-.4-.04-.63-.18-.22-.14-.52-.17-.67-.26-.15-.09-.14-.36.13-.59ZM209.21,137.74c-.19.28-.59.55-.94.58-.35.03-.49.23-1.13.27-.64.04-1.04.39-1.31.51-.27.11-.68.2-.92,0-.06-.05-.03-.08-.04-.25-.01-.16,0-.3-.15-.64-.15-.34-.22-.63-.21-1.04,0-.4.03-.65-.07-.89s-.21-.59-.25-.91-.11-.39-.02-.81c.09-.42.26-.6.6-.62.34-.02.23.07.69.13.46.05.58,0,1.05.29.48.29.7.5,1.06.63.36.14.69.26.85.47s.18.06.37.35c.19.28.52.86.74,1.28.22.42-.13.37-.32.66ZM210.67,138.05c-.31.1-.33,0-.62.03-.28.03-.35.04-.44-.1-.07-.11-.03-.08.01-.31.04-.23.14-.3.24-.46.1-.16.09-.35.21-.37.12-.02.17.15.26.22.09.07.45.1.53.15.08.05.2.2.18.48s-.07.26-.38.37ZM209.63,132.01c.32.23.41.25.74.44s.26.29.51.56c.25.27.3.11.46.26.16.15.45.27.45.27.72.38.99.55,1.23.9s.37.66.22.92-.34.37-.53.42-.28-.05-.52.16c-.24.21-.27.22-.42.45-.15.23-.33.12-.65.17s-.51.11-1-.22c-.49-.33-.47-.22-.65-.43-.18-.21-.43-.19-.56-.37-.13-.18-.38-.17-.53-.4-.16-.23-.11-.17-.38-.38-.26-.21-.38-.21-.54-.64s-.62-.79-.66-1.22c-.05-.42.14-.57.27-.64.13-.07.21-.1.47-.17.27-.07.4-.25.8-.22s.35-.09.56-.04c.21.06.42-.07.74.16ZM209.03,127.03c.11,0,.29-.1.35-.02.06.08.04.14-.03.29-.07.16-.12.23-.18.23-.08,0-.14.03-.22-.05-.08-.07-.25-.17-.22-.29.03-.12.19-.17.3-.16ZM204.47,127.49c.29,0,.29-.2.69-.24.4-.04.88-.08,1.35-.18s1.26-.09,1.53-.03c.26.06.6.47.88.69.28.22.24.46.29,1.14.04.69.2,1.85.18,2.09-.03.24-.11.41-.56.66,0,0-.19.04-.34.06-.14.03-.4.11-.62.16-.22.06-.39.14-.6.18-.21.03-.68-.25-.92-.58-.24-.33-.12-.56-.53-.83-.41-.27-.34-.4-.63-.62-.3-.23,0-.14-.56-.8-.56-.66-.59-.88-.65-1.21-.06-.34.22-.48.51-.49ZM202.32,125.67c.05-.16.06-.23.2-.17.14.05.19.02.31.22.12.2.26.48.38.73s.35.43.53.57.28.36.2.47c-.08.11-.14.21-.34.17-.22-.05-.28-.29-.54-.44s-.39-.14-.53-.46c-.14-.32-.32-.52-.36-.69-.03-.17.09-.22.14-.38ZM201.01,126.61c.15-.09.34-.18.56-.15.22.03.49-.02.58.08.09.1.04.27-.08.48-.12.2-.22.15-.45.15-.23,0-.3.05-.45.04-.15,0-.29-.04-.34-.21-.03-.09.03-.29.18-.39ZM198.07,130.62c.11-.23.31-.44.33-.93.02-.49.1-.41.17-.79s.14-.34.26-.76.26-.2.4-.53c.14-.34.4-.3.64-.26.24.04.64.07.82.03s.81-.14,1.16-.09c.34.05.9.09,1.26.46.36.37.72.4.89.87s.28.35.4.88c.12.53.36.61.89,1.23.53.62.74,1.32.46,1.42-.29.1-.46.21-.75.29-.29.08-.58.28-.81.41s-.54.21-.83.27c-.29.05-.18-.08-.56.11-.39.19-.44.16-.75.23-.31.07-.41.24-.73.17-.32-.07-.72.09-.98.03-.26-.07-.8-.07-1.25-.42-.26-.21-.48-.4-.74-.98-.26-.58-.38-1.41-.27-1.64ZM197.23,129.24c.2-.22.36-.16.64-.36.29-.2.31-.21.36.15.05.36-.19.64-.29,1.02-.11.38-.23.56-.34.59-.1.04-.2-.25-.23-.45-.04-.2-.08-.19-.25-.43-.17-.24-.09-.28.11-.5Z"/>
          <path class="cls-10" d="M183.09,148.92s-1.85.61-3.56.54c-.53-.02-1.56.02-1.83-.09-.27-.11-.93-.22-1.19-.34-.26-.12-.35.02-.47-.56-.12-.59-.41-.73-.56-1.32s-.43-.59-.51-1.22c-.08-.63-.1-.81.31-.95s.47-.29,1.31-.87.82-.74.82-.74l-.14-.08s-1.08,1.06-1.47,1.21c-.39.15-.41.46-.89.39-.48-.07-.86-.02-1.39.16-.53.19-.37-.05-.94.02-.57.07-.52-.07-1.16-.05-.64.02-.68-.09-.97-.14-.29-.06-.46-.38-.91-.64-.45-.25-.55-.69-.63-1.03-.08-.34-.12-.9-.26-1.26-.15-.36,0-.6-.11-.99-.12-.38.27-1.12.57-1.43.3-.32.4-.43.4-.43l-.11-.5s-.81.48-1.17.57c-.37.09-.37.08-.81.36-.44.28-.59,0-1.32.43-.73.42-.88.5-1.45.8-.57.31-.48.17-.81.31-.33.14-.42.25-.85.24-.43-.01-.77-.01-1.08-.28s-.31-.47-.57-.65c-.26-.18-.38-.31-.71-.66-.33-.35-.38-.42-.53-.65-.16-.23-.16-.15-.32-.47-.16-.32-.33-.66-.51-1-.18-.35-.11-.64-.11-.64l-.84,1.15c1.85,1.04,1.23.97,1.6,1.22.37.25.44.28.64.61.2.34.7.61.91,1.11s.16,1.13-.12,1.36c-.28.23-.2.34-.5.53-.29.19-.43.28-.68.63-.25.35-.84.32-1.18.23-.34-.09-.55-.4-.55-.4l-.25.28s.46.86,1.25,1.41c.79.55,1.2.81,1.72,1.29s.77.29,1.22.89c.45.6.98.7,1.14,1.4.16.7.28,1.38.36,2.05.09.67.24.93.03,1.38-.21.46-.17.55-.78.69-.61.14-1.19.58-1.19.58l.05.17s.63-.58,1.08-.49c.45.1.87-.22,1.31-.27.44-.04.58-.19,1.06-.09.48.1.81-.15,1.6-.33.79-.18,1.79-.41,2.29-.21.49.19.38.41.87.75s.37.73.73,1.1c.36.37.43.8.81,1.53.38.73.48.93.48.93l.24-.12s-.08-.2-.22-.68c-.14-.49-.32-.54-.47-1.04-.15-.5-.32-.59-.26-.86.06-.28.19-.63.38-.84.19-.21.46-.39.91-.56.45-.17.32-.38.68-.4.36-.02.63.04,1.04-.54s.4-.97,1.14-1.34c.74-.37.98-.58,1.4-.59,1.59-.04,2.89.18,3.42.18,1.2-.01,1.72.46,1.72.46l.88-1.2ZM169.22,144.93c.08-.23.02-.46.18-.44.14.02.23.17.32.34s.31.36.38.52c.08.16-.14.39-.26.47-.12.08-.37.17-.45.16-.08-.01-.21-.18-.23-.38-.03-.2-.03-.44.05-.66ZM168.69,146.42c-.26.24-.53.22-.84.25-.31.03-.39.13-.59.08-.21-.06-.16,0-.34-.06-.18-.05-.07-.13-.25-.29-.18-.17-.22-.23-.31-.44-.08-.21-.2-.38-.21-.52-.01-.14,0-.2.24-.14.1.02.29.13.45.09.15-.04.1.11.25.05.16-.05.09,0,.37.01.28.02.41.02.64.15.23.13.53.14.69.22.16.08.16.36-.1.6ZM163.68,141.75c.17-.29.56-.58.91-.63.35-.05.47-.25,1.11-.33.64-.08,1.02-.45,1.28-.58.26-.13.66-.24.92-.05.07.05.04.08.06.24.02.16,0,.3.18.63.17.34.25.62.27,1.02.02.4,0,.65.12.88.11.23.24.58.31.9.06.32.13.39.06.81-.07.42-.22.61-.56.65-.34.04-.23-.06-.69-.09-.46-.03-.57.03-1.07-.23-.49-.26-.72-.46-1.09-.57-.37-.12-.7-.22-.88-.43-.17-.21-.18-.05-.39-.32-.21-.27-.57-.83-.81-1.23s.11-.38.28-.67ZM162.21,141.53c.3-.12.33-.01.61-.06.28-.05.35-.06.44.07.07.1.03.07,0,.31s-.12.31-.21.48c-.1.17-.07.35-.19.38-.12.03-.18-.14-.27-.2-.09-.06-.45-.07-.54-.12-.08-.05-.21-.19-.21-.47,0-.27.05-.26.36-.39ZM163.59,147.5c-.33-.21-.42-.23-.77-.4s-.27-.27-.54-.53c-.27-.26-.3-.09-.47-.24-.17-.14-.46-.24-.46-.24-.74-.34-1.02-.49-1.28-.83-.25-.34-.41-.63-.27-.91.14-.27.31-.39.51-.45.19-.06.28.03.51-.19.23-.22.25-.23.39-.47.14-.24.32-.14.64-.21s.5-.14,1.01.16c.51.3.48.19.68.39.2.2.44.16.58.33s.39.15.55.37c.17.22.12.17.4.36s.39.19.57.6c.18.42.66.76.73,1.18.07.42-.1.57-.23.66-.13.08-.2.12-.46.2-.26.08-.38.27-.78.26-.4,0-.35.11-.56.07-.21-.04-.41.09-.74-.12ZM164.47,152.44c-.11,0-.28.11-.35.04-.07-.08-.05-.13.01-.29.06-.16.11-.24.16-.24.08,0,.14-.03.22.04.08.07.26.16.24.28-.02.12-.18.18-.29.18ZM169,151.72c-.29.02-.27.22-.67.28-.4.06-.87.13-1.34.25-.46.12-1.25.16-1.52.12s-.62-.43-.92-.64c-.3-.21-.27-.44-.35-1.13-.08-.68-.31-1.84-.29-2.07.02-.24.09-.42.52-.69,0,0,.19-.05.33-.08.14-.03.4-.13.61-.2.22-.07.38-.17.59-.21s.69.21.95.53c.26.31.15.55.58.8.43.25.36.38.67.59.31.21.01.14.6.77.59.63.64.84.72,1.17s-.19.49-.48.51ZM171.25,153.42c-.04.16-.05.23-.19.19-.14-.05-.19,0-.32-.2s-.29-.47-.42-.7c-.13-.24-.38-.41-.56-.53-.19-.12-.3-.34-.22-.46.08-.11.12-.22.33-.19.22.04.3.28.56.41s.4.12.56.43c.16.31.35.5.39.67.04.17-.08.23-.12.39ZM172.5,152.4c-.14.1-.33.2-.55.18-.23-.01-.49.05-.58-.05-.1-.1-.06-.27.05-.48.11-.21.21-.16.44-.18.23-.02.3-.07.44-.07.15,0,.29.03.36.19.03.08-.01.29-.15.4ZM175.21,148.24c-.09.24-.29.45-.28.95.01.49-.08.42-.13.8-.05.38-.12.34-.22.77-.09.43-.25.21-.37.55-.12.34-.38.33-.63.3-.25-.03-.64-.04-.82.02-.18.05-.8.19-1.15.16-.35-.03-.9-.04-1.28-.39s-.74-.36-.94-.82c-.2-.46-.3-.33-.45-.86-.15-.53-.39-.59-.96-1.18s-.82-1.28-.54-1.39c.28-.11.45-.24.74-.34.29-.1.56-.31.79-.45.23-.15.53-.25.81-.31.28-.07.18.07.56-.14.38-.21.43-.18.74-.27.31-.09.4-.27.72-.21.32.05.72-.14.98-.08.26.05.8.02,1.27.35.28.19.5.38.79.94.3.56.46,1.38.37,1.62ZM176.12,149.57c-.19.23-.35.18-.62.4-.27.22-.3.23-.37-.13-.07-.35.15-.65.23-1.03.08-.38.2-.57.3-.61.1-.04.21.24.26.44.05.2.1.19.27.42.18.23.1.28-.08.51Z"/>
          <path class="cls-10" d="M195.56,121.82s-.14.15-.66.26-.51.38-.79.31-.46.26-.74.18-.34.08-.55-.48-.52-.65-.76-1.21c-.25-.56-.52-.52-.7-1.12s-.22-.79.16-.99.42-.36,1.16-1.07.7-.86.7-.86l-.15-.06s-.9,1.21-1.26,1.43-.34.52-.82.53-.85.11-1.35.38-.37.01-.92.17-.53.01-1.16.13-.69.02-.98.01-.52-.3-1-.48-.65-.6-.79-.92-.26-.86-.46-1.2-.09-.6-.27-.95.09-1.15.34-1.51.33-.48.33-.48l-.19-.47s-.72.61-1.07.75-.35.13-.74.48-.58.1-1.24.63-.79.63-1.3,1.02-.45.25-.75.44-.37.31-.8.37-.76.11-1.11-.1c-.35-.21-.38-.42-.66-.55-.28-.13-.43-.25-.81-.54s-.44-.36-.63-.56-.18-.12-.39-.42-.43-.6-.66-.91-.21-.62-.21-.62l-.65,1.26c1.99.73,1.37.76,1.77.95s.48.2.73.51.79.49,1.08.95.34,1.09.1,1.36c-.24.27-.15.37-.4.61s-.38.35-.57.73-.78.45-1.12.42-.61-.3-.61-.3l-.2.31s.6.78,1.46,1.19c.86.42,1.31.61,1.9,1s.81.17,1.35.69,1.08.54,1.35,1.2.49,1.31.69,1.97.38.88.25,1.36-.08.57-.66.81-1.08.76-1.08.76l.08.16s.53-.67.99-.65.82-.36,1.25-.47.54-.28,1.03-.26.78-.28,1.53-.58,1.71-.69,2.22-.57.44.35.98.61.48.66.9.97-.73,1.33-.24,1.99.64,1.1.64,1.1l.34-.06s-.54-.83-.75-1.29.34-.62.29-1.12c-.05-.52.24-.67.25-.95s.09-.65.25-.89.39-.46.81-.7.26-.43.61-.51.63-.06.94-.7.24-1.02.91-1.51.91-.62,1.29-.81.49-.1.85-.3.86-.31.86-.31l-.17-.51ZM185.53,119.7c.04-.24-.05-.46.11-.46.15,0,.26.13.37.28s.36.3.46.45-.08.4-.18.51-.34.22-.42.22-.24-.15-.29-.34c-.06-.19-.1-.43-.06-.66ZM185.24,121.25c-.21.28-.48.3-.79.38-.3.08-.36.19-.57.17s-.16.02-.35,0-.09-.11-.29-.25c-.2-.13-.26-.19-.37-.38s-.26-.35-.29-.48-.04-.19.21-.18c.11,0,.31.08.45.02s.11.09.26.01.09-.02.37-.04.4-.04.65.04.54.05.71.11.21.33,0,.61ZM179.56,117.44c.12-.31.46-.66.8-.76s.43-.33,1.04-.51.93-.61,1.17-.78.62-.34.9-.19c.07.04.05.07.1.23s.06.29.28.6.35.57.43.97.11.64.26.85.33.53.44.84.19.36.19.79-.12.64-.45.73-.24-.02-.7.02-.56.12-1.09-.06-.79-.34-1.17-.39-.73-.1-.93-.28-.19-.02-.44-.26-.7-.73-1-1.09.04-.39.17-.71ZM178.07,117.45c.28-.17.33-.07.6-.16s.34-.11.45,0c.09.09.04.07.06.3s-.07.33-.13.51-.01.36-.12.4-.2-.11-.3-.16-.46,0-.55-.03-.24-.16-.28-.43.01-.27.29-.44ZM180.38,123.13c-.36-.16-.45-.16-.82-.27s-.31-.22-.62-.44-.31-.04-.51-.16-.49-.17-.49-.17c-.79-.21-1.09-.33-1.39-.62-.3-.29-.51-.56-.42-.85.09-.29.25-.44.43-.53s.28-.01.47-.27.21-.27.31-.53c.1-.26.29-.19.6-.3s.47-.21,1.02,0,.51.11.73.28.46.09.63.24.4.09.61.28.15.15.45.29.42.12.66.51c.25.38.78.64.91,1.04s-.01.58-.12.69-.18.15-.43.27-.34.33-.73.38-.33.17-.54.16-.39.16-.75,0ZM182.03,127.87c-.11.02-.26.16-.34.09s-.07-.12-.03-.29.07-.25.12-.26c.08-.01.13-.06.22,0s.28.11.28.24-.15.2-.26.22ZM186.39,126.44c-.28.07-.24.26-.62.38s-.84.27-1.28.46-1.21.36-1.48.36-.69-.33-1.01-.48-.34-.39-.53-1.06-.6-1.76-.62-2,.02-.43.4-.76c0,0,.18-.08.31-.13s.37-.19.57-.29.35-.22.55-.3.72.1,1.02.37.24.52.7.7.42.31.75.47.03.13.72.66.76.73.9,1.04-.11.52-.39.58ZM188.88,127.75c-.01.17-.01.24-.16.21s-.19.02-.35-.15-.36-.42-.53-.63-.44-.35-.64-.44-.35-.29-.29-.42.09-.24.29-.24c.22,0,.34.22.62.31s.42.06.62.34.43.44.49.6-.04.24-.06.4ZM189.96,126.55c-.12.12-.29.25-.52.27s-.47.12-.58.04-.1-.26-.02-.48.18-.19.4-.25.28-.11.43-.13.29-.02.38.13c.04.08.03.29-.09.42ZM191.97,122.01c-.06.25-.21.49-.12.98s-.01.43,0,.81-.07.36-.09.8-.21.25-.28.61-.33.38-.57.39-.64.07-.81.15-.76.31-1.11.34-.9.1-1.33-.18-.79-.24-1.06-.66-.35-.28-.58-.78-.48-.52-1.13-1.01-1.01-1.13-.75-1.29.4-.3.67-.45c.27-.15.51-.39.71-.57s.48-.33.75-.44.19.04.53-.22c.34-.27.39-.25.69-.38s.35-.33.67-.33.69-.25.95-.24.79-.11,1.31.15c.3.15.55.29.93.8.38.51.67,1.29.62,1.54ZM193.08,123.18c-.15.26-.31.24-.55.49s-.26.27-.38-.07.04-.66.07-1.06.11-.59.2-.65c.09-.06.25.2.33.39s.12.17.34.37.15.26,0,.52Z"/>
          <path class="cls-10" d="M215.03,147.67s-.14.15-.66.26-.51.38-.79.31-.46.26-.74.18-.34.08-.55-.48-.52-.65-.76-1.21-.52-.52-.7-1.12-.22-.79.16-.99.42-.36,1.16-1.07.7-.86.7-.86l-.15-.06s-.9,1.21-1.26,1.43-.34.52-.82.53-.85.11-1.35.38-.37.01-.92.17-.53.01-1.16.13-.69.02-.98.01-.52-.3-1-.48-.65-.6-.79-.92-.26-.86-.46-1.2-.09-.6-.27-.95.09-1.15.34-1.51.33-.48.33-.48l-.19-.47s-.72.61-1.07.75-.35.13-.74.48-.58.1-1.24.63-.79.63-1.3,1.02-.45.25-.75.44-.37.31-.8.37-.76.11-1.11-.1-.38-.42-.66-.55-.43-.25-.81-.54-.44-.36-.63-.56-.18-.12-.39-.42-.43-.6-.66-.91-.21-.62-.21-.62l-.65,1.26c1.99.73,1.37.76,1.77.95s.48.2.73.51.79.49,1.08.95.34,1.09.1,1.36-.15.37-.4.61-.38.35-.57.73-.65.49-.9.12c-.19-.29-.37-.4-.37-.4l.19.6s.22.84.72,1.4c.63.72,1.2.51,1.79.9s.81.17,1.35.69,1.08.54,1.35,1.2.49,1.31.69,1.97.38.88.25,1.36-.08.57-.66.81-1.08.76-1.08.76l.08.16s.53-.67.99-.65.82-.36,1.25-.47.54-.28,1.03-.26.78-.28,1.53-.58,1.71-.69,2.22-.57.44.35.98.61.48.66.9.97.55.72,1.04,1.38.62.84.62.84l.21-.16s-.11-.18-.33-.64-.4-.48-.63-.95-.4-.53-.39-.81.09-.65.25-.89.39-.46.81-.7.26-.43.61-.51.63-.06.94-.7.24-1.02.91-1.51.91-.62,1.29-.81.49-.1.85-.3.86-.31.86-.31l-.17-.51ZM205,145.55c.04-.24-.05-.46.11-.46.15,0,.26.13.37.28s.36.3.46.45-.08.4-.18.51-.34.22-.42.22-.24-.15-.29-.34-.1-.43-.06-.66ZM204.71,147.1c-.21.28-.48.3-.79.38s-.36.19-.57.17-.16.02-.35,0-.09-.11-.29-.25-.26-.19-.37-.38-.26-.35-.29-.48-.04-.19.21-.18c.11,0,.31.08.45.02s.11.09.26.01.09-.02.37-.04.4-.04.65.04.54.05.71.11.21.33,0,.61ZM199.02,143.29c.12-.31.46-.66.8-.76s.43-.33,1.04-.51.93-.61,1.17-.78.62-.34.9-.19c.07.04.05.07.1.23s.06.29.28.6.35.57.43.97.11.64.26.85.33.53.44.84.19.36.19.79-.12.64-.45.73-.24-.02-.7.02-.56.12-1.09-.06-.79-.34-1.17-.39-.73-.1-.93-.28-.19-.02-.44-.26-.7-.73-1-1.09.04-.39.17-.71ZM197.54,143.3c.28-.17.33-.07.6-.16s.34-.11.45,0c.09.09.04.07.06.3s-.07.33-.13.51-.01.36-.12.4-.2-.11-.3-.16-.46,0-.55-.03-.24-.16-.28-.43.01-.27.29-.44ZM199.85,148.98c-.36-.16-.45-.16-.82-.27s-.31-.22-.62-.44-.31-.04-.51-.16-.49-.17-.49-.17c-.79-.21-1.09-.33-1.39-.62s-.51-.56-.42-.85.25-.44.43-.53.28-.01.47-.27.21-.27.31-.53.29-.19.6-.3.47-.21,1.02,0,.51.11.73.28.46.09.63.24.4.09.61.28.15.15.45.29.42.12.66.51.78.64.91,1.04-.01.58-.12.69-.18.15-.43.27-.34.33-.73.38-.33.17-.54.16-.39.16-.75,0ZM201.5,153.71c-.11.02-.26.16-.34.09s-.07-.12-.03-.29.07-.25.12-.26c.08-.01.13-.06.22,0s.28.11.28.24-.15.2-.26.22ZM205.85,152.29c-.28.07-.24.26-.62.38s-.84.27-1.28.46-1.21.36-1.48.36-.69-.33-1.01-.48-.34-.39-.53-1.06-.6-1.76-.62-2,.02-.43.4-.76c0,0,.18-.08.31-.13s.37-.19.57-.29.35-.22.55-.3.72.1,1.02.37.24.52.7.7.42.31.75.47.03.13.72.66.76.73.9,1.04-.11.52-.39.58ZM208.35,153.6c-.01.17-.01.24-.16.21s-.19.02-.35-.15-.36-.42-.53-.63-.44-.35-.64-.44-.35-.29-.29-.42.09-.24.29-.24c.22,0,.34.22.62.31s.42.06.62.34.43.44.49.6-.04.24-.06.4ZM209.43,152.4c-.12.12-.29.25-.52.27s-.47.12-.58.04-.1-.26-.02-.48.18-.19.4-.25.28-.11.43-.13.29-.02.38.13c.04.08.03.29-.09.42ZM211.44,147.86c-.06.25-.21.49-.12.98s-.01.43,0,.81-.07.36-.09.8-.21.25-.28.61-.33.38-.57.39-.64.07-.81.15-.76.31-1.11.34-.9.1-1.33-.18-.79-.24-1.06-.66-.35-.28-.58-.78-.48-.52-1.13-1.01-1.01-1.13-.75-1.29.4-.3.67-.45.51-.39.71-.57.48-.33.75-.44.19.04.53-.22.39-.25.69-.38.35-.33.67-.33.69-.25.95-.24.79-.11,1.31.15c.3.15.55.29.93.8s.67,1.29.62,1.54ZM212.55,149.03c-.15.26-.31.24-.55.49s-.26.27-.38-.07.04-.66.07-1.06.11-.59.2-.65c.09-.06.25.2.33.39s.12.17.34.37.15.26,0,.52Z"/>
          <path class="cls-10" d="M188.93,131.14s.14.15.23.67c.09.52.36.52.27.8-.08.28.23.47.14.75-.09.28.06.34-.51.53-.57.18-.68.48-1.25.7-.57.22-.54.49-1.16.64-.61.15-.8.18-.98-.21s-.34-.43-1.01-1.21c-.67-.78-.83-.74-.83-.74l-.06.14s1.17.96,1.36,1.33.5.36.49.85c-.01.48.07.86.31,1.37.24.51,0,.37.12.93s-.02.53.08,1.16c.09.63-.01.69-.04.98s-.33.5-.53.97c-.2.47-.63.62-.96.74-.33.12-.88.21-1.22.4-.35.19-.6.06-.97.22-.37.16-1.14-.15-1.49-.41-.35-.26-.47-.35-.47-.35l-.48.17s.57.75.7,1.1c.13.36.12.35.45.76.33.41.07.59.57,1.27.49.68.59.82.96,1.35.37.54.22.46.4.77.18.31.3.39.33.82.03.43.07.77-.16,1.11-.23.34-.43.36-.58.63s-.27.41-.58.78-.38.42-.59.6-.13.17-.43.37c-.3.2-.62.4-.94.62-.33.22-.63.18-.63.18l1.23.71c.83-1.95.83-1.33,1.04-1.72.21-.39.23-.47.54-.7.32-.23.53-.76,1.01-1.03.47-.27,1.11-.28,1.36-.03.26.25.36.16.59.43.22.27.33.4.7.61.37.21.41.8.36,1.14-.05.35-.33.59-.33.59l.3.22s.8-.56,1.26-1.4.67-1.28,1.09-1.85c.42-.56.21-.8.75-1.31.54-.51.59-1.05,1.27-1.29.68-.24,1.34-.43,2-.59s.89-.34,1.37-.18c.48.16.57.11.77.7.21.6.71,1.12.71,1.12l.16-.07s-.65-.56-.6-1.02c.05-.46-.32-.84-.41-1.27-.09-.43-.25-.55-.21-1.05.05-.49-.24-.79-.51-1.56-.27-.77-.6-1.74-.46-2.25s.37-.42.65-.95c.29-.53.69-.45,1.01-.85.32-.4-.03-.52-.31-.54-.28-.03-.65-.12-.87-.29-.23-.17-.44-.42-.66-.84s-.41-.28-.47-.63c-.06-.35-.02-.63-.65-.98-.62-.35-1.01-.29-1.46-.98-.45-.7-.57-.94-.74-1.33-.17-.39-.13-.48-.26-.87-.19-.58-.62-.98-.62-.98l-.17.24ZM186.3,141.05c-.23-.06-.46.03-.45-.14,0-.15.15-.25.3-.36s.32-.34.47-.44c.15-.09.4.1.5.2.1.11.21.35.2.43,0,.08-.16.23-.35.27-.19.05-.43.08-.66.02ZM187.84,141.42c.27.23.28.5.34.8.06.31.17.37.14.58-.03.21.01.16-.02.35s-.12.08-.26.28c-.14.2-.2.25-.4.35-.2.1-.36.24-.5.27-.14.03-.19.03-.17-.22.01-.11.1-.3.04-.45-.06-.15.1-.11.02-.26s-.02-.09-.03-.37c0-.28-.02-.41.08-.65.1-.24.08-.54.14-.71.06-.17.34-.2.61.03ZM183.75,146.91c-.31-.14-.64-.49-.72-.83-.08-.34-.3-.44-.45-1.07-.15-.63-.56-.96-.72-1.21-.16-.24-.31-.63-.15-.91.04-.07.08-.05.23-.08.16-.04.29-.04.61-.25.31-.21.59-.32.99-.38s.65-.08.87-.22c.22-.14.55-.3.86-.4.31-.1.37-.17.79-.15.43.02.63.16.71.49.07.33-.03.23-.01.7.02.46.1.57-.11,1.09-.21.52-.38.77-.45,1.15-.08.38-.14.72-.33.92-.19.19-.03.19-.28.42-.25.23-.76.66-1.14.94-.37.28-.39-.06-.7-.2ZM183.69,148.39c-.15-.29-.05-.33-.13-.6-.08-.27-.1-.34.02-.45.09-.09.07-.04.31-.04.24,0,.32.08.5.16.18.08.36.03.4.14.04.11-.12.2-.17.3s-.02.46-.06.55-.17.23-.44.26c-.27.03-.27-.02-.42-.31ZM189.47,146.37c-.18.35-.18.44-.31.81-.13.36-.24.3-.47.6-.23.29-.06.31-.18.5-.12.19-.19.49-.19.49-.25.77-.38,1.07-.69,1.36-.31.29-.59.48-.87.37s-.43-.27-.51-.45,0-.28-.25-.48c-.25-.2-.26-.23-.51-.34-.25-.11-.18-.3-.27-.61-.1-.31-.19-.48.05-1.02.24-.54.14-.5.32-.72.18-.22.11-.46.27-.62.15-.16.11-.4.31-.59.2-.19.15-.14.31-.43.16-.3.14-.41.54-.64.39-.23.68-.74,1.09-.86.41-.11.58.04.68.16s.14.19.25.44c.11.25.31.35.34.75.04.4.15.33.13.55-.02.21.14.4-.04.75ZM194.28,144.96c.02.11.14.27.07.34-.07.08-.13.06-.29.02-.17-.04-.25-.08-.25-.14,0-.08-.05-.14.01-.22.06-.09.13-.27.25-.27.12,0,.19.16.21.27ZM193.08,140.54c.05.28.25.25.35.64.1.39.23.85.4,1.3s.3,1.23.28,1.5-.36.67-.53.99c-.17.32-.41.32-1.08.47-.67.16-1.79.51-2.03.52-.24.01-.43-.04-.74-.44,0,0-.07-.18-.12-.32-.05-.14-.17-.38-.26-.59s-.21-.36-.28-.56c-.07-.21.14-.71.42-1,.28-.29.53-.21.73-.66.2-.45.34-.4.51-.73.17-.33.14-.03.7-.68.56-.66.77-.73,1.09-.85.32-.12.51.14.56.42ZM194.52,138.11c.17.02.24.02.21.17-.03.14.01.19-.16.34-.18.15-.43.34-.65.5-.22.16-.37.42-.47.62-.1.2-.31.33-.43.27-.12-.06-.23-.1-.22-.3.01-.22.24-.33.35-.6.1-.28.08-.41.37-.6.29-.19.46-.4.62-.46.16-.06.23.06.4.08ZM193.37,136.98c.12.13.23.3.24.53.01.23.1.48.02.59-.08.11-.26.09-.48,0-.22-.09-.18-.19-.23-.42-.04-.23-.1-.29-.11-.43-.02-.15,0-.29.15-.37.08-.04.29-.02.41.11ZM188.94,134.74c.24.07.48.24.97.17.49-.07.43.03.81.04.38,0,.36.09.79.13.44.04.24.23.59.31.36.09.37.34.36.59,0,.25.04.64.11.82.07.17.28.78.28,1.13,0,.35.06.9-.25,1.31-.3.41-.28.77-.71,1.02-.44.25-.3.33-.8.54-.51.21-.54.46-1.07,1.08-.53.63-1.18.95-1.33.69-.14-.27-.28-.42-.41-.7-.13-.28-.37-.52-.54-.74-.17-.21-.3-.5-.4-.77s.05-.19-.2-.54-.23-.41-.35-.7c-.12-.3-.31-.36-.29-.69.02-.33-.21-.7-.19-.97s-.07-.8.21-1.31c.16-.3.32-.54.84-.89.52-.36,1.32-.61,1.57-.54ZM190.16,133.69c.25.16.22.33.47.57.25.25.26.27-.09.38-.34.11-.66-.08-1.05-.12-.39-.04-.59-.14-.64-.23-.05-.09.21-.24.41-.31.19-.07.17-.11.39-.32.21-.2.27-.13.52.03Z"/>
          <path class="cls-10" d="M184.44,133.1c-.22-.71-.03-1.46,0-2.2s-.22-1.29-.28-1.58-.06-1.55.09-1.76c.13-.2-.08.01-.21,0s-.49.32-.49.32c0,0,.24-.02.33.1s.08,1.28.37,2.1c.29.82-.6,2.45-1.01,2.71-.1.05-.25.1-.45.14-.52.11-.51.38-.79.31s-.46.26-.74.18-.34.08-.55-.48-.52-.65-.76-1.21-.52-.52-.7-1.12-.22-.79.16-.99c.31-.16.39-.3.8-.71-.02-.03-.05-.06-.07-.09-.11.11-.21.2-.28.24-.36.21-.34.52-.82.53s-.85.11-1.35.38-.37.01-.92.17c-.55.16-.53.01-1.16.13s-.69.02-.98.01-.52-.3-1-.48-.65-.6-.79-.92-.26-.86-.46-1.2-.09-.6-.27-.95.09-1.15.34-1.51,2.43-1.91,2.43-1.91l-.19-.47s-2.82,2.03-3.17,2.18c-.35.15-.35.13-.74.48s-.58.1-1.24.63-.79.63-1.3,1.02-.45.25-.75.44-.37.31-.8.37-.76.11-1.11-.1-.38-.42-.66-.55-.43-.25-.81-.54-.44-.36-.63-.56-.18-.12-.39-.42-.43-.6-.66-.91-.21-.62-.21-.62l-.65,1.26c1.99.73,1.37.76,1.77.95s.48.2.73.51.79.49,1.08.95.34,1.09.1,1.36-.15.37-.4.61-.38.35-.57.73-.78.45-1.12.42-.61-.3-.61-.3l-.2.31s.6.78,1.46,1.19,1.31.61,1.9,1,.81.17,1.35.69,1.08.54,1.35,1.2.49,1.31.69,1.97.38.88.25,1.36-.08.57-.66.81-1.08.76-1.08.76l.08.16s.53-.67.99-.65.82-.36,1.25-.47.54-.28,1.03-.26.78-.28,1.53-.58,1.71-.69,2.22-.57.44.35.98.61.48.66.9.97.55.72,1.04,1.38.62.84.62.84l.21-.16s-.11-.18-.33-.64-.4-.48-.63-.95c-.22-.47-.4-.53-.39-.81s.09-.65.25-.89c.16-.24.39-.46.81-.7s.26-.43.61-.51.63-.06.94-.7.24-1.02.91-1.51.91-.62,1.29-.81.49-.1.85-.3c.14-.08.31-.15.46-.2.01,0,.02,0,.04-.01h0s.08-.02.11-.03c.31-.08.5.04.69.2l.42.29.41.31s-.21-.24-.43-.94ZM173.41,130.54c.04-.24-.05-.46.11-.46.15,0,.26.13.37.28s.36.3.46.45-.08.4-.18.51-.34.22-.42.22-.24-.15-.29-.34-.1-.43-.06-.66ZM173.12,132.09c-.21.28-.48.3-.79.38s-.36.19-.57.17-.16.02-.35,0c-.19-.02-.09-.11-.29-.25s-.26-.19-.37-.38-.26-.35-.29-.48-.04-.19.21-.18c.11,0,.31.08.45.02s.11.09.26.01c.15-.08.09-.02.37-.04.28-.02.4-.04.65.04s.54.05.71.11.21.33,0,.61ZM167.44,128.28c.12-.31.46-.66.8-.76s.43-.33,1.04-.51.93-.61,1.17-.78.62-.34.9-.19c.07.04.05.07.1.23s.06.29.28.6c.22.3.35.57.43.97s.11.64.26.85.33.53.44.84.19.36.19.79-.12.64-.45.73-.24-.02-.7.02c-.46.04-.56.12-1.09-.06s-.79-.34-1.17-.39-.73-.1-.93-.28-.19-.02-.44-.26-.7-.73-1-1.09.04-.39.17-.71ZM165.95,128.29c.28-.17.33-.07.6-.16s.34-.11.45,0c.09.09.04.07.06.3s-.07.33-.13.51-.01.36-.12.4-.2-.11-.3-.16-.46,0-.55-.03-.24-.16-.28-.43.01-.27.29-.44ZM168.26,133.97c-.36-.16-.45-.16-.82-.27s-.31-.22-.62-.44-.31-.04-.51-.16-.49-.17-.49-.17c-.79-.21-1.09-.33-1.39-.62s-.51-.56-.42-.85.25-.44.43-.53.28-.01.47-.27.21-.27.31-.53.29-.19.6-.3.47-.21,1.02,0,.51.11.73.28.46.09.63.24.4.09.61.28.15.15.45.29.42.12.66.51.78.64.91,1.04-.01.58-.12.69-.18.15-.43.27-.34.33-.73.38-.33.17-.54.16-.39.16-.75,0ZM169.91,138.71c-.11.02-.26.16-.34.09s-.07-.12-.03-.29.07-.25.12-.26c.08-.01.13-.06.22,0s.28.11.28.24-.15.2-.26.22ZM174.27,137.28c-.28.07-.24.26-.62.38s-.84.27-1.28.46-1.21.36-1.48.36-.69-.33-1.01-.48-.34-.39-.53-1.06-.6-1.76-.62-2,.02-.43.4-.76c0,0,.18-.08.31-.13s.37-.19.57-.29.35-.22.55-.3.72.1,1.02.37c.3.27.24.52.7.7s.42.31.75.47.03.13.72.66.76.73.9,1.04-.11.52-.39.58ZM176.76,138.59c-.01.17-.01.24-.16.21s-.19.02-.35-.15-.36-.42-.53-.63-.44-.35-.64-.44-.35-.29-.29-.42.09-.24.29-.24c.22,0,.34.22.62.31s.42.06.62.34.43.44.49.6-.04.24-.06.4ZM177.84,137.39c-.12.12-.29.25-.52.27-.22.02-.47.12-.58.04s-.1-.26-.02-.48.18-.19.4-.25c.22-.06.28-.11.43-.13.15-.02.29-.02.38.13.04.08.03.29-.09.42ZM179.85,132.85c-.06.25-.21.49-.12.98s-.01.43,0,.81-.07.36-.09.8-.21.25-.28.61-.33.38-.57.39-.64.07-.81.15-.76.31-1.11.34-.9.1-1.33-.18-.79-.24-1.06-.66-.35-.28-.58-.78-.48-.52-1.13-1.01-1.01-1.13-.75-1.29.4-.3.67-.45.51-.39.71-.57.48-.33.75-.44.19.04.53-.22.39-.25.69-.38.35-.33.67-.33.69-.25.95-.24.79-.11,1.31.15c.3.15.55.29.93.8s.67,1.29.62,1.54ZM180.96,134.02c-.15.26-.31.24-.55.49s-.26.27-.38-.07.04-.66.07-1.06.11-.59.2-.65c.09-.06.25.2.33.39s.12.17.34.37.15.26,0,.52Z"/>
          <path class="cls-10" d="M195.73,147.74c.58.6-.9,1.52-2.51,1.58s-2.15.76-2.81.16-1.25-1.67-1.25-1.67l-.39.62s.45.21,1.04.63.74.73.92.84.45.79.46.83.4-.04.38-.07-.27-.51-.18-.65.6-.45.91-.47,1.48-.15,2.07-.3,1.22-.39,1.76-.69.92-.35,1.32-.19c.41.16-.12-.29-.23-.25s-1.65-1.02-1.65-1.02c0,0-.81-.72-.57-.37s.71,1.01.71,1.01Z"/>
          <path class="cls-10" d="M180.94,141.77c-.53-1.19-2.38-.29-2.76-.97,0,0-.54-.32-.39.06.16.38.35.64.16,1.21s-.39.97-1.11,1.63c-.72.67-.61.65-.13.32.48-.32.63-.3,1.66-.42.49-.05.81-.2,1.12-.34.59-.18,1.29-.39,1.45-.07.26.52.53-.22,0-1.41ZM178.04,142.67c-.02-.13.1-.7.34-.99s.39-.47.95-.37.84.62.73.98c-.07.24-.26.31-.52.35-.56-.03-1.48.15-1.5.04Z"/>
          <path class="cls-10" d="M198.47,128.15c.45-.67-1.34-1.85-1.69-2.05s-1.94.31-2.47,0-.57.02-1.09-.22-1.22-.59-1.6-.3c-.38.3.01-.43.1-.38s.61-1.7.52-.96c-.09.74,1.03,1.49,1.46,1.51s.85.44,1.19.35,1.64-.43,2.27-.27,1.36.47,2.17.45,1.24.37,1.78.2l-.36.22s-.59.35-.44.16-.24-.4-.67-.4-.74.04-1.31-.16-1.08-.31-1.13-.31.09-.02-.06,0,.22.35.28.47.88.63,1.03.82.32.29.57.08c.25-.21.09.32.03.3s-.48.61-.48.61l-.1-.11Z"/>
        </g>
        <rect id="SVGID" class="cls-1" x="163.76" y="125.14" width="48.9" height="26.16"/>
      </g>
      <g class="cls-8">
        <circle class="cls-11" cx="188.8" cy="138.81" r="12.6"/>
      </g>
      <circle class="cls-3" cx="188.75" cy="138.8" r="13.33"/>
    </g>
    <g id="units">
      <polygon id="_263" data-name="263" class="cls-6" points="131.86 270.94 131.86 273.44 119.84 273.36 119.84 271.96 119.84 233.31 119.84 231.55 142.55 231.64 142.55 270.94 131.86 270.94"/>
      <polygon id="_265" data-name="265" class="cls-6" points="154.25 270.85 154.25 273.29 165.82 273.21 165.82 271.66 165.82 233.18 165.82 231.42 142.59 231.51 142.59 270.85 154.25 270.85"/>
      <polygon id="_271" data-name="271" class="cls-6" points="223.94 270.38 223.94 273.42 211.73 273.34 211.73 271.96 211.73 233.31 211.73 231.55 234.44 231.64 234.44 270.38 223.94 270.38"/>
      <polygon id="_273" data-name="273" class="cls-6" points="244.43 270.34 244.43 273.51 257.37 273.51 257.37 271.75 257.37 233.26 257.37 231.51 234.53 231.51 234.53 270.34 244.43 270.34"/>
      <polygon id="_275" data-name="275" class="cls-6" points="267.32 266.22 267.32 268.45 280.39 268.45 280.39 266.9 280.39 232.89 280.39 231.33 257.5 231.33 257.5 266.22 267.32 266.22"/>
      <polygon id="_277" data-name="277" class="cls-6" points="293.29 265.79 293.29 268.61 280.34 268.61 280.34 267.06 280.34 233.05 280.34 231.5 303.06 231.5 303.06 265.79 293.29 265.79"/>
      <polygon id="_279" data-name="279" class="cls-6" points="321.4 236.82 321.4 231.5 303.15 231.5 303.15 232.93 303.15 264.4 303.15 265.84 325.86 265.84 325.86 236.82 321.4 236.82"/>
      <polygon id="_201" data-name="201" class="cls-6" points="364.82 253.24 363.54 253.24 363.49 230.22 352.75 230.09 326.8 230.09 326.8 224.99 321.4 224.99 321.4 236.78 325.95 236.78 325.95 264.45 326.38 265.95 350.81 265.95 350.81 267.08 358.69 267.12 364.86 261.08 364.82 253.24"/>
      <polygon id="_233" data-name="233" class="cls-6" points="164.62 10.83 164.62 9.28 177.65 9.28 177.65 10.83 177.65 44.84 177.65 46.4 142.51 46.4 142.51 10.83 164.62 10.83"/>
      <polygon id="_235" data-name="235" class="cls-6" points="133.41 10.91 133.41 8.85 119.92 8.85 119.92 10.41 119.92 44.5 119.92 46.05 142.68 46.05 142.68 10.91 133.41 10.91"/>
      <polygon id="_237" data-name="237" class="cls-6" points="106.93 10.82 106.93 8.89 119.84 8.89 119.84 10.83 119.84 44.84 119.84 46.05 97.12 46.05 97.12 10.82 106.93 10.82"/>
      <polygon id="_239" data-name="239" class="cls-6" points="87.22 10.78 87.22 9.28 73.85 9.28 73.85 10.83 73.85 44.84 73.85 46.05 97.08 46.05 97.08 10.78 87.22 10.78"/>
      <polygon id="_241" data-name="241" class="cls-6" points="39.99 12.21 51.27 12.21 51.27 10.62 61.75 10.62 61.75 9.36 73.85 9.36 73.85 46.05 51.83 46.05 51.83 38.47 43.71 38.47 39.99 34.71 39.99 12.21"/>
      <polygon id="_243" data-name="243" class="cls-6" points="11.22 10.73 4.89 16.81 4.89 25.22 6.36 25.22 6.36 47.04 42.3 47.04 46.96 50.6 51.72 46.1 51.72 38.57 43.65 38.57 39.92 34.78 39.92 12.09 18.91 12.01 18.91 10.56 11.44 10.64 11.22 10.73"/>
      <path id="_245" data-name="245" class="cls-6" d="M6.22,46.91l36.09.13,4.76,3.51.34,15.82-33.52,6.13-5.06-24.86h-2.6s0-.72,0-.73Z"/>
      <polygon id="_247" data-name="247" class="cls-6" points="47.4 66.37 51.73 88.78 20.82 94.66 16.16 95.6 13.67 82.87 15.9 82.44 13.89 72.5 47.4 66.37"/>
      <polygon id="_249" data-name="249" class="cls-6" points="56.32 111.03 51.77 88.78 16.12 95.51 18.99 109.74 21.26 109.44 22.93 117.69 56.32 111.03"/>
      <polygon id="_251" data-name="251" class="cls-6" points="56.24 111.04 60.71 133.4 28.93 139.75 24.03 140.72 21.65 127.63 24.99 126.84 23 117.67 56.24 111.04"/>
      <polygon id="_253" data-name="253" class="cls-6" points="67.31 167.15 60.69 133.4 24.04 140.73 28.61 164 31.05 163.43 32.96 173.58 67.31 167.15"/>
      <polygon id="_206" data-name="206" class="cls-6" points="320.57 98.02 310.58 98.06 310.58 101.64 311.42 101.62 311.42 110.23 296.7 110.23 296.57 92.96 288.02 84.54 308.52 63.71 314.7 69.69 313.54 70.78 319 76.44 320.55 76.46 320.57 98.02"/>
      <polygon id="_208" data-name="208" class="cls-6" points="274.97 51.11 274.97 61.52 262.51 61.52 262.51 75.8 279.62 75.8 288.19 84.33 308.46 63.78 295.8 51.11 274.97 51.11"/>
      <path id="_210" data-name="210" class="cls-6" d="M228.04,52.14h28.8v25.37h-28.84s-.08-25.37.04-25.37Z"/>
      <path id="_212" data-name="212" class="cls-6" d="M199.11,52.14h28.8v25.37h-28.84s-.08-25.37.04-25.37Z"/>
      <path id="_214" data-name="214" class="cls-6" d="M149.74,52.14h28.8v25.37h-28.84s-.08-25.37.04-25.37Z"/>
      <path id="_216" data-name="216" class="cls-6" d="M119.96,52.14h29.25v25.37h-29.29s-.09-25.37.04-25.37Z"/>
      <polygon id="_218" data-name="218" class="cls-6" points="120.03 75.99 101.32 75.99 92.26 85.05 71.43 64.35 83.83 52.14 120.03 52.14 120.03 75.99"/>
      <polygon id="_220" data-name="220" class="cls-6" points="56.7 83.06 65.58 81.71 64.29 72.07 71.43 64.35 92.26 85.05 84.48 92.9 87.43 111.54 72.71 114.31 69.88 101.32 60.75 103.18 56.7 83.06"/>
      <polygon id="_222" data-name="222" class="cls-6" points="97.46 160.47 73.29 165.55 64.64 120.7 88.14 116.62 97.46 160.47"/>
      <polygon id="_224" data-name="224" class="cls-6" points="73.93 170.39 97.59 165.59 100.98 183.42 109.68 192.42 94.42 207.68 87.99 200.99 79.93 202.19 73.93 170.39"/>
      <polygon id="_226" data-name="226" class="cls-6" points="137.19 200.75 137.19 215.33 124.42 215.41 124.42 225.33 99.05 225.61 96.03 222.48 102.67 215.93 94.46 207.57 109.93 192.16 118.59 200.65 137.19 200.75"/>
      <polygon id="_228" data-name="228" class="cls-6" points="142.34 225.01 142.34 191.39 179.24 191.29 179.24 214.24 166.38 214.34 166.38 224.88 142.34 225.01"/>
      <path id="_203" data-name="203" class="cls-6" d="M326.93,207.59h38.83v22.37h-38.87s.17-22.37.04-22.37Z"/>
      <path id="_205" data-name="205" class="cls-6" d="M326.93,184.1h38.83v23.44h-38.87s.17-23.44.04-23.44Z"/>
      <polygon id="_207" data-name="207" class="cls-6" points="363.49 161.64 361.01 161.64 329.42 161.64 326.93 161.64 326.93 184.1 361.01 184.1 361.01 174.97 363.49 174.97 363.49 161.64"/>
      <polygon id="_209" data-name="209" class="cls-6" points="363.49 161.73 361.01 161.73 329.42 161.73 326.93 161.73 326.93 138.67 361.01 138.67 360.87 148.18 363.36 148.18 363.49 161.73"/>
      <polygon id="_211" data-name="211" class="cls-6" points="363.49 115.72 361.01 115.72 329.42 115.72 326.93 115.72 326.93 138.67 361.01 138.67 361.01 129.34 363.49 129.34 363.49 115.72"/>
      <polygon id="_215" data-name="215" class="cls-6" points="363.49 115.72 361.01 115.72 329.42 115.72 326.93 115.72 326.93 93.09 361.01 93.09 360.87 102.42 363.36 102.42 363.49 115.72"/>
      <polygon id="_217" data-name="217" class="cls-6" points="363.49 69.82 361.01 69.82 329.42 69.82 326.93 69.82 326.93 93.09 361.01 93.09 361.01 83.63 363.49 83.63 363.49 69.82"/>
      <path id="_219" data-name="219" class="cls-6" d="M326.87,50.98h11.49v-4.44h22.57v10.74h2.61v12.54h-36.69s-.06-18.92.02-18.84Z"/>
      <polygon id="_221" data-name="221" class="cls-6" points="359.89 9.43 365.74 15.65 365.74 23.21 364.6 23.35 364.6 46.72 338.42 46.57 338.36 50.98 326.87 50.98 326.85 47.25 325.95 47.25 325.93 10.84 331.19 10.81 351.66 10.74 351.66 9.26 359.67 9.33 359.89 9.43"/>
      <polygon id="_223" data-name="223" class="cls-6" points="316.63 10.6 316.63 9.44 303.06 9.44 303.06 10.99 303.06 45 303.06 46.56 325.95 46.56 325.95 10.6 316.63 10.6"/>
      <polygon id="_225" data-name="225" class="cls-6" points="289.43 10.44 289.43 9.28 303.1 9.28 303.1 10.83 303.1 44.84 303.1 46.4 280 46.4 280 10.44 289.43 10.44"/>
      <polygon id="_227" data-name="227" class="cls-6" points="270.02 10.44 270.02 9.28 257.5 9.28 257.5 10.83 257.5 44.84 257.5 46.4 280.09 46.4 280.09 10.44 270.02 10.44"/>
      <polygon id="_229" data-name="229" class="cls-6" points="244.13 10.44 244.13 9.28 257.41 9.28 257.41 10.83 257.41 44.84 257.41 46.4 234.31 46.4 234.31 10.44 244.13 10.44"/>
      <polygon id="_231" data-name="231" class="cls-6" points="212.76 10.83 212.76 9.28 199.08 9.28 199.08 10.83 199.08 44.84 199.08 46.4 234.23 46.4 234.23 10.83 212.76 10.83"/>
    </g>
    <g id="_1st_Floor_Linework" data-name="1st Floor Linework">
      <line class="cls-2" x1="73.93" y1="9.32" x2="73.93" y2="46.1"/>
      <line class="cls-2" x1="119.96" y1="8.94" x2="119.96" y2="46.1"/>
      <line class="cls-2" x1="97.08" y1="11.12" x2="97.08" y2="46.1"/>
      <line class="cls-2" x1="142.59" y1="11.12" x2="142.59" y2="46.1"/>
      <rect class="cls-2" x="149.15" y="52.14" width="28.74" height="25.2"/>
      <rect class="cls-2" x="199.23" y="52.14" width="28.74" height="25.2"/>
      <polyline class="cls-2" points="227.91 52.14 256.84 52.14 256.84 77.34 227.91 77.34"/>
      <rect class="cls-2" x="119.96" y="52.14" width="29.19" height="25.2"/>
      <polygon class="cls-2" points="71.49 64.35 83.83 52.14 119.96 52.14 119.96 76.05 101.19 76.05 92.32 85.05 71.49 64.35"/>
      <path class="cls-2" d="M234.27,10.69v35.79h-35.1V9.41h13.37v1.29h31.63v-1.54h25.89v1.37h19.31v-1.2h27.26v1.37h35.04v-1.37h8.14l5.91,6.09v7.8h-1.2v23.98h-3.51v10.22h2.4v26.21h-2.4v18.79h2.31v27.07h-2.31v18.77h2.23v26.76h-2.23v9.18h4.63v46.29h-2.14v22.8h1.46v7.71l-6.26,6.26h-7.89v-1.37h-57.52v2.59l-26.17.06.02-2.57h-9.63s0,7.54,0,7.54l-12.86.04v-3.21h-20.64v2.96h-12.89v-4.63h-9.39v5.01h-26.1v-5.27h-9.77v4.89h-11.7v-2.44h-22.37v2.57h-12.09v1.03h-60.69v-4.63h-7.46l-6.43-6.43v-8.49l-6.3,2.06-13.76-70.59,10.29-2.19-4.2-20.74-2.4.6-7.2-36.43,2.14-.43,1.33-.34-3.64-17.53-2.36.43-5.31-26.87,2.27-.39-7.16-34.84h-2.79v-21.11h-1.29s.13-9.66.09-9.66l6.47-6.26h7.54v1.54h32.23v-1.63h10.5v-1.2h25.46v1.5h19.89v-1.89h26.59v1.97h31.14v-1.46h13.16v21.99s0,14.66,0,14.66H51.82v-7.59h-8.23l-3.6-3.6V12.11"/>
      <polyline class="cls-2" points="234.27 46.48 257.54 46.48 257.54 9.19"/>
      <polyline class="cls-2" points="257.54 46.48 280.04 46.48 280.04 10.61"/>
      <polyline class="cls-2" points="279.53 46.48 303.06 46.48 303.06 9.32"/>
      <polyline class="cls-2" points="303.15 46.48 325.95 46.48 325.95 10.7"/>
      <polyline class="cls-2" points="364.41 46.61 338.42 46.61 338.42 51.02 326.89 51.02 326.89 47.29 325.95 47.29 325.95 45.92"/>
      <polyline class="cls-2" points="326.89 51.11 326.89 69.84 363.34 69.84"/>
      <polyline class="cls-2" points="326.89 70.05 326.89 93.11 361.15 93.11"/>
      <polyline class="cls-2" points="326.89 93.11 326.89 115.74 363.4 115.74"/>
      <polyline class="cls-2" points="326.89 116.09 326.89 138.72 361.18 138.72"/>
      <polyline class="cls-2" points="326.89 139.1 326.89 161.73 363.36 161.73"/>
      <polyline class="cls-2" points="326.89 161.52 326.89 184.15 361.27 184.15"/>
      <polyline class="cls-2" points="326.89 184.34 326.89 207.55 365.81 207.55"/>
      <polyline class="cls-2" points="326.89 206.9 326.89 230.11 365.84 230.11"/>
      <path class="cls-2" d="M142.63,270.85v-39.28h-22.79v41.98h11.96v-2.64s10.89-.04,10.83-.06Z"/>
      <polyline class="cls-2" points="211.73 273.68 211.73 231.57 234.52 231.57 234.52 270.34"/>
      <polygon class="cls-2" points="142.44 231.57 165.81 231.57 165.81 267.81 165.81 273.29 154.17 273.29 154.17 270.85 142.63 270.85 142.44 231.57"/>
      <polygon class="cls-2" points="257.39 231.57 280.76 231.57 280.76 263.68 280.76 268.54 267.38 268.54 267.38 266.37 257.58 266.37 257.39 231.57"/>
      <polygon class="cls-2" points="303.2 231.57 280.24 231.57 280.24 263.68 280.24 268.54 293.21 268.54 293.21 265.9 303.02 265.9 303.2 231.57"/>
      <polygon class="cls-2" points="326.02 265.9 303.06 265.9 303.06 236.43 303.06 231.57 321.45 231.57 321.45 236.78 325.84 236.78 326.02 265.9"/>
      <polyline class="cls-2" points="234.52 231.57 257.46 231.57 257.46 272.97"/>
      <polyline class="cls-2" points="257.28 231.49 280.22 231.49 280.22 278.95"/>
      <polyline class="cls-2" points="280.1 231.49 303.04 231.49 303.04 265.77"/>
      <polyline class="cls-2" points="302.6 231.49 321.45 231.49 321.45 236.73 325.95 236.73 325.95 265.77"/>
      <polyline class="cls-2" points="321.45 231.49 321.45 225.03 326.85 225.03"/>
      <polyline class="cls-2" points="256.86 76.44 262.52 76.44 262.52 61.57 274.94 61.57 274.94 52.14 256.84 52.14"/>
      <polyline class="cls-2" points="274.94 52.01 274.94 51.07 295.9 51.07 308.55 63.71 288.15 84.37 279.66 75.75 262.73 75.75"/>
      <polyline class="cls-2" points="288.15 84.37 296.63 92.81 296.63 110.3 311.37 110.3 311.37 101.64 310.6 101.64 310.6 98.04 320.61 98.04 320.61 76.44 319 76.44 313.56 70.78 314.72 69.67 308.72 63.97"/>
      <polyline class="cls-2" points="71.49 64.35 64.29 72.2 65.58 81.71 56.7 83.13 60.73 103.23 69.95 101.38 72.58 114.37 87.37 111.67 84.26 92.73 92.32 85.05"/>
      <polygon class="cls-2" points="64.68 120.8 88.16 116.47 97.51 160.53 73.29 165.55 64.68 120.8"/>
      <polygon class="cls-2" points="73.93 170.3 97.72 165.55 100.93 183.03 109.93 192.16 94.51 207.59 88.08 201.03 79.98 202.19 73.93 170.3"/>
      <polyline class="cls-2" points="94.51 207.59 102.73 215.95 96.02 222.51 99.04 225.62 124.46 225.33 124.46 215.43 137.32 215.43 137.32 200.78 118.68 200.78 109.93 192.16"/>
      <path class="cls-2" d="M142.47,225.07v-33.68h36.9v23.02h-12.99v10.54s-23.9.15-23.91.13c0,0,0,0,0,0Z"/>
      <polyline class="cls-2" points="73.42 274.39 73.42 245.14 81.34 237.81 97.98 237.81 97.98 274.32"/>
      <line class="cls-5" x1="119.58" y1="237.81" x2="97.98" y2="237.81"/>
      <path class="cls-2" d="M119.84,231.57h-34.59l-6.81-7.14-9.13-46.55-43.33,9,12.86,70.08,6.3-2.06v8.49l6.43,6.43h7.46v4.83h14.57s0-29.52,0-29.52l7.54-7.54,38.57-.09s-.12-6.18.13-5.94Z"/>
      <polygon class="cls-4" points="54.77 180.89 57.6 194.22 58.37 198.08 36.9 202.32 37.8 205.66 30.22 207.08 29.27 207.29 25.39 186.7 54.77 180.89"/>
      <polyline class="cls-2" points="24.32 140.75 60.69 133.4 56.32 111.03 23 117.71"/>
      <polyline class="cls-2" points="16.06 95.61 51.82 88.78 56.32 111.03"/>
      <polyline class="cls-2" points="13.93 72.5 47.45 66.41 51.82 88.78"/>
      <polyline class="cls-2" points="33.24 173.53 67.38 167.17 60.69 133.4"/>
      <polygon class="cls-2" points="89.11 215.52 82.25 208.15 88.67 201.74 95.95 209.02 89.11 215.52"/>
      <polygon class="cls-2" points="95.96 222.46 89.15 215.52 95.94 209 102.74 215.81 95.96 222.46"/>
      <polyline class="cls-2" points="79.98 202.35 82.07 207.98 82.32 208.27"/>
      <line class="cls-2" x1="60.69" y1="102.93" x2="64.68" y2="121.1"/>
      <polyline class="cls-2" points="51.9 46.01 47.1 50.55 42.35 47 6.34 47"/>
      <line class="cls-2" x1="47.45" y1="66.41" x2="47.1" y2="50.3"/>
      <polyline class="cls-2" points="56.7 83.13 53.23 56.38 57.86 51.88 83.83 52.14"/>
      <line class="cls-2" x1="55.42" y1="73.42" x2="64.29" y2="72.2"/>
      <polyline class="cls-2" points="54.65 66.73 62.36 65.38 66.48 69.5"/>
      <polyline class="cls-2" points="296.63 110.3 296.63 115.44 320.63 115.44 320.63 98.04"/>
      <polyline class="cls-2" points="296.63 115.44 279.83 115.44 279.83 161.22 287.37 161.22 287.37 183.85 280.17 191.9 245.2 191.9 198.23 191.9 179.37 191.9"/>
      <polyline class="cls-2" points="320.63 115.44 320.63 166.7 308.46 166.7 308.46 171.07 320.55 171.07 320.55 211.55 306.62 225.59 172.3 225.59"/>
      <line class="cls-2" x1="142.47" y1="225.08" x2="124.46" y2="225.33"/>
      <line class="cls-2" x1="142.51" y1="200.99" x2="137.06" y2="200.99"/>
      <line class="cls-2" x1="177.92" y1="52.56" x2="177.82" y2="46.1"/>
      <line class="cls-2" x1="199.17" y1="46.48" x2="199.17" y2="52.14"/>
      <line class="cls-2" x1="177.76" y1="9.45" x2="198.91" y2="9.45"/>
      <line class="cls-2" x1="177.76" y1="77.34" x2="198.91" y2="77.34"/>
      <rect class="cls-2" x="97.93" y="237.68" width="21.77" height="36.97"/>
      <g>
        <polygon class="cls-2" points="42.76 171.67 57.46 169.04 58.49 173.9 43.79 176.54 42.76 171.67"/>
        <line class="cls-2" x1="55.88" y1="169.35" x2="56.91" y2="174.2"/>
        <line class="cls-2" x1="54.23" y1="169.64" x2="55.25" y2="174.49"/>
        <line class="cls-2" x1="52.59" y1="169.94" x2="53.62" y2="174.78"/>
        <line class="cls-2" x1="50.94" y1="170.23" x2="51.96" y2="175.08"/>
        <line class="cls-2" x1="49.31" y1="170.52" x2="50.34" y2="175.37"/>
        <line class="cls-2" x1="47.66" y1="170.82" x2="48.68" y2="175.67"/>
        <line class="cls-2" x1="46.01" y1="171.11" x2="47.04" y2="175.96"/>
        <line class="cls-2" x1="44.36" y1="171.41" x2="45.38" y2="176.26"/>
      </g>
      <g>
        <rect class="cls-2" x="62.4" y="102.69" width="4.24" height="13.35" transform="translate(-21.41 15.88) rotate(-12.05)"/>
        <rect class="cls-2" x="67.59" y="109.05" width="4.24" height="5.96" transform="translate(-21.86 17.03) rotate(-12.05)"/>
        <line class="cls-2" x1="63.54" y1="114.91" x2="67.68" y2="114.02"/>
        <line class="cls-2" x1="63.23" y1="113.44" x2="67.37" y2="112.56"/>
        <line class="cls-2" x1="62.92" y1="112.01" x2="67.06" y2="111.12"/>
        <line class="cls-2" x1="62.61" y1="110.54" x2="66.75" y2="109.66"/>
        <line class="cls-2" x1="62.29" y1="109.07" x2="66.44" y2="108.19"/>
        <line class="cls-2" x1="61.98" y1="107.61" x2="66.12" y2="106.72"/>
        <line class="cls-2" x1="61.67" y1="106.18" x2="65.82" y2="105.29"/>
        <line class="cls-2" x1="61.36" y1="104.71" x2="65.51" y2="103.82"/>
        <line class="cls-2" x1="67.81" y1="113.91" x2="71.95" y2="113.03"/>
        <line class="cls-2" x1="67.5" y1="112.48" x2="71.65" y2="111.59"/>
        <line class="cls-2" x1="67.19" y1="111.01" x2="71.33" y2="110.13"/>
      </g>
      <g>
        <rect class="cls-2" x="261.67" y="57.12" width="13.07" height="4.15"/>
        <rect class="cls-2" x="261.66" y="52.7" width="5.84" height="4.15"/>
        <line class="cls-2" x1="273.31" y1="61.26" x2="273.31" y2="57.12"/>
        <line class="cls-2" x1="271.84" y1="61.27" x2="271.84" y2="57.12"/>
        <line class="cls-2" x1="270.41" y1="61.27" x2="270.4" y2="57.12"/>
        <line class="cls-2" x1="268.94" y1="61.27" x2="268.93" y2="57.12"/>
        <line class="cls-2" x1="267.47" y1="61.27" x2="267.47" y2="57.12"/>
        <line class="cls-2" x1="266" y1="61.27" x2="266" y2="57.12"/>
        <line class="cls-2" x1="264.57" y1="61.27" x2="264.56" y2="57.12"/>
        <line class="cls-2" x1="263.1" y1="61.27" x2="263.09" y2="57.12"/>
        <line class="cls-2" x1="265.99" y1="56.97" x2="265.99" y2="52.83"/>
        <line class="cls-2" x1="264.56" y1="56.97" x2="264.56" y2="52.83"/>
        <line class="cls-2" x1="263.09" y1="56.98" x2="263.09" y2="52.83"/>
      </g>
      <g>
        <polygon class="cls-2" points="316.28 101.99 316.22 111.04 320.46 111.04 320.52 102 316.28 101.99"/>
        <polygon class="cls-2" points="311.79 109.6 311.88 101.98 315.99 101.99 316.01 109.59 311.79 109.6"/>
        <line class="cls-2" x1="320.52" y1="110.94" x2="316.27" y2="110.93"/>
        <line class="cls-2" x1="320.52" y1="109.43" x2="316.27" y2="109.43"/>
        <line class="cls-2" x1="320.52" y1="107.93" x2="316.27" y2="107.93"/>
        <line class="cls-2" x1="320.52" y1="106.43" x2="316.27" y2="106.43"/>
        <line class="cls-2" x1="320.52" y1="104.96" x2="316.27" y2="104.96"/>
        <line class="cls-2" x1="320.52" y1="103.46" x2="316.28" y2="103.46"/>
        <line class="cls-2" x1="316.12" y1="106.42" x2="311.88" y2="106.42"/>
        <line class="cls-2" x1="316.12" y1="107.96" x2="311.88" y2="107.96"/>
        <line class="cls-2" x1="316.13" y1="104.95" x2="311.88" y2="104.95"/>
        <line class="cls-2" x1="316.13" y1="103.45" x2="311.88" y2="103.45"/>
      </g>
      <g>
        <polygon class="cls-2" points="127.55 220.18 137.21 220.25 137.21 215.71 127.55 215.65 127.55 220.18"/>
        <polygon class="cls-2" points="137.22 224.98 129.24 225.04 129.09 220.49 137.21 220.47 137.22 224.98"/>
        <line class="cls-2" x1="137.1" y1="215.65" x2="137.1" y2="220.19"/>
        <line class="cls-2" x1="135.5" y1="215.65" x2="135.49" y2="220.19"/>
        <line class="cls-2" x1="133.89" y1="215.65" x2="133.89" y2="220.19"/>
        <line class="cls-2" x1="132.28" y1="215.65" x2="132.28" y2="220.19"/>
        <line class="cls-2" x1="130.72" y1="215.65" x2="130.72" y2="220.19"/>
        <line class="cls-2" x1="129.11" y1="215.65" x2="129.11" y2="220.19"/>
        <line class="cls-2" x1="133.83" y1="220.35" x2="133.83" y2="224.88"/>
        <line class="cls-2" x1="135.48" y1="220.35" x2="135.48" y2="224.88"/>
        <line class="cls-2" x1="132.26" y1="220.35" x2="132.26" y2="224.88"/>
        <line class="cls-2" x1="130.65" y1="220.35" x2="130.65" y2="224.88"/>
      </g>
      <line class="cls-2" x1="245.03" y1="225.68" x2="245.03" y2="191.9"/>
      <line class="cls-2" x1="234.48" y1="225.68" x2="234.48" y2="191.9"/>
      <line class="cls-2" x1="234.23" y1="215.13" x2="245.07" y2="215.13"/>
      <polyline class="cls-2" points="301.6 56.47 307.35 50.72 315.15 50.72 320.63 56.3 320.63 64.18 314.72 69.67"/>
      <line class="cls-2" x1="69.3" y1="177.89" x2="67.38" y2="167.17"/>
      <polyline class="cls-2" points="81.3 227.39 85.85 223.02 80.79 218.13 77.45 218.65"/>
      <rect class="cls-2" x="288.4" y="218.65" width="11.66" height="6.94"/>
      <rect class="cls-2" x="284.91" y="163.72" width="10.78" height="5.21" transform="translate(456.62 -123.97) rotate(90)"/>
      <rect class="cls-2" x="301.04" y="210.51" width="18.24" height="9.46" transform="translate(-61.36 282.35) rotate(-45)"/>
      <polyline class="cls-2" points="287.37 183.85 293.03 183.85 293.03 190.49 297.02 190.49 297.02 196.53 309.87 208.75"/>
      <line class="cls-2" x1="310.9" y1="178.4" x2="310.9" y2="171.07"/>
      <line class="cls-2" x1="306.66" y1="179.88" x2="303.83" y2="179.88"/>
      <polyline class="cls-2" points="320.67 171.2 303.96 171.2 303.96 172.49"/>
      <line class="cls-2" x1="314.57" y1="182.41" x2="314.57" y2="176.32"/>
      <line class="cls-2" x1="311.48" y1="195.38" x2="311.48" y2="181.96"/>
      <line class="cls-2" x1="304.02" y1="195.38" x2="304.02" y2="184.72"/>
      <line class="cls-2" x1="297.17" y1="185.02" x2="304.25" y2="185.02"/>
      <line class="cls-2" x1="304.11" y1="187.79" x2="311.32" y2="187.79"/>
      <line class="cls-2" x1="304.11" y1="185.54" x2="311.32" y2="185.54"/>
      <line class="cls-2" x1="314.27" y1="179.5" x2="320.71" y2="179.5"/>
      <line class="cls-2" x1="314.27" y1="176.54" x2="320.71" y2="176.54"/>
      <polyline class="cls-2" points="315.02 199.55 315.02 203.86 313.46 205.26"/>
      <line class="cls-2" x1="315.02" y1="196.92" x2="315.02" y2="193.19"/>
      <line class="cls-2" x1="314.76" y1="196.63" x2="320.71" y2="196.63"/>
      <line class="cls-2" x1="314.73" y1="199.49" x2="320.71" y2="199.49"/>
      <line class="cls-2" x1="314.72" y1="193.38" x2="320.71" y2="193.38"/>
      <line class="cls-2" x1="297.04" y1="190.49" x2="304.25" y2="190.49"/>
      <line class="cls-2" x1="297.27" y1="185.32" x2="297.27" y2="180.44"/>
      <rect class="cls-2" x="311.55" y="182.26" width="9" height="5.91"/>
      <rect class="cls-2" x="297.27" y="172.36" width="6.69" height="8.36"/>
      <polygon class="cls-2" points="313.46 205.26 309.87 208.85 306.47 205.4 310.04 201.84 313.46 205.26"/>
      <polyline class="cls-2" points="179.66 214.02 179.66 225.62 172.34 225.62 172.34 221.01 179.71 221.01"/>
      <polyline class="cls-2" points="166.27 221.01 169.74 221.01 172.38 221.01"/>
      <line class="cls-2" x1="68.79" y1="173.9" x2="74.7" y2="173"/>
      <line class="cls-2" x1="66.86" y1="163.55" x2="72.78" y2="162.65"/>
      <polyline class="cls-2" points="321.66 225.03 317.63 225.03 324.23 218.39 327.06 218.39"/>
      <line class="cls-2" x1="82.25" y1="208.15" x2="88.85" y2="201.63"/>
      <polygon class="cls-2" points="313.58 218.72 319.77 212.02 313.47 205.72 306.87 212.32 313.58 218.72"/>
      <polygon class="cls-2" points="307.13 225.02 313.54 218.72 306.88 212.31 300.71 218.48 307.13 225.02"/>
      <line class="cls-2" x1="319.89" y1="212.13" x2="313.29" y2="205.62"/>
      <rect class="cls-2" x="296.37" y="122.47" width="15.69" height="31.63"/>
      <polyline class="cls-2" points="308.46 166.7 298.43 166.7 298.43 161.22 308.29 161.22"/>
      <polyline class="cls-2" points="308.37 154.02 308.37 145.53 312.15 145.53"/>
      <line class="cls-2" x1="308.46" y1="146.73" x2="312.06" y2="146.73"/>
      <line class="cls-2" x1="308.46" y1="147.84" x2="312.06" y2="147.84"/>
      <line class="cls-2" x1="308.46" y1="149.13" x2="312.06" y2="149.13"/>
      <line class="cls-2" x1="308.46" y1="150.33" x2="312.06" y2="150.33"/>
      <line class="cls-2" x1="316.78" y1="209.05" x2="320.55" y2="205.28"/>
      <polyline class="cls-2" points="176.28 270.47 178.85 270.47 186.95 267.51 190.94 267.51 198.65 270.59 201.87 270.59"/>
      <line class="cls-2" x1="305.46" y1="60.58" x2="315.66" y2="51.11"/>
      <line class="cls-2" x1="165.74" y1="243.98" x2="211.64" y2="243.98"/>
      <line class="cls-2" x1="165.8" y1="231.57" x2="211.7" y2="231.57"/>
      <polyline class="cls-2" points="27.26 197.63 33.82 196.53 36 198.08 57.6 194.22 54.77 180.72"/>
      <rect class="cls-2" x="60.64" y="178.8" width="9.22" height="4.97" transform="translate(-35.71 17.19) rotate(-11.81)"/>
      <line class="cls-2" x1="58.35" y1="173.99" x2="68.4" y2="172.06"/>
    </g>
  </g>
</svg>