<?xml version="1.0" encoding="utf-8"?>
<!-- Generator: Adobe Illustrator 27.8.0, SVG Export Plug-In . SVG Version: 6.00 Build 0)  -->
<svg version="1.1" id="Layer_1" xmlns="http://www.w3.org/2000/svg" xmlns:xlink="http://www.w3.org/1999/xlink" x="0px" y="0px"
	 viewBox="0 0 449.7 156.3" style="enable-background:new 0 0 449.7 156.3;" xml:space="preserve">
<style type="text/css">
	.st0{fill:#5C4C43;}
	.st1{fill-rule:evenodd;clip-rule:evenodd;fill:#5C4C43;}
</style>
<path class="st0" d="M239.7,88.7c3.6,0,6.7,1.2,11.1,3.9c1.7-4.6,2.9-10.4,3.6-15.5c0.6-4.4,2.3-19.3,4.5-26.8
	c3.7-13.4,12.2-24.8,22.3-24.8c8.2,0,13.5,7.6,13.5,17c0,11-7.3,24.1-18.6,30.2l-1.4-1.9c7.9-5.2,11.8-17.5,11.8-26.1
	c0-6.3-2.1-14.1-7.9-14.1c-4.5,0-7.7,4.6-10,19.8c-1.4,9.3-1.7,17.8-4.2,27.4c-1.5,5.6-4.1,13.1-8,18.7c8,5.7,10.3,7.6,16.2,11.8
	c8.8,6.2,14.9,10,20.5,10c3.7,0,7.2-1.7,9.5-4.2l1.9,1.7c-5.1,7.2-11.1,11.6-17.5,11.6c-5.9,0-11.4-3.8-20.5-10.5
	c-3.1-2.2-8.9-7-16.5-13.2c-3.8,3.3-8.4,5.3-13.6,5.3c-7.1,0-12.4-3.7-12.4-8.7C224.1,93.9,232,88.7,239.7,88.7L239.7,88.7
	L239.7,88.7z M238.4,104.5c3,0,5.6-1.4,7.8-4c-5.9-4.5-9.4-6.5-12.4-6.5s-3.9,1.8-3.9,3.6C229.9,100.9,233.7,104.5,238.4,104.5
	L238.4,104.5L238.4,104.5z"/>
<path class="st0" d="M312,59.4c-12.9,0-23.4,11.2-23.4,25.1s10.5,25.1,23.4,25.1s23.4-11.2,23.4-25.1S324.9,59.4,312,59.4z
	 M311.7,103c-1.2-1.8-2.4-3.6-3.6-5.4c1.2-1.1,2.4-2.2,3.6-3.3c1.2,1.1,2.4,2.1,3.6,3.2C314.1,99.3,312.9,101.2,311.7,103L311.7,103
	L311.7,103z M322.3,93.8c-2.1,0.7-4.3,0.8-6.3-0.3c-1.3-0.7-2.1-1.9-2.8-3.1c-0.1-0.1,0-0.4,0-0.5c0.4-0.5,0.7-0.9,1.1-1.4
	c-0.4-0.5-0.7-1-1.1-1.5c-0.1-0.1-0.1-0.4-0.1-0.5c0.4-1,1.3-1.6,2.4-1.6s2.1,0.9,2.4,1.9c0.2,0.9-0.2,1.6-0.6,2.3
	c-0.1,0.1-0.1,0.2-0.2,0.4c0.8,0.7,1.7,0.9,2.7,0.6c1.8-0.6,3-2.6,2.9-4.4c-0.2-2.1-1.6-3.9-3.6-4.1c-0.8-0.1-1.6,0-2.5,0
	c0-0.4,0-0.9-0.1-1.4c-0.2-1.1-0.9-2-1.7-2.8c-0.9-0.8-1.7-1.6-2.6-2.5c-0.3-0.3-0.5-0.6-0.7-1c-0.7,1.3-1.8,2.1-2.8,3
	c-1.4,1.2-2.5,2.6-2.1,4.7c-0.9,0-1.8-0.1-2.7,0c-1.9,0.2-3.2,1.8-3.1,3.8c0,1.1,0.3,2.1,0.7,3.1c0.7,1.5,2,2.1,3.6,1.5
	c0.3-0.1,0.6-0.3,1-0.4c-0.2-0.4-0.4-0.7-0.5-1.1c-0.6-1.5-0.3-2.6,1-3.3s2.6-0.3,3.4,1c0.1,0.1,0.1,0.3,0.2,0.4
	c-0.4,0.6-0.9,1.1-1.3,1.7c0.3,0.4,0.6,0.9,1,1.3c0.3,0.3,0.3,0.6,0.1,1c-1,2.1-2.5,3.3-4.7,3.6c-2.7,0.3-5.2-0.2-7.3-2
	c-2.7-2.3-4-7.2-1.7-10.5c1.1-1.5,2.4-2.6,3.9-3.6c1.5-1,3.2-1.9,4.8-2.9c2.9-1.8,5.3-4.1,6.6-7.4c0.1,0.1,0.1,0.1,0.1,0.2
	c1.2,3,3.2,5.2,5.9,6.8c1.6,1,3.3,1.9,5,2.9c1.7,0.9,3.2,2.1,4.2,3.8C329.5,85.8,327.9,91.9,322.3,93.8L322.3,93.8L322.3,93.8z"/>
<rect y="11.8" class="st0" width="177.2" height="0.8"/>
<rect x="267" y="11.8" class="st0" width="182.7" height="0.8"/>
<path class="st0" d="M196.9,8.2c-0.6-0.6-1.3-1.1-2.1-1.5s-1.6-0.5-2.5-0.5s-1.6,0.2-2.4,0.5s-1.4,0.8-1.9,1.4c-0.5,0.6-1,1.2-1.3,2
	s-0.5,1.5-0.5,2.3s0.2,1.6,0.5,2.3c0.3,0.7,0.8,1.4,1.3,2c0.5,0.6,1.2,1,2,1.4s1.5,0.5,2.4,0.5s1.7-0.2,2.5-0.6s1.5-0.8,2.1-1.4v2.1
	c-0.6,0.5-1.4,0.8-2.1,1.1c-0.8,0.3-1.5,0.4-2.4,0.4c-1.1,0-2.1-0.2-3-0.6s-1.8-0.9-2.5-1.7s-1.3-1.5-1.7-2.4
	c-0.4-0.9-0.6-1.9-0.6-3s0.2-2.1,0.6-3c0.4-0.9,1-1.8,1.7-2.5c0.7-0.7,1.5-1.3,2.5-1.7c1-0.4,2-0.6,3-0.6c1.7,0,3.2,0.5,4.5,1.5
	L196.9,8.2L196.9,8.2L196.9,8.2z"/>
<path class="st0" d="M206.1,15.6l-1.8,4.2h-1.8l6.9-15.6l6.8,15.6h-1.9l-1.8-4.2H206.1L206.1,15.6z M209.4,8.1l-2.6,6h5.1L209.4,8.1
	z"/>
<path class="st0" d="M223.6,19.9H222V4.9h2.2c0.7,0,1.4,0.1,2.1,0.2s1.2,0.3,1.8,0.6c0.5,0.3,0.9,0.7,1.2,1.3s0.5,1.2,0.5,2.1
	c0,1.2-0.3,2.1-1,2.8s-1.6,1.2-2.8,1.3l4.8,6.7h-2l-4.5-6.6h-0.4L223.6,19.9L223.6,19.9L223.6,19.9z M223.6,11.8h0.5
	c0.5,0,0.9,0,1.4-0.1c0.5-0.1,0.9-0.2,1.2-0.4s0.6-0.5,0.9-0.8c0.2-0.3,0.3-0.8,0.3-1.4s-0.1-1.1-0.3-1.5c-0.2-0.4-0.5-0.6-0.9-0.8
	s-0.8-0.3-1.2-0.3c-0.5-0.1-0.9-0.1-1.4-0.1h-0.5L223.6,11.8L223.6,11.8L223.6,11.8z"/>
<path class="st0" d="M238.6,19.9h-1.7V4.9h2.2c0.7,0,1.4,0.1,2.1,0.2c0.7,0.1,1.2,0.3,1.8,0.6s0.9,0.7,1.2,1.3
	c0.3,0.5,0.5,1.2,0.5,2.1c0,1.2-0.3,2.1-1,2.8s-1.6,1.2-2.8,1.3l4.8,6.7h-2l-4.5-6.6h-0.4L238.6,19.9L238.6,19.9L238.6,19.9z
	 M238.6,11.8h0.5c0.5,0,0.9,0,1.4-0.1s0.9-0.2,1.2-0.4s0.6-0.5,0.9-0.8c0.2-0.3,0.3-0.8,0.3-1.4s-0.1-1.1-0.3-1.5s-0.5-0.6-0.9-0.8
	s-0.8-0.3-1.2-0.3c-0.5-0.1-0.9-0.1-1.4-0.1h-0.5L238.6,11.8L238.6,11.8L238.6,11.8z"/>
<path class="st0" d="M251.9,4.9h7.8v1.5h-6.1v4.4h5.9v1.5h-5.9v5.9h6.1v1.5h-7.8V4.9L251.9,4.9L251.9,4.9z M258.5,0.8l-3,3.1l-1-0.6
	l2.4-3.2L258.5,0.8L258.5,0.8L258.5,0.8z"/>
<path class="st1" d="M317.2,154.6c0,0,0.1-0.1,0.1-0.1c1.7-1.2,3.4-2.4,5-3.7c0.1,0,0.1,0,0.1,0c1.5,1.1,3.1,2.2,4.6,3.4
	c0.2,0.1,0.3,0.3,0.5,0.4c0,0,0-0.1,0-0.1c-0.6-2-1.3-4-1.9-5.9c0-0.1,0-0.1,0-0.1c1.7-1.2,3.4-2.4,5.1-3.7c0,0,0,0,0.1-0.1h-3.3
	c-1,0-2.1,0-3.1,0c-0.1,0-0.1,0-0.1-0.1c-0.6-1.9-1.2-3.9-1.9-5.8c0-0.1-0.1-0.2-0.1-0.3v0c-0.2,0.4-0.3,0.9-0.4,1.3
	c-0.5,1.6-1,3.2-1.5,4.7c0,0.1,0,0.1-0.1,0.1h-1.2c-1.7,0-3.4,0-5.1,0c0,0,0,0-0.1,0c0,0,0,0,0,0c0.2,0.2,0.5,0.4,0.7,0.5
	c1.5,1.1,2.9,2.1,4.4,3.2c0,0,0,0.1,0,0.1c-0.6,1.8-1.2,3.5-1.7,5.3C317.4,154.1,317.3,154.3,317.2,154.6L317.2,154.6L317.2,154.6z"
	/>
<path class="st1" d="M339.8,154.6c0,0,0.1-0.1,0.1-0.1c1.7-1.2,3.4-2.4,5-3.7c0,0,0.1,0,0.1,0c1.5,1.1,3.1,2.2,4.6,3.4
	c0.2,0.1,0.4,0.3,0.5,0.4c0,0,0-0.1,0-0.1c-0.6-2-1.3-4-1.9-5.9c0-0.1,0-0.1,0-0.1c1.7-1.2,3.4-2.4,5.1-3.7c0,0,0,0,0.1-0.1h-3.3
	c-1,0-2.1,0-3.1,0c-0.1,0-0.1,0-0.1-0.1c-0.6-1.9-1.2-3.9-1.9-5.8c0-0.1-0.1-0.2-0.1-0.3l0,0c-0.1,0.4-0.3,0.9-0.4,1.3
	c-0.5,1.6-1,3.2-1.5,4.7c0,0.1,0,0.1-0.1,0.1h-1.2c-1.7,0-3.4,0-5.1,0c0,0,0,0-0.1,0c0,0,0,0,0,0c0.2,0.2,0.5,0.4,0.7,0.5
	c1.5,1.1,2.9,2.1,4.4,3.2c0,0,0,0.1,0,0.1c-0.6,1.8-1.2,3.5-1.7,5.3C339.9,154.1,339.9,154.3,339.8,154.6L339.8,154.6L339.8,154.6z"
	/>
<path class="st1" d="M362.3,154.6c0,0,0.1-0.1,0.1-0.1c1.7-1.2,3.4-2.4,5-3.7c0,0,0.1,0,0.1,0c1.5,1.1,3.1,2.2,4.6,3.4
	c0.2,0.1,0.4,0.3,0.5,0.4c0,0,0-0.1,0-0.1c-0.6-2-1.3-4-2-5.9c0-0.1,0-0.1,0-0.1c1.7-1.2,3.4-2.4,5.1-3.7c0,0,0,0,0.1-0.1h-3.3
	c-1,0-2.1,0-3.1,0c-0.1,0-0.1,0-0.1-0.1c-0.6-1.9-1.2-3.9-1.9-5.8c0-0.1-0.1-0.2-0.1-0.3l0,0c-0.1,0.4-0.3,0.9-0.4,1.3
	c-0.5,1.6-1,3.2-1.5,4.8c0,0.1,0,0.1-0.1,0.1h-1.2c-1.7,0-3.4,0-5.1,0c0,0,0,0-0.1,0c0,0,0,0,0,0c0.2,0.2,0.5,0.4,0.7,0.5
	c1.5,1.1,2.9,2.1,4.4,3.2c0,0,0,0.1,0,0.1c-0.6,1.8-1.2,3.5-1.7,5.3C362.5,154.1,362.4,154.3,362.3,154.6L362.3,154.6L362.3,154.6z"
	/>
<path class="st1" d="M384.8,154.6c0,0,0.1-0.1,0.1-0.1c1.7-1.2,3.4-2.4,5-3.7c0,0,0.1,0,0.1,0c1.5,1.1,3.1,2.2,4.6,3.4
	c0.2,0.1,0.4,0.3,0.5,0.4c0,0,0-0.1,0-0.1c-0.6-2-1.3-4-2-5.9c0-0.1,0-0.1,0-0.1c1.7-1.2,3.4-2.4,5.1-3.7c0,0,0,0,0.1-0.1h-3.3
	c-1,0-2.1,0-3.1,0c0,0-0.1,0-0.1-0.1c-0.6-1.9-1.2-3.9-1.9-5.8c0-0.1-0.1-0.2-0.1-0.3c0,0,0,0,0,0c-0.1,0.4-0.3,0.9-0.4,1.3
	c-0.5,1.6-1,3.2-1.5,4.8c0,0.1,0,0.1-0.1,0.1h-1.1c-1.7,0-3.4,0-5.1,0c0,0,0,0-0.1,0c0,0,0,0,0,0c0.2,0.2,0.5,0.4,0.7,0.5
	c1.5,1.1,2.9,2.1,4.4,3.2c0,0,0,0.1,0,0.1c-0.6,1.8-1.2,3.5-1.7,5.3C385,154.1,384.9,154.3,384.8,154.6L384.8,154.6L384.8,154.6z"/>
<path class="st0" d="M53.2,154.1h4.1v1.5h-5.8v-14.9h1.7L53.2,154.1L53.2,154.1L53.2,154.1z"/>
<path class="st0" d="M63.2,140.8h7.8v1.5h-6.1v4.4h5.9v1.5h-5.9v5.9h6.1v1.5h-7.8V140.8L63.2,140.8L63.2,140.8z M69.8,136.6l-3,3.1
	l-1-0.6l2.4-3.2L69.8,136.6L69.8,136.6L69.8,136.6z"/>
<path class="st0" d="M79.6,155.7H78v-14.9h2.5c0.6,0,1.3,0,1.9,0.1c0.6,0.1,1.2,0.3,1.8,0.7c0.6,0.4,1,0.9,1.3,1.5s0.4,1.2,0.4,1.9
	c0,0.6-0.1,1.2-0.4,1.8s-0.6,1.1-1.1,1.4c-0.5,0.4-1.1,0.7-1.7,0.8s-1.2,0.2-1.9,0.2h-1.2L79.6,155.7L79.6,155.7L79.6,155.7z
	 M79.6,147.6h1.1c0.5,0,0.9,0,1.3-0.1c0.4-0.1,0.8-0.2,1.1-0.4s0.6-0.5,0.7-0.8c0.2-0.3,0.3-0.8,0.3-1.3c0-0.6-0.1-1.1-0.3-1.4
	s-0.5-0.6-0.9-0.8s-0.8-0.3-1.2-0.3s-0.9-0.1-1.4-0.1h-0.6L79.6,147.6L79.6,147.6z"/>
<path class="st0" d="M93.9,155.7h-1.7v-14.9h1.7V155.7z"/>
<path class="st0" d="M101.2,140.1l11.7,12.2v-11.6h1.7v15.6l-11.7-12.2v11.5h-1.7V140.1L101.2,140.1L101.2,140.1z"/>
<path class="st0" d="M121.9,140.8h7.8v1.5h-6.1v4.4h5.9v1.5h-5.9v5.9h6.1v1.5h-7.8V140.8L121.9,140.8L121.9,140.8z"/>
<path class="st0" d="M148.7,151.4l-1.8,4.2H145L152,140l6.8,15.6h-1.9l-1.8-4.2H148.7L148.7,151.4z M151.9,143.9l-2.6,6h5.1
	L151.9,143.9z"/>
<path class="st0" d="M166.2,155.7h-1.7v-14.9h2.5c0.6,0,1.3,0,1.9,0.1c0.6,0.1,1.2,0.3,1.8,0.7c0.6,0.4,1,0.9,1.3,1.5
	s0.4,1.2,0.4,1.9c0,0.6-0.1,1.2-0.4,1.8s-0.6,1.1-1.1,1.4c-0.5,0.4-1.1,0.7-1.7,0.8s-1.2,0.2-1.9,0.2h-1.2L166.2,155.7L166.2,155.7
	L166.2,155.7z M166.2,147.6h1.1c0.5,0,0.9,0,1.3-0.1c0.4-0.1,0.8-0.2,1.1-0.4s0.6-0.5,0.7-0.8c0.2-0.3,0.3-0.8,0.3-1.3
	c0-0.6-0.1-1.1-0.3-1.4s-0.5-0.6-0.9-0.8s-0.8-0.3-1.2-0.3s-0.9-0.1-1.4-0.1h-0.6L166.2,147.6L166.2,147.6z"/>
<path class="st0" d="M179.4,151.4l-1.8,4.2h-1.8l6.9-15.6l6.8,15.6h-1.9l-1.8-4.2H179.4L179.4,151.4z M182.6,143.9l-2.6,6h5.1
	L182.6,143.9L182.6,143.9z"/>
<path class="st0" d="M196.9,155.7h-1.7v-14.9h2.2c0.7,0,1.4,0.1,2.1,0.2s1.2,0.3,1.8,0.6c0.5,0.3,0.9,0.7,1.2,1.3s0.5,1.2,0.5,2.1
	c0,1.2-0.3,2.1-1,2.9s-1.6,1.2-2.8,1.3l4.8,6.7h-2l-4.5-6.6h-0.4L196.9,155.7L196.9,155.7L196.9,155.7z M196.9,147.6h0.5
	c0.5,0,0.9,0,1.4-0.1s0.9-0.2,1.2-0.4s0.6-0.5,0.9-0.8c0.2-0.4,0.3-0.8,0.3-1.4s-0.1-1.1-0.3-1.5c-0.2-0.4-0.5-0.6-0.9-0.8
	s-0.8-0.3-1.2-0.3s-0.9-0.1-1.4-0.1h-0.5L196.9,147.6L196.9,147.6L196.9,147.6z"/>
<path class="st0" d="M213.7,155.7h-1.7v-13.4h-3.6v-1.5h9v1.5h-3.7L213.7,155.7L213.7,155.7L213.7,155.7z"/>
<path class="st0" d="M225.2,139.9l5.5,12.5l5.5-12.5l3,15.8h-1.7l-1.9-10.1h0l-4.8,10.7l-4.8-10.7h0l-1.9,10.1h-1.7L225.2,139.9
	L225.2,139.9z"/>
<path class="st0" d="M245.3,140.8h7.8v1.5H247v4.4h5.9v1.5H247v5.9h6.1v1.5h-7.8V140.8L245.3,140.8L245.3,140.8z"/>
<path class="st0" d="M260.2,140.1l11.7,12.2v-11.6h1.7v15.6l-11.7-12.2v11.5h-1.7V140.1L260.2,140.1L260.2,140.1z"/>
<path class="st0" d="M284.8,155.7h-1.7v-13.4h-3.6v-1.5h9v1.5h-3.7L284.8,155.7L284.8,155.7L284.8,155.7z"/>
<path class="st0" d="M301.2,143.7c-0.3-0.5-0.6-0.9-1-1.2c-0.4-0.3-0.9-0.4-1.5-0.4c-0.3,0-0.6,0.1-0.9,0.2s-0.6,0.3-0.8,0.5
	s-0.4,0.4-0.5,0.7c-0.1,0.3-0.2,0.6-0.2,0.9c0,0.3,0.1,0.6,0.2,0.8c0.2,0.2,0.3,0.5,0.6,0.6s0.5,0.3,0.8,0.5
	c0.3,0.1,0.5,0.3,0.8,0.4l1,0.4c0.5,0.2,1,0.4,1.4,0.7s0.8,0.5,1.1,0.9s0.6,0.7,0.8,1.1s0.3,0.9,0.3,1.5c0,0.7-0.1,1.3-0.4,1.8
	s-0.6,1-1,1.5c-0.4,0.4-0.9,0.7-1.5,1s-1.2,0.4-1.8,0.4c-0.6,0-1.2-0.1-1.7-0.3s-1-0.4-1.4-0.8c-0.4-0.3-0.7-0.7-1-1.2
	s-0.5-1-0.6-1.6l1.6-0.5c0,0.4,0.2,0.7,0.3,1.1c0.2,0.3,0.4,0.6,0.6,0.9s0.6,0.4,0.9,0.6c0.3,0.1,0.7,0.2,1.1,0.2s0.8-0.1,1.2-0.2
	s0.7-0.3,1-0.6c0.3-0.3,0.5-0.6,0.7-0.9c0.2-0.4,0.3-0.7,0.3-1.2s-0.1-0.8-0.2-1.1s-0.4-0.6-0.6-0.8s-0.5-0.4-0.9-0.6
	s-0.7-0.3-1-0.5l-0.9-0.4c-0.4-0.2-0.9-0.4-1.2-0.6c-0.4-0.2-0.7-0.5-1-0.8s-0.5-0.6-0.7-1c-0.2-0.4-0.3-0.9-0.3-1.4
	c0-0.6,0.1-1.1,0.3-1.6s0.5-0.9,0.9-1.2c0.4-0.3,0.8-0.6,1.3-0.8c0.5-0.2,1-0.3,1.6-0.3c0.8,0,1.6,0.2,2.3,0.6s1.2,1,1.6,1.7
	L301.2,143.7L301.2,143.7L301.2,143.7z"/>
<path class="st0" d="M10.3,74.2l1.2,1.7c-2.9,2.3-4,5.7-4,9.3c0,9.1,7.8,17.3,17.9,17.3c8.2,0,15.9-5.3,15.9-14.1s-7.7-14-16.1-19.7
	C17.3,63.3,9.5,58,9.5,47.7c0-13.7,13.9-22.5,26.5-22.5c8.5,0,18.2,4,18.2,13.1c0,5.1-3.1,9-7.4,11l-1.5-1.5c1.3-1.3,1.8-2.9,1.8-5
	c0-7.2-6.3-12.6-14.5-12.6c-7,0-14.2,3.9-14.2,12s7.1,13.2,14.8,18.6s16.2,10.9,16.2,22.3c0,14.5-13.9,24.9-27.9,24.9
	C10.8,108,0,101.8,0,90.3C0,83.5,3.8,76.8,10.3,74.2L10.3,74.2L10.3,74.2z"/>
<path class="st0" d="M54.3,90.7c0-7.6,3.1-15.2,7.8-20.5c4.6-5.1,11.1-8.6,18.5-8.6c4.5,0,8.7,1.3,12.7,3.5c-1.2,6.7-3,18-3,25.4
	c0,6.6,1.4,12,4.4,12c3.5,0,8.5-7.6,12.2-28.3l3,0.3c-4.7,26.5-11.4,33-17.9,33c-5.6,0-10.9-4.7-11.7-14.7h-0.2
	c-3.3,10-8,14.7-13.6,14.7C60.1,107.5,54.3,101.3,54.3,90.7L54.3,90.7L54.3,90.7z M77.8,89.8c1.9-5.9,3.8-14.5,5-20.8
	c-2-1.4-4.5-2.1-6.8-2.1c-2.8,0-5.5,0.9-7.6,2.9c-2.4,4.6-4.1,11.7-4.1,18.5c0,7.3,2,13.9,5.4,13.9C72.1,102.1,75,98.4,77.8,89.8
	L77.8,89.8L77.8,89.8z"/>
<path class="st0" d="M108,64.8c2.1-1.4,6-3.1,8.2-3.1c1.6,0,2.3,1,2.3,2.9c0,1.6-0.7,5.4-1.5,9.8c-0.9,5.5-2,12.1-2,17.5
	s1.3,10.7,4.2,10.7c3.5,0,8.5-7.2,12.3-28.3l3,0.3c-4.8,26.5-11.4,32.9-18.1,32.9c-6,0-11.2-5-11.2-15.9
	C105.1,84,107.1,73.8,108,64.8L108,64.8L108,64.8z M111.4,46.7c0-3.5,2.6-6.3,6.2-6.3s6.3,2.8,6.3,6.3s-2.8,6.2-6.3,6.2
	S111.4,50.1,111.4,46.7z"/>
<path class="st0" d="M129.8,92.8c0-9.3,2-19,2.6-28c2.1-1.4,6-3.1,8.2-3.1c1.6,0,2.3,1,2.3,2.9c0,2.6-1.4,8.6-2.4,15.5
	c-0.4,2.9-0.7,5.7-0.9,8h0.3c3.3-15.7,10.7-25.6,19.2-26.8c4.1,1.1,7.6,3.2,10.2,6.5c-1.5,6.9-3.7,14.5-3.7,23
	c0,6.8,1.4,11.9,4.4,11.9c3.4,0,8.4-7.2,12.2-28.3l3,0.3c-4.8,26.6-11.4,32.9-18.1,32.9c-5.8,0-11.4-5-11.4-16.8
	c0-8.4,2.4-17.6,2.4-20.4c0-1.4-0.4-2.6-2.1-2.6c-1.3,0-2.6,0.7-3.8,1.9c-2.6,2.6-5.3,7.3-7.2,12.8c-2.4,7.1-3.8,16-3.7,22.6
	c-2.6,1.4-5.2,2.1-6.4,2.1C130.4,107.3,129.8,97.8,129.8,92.8L129.8,92.8L129.8,92.8z"/>
<path class="st0" d="M183.4,65.9l-5.9,0.3c-0.3-0.6-0.4-1.3-0.4-1.9c0-0.5,0.1-1.3,0.2-1.6l6.8-0.3c1.7-10,2-12.8,2.9-17.3
	c2.3-1.5,6.4-3.3,8.5-3.3c1.5,0,2.1,0.7,2.1,2.2c0,2.3-1.8,10.2-3.3,17.8l13.2-0.9c0.3,0.4,0.5,1.2,0.5,1.8c0,0.6-0.2,1.4-0.7,2.2
	l-13.8,0.5c-1.3,7.6-2.2,15.8-2.2,21.9c0,10.8,3,16.9,7.6,16.9c3.5,0,7.3-3.4,10.3-9.9l2.6,1.4c-4.6,10.9-11.4,13.4-15.9,13.4
	c-7,0-15.2-5.2-15.2-20.6C180.7,82.4,182,73.8,183.4,65.9L183.4,65.9L183.4,65.9z"/>
<path class="st0" d="M407,52.8c3.5,0,6.3-2.8,6.3-6.2s-2.8-6.3-6.3-6.3s-6.2,2.8-6.2,6.3S403.5,52.8,407,52.8z"/>
<path class="st0" d="M449.7,69.2c0-4.8-4.6-7.8-10.5-7.8c-7.7,0-18.9,5.2-18.9,13.9c0,0.6,0.1,1.2,0.2,1.8
	c-3.7,18.9-8.4,25.4-11.8,25.4c-3,0-4.2-5.1-4.2-10.7s1.1-12,2-17.5c0.7-4.4,1.5-8.2,1.5-9.8c0-1.9-0.7-2.9-2.3-2.9
	c-2.1,0-6,1.7-8.2,3.1c-0.3,3.6-0.9,7.3-1.4,11c-3.7,19.6-8.5,26.7-11.9,26.7c-2.9,0-4.4-5.4-4.4-10.5c0-3.6,0.7-10.4,1-12
	c0.6-5.1,2.2-12.6,2.2-15.5c0-1.9-0.7-2.9-2.2-2.9c-2.1,0-6,1.7-8.3,3.1c-0.2,5.2-1.4,13.9-3.3,21.2c-2.4,9.3-6.2,16.1-10.3,16.1
	c-2.9,0-4.8-3.3-4.8-9.8c0-8.3,3.2-18.2,3.2-24.7c0-3.9-1.2-5.9-3.5-5.9s-5.8,2-7.6,3.5c0.3,1.2,0.4,2.9,0.4,5
	c0,2.4-0.1,4.5-0.4,6.6c0,0.2-0.1,0.4-0.1,0.6s-0.1,0.4-0.2,0.6c-0.1,0.4-0.2,0.8-0.3,1.2c-0.2,0.7-0.5,1.4-0.8,2.1
	c-0.3,0.6-0.6,1.3-1,1.9c-0.3,0.6-0.7,1.1-1.1,1.6c-0.4,0.5-0.8,0.9-1.2,1.4s-0.9,0.8-1.4,1.1s-1,0.6-1.5,0.9s-1.1,0.5-1.6,0.6
	c-0.9,0.3-1.9,0.5-2.8,0.6c-0.8,0.1-1.6,0-2.3-0.3c-0.5-0.2-0.9-0.4-1.3-0.7l-1.8,5.2l3.4-0.3c-0.1,0.3-0.3,0.6-0.4,0.8
	c0.1,0,0.1,0,0.2,0h0.6c0.1,0,0.2,0,0.3,0c0.1,0,0.2,0,0.3,0c0.1,0,0.2,0,0.3,0s0.2,0,0.3,0c0.1,0,0.2,0,0.3,0c0.1,0,0.2,0,0.3,0
	c0.1,0,0.2,0,0.3-0.1s0.2,0,0.3-0.1s0.2,0,0.3-0.1s0.2,0,0.3-0.1c0.1,0,0.2-0.1,0.3-0.1s0.2-0.1,0.3-0.1s0.2-0.1,0.3-0.1
	s0.2-0.1,0.3-0.1c0.1,0,0.2-0.1,0.3-0.1c0.1,0,0.2-0.1,0.3-0.1s0.2-0.1,0.3-0.1s0.2-0.1,0.3-0.1c0.1,0,0.2-0.1,0.3-0.1
	c0.1-0.1,0.2-0.1,0.3-0.1c0.1-0.1,0.2-0.1,0.3-0.2c0.1-0.1,0.2-0.1,0.3-0.2s0.2-0.1,0.3-0.2c0.1-0.1,0.2-0.1,0.3-0.2
	s0.2-0.1,0.3-0.2c0.1-0.1,0.2-0.1,0.3-0.2s0.2-0.1,0.3-0.2s0.2-0.1,0.3-0.2c0.1-0.1,0.2-0.2,0.3-0.2s0.2-0.2,0.3-0.2
	s0.2-0.2,0.3-0.3c0.1-0.1,0.2-0.2,0.3-0.3c0.1-0.1,0.2-0.2,0.3-0.3s0.2-0.2,0.3-0.3c0.1-0.1,0.2-0.2,0.3-0.3s0.2-0.2,0.3-0.3
	c0.1-0.1,0.2-0.2,0.3-0.3c0.1-0.1,0.1-0.2,0.2-0.2c-0.2,1.8-0.4,3.4-0.4,4.9c0,7.3,3.8,14.3,10.8,14.3c6.5,0,12.7-6.2,15.2-14.3h0.2
	c0.5,8.4,4.5,14.2,10.8,14.2c4.7,0,9.4-3.1,13.4-14c0.6,9.6,5.5,14,11.2,14c6.2,0,12.2-5.3,16.8-26.1c1.8,2.2,4.5,4.3,7.7,6.8
	c5.6,4.2,8.3,6.7,8.3,10s-2.6,5.2-6.6,5.2c-4.2,0-6.8-3.2-6.8-7.1c-3.6,0-5.5,2.4-5.5,5.2c0,4.2,4.6,6.2,9,6.2
	c8.1,0,18.2-6.2,18.2-14.1c0-4.8-3.9-7.6-9.4-11.9c-6.4-4.9-9.3-7.4-9.3-10.5s2.6-5.2,6.4-5.2c5.1,0,7.7,3.9,7.7,8.2
	c0,0.9-0.1,1.6-0.3,2.2C446.5,76.2,449.6,73.4,449.7,69.2L449.7,69.2L449.7,69.2z"/>
</svg>
