<?xml version="1.0" encoding="UTF-8"?>
<svg id="Layer_1" xmlns="http://www.w3.org/2000/svg" xmlns:xlink="http://www.w3.org/1999/xlink" version="1.1" viewBox="0 0 1224 792">
  <!-- Generator: Adobe Illustrator 30.1.0, SVG Export Plug-In . SVG Version: 2.1.1 Build 136)  -->
  <defs>
    <style>
      .st0, .st1, .st2, .st3, .st4, .st5, .st6 {
        fill: none;
      }

      .st1, .st7, .st8, .st2, .st3, .st4, .st5, .st9 {
        stroke: #fff;
      }

      .st1, .st7, .st8, .st9, .st6 {
        stroke-miterlimit: 10;
      }

      .st10 {
        fill: url(#radial-gradient);
      }

      .st11, .st12 {
        fill: #80d0da;
      }

      .st12 {
        isolation: isolate;
        opacity: .2;
      }

      .st13 {
        fill: #d5d6d9;
      }

      .st7, .st14, .st9 {
        fill: #00306b;
      }

      .st7, .st6 {
        stroke-width: 2px;
      }

      .st8 {
        fill: #47607e;
      }

      .st2 {
        stroke-miterlimit: 10;
        stroke-width: 1px;
      }

      .st3 {
        stroke-miterlimit: 10;
        stroke-width: 1px;
      }

      .st4 {
        stroke-miterlimit: 10;
        stroke-width: 1px;
      }

      .st5 {
        stroke-miterlimit: 10;
        stroke-width: 1px;
      }

      .st15 {
        fill: #48a9bf;
      }

      .st16 {
        fill: #b1b5bb;
      }

      .st17 {
        clip-path: url(#clippath);
      }

      .st6 {
        stroke: #9fa6ad;
      }
    </style>
    <clipPath id="clippath">
      <circle class="st0" cx="599" cy="382.7" r="23.5"/>
    </clipPath>
    <radialGradient id="radial-gradient" cx="598.9" cy="409.4" fx="598.9" fy="409.4" r="20.6" gradientTransform="translate(0 792) scale(1 -1)" gradientUnits="userSpaceOnUse">
      <stop offset=".8" stop-color="#231f20" stop-opacity="0"/>
      <stop offset="1" stop-color="#231f20" stop-opacity=".5"/>
    </radialGradient>
  </defs>
  <path class="st13" d="M717.6,429.5v-87.6h67.3v-7.3h-58.9v-58.9h-6.9v32.9h-109c-.7-2.9-2.5-5.3-5-6.8v-25.4s-11.1,0-11.3.2v24.5c-3,1.5-5.2,4.2-6.1,7.5h-128.3v22.1l-36.4,6.1,1,6.4,42.3-6.8-.5-3.4v-18.1h24.4v96.8l-51.6,9.5,1.4,7.4,51.7-9.5,19.7,19.7v51.7h6.4v-50.2h72.4c.7,1.9,2,3.5,3.6,4.6v47.7h11.3v-48.2c1.3-1.1,2.3-2.5,2.9-4.1h116.4v-4h44.9v-6.7h-52.9v-.2c0,0,1.2,0,1.2,0ZM592.5,355.7c-12.2,2.9-21.3,13.9-21.3,27s9.1,24.1,21.3,27v20.5c-1.1,1-1.9,2.3-2.4,3.7h-74.5c0,.1-18.9-18.8-18.9-18.8v-84.4l15.7-15.7h75.5c.8,2.5,2.4,4.6,4.5,6v34.6ZM711.2,422.2l-11.8,11.8h-91.2c-.5-1.4-1.3-2.7-2.4-3.7v-20.6c12-3.1,20.9-14,20.9-26.9s-8.9-23.9-20.9-26.9v-35c1.9-1.4,3.3-3.4,4.1-5.7h91.7l9.5,9.5v97.6Z"/>
  <path class="st13" d="M951.1,638.3c.1-.2.2-.5.2-.8l-.2.8Z"/>
  <rect class="st13" x="292.9" y="446.1" width="44.9" height="18.4" transform="translate(-88.8 76.6) rotate(-12.2)"/>
  <rect class="st13" x="575.3" y="604.2" width="47.1" height="44.9"/>
  <rect class="st16" x="378" y="142.8" width="21.3" height="20.6"/>
  <rect class="st16" x="272.7" y="188.1" width="11.3" height="25.4"/>
  <rect class="st16" x="276.7" y="225.5" width="15.1" height="27.7" transform="translate(-44.1 65.4) rotate(-12.2)"/>
  <rect class="st16" x="287.9" y="287.5" width="11.4" height="22" transform="translate(-56.4 68.7) rotate(-12.2)"/>
  <rect class="st16" x="293" y="311.3" width="11.4" height="21.9" transform="translate(-61.3 70.3) rotate(-12.2)"/>
  <rect class="st16" x="302.3" y="364.5" width="10.6" height="22" transform="translate(-64.5 63.8) rotate(-10.7)"/>
  <rect class="st16" x="434.5" y="356.1" width="18.3" height="54.6" transform="translate(-63.6 89.3) rotate(-10.7)"/>
  <polygon class="st16" points="479.2 294.3 479.2 275 458 275 452.6 269.7 447.2 275 424.6 275 424.6 285.9 412.8 287.1 414.8 307.5 414 308.3 415 309.3 416.7 326.5 437.8 324.4 436.7 312.8 455.2 294.3 479.2 294.3"/>
  <rect class="st16" x="309.2" y="388.6" width="9.9" height="38.5" transform="translate(-79 75.5) rotate(-12.2)"/>
  <rect class="st16" x="402.8" y="142.8" width="21.3" height="20.6"/>
  <rect class="st16" x="457.2" y="142.8" width="21.2" height="20.6"/>
  <rect class="st16" x="481.8" y="142.8" width="21.2" height="20.6"/>
  <rect class="st16" x="536.1" y="142.8" width="40.6" height="20.6"/>
  <rect class="st16" x="620.5" y="142.8" width="40.6" height="20.6"/>
  <rect class="st14" x="580.8" y="159.6" width="35.7" height="117.5"/>
  <rect class="st16" x="694" y="142.8" width="21.5" height="20.6"/>
  <rect class="st16" x="718.8" y="142.8" width="21.5" height="20.6"/>
  <rect class="st16" x="773.3" y="142.8" width="21.5" height="20.6"/>
  <rect class="st16" x="798" y="142.8" width="21.5" height="20.6"/>
  <rect class="st16" x="899.4" y="186.1" width="21.5" height="38.6"/>
  <rect class="st16" x="899.4" y="241" width="17.2" height="20.8"/>
  <rect class="st16" x="899.4" y="266" width="17.2" height="20.8"/>
  <rect class="st16" x="899.4" y="320.2" width="17.2" height="20.8"/>
  <rect class="st16" x="899.4" y="345.2" width="17.2" height="20.8"/>
  <rect class="st16" x="899.4" y="399.5" width="17.2" height="20.8"/>
  <rect class="st16" x="893.7" y="424.5" width="22.9" height="37"/>
  <rect class="st16" x="489.3" y="604.2" width="60.7" height="30.2"/>
  <rect class="st16" x="659.4" y="604.2" width="36.7" height="22"/>
  <rect class="st16" x="718.3" y="602.2" width="78.4" height="24"/>
  <polygon class="st13" points="340.3 586.6 329.7 588.6 332.9 604.8 320.7 606.9 327.5 640.6 334.4 649.2 372.6 648.9 372.4 633.4 374.3 633.4 374.3 608.3 351.2 582.5 340.3 586.6"/>
  <polygon class="st16" points="503.2 489.8 503.2 474.2 485.8 474.2 462.9 451.1 460.5 438.2 443.6 440.6 447.2 459.5 478 490 503.2 489.8"/>
  <rect class="st16" x="526.9" y="457.1" width="32.2" height="16"/>
  <rect class="st16" x="639.8" y="446.2" width="78.4" height="27.6"/>
  <rect class="st16" x="732.5" y="348" width="23.4" height="70.1"/>
  <polygon class="st16" points="734.9 273.5 734.9 293.5 748.5 293.5 756 301.3 770.3 287.8 756 273.7 734.9 273.5"/>
  <polygon class="st16" points="758.9 304 772.7 290.2 785.4 303.2 785.4 324 768.3 324 768.3 314.4 758.9 304"/>
  <rect class="st16" x="668" y="277.7" width="45.6" height="16"/>
  <rect class="st16" x="482.6" y="277.7" width="47.1" height="16"/>
  <rect class="st16" x="628.9" y="277.7" width="35.6" height="16"/>
  <rect class="st16" x="533.5" y="277.7" width="37.9" height="16"/>
  <path class="st7" d="M617.3,276.9h99.9v-1.8h9.9v-1.2h29l29.5,30.2v38.7h-28.9v78.4h12.6v39.7l-12.4,14.2-173.9-.7h-63.7v16.4h-41.2l-30.8-31.1-7.1-38.1,2.2-.4-16-75.9-7.3-42.4,28.4-28.1h32.7v2.4h99.9v-117.4h-22.6v2.5h-55.2v-3.4h-44.6v3.3h-34.4v-2.6h-44v2.1h-18.1v2.8h-55.7v-2.7h-13l-11.2,10.8c0,0-.1,13.7-.1,13.7h2.2v39.5h4.8l12.4,60.2-3.9.7,8.7,44.7,4.1-.7,6.7,32.1-2.3.6-3.7.7,12.4,63,4.1-1,7.3,35.9-17.8,3.8,23.8,122,10.9-3.6v14.7l11.1,11.1h12.9v8h104.9v-1.8h20.9v-4.4h38.7v4.2h20.2v-8.4h16.9v9.1h45.1v-8.7h16.2v8h22.3v-5.1h35.2v5.6h101v-13.3h82.9v2.4h13.6l10.8-10.8v-13.3h-2.5v-39.4h3.7v-79.9h-8v-16.2h3.9v-45h-3.9v-33.4h4v-46.7h-4v-33h4.1v-45.6h-4.1v-18.2h6.1v-40.3h2.1v-13.5l-10.2-10.5h-14.1v2.4h-62.2v-2.4h-43.9v2.1h-35v-2.4h-44.7v2.7h-54.7v-2.2h-23.3l.3,117.2h0Z"/>
  <polygon class="st16" points="796.6 626.2 718.3 626.2 718.3 602.2 734.3 602.2 734.3 607.2 779.6 607.3 779.9 602.2 796.6 602.2 796.6 626.2"/>
  <line class="st1" x1="400.5" y1="159.8" x2="400.5" y2="222.4"/>
  <line class="st1" x1="480" y1="159.8" x2="480" y2="222.4"/>
  <line class="st1" x1="440.5" y1="162" x2="440.5" y2="222.4"/>
  <line class="st1" x1="519.2" y1="162" x2="519.2" y2="222.4"/>
  <rect class="st1" x="530.5" y="232.9" width="49.7" height="43.6"/>
  <rect class="st1" x="617" y="232.9" width="49.7" height="43.6"/>
  <polyline class="st1" points="666.6 232.9 716.6 232.9 716.6 276.4 666.6 276.4"/>
  <rect class="st1" x="480" y="232.9" width="50.4" height="43.6"/>
  <polygon class="st1" points="396.3 254 417.6 232.9 480 232.9 480 274.2 447.6 274.2 432.3 289.8 396.3 254"/>
  <path class="st1" d="M677.6,162v61.1h-60.7v-64.1h23.1v2.2h54.7v-2.7h44.7v2.4h33.4v-2.1h47.1v2.4h60.6v-2.4h14.1l10.2,10.5v13.5h-2.1v41.4h-6.1v17.7h4.1v45.3h-4.1v32.5h4v46.8h-4v32.4h3.9v46.2h-3.9v15.9h8v80h-3.7v39.4h2.5v13.3l-10.8,10.8h-13.6v-2.4h-99.4v4.5h-45.2c0,.1,0-4.3,0-4.3h-16.6v13h-22.2c0,0,0-5.5,0-5.5h-35.7v5.1h-22.3v-8h-16.2v8.7h-45.1v-9.1h-16.9v8.4h-20.2v-4.2h-38.7v4.4h-20.9v1.8h-104.9v-8h-12.9l-11.1-11.1v-14.7l-10.9,3.6-23.8-122,17.8-3.8-7.3-35.9-4.1,1-12.4-63,3.7-.7,2.3-.6-6.3-30.3-4.1.7-9.2-46.4,3.9-.7-12.4-60.2h-4.8v-36.5h-2.2s.2-16.7.1-16.7l11.2-10.8h13v2.7h55.7v-2.8h18.1v-2.1h44v2.6h34.4v-3.3h46v3.4h53.8v-2.5h22.7v63.3h-217.8v-13.1h-14.2l-6.2-6.2v-38.7"/>
  <polyline class="st1" points="677.6 223.1 717.8 223.1 717.8 159.5"/>
  <polyline class="st1" points="717.8 223.1 756.7 223.1 756.7 162"/>
  <polyline class="st1" points="755.8 223.1 796.5 223.1 796.5 160"/>
  <polyline class="st1" points="796.6 223.1 836 223.1 836 162"/>
  <polyline class="st1" points="902.5 223.3 857.6 223.3 857.6 230.9 837.7 230.9 837.7 224.5 836 224.5 836 222.1"/>
  <polyline class="st1" points="837.7 231.1 837.7 263.5 900.7 263.5"/>
  <polyline class="st1" points="837.7 263.8 837.7 303.7 895.7 303.7"/>
  <polyline class="st1" points="837.7 303.7 837.7 342.8 899.4 342.8"/>
  <polyline class="st1" points="837.7 343.4 837.7 382.5 895.6 382.5"/>
  <polyline class="st1" points="837.7 383.2 837.7 422.3 899.6 422.3"/>
  <polyline class="st1" points="837.7 421.9 837.7 461 895.6 461"/>
  <polyline class="st1" points="837.7 461.4 837.7 501.5 903.6 501.5"/>
  <polyline class="st1" points="837.7 500.4 837.7 540.5 905 540.5"/>
  <path class="st1" d="M519.2,610.9v-67.9h-39.4v72.6h20.7v-4.6s18.8,0,18.7-.1Z"/>
  <polyline class="st1" points="638.6 614.5 638.6 543 678 543 678 610"/>
  <polygon class="st1" points="518.9 543 559.3 543 559.3 605.6 559.3 615.1 539.2 615.1 539.2 610.9 519.2 610.9 518.9 543"/>
  <polygon class="st1" points="717.6 543 758 543 758 598.5 758 606.9 734.8 606.9 734.8 603.1 717.9 603.1 717.6 543"/>
  <polygon class="st1" points="796.7 543 757 543 757 598.5 757 606.9 779.5 606.9 779.5 602.3 796.4 602.3 796.7 543"/>
  <polygon class="st1" points="836.2 602.3 796.5 602.3 796.5 551.4 796.5 543 828.3 543 828.3 552 835.9 552 836.2 602.3"/>
  <polyline class="st1" points="678 543 717.7 543 717.7 614.5"/>
  <polyline class="st1" points="717.4 542.8 757 542.8 757 624.9"/>
  <polyline class="st1" points="756.8 542.8 796.5 542.8 796.5 602.1"/>
  <polyline class="st1" points="795.7 542.8 828.3 542.8 828.3 551.9 836 551.9 836 602.1"/>
  <polyline class="st1" points="828.3 542.8 828.3 531.7 837.6 531.7"/>
  <polyline class="st1" points="716.6 274.9 726.4 274.9 726.4 249.2 747.9 249.2 747.9 232.9 716.6 232.9"/>
  <polyline class="st1" points="747.9 232.6 747.9 231 784.1 231 806 252.9 770.7 288.6 756 273.7 726.8 273.7"/>
  <polyline class="st1" points="770.7 288.6 785.4 303.2 785.4 333.4 810.9 333.4 810.9 318.4 809.5 318.4 809.5 312.2 826.8 312.2 826.8 274.9 824 274.9 814.6 265.1 816.6 263.2 806.3 253.3"/>
  <polyline class="st1" points="396.3 254 383.8 267.5 386 284 370.7 286.4 377.7 321.2 393.6 318 398.2 340.4 423.7 335.8 418.3 303 432.3 289.8"/>
  <polygon class="st1" points="384.5 351.5 425.1 344.1 441.2 420.2 399.4 428.9 384.5 351.5"/>
  <polygon class="st1" points="400.5 437.1 441.6 428.9 447.2 459.1 462.7 474.9 436 501.5 424.9 490.2 410.9 492.2 400.5 437.1"/>
  <polyline class="st1" points="436 501.5 450.3 516 438.7 527.3 443.9 532.7 487.8 532.2 487.8 515.1 510 515.1 510 489.8 477.8 489.8 462.7 474.9"/>
  <path class="st1" d="M518.9,531.8v-58.2h63.8v39.8h-22.4v18.2s-41.3.3-41.3.2c0,0,0,0,0,0h0Z"/>
  <polyline class="st8" points="399.6 616 399.6 566.4 413.3 553.8 442 553.8 442 616.4"/>
  <line class="st1" x1="479.4" y1="553.8" x2="442" y2="553.8"/>
  <path class="st8" d="M479.8,543h-59.8l-11.8-12.3-15.8-80.4-74.9,15.6,22.2,121.1,10.9-3.6v14.7l11.1,11.1h12.9v8h25.2v-50.7l13-13,66.7-.2s-.2-10.7.2-10.3h0Z"/>
  <polygon class="st9" points="367.4 455.4 372.3 478.4 373.6 485.1 336.5 492.4 338 498.2 324.9 500.6 323.3 501 316.6 465.4 367.4 455.4"/>
  <polyline class="st1" points="315.6 385.8 377.6 373.3 370 334.6 313.4 345.8"/>
  <polyline class="st1" points="301.6 307.8 362.3 296.2 370 334.6"/>
  <polyline class="st1" points="297.8 267.8 354.7 257.5 362.3 296.2"/>
  <polyline class="st1" points="330.8 442.5 389.2 431.7 377.6 373.3"/>
  <polygon class="st1" points="426.7 515.2 414.9 502.5 426 491.4 438.5 504 426.7 515.2"/>
  <polygon class="st1" points="438.6 527.2 426.8 515.2 438.5 504 450.3 515.7 438.6 527.2"/>
  <polyline class="st1" points="410.9 492.5 414.5 502.2 415 502.7"/>
  <line class="st1" x1="377.6" y1="320.6" x2="384.5" y2="352.1"/>
  <polyline class="st1" points="362.4 222.3 354.1 230.1 345.9 224 283.7 224"/>
  <line class="st1" x1="354.7" y1="257.5" x2="354.1" y2="229.7"/>
  <polyline class="st1" points="370.7 286.4 364.7 240.2 372.7 232.4 417.6 232.9"/>
  <line class="st1" x1="368.5" y1="269.6" x2="383.8" y2="267.5"/>
  <polyline class="st1" points="367.2 258.1 380.5 255.8 387.6 262.9"/>
  <polyline class="st1" points="785.4 333.4 785.4 342.3 826.9 342.3 826.9 312.2"/>
  <polyline class="st1" points="785.4 342.3 756.3 342.3 756.3 421.4 769.4 421.4 769.4 460.5 756.9 474.4 696.5 474.4 615.3 474.4 582.7 474.4"/>
  <polyline class="st1" points="826.9 342.3 826.9 430.9 805.8 430.9 805.8 438.4 826.7 438.4 826.7 508.4 802.6 532.6 570.5 532.6"/>
  <line class="st1" x1="518.9" y1="531.8" x2="487.8" y2="532.2"/>
  <line class="st1" x1="519" y1="490.1" x2="509.6" y2="490.1"/>
  <line class="st1" x1="580.2" y1="233.6" x2="580" y2="222.4"/>
  <line class="st1" x1="616.9" y1="223.1" x2="616.9" y2="232.9"/>
  <line class="st1" x1="579.9" y1="159.1" x2="616.5" y2="159.1"/>
  <line class="st1" x1="579.9" y1="276.4" x2="616.5" y2="276.4"/>
  <rect class="st8" x="442" y="553.5" width="37.6" height="63.4"/>
  <polygon class="st1" points="346.6 439.5 372 434.9 373.8 443.3 348.4 447.9 346.6 439.5"/>
  <line class="st1" x1="369.3" y1="435.4" x2="371.1" y2="443.8"/>
  <line class="st1" x1="366.4" y1="436" x2="368.2" y2="444.3"/>
  <line class="st1" x1="363.6" y1="436.5" x2="365.4" y2="444.8"/>
  <line class="st1" x1="360.7" y1="437" x2="362.5" y2="445.4"/>
  <line class="st1" x1="357.9" y1="437.5" x2="359.7" y2="445.9"/>
  <line class="st1" x1="355.1" y1="438" x2="356.9" y2="446.4"/>
  <line class="st1" x1="352.2" y1="438.5" x2="354" y2="446.9"/>
  <line class="st1" x1="349.4" y1="439" x2="351.1" y2="447.4"/>
  <rect class="st2" x="380.6" y="320.2" width="7.3" height="23.1" transform="translate(-60.8 87.5) rotate(-12)"/>
  <rect class="st4" x="389.5" y="331.2" width="7.3" height="10.3" transform="translate(-61.6 89.5) rotate(-12.1)"/>
  <line class="st1" x1="382.5" y1="341.4" x2="389.7" y2="339.8"/>
  <line class="st1" x1="382" y1="338.8" x2="389.1" y2="337.3"/>
  <line class="st1" x1="381.5" y1="336.3" x2="388.6" y2="334.8"/>
  <line class="st1" x1="380.9" y1="333.8" x2="388.1" y2="332.3"/>
  <line class="st1" x1="380.4" y1="331.3" x2="387.5" y2="329.7"/>
  <line class="st1" x1="379.8" y1="328.7" x2="387" y2="327.2"/>
  <line class="st1" x1="379.3" y1="326.3" x2="386.5" y2="324.7"/>
  <line class="st1" x1="378.8" y1="323.7" x2="385.9" y2="322.2"/>
  <line class="st1" x1="389.9" y1="339.6" x2="397.1" y2="338.1"/>
  <line class="st1" x1="389.4" y1="337.2" x2="396.5" y2="335.6"/>
  <line class="st1" x1="388.8" y1="334.6" x2="396" y2="333.1"/>
  <rect class="st1" x="724.9" y="241.5" width="22.6" height="7.2"/>
  <rect class="st1" x="724.9" y="233.8" width="10.1" height="7.2"/>
  <line class="st1" x1="745.1" y1="248.6" x2="745.1" y2="241.5"/>
  <line class="st1" x1="742.5" y1="248.6" x2="742.5" y2="241.5"/>
  <line class="st1" x1="740.1" y1="248.6" x2="740" y2="241.5"/>
  <line class="st1" x1="737.5" y1="248.6" x2="737.5" y2="241.5"/>
  <line class="st1" x1="735" y1="248.6" x2="735" y2="241.5"/>
  <line class="st1" x1="732.4" y1="248.6" x2="732.4" y2="241.5"/>
  <line class="st1" x1="730" y1="248.7" x2="730" y2="241.5"/>
  <line class="st1" x1="727.4" y1="248.7" x2="727.4" y2="241.5"/>
  <line class="st1" x1="732.4" y1="241.2" x2="732.4" y2="234.1"/>
  <line class="st1" x1="729.9" y1="241.2" x2="729.9" y2="234.1"/>
  <line class="st1" x1="727.4" y1="241.2" x2="727.4" y2="234.1"/>
  <polygon class="st1" points="819.3 319 819.2 334.7 826.6 334.7 826.7 319 819.3 319"/>
  <polygon class="st1" points="811.6 332.2 811.7 319 818.8 319 818.9 332.2 811.6 332.2"/>
  <line class="st1" x1="826.7" y1="334.5" x2="819.3" y2="334.5"/>
  <line class="st1" x1="826.7" y1="331.9" x2="819.3" y2="331.9"/>
  <line class="st1" x1="826.7" y1="329.3" x2="819.3" y2="329.3"/>
  <line class="st1" x1="826.7" y1="326.7" x2="819.3" y2="326.7"/>
  <line class="st1" x1="826.7" y1="324.2" x2="819.3" y2="324.2"/>
  <line class="st1" x1="826.7" y1="321.6" x2="819.3" y2="321.6"/>
  <line class="st1" x1="819.1" y1="326.7" x2="811.7" y2="326.7"/>
  <line class="st1" x1="819.1" y1="329.4" x2="811.7" y2="329.3"/>
  <line class="st1" x1="819.1" y1="324.1" x2="811.7" y2="324.1"/>
  <line class="st1" x1="819.1" y1="321.6" x2="811.7" y2="321.5"/>
  <polygon class="st1" points="493.2 523.3 509.9 523.4 509.9 515.6 493.2 515.5 493.2 523.3"/>
  <polygon class="st1" points="509.9 531.6 496.1 531.7 495.8 523.8 509.9 523.8 509.9 531.6"/>
  <line class="st1" x1="509.7" y1="515.5" x2="509.7" y2="523.3"/>
  <line class="st1" x1="506.9" y1="515.5" x2="506.9" y2="523.3"/>
  <line class="st1" x1="504.1" y1="515.5" x2="504.1" y2="523.3"/>
  <line class="st1" x1="501.3" y1="515.5" x2="501.3" y2="523.3"/>
  <line class="st1" x1="498.6" y1="515.5" x2="498.6" y2="523.3"/>
  <line class="st1" x1="495.9" y1="515.5" x2="495.9" y2="523.3"/>
  <line class="st1" x1="504" y1="523.6" x2="504" y2="531.4"/>
  <line class="st1" x1="506.9" y1="523.6" x2="506.9" y2="531.4"/>
  <line class="st1" x1="501.3" y1="523.6" x2="501.3" y2="531.4"/>
  <line class="st1" x1="498.5" y1="523.6" x2="498.5" y2="531.4"/>
  <line class="st1" x1="696.2" y1="532.8" x2="696.2" y2="474.4"/>
  <line class="st1" x1="678" y1="532.8" x2="678" y2="474.4"/>
  <line class="st1" x1="677.5" y1="514.6" x2="696.3" y2="514.6"/>
  <polyline class="st1" points="794 240.4 803.9 230.4 817.4 230.4 826.9 240.1 826.9 253.7 816.6 263.2"/>
  <line class="st1" x1="392.5" y1="450.2" x2="389.2" y2="431.7"/>
  <polyline class="st1" points="413.2 535.8 421.1 528.2 412.3 519.8 406.6 520.6"/>
  <rect class="st1" x="771.2" y="520.6" width="20.1" height="12"/>
  <rect class="st1" x="769.9" y="420.9" width="9" height="18.6"/>
  <rect class="st3" x="793" y="506.6" width="31.5" height="16.3" transform="translate(-127.1 722.6) rotate(-45)"/>
  <polyline class="st1" points="769.4 460.5 779.2 460.5 779.2 472 786 472 786 482.4 808.3 503.5"/>
  <line class="st1" x1="810" y1="451.1" x2="810" y2="438.4"/>
  <line class="st1" x1="802.7" y1="453.6" x2="797.8" y2="453.6"/>
  <polyline class="st1" points="826.9 438.6 798 438.6 798 440.9"/>
  <line class="st1" x1="816.4" y1="458" x2="816.4" y2="447.5"/>
  <line class="st1" x1="811" y1="480.4" x2="811" y2="457.2"/>
  <line class="st1" x1="798.2" y1="480.4" x2="798.2" y2="462"/>
  <line class="st1" x1="786.3" y1="462.5" x2="798.5" y2="462.5"/>
  <line class="st1" x1="798.3" y1="467.3" x2="810.8" y2="467.3"/>
  <line class="st1" x1="798.3" y1="463.4" x2="810.8" y2="463.4"/>
  <line class="st1" x1="815.9" y1="453" x2="827" y2="453"/>
  <line class="st1" x1="815.9" y1="447.9" x2="827" y2="447.9"/>
  <polyline class="st1" points="817.2 487.6 817.2 495.1 814.5 497.5"/>
  <line class="st1" x1="817.2" y1="483.1" x2="817.2" y2="476.6"/>
  <line class="st1" x1="816.7" y1="482.6" x2="827" y2="482.6"/>
  <line class="st1" x1="816.7" y1="487.5" x2="827" y2="487.5"/>
  <line class="st1" x1="816.6" y1="477" x2="827" y2="477"/>
  <line class="st1" x1="786.1" y1="472" x2="798.5" y2="472"/>
  <line class="st1" x1="786.5" y1="463.1" x2="786.5" y2="454.6"/>
  <rect class="st1" x="811.2" y="457.8" width="15.6" height="10.2"/>
  <rect class="st1" x="786.5" y="440.6" width="11.6" height="14.4"/>
  <polygon class="st1" points="814.5 497.5 808.3 503.7 802.4 497.8 808.5 491.6 814.5 497.5"/>
  <polyline class="st1" points="583.2 512.6 583.2 532.7 570.6 532.7 570.6 524.7 583.3 524.7"/>
  <polyline class="st1" points="560.1 524.7 566.1 524.7 570.6 524.7"/>
  <line class="st1" x1="391.6" y1="443.3" x2="401.8" y2="441.8"/>
  <line class="st1" x1="388.3" y1="425.4" x2="398.5" y2="423.9"/>
  <polyline class="st1" points="828.6 531.7 821.7 531.7 833.1 520.2 838 520.2"/>
  <line class="st1" x1="414.9" y1="502.5" x2="426.3" y2="491.2"/>
  <polygon class="st1" points="814.7 520.8 825.4 509.2 814.5 498.3 803.1 509.7 814.7 520.8"/>
  <polygon class="st1" points="803.5 531.7 814.6 520.8 803.1 509.7 792.4 520.4 803.5 531.7"/>
  <line class="st1" x1="825.6" y1="509.4" x2="814.2" y2="498.1"/>
  <rect class="st1" x="784.9" y="354.4" width="27.1" height="54.7"/>
  <polyline class="st1" points="805.8 430.9 788.5 430.9 788.5 421.4 805.5 421.4"/>
  <polyline class="st1" points="805.7 408.9 805.7 394.3 812.2 394.3"/>
  <line class="st1" x1="805.8" y1="396.4" x2="812" y2="396.4"/>
  <line class="st1" x1="805.8" y1="398.3" x2="812" y2="398.3"/>
  <line class="st1" x1="805.8" y1="400.5" x2="812" y2="400.5"/>
  <line class="st1" x1="805.8" y1="402.6" x2="812" y2="402.6"/>
  <line class="st1" x1="820.2" y1="504.1" x2="826.7" y2="497.5"/>
  <polyline class="st1" points="577.4 610.2 581.8 610.2 595.8 605.1 602.7 605.1 616 610.4 621.6 610.4"/>
  <line class="st1" x1="800.6" y1="247.5" x2="818.3" y2="231.1"/>
  <line class="st1" x1="559.2" y1="564.4" x2="638.5" y2="564.4"/>
  <line class="st1" x1="559.3" y1="543" x2="638.6" y2="543"/>
  <polyline class="st1" points="319.8 484.3 331.2 482.4 334.9 485.1 372.3 478.4 367.4 455.1"/>
  <rect class="st5" x="377.5" y="451.8" width="15.9" height="8.6" transform="translate(-85.2 88.5) rotate(-11.8)"/>
  <line class="st1" x1="373.6" y1="443.5" x2="390.9" y2="440.1"/>
  <g class="st17">
    <rect class="st15" x="555.7" y="355.4" width="84.5" height="52.5"/>
    <path class="st12" d="M643.8,375.3c-.6-.4-.8-.5-1.1-1.1-.3-.6-1.2-1.1-1.6-1.9-.4-.9-.3-2,.2-2.3.5-.4.4-.6.9-.9.5-.3.7-.5,1.2-1.1.4-.6,1.4-.6,2-.4s1,.7,1,.7l.4-.5s-.8-1.5-2.2-2.4c-1.4-.9-2.1-1.4-3-2.2s-1.3-.5-2.1-1.5c-.8-1-1.7-1.2-2-2.4-.3-1.2-.5-2.4-.6-3.5s-.4-1.6,0-2.4c.4-.8.3-1,1.4-1.2s2-1,2-1v-.3c0,0-1.2,1-2,.8s-1.5.4-2.3.5c-.8,0-1,.3-1.8.2s-1.4.3-2.8.6c-1.4.3-3.1.7-4,.4-.9-.3-.7-.7-1.5-1.3s-.6-1.3-1.3-1.9c-.6-.6-.7-1.4-1.4-2.6-.7-1.3-.8-1.6-.8-1.6l-.4.2s.1.3.4,1.2c.2.8.6.9.8,1.8.3.9.5,1,.4,1.5s-.3,1.1-.7,1.4-.8.7-1.6,1c-.8.3-.6.7-1.2.7s-1.1,0-1.8.9c-.7,1-.7,1.7-2,2.3-1.3.6-1.7,1-2.4,1-2.7,0-5-.3-5.9-.3-1.6,0-2.5-.5-2.8-.7,0,0,0-.1.1-.2.5-.6.7-.7,1-1s.2-.3.8-.6,1.1-.7,1.6-1.1,1.1-.3,1.1-.3l-2.1-1.2c-1.4,3.4-1.4,2.3-1.8,3-.4.7-.4.8-.9,1.2-.5.4-.9,1.3-1.7,1.8-.8.5-1.9.5-2.4,0-.4-.4-.6-.3-1-.8-.4-.5-.6-.7-1.2-1.1s-.7-1.4-.6-2,.6-1,.6-1l-.5-.4s-1.4,1-2.2,2.4-1.2,2.2-1.9,3.2c-.2.3-.3.5-.4.7-.3-.1-.9-.5-1.7-1-1-.7-1.3-1.3-1.6-1.5s-.8-1.4-.8-1.4-.7,0-.7.1.5.9.3,1.1-1,.8-1.6.8-2.6.3-3.6.5-2.1.7-3,1.2-1.6.6-2.3.3h0c-.8-.4-1.2-.2-2-1-.9-.9-1.9-.9-2.3-2.1s-.9-2.3-1.2-3.4-.7-1.5-.4-2.3.1-1,1.1-1.4,1.9-1.3,1.9-1.3v-.3c-.1,0-1,1.2-1.8,1.1s-1.4.6-2.2.8-.9.5-1.8.4-1.3.5-2.6,1c-1.3.5-3,1.2-3.8,1s-.8-.6-1.7-1c-.9-.4-.8-1.1-1.6-1.7s-1-1.2-1.8-2.4-1.1-1.5-1.1-1.5l-.4.3s.2.3.6,1.1.7.8,1.1,1.7.7.9.7,1.4-.2,1.1-.4,1.5-.7.8-1.4,1.2c-.7.4-.4.7-1,.9s-1.1,0-1.6,1.2-.4,1.8-1.6,2.6-1.6,1.1-2.2,1.4-.9.2-1.5.5-1.5.5-1.5.5l.3.9s.2-.3,1.1-.5.9-.7,1.4-.5.8-.4,1.3-.3.6-.1,1,.8.9,1.1,1.3,2.1.9.9,1.2,1.9.4,1.4-.3,1.7-.7.6-2,1.8-1.2,1.5-1.2,1.5h.3c0,0,1.6-2,2.2-2.4s.6-.9,1.4-.9,1.5-.2,2.3-.7.6,0,1.6-.3.9,0,2-.2,1.2,0,1.7,0,.9.5,1.7.8,1.1,1,1.4,1.6.4,1.5.8,2.1.2,1,.5,1.7c.3.6-.1,1.9-.6,2.6-.3.1-.6.3-.9.3-.6.1-.6,0-1.4.5s-1,0-2.3.6-1.6.8-2.6,1.2c-1,.5-.9.3-1.4.5-.6.2-.7.4-1.5.3-.7,0-1.3,0-1.8-.6-.5-.5-.5-.8-.9-1.2s-.6-.6-1.2-1.2-.6-.8-.9-1.2c-.2-.4-.3-.3-.5-.8-.3-.6-.5-1.2-.8-1.8-.3-.6-.1-1.1-.1-1.1l-1.6,1.9c3.1,2,2,1.8,2.6,2.3s.7.5,1,1.1c.3.6,1.1,1.1,1.5,2,.3.9.2,2-.3,2.3s-.4.6-.9.9c-.5.3-.8.4-1.2,1-.5.6-1.5.5-2.1.3-.6-.2-.9-.7-.9-.7l-.5.5s.7,1.5,2,2.6c1.3,1,2,1.5,2.8,2.4s1.3.6,2,1.7c.7,1.1,1.6,1.3,1.8,2.5s.3,2.4.4,3.6c0,1.2.3,1.6,0,2.4-.4.8-.4.8-1.4,1.1-3.1.8-5.6,3-5.6,3l.9.3s1.8-2.4,2.6-2.2c1.1.3.7-1,4.3-1,.8,0,1-.3,1.8,0s1.4-.2,2.8-.4c1.4-.2,3.1-.5,4-.1s.6.8,1.4,1.4.6,1.3,1.2,2,.7,1.4,1.3,2.7.7,1.7.7,1.7l.4-.2s-.1-.3-.3-1.2-.5-1-.7-1.8c-.2-.9-.5-1-.4-1.5s.4-1.1.7-1.4c.2-.2.5-.4.9-.6.9-.3,1.7.4,3.1.3,1.4,0,2.7.5,3.7.8s3.3-.3,3.9-.5,1.3.6,2.1.6,2.7,1.3,2.5,2.6c-.2.3-.4.5-.8.8-1.2.8-1.6,1.1-2.2,1.4s-.9.2-1.5.5-1.5.5-1.5.5l.3.9s.2-.3,1.1-.5.9-.7,1.4-.5.8-.4,1.3-.3.6-.1,1,.8.9,1.1,1.3,2.1.9.9,1.2,1.9.4,1.4-.3,1.7-.7.6-2,1.8-1.2,1.5-1.2,1.5h.3c0,0,1.6-2,2.2-2.4s.6-.9,1.4-.9,1.5-.2,2.3-.7.6,0,1.6-.3.9,0,2-.2,1.2,0,1.7,0,.9.5,1.7.8,1.1,1,1.4,1.6.4,1.5.8,2.1.2,1,.5,1.7-.2,2-.6,2.6-.6.8-.6.8l.3.8s1.2-1,1.8-1.3.6-.2,1.3-.8,1-.2,2.1-1.1,1.4-1.1,2.3-1.8.8-.4,1.3-.8.6-.5,1.4-.6,1.3-.2,1.9.2.7.7,1.1,1,.7.4,1.4.9.8.6,1.1,1,.3.2.7.7.7,1,1.1,1.6.4,1.1.4,1.1l1.1-2.2c-3.4-1.3-2.4-1.3-3.1-1.7s-.8-.3-1.3-.9-1.4-.9-1.9-1.7-.6-1.9-.2-2.3.3-.6.7-1,.7-.6,1-1.3,1.3-.8,1.9-.7,1,.5,1,.5l.3-.5s-1-1.3-2.5-2.1-2.3-1-3.3-1.7-1.4-.3-2.3-1.2-1.9-.9-2.3-2.1-.9-2.3-1.2-3.4-.7-1.5-.4-2.3.1-1,1.1-1.4c.4-.2.8-.4,1.1-.7h0s0,0,0,0c.2-.2.4-.3.5-.4.6-.4.6-.9,1.4-.9.8,0,1.5-.2,2.3-.7s.6,0,1.6-.3.9,0,2-.2,1.2,0,1.7,0,.9.5,1.7.8,1.1,1,1.4,1.6.4,1.5.8,2.1.2,1,.5,1.7-.2,2-.6,2.6-.6.8-.6.8l.3.8s1.2-1,1.8-1.3.6-.2,1.3-.8,1-.2,2.1-1.1,1.4-1.1,2.3-1.8.8-.4,1.3-.8.6-.5,1.4-.6,1.3-.2,1.9.2.7.7,1.1,1,.7.4,1.4.9.8.6,1.1,1,.3.2.7.7.7,1,1.1,1.6.4,1.1.4,1.1l1.1-2.2c-3.4-1.3-2.4-1.3-3.1-1.7s-.8-.3-1.3-.9-1.4-.9-1.9-1.7-.6-1.9-.2-2.3.3-.6.7-1,.7-.6,1-1.3,1.3-.8,1.9-.7,1,.5,1,.5l.3-.5s-1-1.3-2.5-2.1-2.3-1-3.3-1.7-1.4-.3-2.3-1.2-1.9-.9-2.3-2.1-.9-2.3-1.2-3.4-.7-1.5-.4-2.3c0-.1,0-.3,0-.4.4-.2,1.3-.7,1.8-.9.6-.2.6-.1,1.4-.6.8-.5,1,0,2.3-.7,1.3-.7,1.5-.9,2.5-1.4s.8-.3,1.4-.5.7-.4,1.5-.4c.7,0,1.3,0,1.9.5s.5.8,1,1.1.7.5,1.2,1.1.6.7.9,1.1c.3.4.3.3.6.8s.6,1.1.9,1.7.2,1.1.2,1.1l1.4-2c-3.2-1.8-2.1-1.7-2.8-2.1h0ZM554.3,359.6c0,.7-.2,1-.3,1.1-.2,0-.4-.3-.6-.7s-.2-.3-.6-.6-.3-.4,0-.9.5-.4,1-.9.4-.5.7.1,0,1.1-.1,1.8h0ZM635.4,353c0-.2.3-.3.5-.3s.5-.2.6,0c.1.1,0,.2,0,.5s-.2.4-.3.4c-.1,0-.2,0-.4,0s-.4-.3-.4-.5h0ZM628.1,353.9c.5,0,.5-.4,1.2-.5s1.5-.2,2.3-.4,2.2-.3,2.6-.2c.5,0,1.1.7,1.6,1.1s.5.8.6,1.9.5,3.2.5,3.6-.2.7-.9,1.2c0,0-.3,0-.6.1-.2,0-.7.2-1.1.3-.4.1-.7.3-1,.4-.4,0-1.2-.4-1.6-.9s-.3-.9-1-1.4-.6-.7-1.2-1c-.5-.4,0-.2-1-1.3s-1.1-1.5-1.2-2,.3-.9.8-.9h0ZM632.7,363.9c.1.4.3.7.4.9,0,.2,0,.3-.4.2-.2,0-.5-.2-.8-.2s-.2-.2-.4,0-.2,0-.6,0-.7,0-1.1-.3c-.4-.2-.9-.2-1.2-.4-.3-.1-.3-.6.2-1s.9-.4,1.4-.4.7-.2,1-.1.3,0,.6,0,.1.2.4.5.4.4.5.8h0ZM624.2,351c0-.3,0-.4.3-.3.2,0,.3,0,.6.3s.5.8.7,1.2.7.7,1,.9c.3.2.5.6.4.8s-.2.4-.6.3c-.4,0-.5-.5-1-.7-.5-.2-.7-.2-1-.7s-.6-.9-.7-1.2c0-.3.1-.4.2-.7ZM622,352.7c.2-.2.6-.3,1-.3s.8,0,1,0,.1.5,0,.8c-.2.4-.4.3-.8.3-.4,0-.5.1-.8.1s-.5,0-.6-.3c0-.1,0-.5.3-.7ZM618.1,356.9c0-.7.2-.6.4-1.3.2-.7.4-.4.6-1,.2-.6.7-.6,1.1-.5s1.1,0,1.4,0,1.4-.3,2-.3c.6,0,1.6,0,2.2.7.7.6,1.3.6,1.6,1.4s.5.6.8,1.5.7,1,1.7,2c1,1,1.4,2.2.9,2.4-.5.2-.8.4-1.3.6-.5.2-1,.5-1.4.8s-.9.4-1.4.5c-.5.1-.3-.1-1,.2s-.7.3-1.3.5c-.5.1-.7.5-1.2.4s-1.2.2-1.7.1-1.4,0-2.2-.6c-.5-.3-.9-.6-1.4-1.6-.5-1-.8-2.4-.6-2.8s.5-.8.5-1.6.1-.7.2-1.4h0ZM628.9,372.5c.2.7-.5,1.9-1,2.5,0,.1-.2.2-.3.3-.4.2-.7.4-1.1.5-.7.2-.9.5-1.8.4s-1.3.5-2.6,1c-1.3.5-3,1.2-3.8,1s-.8-.6-1.7-1-.8-1.1-1.6-1.7-1-1.2-1.8-2.4c-.1-.2-.2-.3-.3-.4-.3-.7-.6-1.1-.3-2.1.3-1,.7-1.7,1.9-2.8.6-.5,1.4-1.2,1.8-1.4.7-.3.7-.8,1.5-.7.8.1,1.5,0,2.4-.3s.6,0,1.6,0c1-.1.9.1,2,0,1.1,0,1.2.1,1.7.2s.8.7,1.6,1.1.9,1.2,1.1,1.8c.1.6.2,1.5.5,2.2.3.6,0,1,.2,1.7ZM627.2,376.7c0,.3-.1.4-.2.4-.1,0-.2,0-.4,0s-.5-.2-.5-.4.3-.3.4-.4.4-.3.6-.2.1.2,0,.5h0ZM608,383.5c-1.2.8-1.6,1.1-2.2,1.4s-.9.2-1.5.5c-.2.1-.5.3-.8.3,0,0,0,0,0,0h0c0,0-.1,0-.2,0-.5.1-.9,0-1.2-.3-.6-.5-1.7-1.5-1.9-1.9-.3-.6-.9-.6-.8-1.5,0-.8-.1-1.5-.5-2.4s0-.6-.2-1.6,0-.9-.1-2,0-1.2,0-1.7.6-.9.9-1.7c.4-.8,1.1-1.1,1.7-1.3.6-.2,1.5-.4,2.1-.7s1-.1,1.7-.4c.6-.3,2,.3,2.6.7,0,0,0,0,0,0,.9,2,4.1.5,4.7,1.6,0,0,0,.2.1.3.4.8.7.8,1.1,1.7s.7.9.7,1.4-.2,1.1-.4,1.5-.7.8-1.4,1.2-.4.7-1,.9-1.1,0-1.6,1.2-.4,1.8-1.6,2.6h0ZM608.9,385.6c0,.7-.2,1-.3,1.1-.2,0-.4-.3-.6-.7s-.2-.3-.6-.6-.3-.4,0-.9.5-.4,1-.9.4-.5.7.1,0,1.1-.1,1.8h0ZM601.9,392.6c0,.5,0,2.7-.2,3,0,0,0,0,0,0-.2,0-.3.2-.5.2-1.3.5-3,1.2-3.8,1s-.8-.6-1.7-1-.8-1.1-1.6-1.7,1.3-2.3.4-3.4c-.4-.5-.7-1-.8-1.3h0s0,0,0,0c-.1-.3-.2-.5-.2-.5,0-.2,0-.4-.1-.6-.1-.9-.6-.9-.5-1.4s-.4-.8-.2-1.3-.1-.6.9-.9,1.2-.8,2.2-1.2c1-.4.9-.8,2-1.1s1.4-.3,1.7.4c.3.6.5.7,1.4,1.7,0,0,.4.4.7,1.6.4,1.2,0,2.5,0,3.8s.4,2.2.5,2.7h0ZM593.6,396c-.1-.3,0-.4,0-.7s0-.4.3-.4.3,0,.6.3.6.7.9,1.1.8.6,1.1.8.6.5.5.7-.2.4-.5.4-.6-.4-1.1-.5-.7,0-1.1-.6-.7-.8-.9-1h0ZM593.8,397.7c-.1.4-.3.3-.7.4s-.5.2-.7.2-.5,0-.7-.2c0-.1,0-.5.2-.7s.5-.4.9-.5.8-.2,1,0,.2.4,0,.8h0ZM577,393.3c-.1.6-.2.6-.4,1.3s-.5.3-.7.9-.7.5-1.1.5c-.4,0-1.1-.1-1.4,0s-1.4.2-2,.2-1.6-.2-2.2-.8c-.6-.6-1.2-.7-1.5-1.5s-.5-.6-.7-1.5-.6-1.1-1.5-2.1c-.9-1.1-1.3-2.3-.8-2.5.5-.2.8-.4,1.3-.5.5-.1,1-.5,1.4-.7.4-.2.9-.4,1.4-.5.5,0,.3.1,1-.2.7-.3.8-.3,1.3-.4.5-.1.7-.4,1.3-.3.5.1,1.2-.2,1.7,0,.5.1,1.4.1,2.2.7.5.4.8.7,1.3,1.7.5,1,.7,2.4.5,2.8-.2.4-.5.8-.6,1.6,0,.8-.2.7-.3,1.4h0ZM564.3,387c-.4-.1-.3,0-.6-.1s-.1-.2-.4-.5c-.3-.3-.4-.4-.5-.8-.1-.4-.3-.7-.3-.9,0-.2,0-.3.4-.2.2,0,.5.3.8.2.3,0,.2.2.4.1.3,0,.2,0,.6,0s.7,0,1.1.3.9.3,1.2.4c.3.2.2.6-.2,1-.5.4-.9.3-1.5.4-.5,0-.7.2-1,0h0ZM567.1,377.1c-.2-.7.6-1.9,1.1-2.4.3-.2.7-.5,1-.6.6-.3.6-.2,1.3-.8s1-.2,2.1-1.1c1.1-.9,1.4-1.1,2.3-1.8s.8-.4,1.3-.8.6-.5,1.4-.6,1.3-.2,1.9.2.7.7,1.1,1,.7.4,1.4.9.8.6,1.1,1,.3.2.7.7.7,1,1.1,1.6c.1.2.2.4.3.5-.1.1-.3.3-.5.7-.5.9-1.2.8-1.7,1.5,0,0-2.6,2.6-3.3,2.8-.7.2-1.6,3.1-2.4,3.4s-1,1.2-2,1.4-.6-.1-1.6,0c-1,0-.9-.2-2-.2s-1.2-.2-1.7-.3c-.5-.1-.8-.7-1.5-1.2s-.9-1.2-1-1.8-.1-1.6-.3-2.2,0-1-.1-1.7ZM576.9,368.2c0-.4.1-.6.2-.9s0-.6.2-.7.3.2.5.3.8,0,1,0,.4.3.5.7,0,.5-.5.8-.6.1-1,.3-.6.2-.8,0c-.2-.2,0-.1,0-.5ZM583.2,364.2c.2.5.5.9.6,1.3.2.7.4,1,.4,1.8s.4,1.4.9,2.7c.3,1,.7,2.1.8,3-2.8-1.1-1.9-1.1-2.5-1.5-.7-.3-.8-.3-1.3-.9s-1.4-.9-1.9-1.7-.6-1.9-.2-2.3.3-.6.7-1,.7-.6,1-1.3c.3-.7,1.1-.8,1.5-.2h0ZM594.7,368.7c0-.3.2-.1.5-.5.3-.3.4-.4.7-.6s.6-.4.9-.5.3,0,.3.4c0,.2-.2.5,0,.8s-.2.2,0,.4c.1.3,0,.2,0,.6,0,.5,0,.7-.1,1.1-.2.4-.1.9-.2,1.2-.1.3-.6.3-1,0-.5-.4-.5-.9-.6-1.4s-.3-.6-.2-1c0-.4,0-.3,0-.6ZM597.4,369.7c0-.8-.2-1,.2-1.9s.6-1.3.8-2c.1-.7.2-1.3.6-1.6s0-.3.5-.7,1.3-1.1,2-1.6.7.1,1.2.4c.5.2,1.1.9,1.2,1.4.1.6.5.8.8,1.8.3,1.1,1,1.7,1.2,2.1.3.4.5,1.1.3,1.6,0,.1-.1,0-.4.1-.3,0-.5,0-1.1.4-.5.4-1,.6-1.7.7s-1.1.1-1.5.4c-.4.2-.9.5-1.5.7-.5.2-.6.3-1.4.3s-1.1-.3-1.2-.8c-.1-.6,0-.4,0-1.2ZM598.2,372.3c.4,0,.8,0,.8.2,0,.3-.3.4-.5.6-.3.2-.6.6-.8.8-.3.2-.7-.2-.9-.4s-.4-.6-.4-.7.3-.4.6-.5.7-.1,1.1,0h0ZM594.8,370.9c.2.5.6.9.9,1.3s.5.9.7,1.3,0,.3.3.9c.4.6.4.7.6,1.2s.5.6.5,1.2.4,1.2.3,1.7c0,.5.1,1.4-.4,2.3-.3.5-.6.9-1.5,1.5s-2.3,1.1-2.7.9c-.4-.1-.8-.4-1.7-.3s-.7,0-1.4,0-.6-.1-1.4-.2c-.8,0-.4-.4-1-.5s-.6-.6-.6-1,0-1.1-.2-1.4c-.1-.3-.5-1.3-.5-1.9,0-.6,0-1.6.4-2.3s.5-1.3,1.2-1.8c.8-.4.5-.6,1.4-.9s.9-.8,1.8-1.9,2-1.6,2.3-1.2.5.7.7,1.2h0ZM593.1,384.6c-.3.1-.3.2-.7.5s-.5.2-.9,0-.4-.6-.8-1c-.4-.4-.4-.5.1-.7.6-.2,1.1.1,1.8.2s1,.2,1.1.4c0,.2-.4.4-.7.5h0ZM585.9,374.6c.2-.3.5-.6.7-.5s.4.2.4.5c0,.4-.4.6-.6,1-.2.5-.1.7-.6,1-.5.3-.8.7-1.1.8s-.4,0-.7-.1-.4,0-.4-.3,0-.3.3-.6.7-.6,1.1-.9c.4-.3.6-.7.8-1.1h0ZM585.5,377.5c.1-.2.5-.2.8,0s.3.3.4.7c0,.4.2.5.2.7s0,.5-.3.6c-.1,0-.5,0-.7-.2s-.4-.5-.4-.9-.2-.8,0-1h0ZM592.7,368.9c-.5.5-.9.4-1.3,1.1-.4.8-.6.7-.9,1.3s-.2,0-1.2,1.2-1.3,1.3-1.9,1.5-.9-.2-1-.7-.4-.4-.6-1.1c-.2-.7-.4-1.5-.7-2.3-.3-.8-.5-2.1-.5-2.6,0-.5.6-1.2.9-1.7s.7-.5,1.9-.8,3.1-.9,3.5-.9c.4,0,.7,0,1.3.8,0,0,.1.3.2.6s.3.7.5,1,.4.6.5,1-.2,1.2-.7,1.7h0ZM585.2,365.6c-.1.2-.2.5-.4.5s-.3-.3-.4-.5-.2-.5-.1-.6.2-.1.5,0c.3,0,.4.1.4.2,0,.1,0,.2,0,.4h0ZM568.9,385.7c-.2.1-.7.3-.8.2s-.3-.3-.4-.7,0-.8.2-1.1c.2-.4,0-.8.4-.7.2,0,.4.3.5.6s.5.6.6.9c.1.3-.3.7-.5.8h0ZM578.1,391.4c.2-.7.4-1,.6-1,.2,0,.3.4.4.8,0,.4.1.3.4.8s.2.5-.2.9-.6.3-1.1.6c-.5.3-.5.4-.6-.3s.3-1.1.5-1.8h0ZM579.3,390.8c-.2-1-.6-1.3-.8-2.3-.2-1-.7-1.1-.8-2.2s-.2-1.9.2-2.5c.6-.9.7-3,2.3-3.9s2.2-2,2.9-2c0,0,0,0,0,0,.1,0,.2,0,.3,0,.5,0,1.1.2,1.5.5.4.3.8.7,1.1,1.5s.7.5.8,1.1,0,1.1,1.1,1.7,1.7.5,2.5,1.7,1,1.6,1.3,2.3.2.8.4,1.5.3.6.4.9c-.3.3-1.5,1.1-2.3,1-1.8-.2-4.7,1.2-5.7,1-.5,0-4.2,1-4.7.7-.4-.2-.6,0-.8-1h0ZM611.9,371.2c-.4.5-.7.8-1.7.6s-1.5-1.1-1.3-1.7c.1-.4.5-.5.9-.6,1,0,2.6-.3,2.6,0,0,.2-.2,1.2-.6,1.7h0ZM612.8,378.7c.2-.2.5-.4.9-.5s.8-.2,1,0,.2.4,0,.8-.3.3-.7.4-.5.2-.7.2-.5,0-.7-.2c0-.1,0-.5.2-.7h0ZM614.6,377.3c-.1-.3,0-.4,0-.7s0-.4.3-.4.3,0,.6.3.6.7.9,1.1.8.6,1.1.8.6.5.5.7-.2.4-.5.4-.6-.4-1.1-.5-.7,0-1.1-.6-.7-.8-.9-1h0ZM626.6,364.1c.2-.1.6-.3.8-.3s.4.3.4.7c0,.3,0,.8,0,1.1s0,.8-.3.8c-.2,0-.4-.3-.6-.6s-.5-.6-.7-.9c-.1-.3.2-.7.4-.8ZM615.8,357.6c.3-.4.6-.3,1.1-.7s.5-.4.6.2c.1.6-.3,1.1-.4,1.8s-.3,1-.5,1.1c-.2,0-.4-.4-.4-.8,0-.3-.2-.3-.5-.7s-.2-.5.1-.9h0ZM603.5,359c0-.1.2-.2.2-.3.3,0,3.3-1,6.1-.9.9,0,2.7,0,3.2.2.5.2,1.6.4,2.1.6.5.2.6,0,.8,1s.7,1.3,1,2.3.7,1,.9,2.1.2,1.4-.5,1.6-.8.5-2.3,1.5c0,0-.1,0-.2.1,0,0,0,0,0,0-.8.6-1.1.5-2.9.7-.8,0-1.4.3-1.9.6-.9.3-2.1.6-2.4.2,0,0,0,0,0-.1h0c0-.1-.1-.2-.2-.3,0,0,0-.1-.1-.2-.6-.7-.1-1-1-2.2s-1-1.4-1.7-2.3-.4-.8-.7-1.3-.5-.7-.6-1.4-.1-1.3.3-1.9h0ZM601.1,360.5c0-.2,0-.8.1-.9s.3-.4.8-.4c.5,0,.5,0,.7.5.3.5,0,.6.2,1,.1.5.2.6,0,.8-.2.1-.1,0-.5,0s-.6-.1-.9-.3c-.3-.1-.6,0-.7-.2s.2-.3.3-.5h0ZM594.4,359.9c.2-.3.3-.8.3-.8.4-1.3.7-1.9,1.2-2.4s1-.8,1.5-.6.7.5.9.8,0,.5.4.8c.4.4.4.4.9.6.4.2.3.5.5,1.1.2.5.3.8,0,1.8-.4.9-.2.9-.5,1.2s-.2.8-.5,1.1c-.3.3-.2.7-.5,1-.3.3-.3.2-.5.8-.3.5-.2.7-.9,1.1s-1.2,1.3-1.9,1.5-1,0-1.2-.3-.2-.3-.4-.8-.5-.6-.6-1.3c0-.7-.3-.6-.2-.9,0-.4-.2-.7,0-1.3s.3-.8.5-1.4.4-.5.8-1,.1-.5.3-.9h0ZM586.2,358c2.8-.1,3.7-1.3,4.9-.3s2.2,2.9,2.2,2.9l.2-.4c-.1.2-.3.5-.6.8-.9.9-1,1.8-2.2,2.2-1.2.4-2.3.7-3.5,1-1.1.3-1.5.6-2.4.3-.8-.3-1-.2-1.3-1.2,0-.3-.2-.5-.3-.7,0,0,0,0,0-.1h0c-.2-.3-.4-.5-.5-.7-.4-.5-.7-1-.7-1-1-1,1.6-2.6,4.3-2.7h0ZM574.8,358.6c.6.3.8.3,1.4.5s.5.4,1.1.8.5,0,.9.3.9.3.9.3c1.4.4,1.9.6,2.4,1.1s.9,1,.7,1.5-.4.8-.7.9-.5,0-.8.5-.4.5-.5.9-.5.3-1,.5-.8.4-1.8,0-.9-.2-1.3-.5-.8-.2-1.1-.4-.7-.2-1-.5-.3-.3-.8-.5-.7-.2-1.1-.9-1.3-1.1-1.6-1.8,0-1,.2-1.2.3-.3.7-.5.6-.6,1.3-.7.6-.3.9-.3.7-.3,1.3,0h0ZM571.9,350.5c.2,0,.4-.3.6-.2s.1.2,0,.5c0,.3-.1.4-.2.4-.1,0-.2,0-.4,0s-.5-.2-.5-.4.3-.3.4-.4h0ZM564.4,352.9c.5-.1.4-.4,1.1-.7s1.5-.5,2.2-.8,2.1-.6,2.6-.6,1.2.6,1.7.8.6.7.9,1.8c.3,1.1,1,3,1.1,3.5s0,.7-.7,1.3c0,0-.3.1-.5.2s-.6.3-1,.5-.6.4-1,.5-1.2-.2-1.8-.6c-.5-.5-.4-.9-1.2-1.2s-.7-.5-1.3-.8,0-.2-1.2-1.1-1.3-1.3-1.6-1.8c-.2-.5.2-.9.7-1h0ZM560.1,350.7c0-.3,0-.4.3-.4s.3,0,.6.3c.3.3.6.7.9,1.1s.8.6,1.1.8.6.5.5.7c0,.2-.2.4-.5.4s-.6-.4-1.1-.5c-.5-.2-.7,0-1.1-.6s-.7-.8-.9-1,0-.4,0-.7h0ZM558.2,352.7c.2-.2.5-.4.9-.5s.8-.2,1,0,.2.4,0,.8-.3.3-.7.4c-.4,0-.5.2-.7.2s-.5,0-.7-.2c0-.1,0-.5.2-.7h0ZM565.9,364.6c0,.4,0,.8-.2.8s-.4-.2-.6-.5-.6-.5-.8-.8.1-.7.3-.9.6-.4.7-.4.4.3.5.6.2.7,0,1.1h0ZM564.6,362.8c-.5.2-.3,0-.9.4s-.7.4-1.2.7-.6.6-1.2.6-1.2.4-1.7.4-1.4.2-2.3-.3c-.5-.3-1-.5-1.6-1.4s-1.2-2.2-1.1-2.7.4-.9.2-1.7,0-.7,0-1.4.1-.6.2-1.4.4-.4.5-1,.6-.7,1-.7,1.1-.1,1.4-.3,1.3-.5,1.9-.6c.6,0,1.6-.2,2.3.3s1.4.4,1.8,1.1.6.5,1,1.3.8.9,2,1.7,1.7,2,1.3,2.2-.7.5-1.2.8-.9.7-1.2,1-.8.6-1.3.8h0ZM566.4,361.9c.4-.5.8-.5,1.4-.7s.6-.3,1-.3.3,0,.6,0,.2.2.5.4.4.3.6.7.4.6.5.8,0,.3-.4.3c-.2,0-.5-.1-.8,0s-.2-.2-.4,0c-.3.1-.2,0-.6,0-.5,0-.7,0-1.1,0s-.9,0-1.2-.2-.4-.6,0-1h0ZM568.1,369.2c-.1-.7-.2-1.1-.4-1.5s-.6-.9-.8-1.4-.3-.6-.3-1.4.2-1.1.8-1.3.4,0,1.2,0c.8,0,1-.2,1.9,0s1.4.6,2,.7,1.3.2,1.6.5.3,0,.8.4,1.2,1.3,1.7,1.9,0,.7-.3,1.2-.8,1.1-1.4,1.3-.7.6-1.8.9-1.6,1-2,1.3-1.1.6-1.6.3c-.1,0,0-.1-.2-.4s0-.5-.5-1-.6-1-.7-1.7h0ZM558.6,378.1c.3-.5,1-.9,1.6-1s.8-.4,2-.5,1.8-.7,2.3-.9c.5-.2,1.2-.4,1.6,0,.1,0,0,.1,0,.4s0,.5.3,1.1c.3.6.4,1.1.4,1.8s0,1.1.1,1.5.4,1,.4,1.6.2.7,0,1.4c-.2.7-.4,1-1,1.1s-.4-.1-1.2-.2-1,0-1.8-.5-1.2-.9-1.8-1.1-1.2-.4-1.5-.8c-.3-.4-.3-.1-.6-.6s-.9-1.5-1.3-2.2c-.4-.7.2-.6.5-1.1h0ZM555.4,378.2c0-.5.1-.5.7-.6s.6,0,1.1,0c.5,0,.6,0,.8.2.1.2,0,.1,0,.5s-.2.5-.4.8-.2.6-.4.6-.3-.3-.5-.4c-.2-.1-.8-.2-.9-.3s-.3-.4-.3-.8h0ZM557.9,388c-.5-.4-.7-.4-1.3-.8s-.4-.5-.9-1c-.4-.5-.5-.2-.8-.5s-.8-.5-.8-.5c-1.2-.7-1.7-1-2.1-1.6s-.6-1.1-.4-1.6.6-.6.9-.7.5,0,.9-.3c.4-.4.5-.4.7-.8s.6-.2,1.1-.3c.6,0,.9-.2,1.7.4.9.6.8.4,1.1.7s.7.3,1,.6c.2.3.6.3.9.7s.2.3.7.7c.5.4.7.4.9,1.1s1.1,1.4,1.1,2.1c0,.7-.2,1-.5,1.1-.2.1-.4.2-.8.3-.5.1-.7.4-1.4.4-.7,0-.6.2-1,0s-.7.1-1.3-.3h0ZM559.4,396.3c0,.2-.3.3-.5.3s-.5.2-.6,0c-.1-.1,0-.2,0-.5.1-.3.2-.4.3-.4.1,0,.2,0,.4,0,.1.1.4.3.4.5ZM566.8,395.8c-.5,0-.5.3-1.2.4-.7,0-1.5.1-2.3.3s-2.2.2-2.6,0-1-.8-1.5-1.2c-.5-.4-.4-.8-.5-2,0-1.2-.4-3.2-.3-3.6s.2-.7,1-1.1c0,0,.3,0,.6-.1.2,0,.7-.2,1.1-.3s.7-.3,1-.3,1.2.4,1.6,1,.2,1,.9,1.4c.7.5.6.7,1.1,1.1.5.4,0,.2,1,1.4s1,1.5,1.1,2.1-.4.8-.9.8h0ZM570.5,398.9c0,.3-.1.4-.3.3s-.3,0-.5-.4-.5-.8-.7-1.3c-.2-.4-.6-.8-.9-1s-.5-.6-.3-.8c.1-.2.2-.4.6-.3.4,0,.5.5.9.8s.7.2.9.8.6.9.6,1.2-.2.4-.2.7h0ZM571.8,397.6c-.4,0-.8,0-1-.1s0-.5.1-.8c.2-.4.4-.3.8-.3.4,0,.5,0,.8,0,.3,0,.5,0,.6.4,0,.1,0,.5-.3.7s-.6.3-1,.3h0ZM579.5,398.4c-.3,0,0,0,0,0s-1-.2-2-.5-1.5-.3-2.3-.3-1.4-.4-1.2-.7h0c.1-.1.2-.2.6-.2.6,0,1,.1,1.7-.6h0c.4-.4.7-.2,1,.1s1.7,1.2,1.8,1.4.7.8.5.8ZM586.2,398.6c-.9-.4-1,.2-1.9-.4s-3.7.3-4.3,0-3.7-2.4-2.9-3.5h0c.3-.4.6-.7,1.3-1,1.3-.6,2.5-.9,3.2-1.1s5.2-1.8,8-1.8c.7,0,4.2.2,4.2.2l-.6-1.1s0,0,0,0c.3.4.6,1,.8,1.4.4.8-.6,1.1-.5,1.9,0,.9-.4,1.2-.4,1.7s-.2,1.1-.4,1.5-.7.8-1.4,1.2-.4.7-1,.9c-.5.1-.9.1-1.3.6-.7.5-1.9,0-2.8-.5h0ZM588,404.3c0,.7-.2,1-.3,1.1-.2,0-.4-.3-.6-.7s-.2-.3-.6-.6-.3-.4,0-.9.5-.4,1-.9.4-.5.7.1,0,1.1-.1,1.8h0ZM599.5,409.2c0,.4,0,.8-.2.8s-.4-.2-.6-.5-.6-.5-.8-.8.1-.7.3-.9.6-.4.7-.4.4.3.5.6.2.7,0,1.1h0ZM598.3,407.5c-.5.2-.3,0-.9.4s-.7.4-1.2.7-.6.6-1.2.6-1.2.4-1.7.4-1.4.2-2.3-.3c-.5-.3-1-.5-1.6-1.4s-1.2-2.2-1.1-2.7.4-.9.2-1.7,0-.7,0-1.4.1-.6.2-1.4.4-.4.5-1,.6-.7,1-.7,1.1-.1,1.4-.3,1.3-.5,1.9-.6,1.6-.2,2.3.3,1.4.4,1.8,1.1.6.5,1,1.3.8.9,2,1.7,1.7,2,1.3,2.2-.7.5-1.2.8-.9.7-1.2,1-.8.6-1.3.8h0ZM600,406.6c.4-.5.8-.5,1.4-.7s.6-.3,1-.3.3,0,.6,0,.2.2.5.4.4.3.6.7.4.6.5.8,0,.3-.4.3c-.2,0-.5-.1-.8,0s-.2-.2-.4,0-.2,0-.6,0-.7,0-1.1,0-.9,0-1.2-.2-.4-.6,0-1h0ZM609.9,413.1c-.2.5-.8,1.1-1.4,1.3s-.7.6-1.8.9-1.6,1-2,1.3-1.1.6-1.6.3c-.1,0,0-.1-.2-.4s0-.5-.5-1-.6-1-.7-1.7-.2-1.1-.4-1.5-.6-.9-.8-1.4-.3-.6-.3-1.4.2-1.1.8-1.3.4,0,1.2,0,1-.2,1.9,0,1.4.6,2,.7,1.3.2,1.6.5.3,0,.8.4,1.2,1.3,1.7,1.9,0,.7-.3,1.2h0ZM612.4,413.1c-.5.3-.6.1-1,.3s-.6.2-.8,0c-.2-.2,0-.1,0-.5s.1-.6.2-.9,0-.6.2-.7.3.2.5.3.8,0,1,0,.4.3.5.7,0,.5-.5.8ZM608.4,403.3c.6.3.8.3,1.4.5s.5.4,1.1.8.5,0,.9.3.9.3.9.3c1.4.4,1.9.6,2.4,1.1s.9,1,.7,1.5-.4.8-.7.9-.5,0-.8.5-.4.5-.5.9-.5.3-1,.5-.8.4-1.8,0-.9-.2-1.3-.5-.8-.2-1.1-.4-.7-.2-1-.5-.3-.3-.8-.5-.7-.2-1.1-.9-1.3-1.1-1.6-1.8,0-1,.2-1.2.3-.3.7-.5.6-.6,1.3-.7.6-.3.9-.3.7-.3,1.3,0h0ZM606.6,398.2c.3,1.1,1,3,1.1,3.5s0,.7-.7,1.3c0,0-.3.1-.5.2s-.6.3-1,.5-.6.4-1,.5-1.2-.2-1.8-.6-.4-.9-1.2-1.2-.7-.5-1.3-.8,0-.2-1.2-1.1-1.3-1.3-1.6-1.8.2-.9.7-1,.4-.4,1.1-.7,1.5-.5,2.2-.8,2.1-.6,2.6-.6,1.2.6,1.7.8.6.7.9,1.8h0ZM605.1,395.5c0-.2.3-.3.4-.4s.4-.3.6-.2.1.2,0,.5-.1.4-.2.4c-.1,0-.2,0-.4,0s-.5-.2-.5-.4h0ZM610.1,392.1c-.3.1-.4.3-.6.5h0s0,0-.1.1c0,0-.2.2-.3.3-.3.3-.8.7-1.3.7-.8,0-1.4.6-2.2.8s-.9.5-1.8.4c-.3,0-.6,0-.9.2,0,0-.4,0-.6-.2-.2-.2-.1-2.2-.6-3.6-.5-1.4,1-4.2,1.7-4.7.2,0,.4-.2.8-.2.9-.2.9-.7,1.4-.5s.8-.4,1.3-.3.6-.1,1,.8.9,1.1,1.3,2.1.9.9,1.2,1.9.4,1.4-.3,1.7ZM620.5,390.5c0,.4,0,.8-.2.8s-.4-.2-.6-.5-.6-.5-.8-.8.1-.7.3-.9.6-.4.7-.4.4.3.5.6.2.7,0,1.1h0ZM619.2,388.8c-.5.2-.3,0-.9.4s-.7.4-1.2.7-.6.6-1.2.6-1.2.4-1.7.4-1.4.2-2.3-.3c-.5-.3-1-.5-1.6-1.4s-1.2-2.2-1.1-2.7.4-.9.2-1.7,0-.7,0-1.4.1-.6.2-1.4.4-.4.5-1,.6-.7,1-.7,1.1-.1,1.4-.3,1.3-.5,1.9-.6,1.6-.2,2.3.3,1.4.4,1.8,1.1.6.5,1,1.3.8.9,2,1.7,1.7,2,1.3,2.2-.7.5-1.2.8-.9.7-1.2,1-.8.6-1.3.8h0ZM621,387.8c.4-.5.8-.5,1.4-.7s.6-.3,1-.3.3,0,.6,0,.2.2.5.4.4.3.6.7.4.6.5.8,0,.3-.4.3c-.2,0-.5-.1-.8,0s-.2-.2-.4,0-.2,0-.6,0-.7,0-1.1,0-.9,0-1.2-.2-.4-.6,0-1h0ZM630.8,394.4c-.2.5-.8,1.1-1.4,1.3s-.7.6-1.8.9-1.6,1-2,1.3-1.1.6-1.6.3c-.1,0,0-.1-.2-.4s0-.5-.5-1-.6-1-.7-1.7-.2-1.1-.4-1.5-.6-.9-.8-1.4-.3-.6-.3-1.4.2-1.1.8-1.3.4,0,1.2,0,1-.2,1.9,0,1.4.6,2,.7,1.3.2,1.6.5.3,0,.8.4,1.2,1.3,1.7,1.9,0,.7-.3,1.2h0ZM633.4,394.4c-.5.3-.6.1-1,.3s-.6.2-.8,0c-.2-.2,0-.1,0-.5s.1-.6.2-.9,0-.6.2-.7.3.2.5.3.8,0,1,0,.4.3.5.7,0,.5-.5.8ZM629.4,384.6c.6.3.8.3,1.4.5s.5.4,1.1.8.5,0,.9.3.9.3.9.3c1.4.4,1.9.6,2.4,1.1s.9,1,.7,1.5-.4.8-.7.9-.5,0-.8.5-.4.5-.5.9-.5.3-1,.5-.8.4-1.8,0-.9-.2-1.3-.5-.8-.2-1.1-.4-.7-.2-1-.5-.3-.3-.8-.5-.7-.2-1.1-.9-1.3-1.1-1.6-1.8,0-1,.2-1.2.3-.3.7-.5.6-.6,1.3-.7.6-.3.9-.3.7-.3,1.3,0h0ZM627.5,379.4c.3,1.1,1,3,1.1,3.5,0,.4,0,.7-.7,1.3,0,0-.3.1-.5.2s-.6.3-1,.5-.6.4-1,.5-1.2-.2-1.8-.6-.4-.9-1.2-1.2-.7-.5-1.3-.8,0-.2-1.2-1.1-1.3-1.3-1.6-1.8.2-.9.7-1,.4-.4,1.1-.7,1.5-.5,2.2-.8,2.1-.6,2.6-.6,1.2.6,1.7.8.6.7.9,1.8h0ZM637.3,371.1c-.3.5-1,1-1.6,1.1s-.8.4-1.9.6-1.8.8-2.2,1c-.3.1-.7.3-1.1.3v-.2c-.1,0-.2,0-.3.2,0,0-.2,0-.3-.1-.1,0,0-.1,0-.4s0-.5-.3-1.1-.4-1.1-.5-1.8c0-.7,0-1.1-.2-1.5s-.4-1-.5-1.5-.2-.7-.1-1.4c.1-.7.4-1.1,1-1.1.6,0,.4.1,1.2.2.8,0,1,0,1.8.4s1.2.8,1.9,1,1.2.4,1.5.7.3,0,.7.6,1,1.4,1.4,2.1-.2.7-.5,1.2h0ZM639.8,371.5c-.5.2-.6,0-1.1.1s-.6.1-.8-.1c-.1-.2,0-.1,0-.5s.2-.5.4-.8c.2-.3.1-.6.3-.7s.3.2.5.4c.2.1.8.1.9.2s.4.3.4.8,0,.5-.6.7h0ZM640.5,368.9c-.5.1-.9.2-1.7-.3s-.8-.3-1.2-.7c-.3-.3-.8-.3-1-.6s-.7-.3-1-.6c-.3-.4-.2-.3-.7-.6s-.7-.3-1-1-1.1-1.3-1.3-2,.2-1,.4-1.1.3-.2.8-.3.7-.5,1.4-.5.6-.2,1-.1.7-.2,1.3.2c.6.4.7.4,1.3.7s.5.5.9.9c.5.4.5.2.8.4.3.2.8.4.8.4,1.3.6,1.8.9,2.2,1.4.4.6.7,1.1.5,1.6s-.5.7-.9.8c-.3.1-.5,0-.9.3s-.4.4-.7.8c-.2.4-.6.2-1.1.4h0Z"/>
    <path class="st11" d="M600.1,369.9s1.5-1.2,2.4-1.1c1.8.2,4.7-1.2,5.7-1,.5,0,4.2-1,4.7-.7.4.2.6,0,.8,1,.2,1,.6,1.3.8,2.3.2,1,.7,1.1.8,2.2s.2,1.9-.2,2.5c-.6.9-.7,3-2.3,3.9s-2.2,2-2.9,2,.1.9.1.9c0,0,2.6-2.6,3.3-2.8s1.6-3.1,2.4-3.4c.8-.4,1-1.2,2-1.4s.6.1,1.6,0,.9.2,2,.2c1.1,0,1.2.2,1.7.3.5.1.8.7,1.5,1.2s.9,1.2,1,1.8.1,1.6.3,2.2,0,1,.1,1.7c.2.7-.6,1.9-1.1,2.4s-.7.7-.7.7v.9c.1,0,1.6-.8,2.2-.9.6-.1.6,0,1.4-.5.8-.4,1,0,2.3-.6,1.3-.7,1.6-.8,2.6-1.2s.9-.3,1.4-.5c.6-.2.7-.4,1.5-.3s1.3,0,1.8.6c.5.5.5.8.9,1.2s.6.6,1.2,1.2.6.8.9,1.2.3.3.5.8.5,1.2.8,1.8c.3.6.1,1.1.1,1.1l1.6-1.9c-3.1-2-2-1.8-2.6-2.3s-.7-.5-1-1.1c-.3-.6-1.1-1.1-1.5-2-.3-.9-.2-2,.3-2.3s.4-.6.9-.9c.5-.3.8-.4,1.2-1s1.5-.5,2.1-.3.9.7.9.7l.5-.5s-.7-1.5-2-2.6c-1.3-1-2-1.5-2.8-2.4s-1.3-.6-2-1.7c-.7-1.1-1.6-1.3-1.8-2.5s-.3-2.4-.4-3.6c0-1.2-.3-1.6,0-2.4s.4-.8,1.4-1.1c3.1-.8,5.6-3,5.6-3l-.9-.3s-1.8,2.4-2.6,2.2c-1.1-.3-.7,1-4.3,1-.8,0-1,.3-1.8,0s-1.4.2-2.8.4c-1.4.2-3.1.5-4,.1s-.6-.8-1.4-1.4-.6-1.3-1.2-2-.7-1.4-1.3-2.7-.7-1.7-.7-1.7l-.4.2s.1.3.3,1.2c.2.9.5,1,.7,1.8s.5,1,.4,1.5-.4,1.1-.7,1.4-.8.6-1.6.9c-.8.2-.6.6-1.2.6s-1.1-.1-1.9.8-.8,1.6-2.1,2.2c-1.3.6-2.5.9-3.2,1.1s-5.2,1.8-8,1.8c-.7,0-4.2-.2-4.2-.2l1.1,1.9h0ZM625,374.8c-.2.4,0,.8-.4.7-.2,0-.4-.3-.5-.6s-.5-.6-.6-.9c-.1-.3.3-.7.5-.8.2-.1.7-.3.8-.2.1,0,.3.3.4.7s0,.8-.2,1.1h0ZM626.1,372.3c.5-.4.9-.3,1.5-.4.5,0,.7-.2,1,0s.3,0,.6.1.1.2.4.5c.3.3.4.4.5.8s.3.7.3.9,0,.3-.4.2c-.2,0-.5-.3-.8-.2s-.2-.2-.4-.1-.2,0-.6,0-.7,0-1.1-.3-.9-.3-1.2-.4-.2-.6.2-1h0ZM634.3,380.8c-.3.5-1,.9-1.6,1s-.8.4-2,.5c-1.1,0-1.8.7-2.3.9-.5.2-1.2.4-1.6,0-.1,0,0-.1,0-.4s0-.5-.3-1.1c-.3-.6-.4-1.1-.4-1.8s0-1.1-.1-1.5-.4-1-.4-1.6-.2-.7,0-1.4c.2-.7.4-1,1-1.1s.4.1,1.2.2,1,0,1.8.5,1.2.9,1.8,1.1,1.2.4,1.5.8.3.1.6.6.9,1.5,1.3,2.2c.4.7-.2.6-.5,1.1h0ZM636.8,381.3c-.5.2-.6,0-1.1,0-.5,0-.6,0-.8-.2-.1-.2,0-.1,0-.5s.2-.5.4-.8.2-.6.4-.6.3.3.5.4c.2.1.8.2.9.3s.3.4.3.8-.1.5-.7.6h0ZM635,370.9c.5.4.7.4,1.3.8s.4.5.9,1c.4.5.5.2.8.5.3.3.8.5.8.5,1.2.7,1.7,1,2.1,1.6s.6,1.1.4,1.6-.6.6-.9.7-.5,0-.9.3c-.4.4-.5.4-.7.8-.3.4-.6.2-1.1.3s-.9.2-1.7-.4c-.9-.6-.8-.4-1.1-.7-.3-.4-.7-.3-1-.6-.2-.3-.6-.3-.9-.7s-.2-.3-.7-.7-.7-.4-.9-1.1-1.1-1.4-1.1-2.1c0-.7.2-1,.5-1.1.2-.1.4-.2.8-.3.5-.1.7-.4,1.4-.4s.6-.2,1,0,.7-.1,1.3.3h0ZM634,362.3c.2,0,.5-.2.6,0,.1.1,0,.2,0,.5s-.2.4-.3.4c-.1,0-.2,0-.4,0-.1-.1-.4-.3-.4-.5,0-.2.3-.3.5-.3ZM626.1,363.1c.5,0,.5-.3,1.2-.4.7,0,1.5-.1,2.3-.3s2.2-.2,2.6,0,1,.8,1.5,1.2c.5.4.4.8.5,2,0,1.2.4,3.2.3,3.6,0,.4-.2.7-1,1.1,0,0-.3,0-.6.1-.2,0-.7.2-1.1.3-.4,0-.7.3-1,.3s-1.2-.4-1.6-1-.2-1-.9-1.4c-.7-.5-.6-.7-1.1-1.1-.5-.4,0-.2-1-1.4s-1-1.5-1.1-2.1.4-.8.9-.8h0ZM622.4,360c0-.3.1-.4.3-.3.2,0,.3,0,.5.4s.5.8.7,1.3.6.8.9,1,.5.6.3.8c-.1.2-.2.4-.6.3-.4,0-.5-.5-.9-.8s-.7-.2-.9-.8-.6-.9-.6-1.2.2-.4.2-.7h0ZM620.1,361.6c.3-.2.6-.3,1-.3.4,0,.8,0,1,.1s0,.5-.1.8-.4.3-.8.3c-.4,0-.5,0-.8,0-.3,0-.5,0-.6-.4,0-.1,0-.5.3-.7h0ZM615,368.5c.2-.4.5-.8.6-1.6,0-.8.2-.7.3-1.4s.2-.6.4-1.3.5-.3.7-.9.7-.5,1.1-.5,1.1.1,1.4,0,1.4-.2,2-.2c.6,0,1.6.2,2.2.8s1.2.7,1.5,1.5.5.6.7,1.5.6,1.1,1.5,2.1c.9,1.1,1.3,2.3.8,2.5-.5.2-.8.4-1.3.5-.5.1-1,.5-1.4.7s-.9.4-1.4.5c-.5,0-.3-.1-1,.2s-.8.3-1.3.4c-.5.1-.7.4-1.3.3-.5-.1-1.2.2-1.7,0-.5-.1-1.4-.1-2.2-.7-.5-.4-.8-.7-1.3-1.7-.5-1-.7-2.4-.5-2.8h0ZM613.6,366.1c.3-.4.6-.3,1.1-.6s.5-.4.6.3c0,.6-.3,1.1-.5,1.8s-.4,1-.6,1c-.2,0-.3-.4-.4-.8,0-.4-.1-.3-.4-.8-.3-.4-.2-.5.2-.9h0Z"/>
    <path class="st11" d="M589.2,400.1s-3.2,1-6.2.9c-.9,0-2.7,0-3.2-.2-.5-.2-1.6-.4-2.1-.6-.5-.2-.6,0-.8-1s-.7-1.3-1-2.3-.7-1-.9-2.1-.2-1.4.5-1.6.8-.5,2.3-1.5,1.4-1.3,1.4-1.3h-.2c0-.1-1.9,1.7-2.5,2s-.7.8-1.5.7c-.8-.1-1.5,0-2.4.3s-.6,0-1.6,0c-1,.1-.9-.1-2,0-1.1,0-1.2-.1-1.7-.2s-.8-.7-1.6-1.1-.9-1.2-1.1-1.8c-.1-.6-.2-1.5-.5-2.2-.3-.6,0-1-.2-1.7s.5-1.9,1-2.5.7-.7.7-.7l-.2-.9s-1.4.8-2,1-.6.1-1.4.6c-.8.5-1,0-2.3.7-1.3.7-1.5.9-2.5,1.4-1,.5-.8.3-1.4.5s-.7.4-1.5.4c-.7,0-1.3,0-1.9-.5s-.5-.8-1-1.1-.7-.5-1.2-1.1-.6-.7-.9-1.1-.3-.3-.6-.8-.6-1.1-.9-1.7-.2-1.1-.2-1.1l-1.4,2c3.2,1.8,2.1,1.7,2.8,2.1.6.4.8.5,1.1,1.1.3.6,1.2,1.1,1.6,1.9s.3,2-.2,2.3c-.5.4-.4.6-.9.9-.5.3-.7.5-1.2,1.1-.4.6-1.4.6-2,.4s-1-.7-1-.7l-.4.5s.8,1.5,2.2,2.4c1.4.9,2.1,1.4,3,2.2s1.3.5,2.1,1.5c.8,1,1.7,1.2,2,2.4s.5,2.4.6,3.5.4,1.6,0,2.4c-.4.8-.3,1-1.4,1.2s-2,1-2,1v.3c0,0,1.2-1,2-.8s1.5-.4,2.3-.5,1-.3,1.8-.2,1.4-.3,2.8-.6c1.4-.3,3.1-.7,4-.4.9.3.7.7,1.5,1.3s.6,1.3,1.3,1.9c.6.6.7,1.4,1.4,2.6.7,1.3.8,1.6.8,1.6l.4-.2s-.1-.3-.4-1.2c-.2-.8-.6-.9-.8-1.8s-.5-1-.4-1.5.3-1.1.7-1.4.8-.7,1.6-1c.8-.3.6-.7,1.2-.7s1.1,0,1.8-.9.7-1.7,2-2.3c1.3-.6,1.7-1,2.4-1,2.7,0,5,.3,5.9.3,2.1,0,3,.8,3,.8l1.5-2.1h0ZM565.2,393.2c.1-.4,0-.8.3-.8.2,0,.4.3.6.6s.5.6.7.9c.1.3-.2.7-.4.8s-.6.3-.8.3c-.1,0-.4-.3-.4-.7s0-.8,0-1.1h0ZM564.3,395.8c-.4.4-.9.4-1.4.4s-.7.2-1,.1c-.4,0-.3,0-.6,0s-.1-.2-.4-.5-.4-.4-.5-.8c-.1-.4-.3-.7-.4-.9,0-.2,0-.3.4-.2.2,0,.5.2.8.2s.2.2.4,0,.2,0,.6,0,.7,0,1.1.3.9.2,1.2.4.3.6-.2,1h0ZM555.6,387.8c.3-.5,1-1,1.6-1.1s.8-.4,1.9-.6,1.8-.8,2.2-1c.4-.2,1.1-.4,1.6,0,.1,0,0,.1,0,.4s0,.5.3,1.1.4,1.1.5,1.8c0,.7,0,1.1.2,1.5s.4,1,.5,1.5.2.7.1,1.4c-.1.7-.4,1.1-1,1.1-.6,0-.4-.1-1.2-.2-.8,0-1,0-1.8-.4s-1.2-.8-1.9-1-1.2-.4-1.5-.7-.3,0-.7-.6-1-1.4-1.4-2.1.2-.7.5-1.2h0ZM553.1,387.4c.5-.2.6,0,1.1-.1s.6-.1.8.1c.1.2,0,.1,0,.5s-.2.5-.4.8c-.2.3-.1.6-.3.7s-.3-.2-.5-.4c-.2-.1-.8-.1-.9-.2s-.4-.3-.4-.8,0-.5.6-.7h0ZM555.4,397.7c-.6-.4-.7-.4-1.3-.7s-.5-.5-.9-.9-.5-.2-.8-.4c-.3-.2-.8-.4-.8-.4-1.3-.6-1.8-.9-2.2-1.4-.4-.6-.7-1.1-.5-1.6s.5-.7.9-.8c.3-.1.5,0,.9-.3s.4-.4.7-.8c.2-.4.6-.2,1.1-.4s.9-.2,1.7.3.8.3,1.2.7c.3.3.8.3,1,.6s.7.3,1,.6.2.3.7.6.7.3,1,1,1.1,1.3,1.3,2-.2,1-.4,1.1-.3.2-.8.3-.7.5-1.4.5-.6.2-1,.1c-.4,0-.7.2-1.3-.2h0ZM557,406.2c-.2,0-.5.2-.6,0-.1-.1,0-.2,0-.5s.2-.4.3-.4c.1,0,.2,0,.4,0s.4.3.4.5c0,.2-.3.3-.5.3h0ZM564.8,405c-.5,0-.5.4-1.2.5s-1.5.2-2.3.4c-.8.2-2.2.3-2.6.2s-1.1-.7-1.6-1.1c-.5-.4-.5-.8-.6-1.9s-.5-3.2-.5-3.6c0-.4.2-.7.9-1.2,0,0,.3,0,.6-.1.2,0,.7-.2,1.1-.3s.7-.3,1-.4,1.2.4,1.6.9.3.9,1,1.4c.7.4.6.7,1.2,1,.5.4,0,.2,1,1.3s1.1,1.5,1.2,2-.3.9-.8.9h0ZM568.7,407.9c0,.3,0,.4-.3.3-.2,0-.3,0-.6-.3s-.5-.8-.7-1.2-.7-.7-1-.9c-.3-.2-.5-.6-.4-.8s.2-.4.6-.3c.4,0,.5.5,1,.7s.7.2,1,.7.6.9.7,1.2-.1.4-.2.7ZM570.9,406.2c-.2.2-.6.3-1,.3s-.8,0-1,0-.1-.5,0-.8c.2-.4.4-.3.8-.3.4,0,.5-.1.8-.1s.5,0,.6.3c0,.1,0,.5-.3.7h0ZM575.5,399c-.2.4-.5.8-.5,1.6s-.1.7-.2,1.4c0,.7-.2.6-.4,1.3s-.4.4-.6,1c-.2.6-.7.6-1.1.5-.4,0-1.1,0-1.4,0s-1.4.3-2,.3c-.6,0-1.6,0-2.2-.7s-1.3-.6-1.6-1.4-.5-.6-.8-1.5-.7-1-1.7-2-1.4-2.2-.9-2.4c.5-.2.8-.4,1.3-.6.5-.2,1-.5,1.4-.8.4-.3.9-.4,1.4-.5.5-.1.3.1,1-.2s.7-.3,1.3-.5c.5-.1.7-.5,1.2-.4s1.2-.2,1.7-.1,1.4,0,2.2.6c.5.3.9.6,1.4,1.6.5,1,.8,2.4.6,2.8h0ZM577.1,401.3c-.3.4-.6.3-1.1.7-.5.4-.5.4-.6-.2-.1-.6.3-1.1.4-1.8s.3-1,.5-1.1c.2,0,.4.4.4.8s.2.3.5.7.2.5-.1.9h0Z"/>
    <path class="st11" d="M610.7,353.3s-.2.3-1.1.5-.9.7-1.4.5-.8.4-1.3.3-.6.1-1-.8-.9-1.1-1.3-2.1c-.4-1-.9-.9-1.2-1.9s-.4-1.4.3-1.7.7-.6,2-1.8,1.2-1.5,1.2-1.5h-.3c0,0-1.6,2-2.2,2.4s-.6.9-1.4.9-1.5.2-2.3.7-.6,0-1.6.3-.9,0-2,.2-1.2,0-1.7,0-.9-.5-1.7-.8-1.1-1-1.4-1.6-.4-1.5-.8-2.1-.2-1-.5-1.7.2-2,.6-2.6.6-.8.6-.8l-.3-.8s-1.2,1-1.8,1.3-.6.2-1.3.8-1,.2-2.1,1.1-1.4,1.1-2.3,1.8-.8.4-1.3.8-.6.5-1.4.6-1.3.2-1.9-.2c-.6-.4-.7-.7-1.1-1-.5-.2-.7-.4-1.4-.9s-.8-.6-1.1-1-.3-.2-.7-.7-.7-1-1.1-1.6-.4-1.1-.4-1.1l-1.1,2.2c3.4,1.3,2.4,1.3,3.1,1.7s.8.3,1.3.9,1.4.9,1.9,1.7.6,1.9.2,2.3-.3.6-.7,1-.7.6-1,1.3-1.3.8-1.9.7-1-.5-1-.5l-.3.5s1,1.3,2.5,2.1,2.3,1,3.3,1.7,1.4.3,2.3,1.2,1.9.9,2.3,2.1.9,2.3,1.2,3.4.7,1.5.4,2.3-.1,1-1.1,1.4-1.9,1.3-1.9,1.3v.3c.1,0,1-1.2,1.8-1.1s1.4-.6,2.2-.8.9-.5,1.8-.4,1.3-.5,2.6-1,3-1.2,3.8-1,.8.6,1.7,1,.8,1.1,1.6,1.7-1.3,2.3-.4,3.4,1.1,1.9,1.1,1.9h.6c0,0-.9-1.5-1.3-2.3s.6-1.1.5-1.9c0-.9.4-1.2.4-1.7s.2-1.1.4-1.5.7-.8,1.4-1.2.4-.7,1-.9,1.1,0,1.6-1.2.4-1.8,1.6-2.6,1.6-1.1,2.2-1.4.9-.2,1.5-.5,1.5-.5,1.5-.5l-.3-.9h0ZM593.4,349.6c0-.4,0-.8.2-.8s.4.2.6.5.6.5.8.8-.1.7-.3.9-.6.4-.7.4-.4-.3-.5-.6c0-.3-.2-.7,0-1.1h0ZM592.9,352.3c-.4.5-.8.5-1.4.7-.5.1-.6.3-1,.3s-.3,0-.6,0-.2-.2-.5-.4c-.3-.2-.4-.3-.6-.7s-.4-.6-.5-.8,0-.3.4-.3c.2,0,.5.1.8,0s.2.2.4,0,.2,0,.6,0,.7,0,1.1,0,.9,0,1.2.2.4.6,0,1h0ZM583,345.7c.2-.5.8-1.1,1.4-1.3s.7-.6,1.8-.9,1.6-1,2-1.3,1.1-.6,1.6-.3c.1,0,0,.1.2.4s0,.5.5,1,.6,1,.7,1.7.2,1.1.4,1.5.6.9.8,1.4.3.6.3,1.4-.2,1.1-.8,1.3-.4,0-1.2,0-1,.2-1.9,0-1.4-.6-2-.7-1.3-.2-1.6-.5-.3,0-.8-.4-1.2-1.3-1.7-1.9,0-.7.3-1.2h0ZM580.5,345.8c.5-.3.6-.1,1-.3s.6-.2.8,0c.2.2,0,.1,0,.5s-.1.6-.2.9,0,.6-.2.7-.3-.2-.5-.3-.8,0-1,0-.4-.3-.5-.7,0-.5.5-.8ZM584.5,355.6c-.6-.3-.8-.3-1.4-.5s-.5-.4-1.1-.8-.5,0-.9-.3-.9-.3-.9-.3c-1.4-.4-1.9-.6-2.4-1.1-.5-.5-.9-1-.7-1.5.2-.5.4-.8.7-.9s.5,0,.8-.5.4-.5.5-.9.5-.3,1-.5.8-.4,1.8,0,.9.2,1.3.5.8.2,1.1.4.7.2,1,.5.3.3.8.5.7.2,1.1.9c.4.7,1.3,1.1,1.6,1.8s0,1-.2,1.2-.3.3-.7.5-.6.6-1.3.7-.6.3-.9.3-.7.3-1.3,0h0ZM587.3,363.7c-.2,0-.4.3-.6.2s-.1-.2,0-.5.1-.4.2-.4c.1,0,.2,0,.4,0s.5.2.5.4-.3.3-.4.4h0ZM594.8,361.3c-.5.1-.4.4-1.1.7s-1.5.5-2.2.8-2.1.6-2.6.6-1.2-.6-1.7-.8-.6-.7-.9-1.8-1-3-1.1-3.5,0-.7.7-1.3c0,0,.3-.1.5-.2s.6-.3,1-.5.6-.4,1-.5,1.2.2,1.8.6.4.9,1.2,1.2.7.5,1.3.8,0,.2,1.2,1.1,1.3,1.3,1.6,1.8-.2.9-.7,1h0ZM599.2,363.6c0,.3,0,.4-.3.4s-.3,0-.6-.3-.6-.7-.9-1.1-.8-.6-1.1-.8-.6-.5-.5-.7.2-.4.5-.4.6.4,1.1.5.7,0,1.1.6.7.8.9,1,0,.4,0,.7h0ZM601,361.5c-.2.2-.5.4-.9.5s-.8.2-1,0-.2-.4,0-.8.3-.3.7-.4.5-.2.7-.2.5,0,.7.2c0,.1,0,.5-.2.7h0ZM604.5,353.6c0,.4-.4.9-.2,1.7s0,.7,0,1.4-.1.6-.2,1.4-.4.4-.5,1-.6.7-1,.7-1.1.1-1.4.3-1.3.5-1.9.6-1.6.2-2.3-.3-1.4-.4-1.8-1.1-.6-.5-1-1.3-.8-.9-2-1.7-1.7-2-1.3-2.2.7-.5,1.2-.8c.5-.3.9-.7,1.2-1s.8-.6,1.3-.8.3,0,.9-.4c.6-.5.7-.4,1.2-.7s.6-.6,1.2-.6,1.2-.4,1.7-.4,1.4-.2,2.3.3c.5.3,1,.5,1.6,1.4s1.2,2.2,1.1,2.7h0ZM606.4,355.7c-.3.4-.5.4-1,.9s-.4.5-.7-.1,0-1.1.1-1.8.2-1,.3-1.1c.2,0,.4.3.6.7s.2.3.6.6.3.4,0,.9h0Z"/>
    <path class="st11" d="M644.4,398s-.2.3-1.1.5-.9.7-1.4.5-.8.4-1.3.3-.6.1-1-.8-.9-1.1-1.3-2.1-.9-.9-1.2-1.9-.4-1.4.3-1.7.7-.6,2-1.8,1.2-1.5,1.2-1.5h-.3c0,0-1.6,2-2.2,2.4s-.6.9-1.4.9-1.5.2-2.3.7-.6,0-1.6.3-.9,0-2,.2-1.2,0-1.7,0-.9-.5-1.7-.8-1.1-1-1.4-1.6-.4-1.5-.8-2.1-.2-1-.5-1.7.2-2,.6-2.6.6-.8.6-.8l-.3-.8s-1.2,1-1.8,1.3-.6.2-1.3.8-1,.2-2.1,1.1-1.4,1.1-2.3,1.8-.8.4-1.3.8-.6.5-1.4.6-1.3.2-1.9-.2-.7-.7-1.1-1-.7-.4-1.4-.9-.8-.6-1.1-1-.3-.2-.7-.7-.7-1-1.1-1.6-.4-1.1-.4-1.1l-1.1,2.2c3.4,1.3,2.4,1.3,3.1,1.7s.8.3,1.3.9,1.4.9,1.9,1.7.6,1.9.2,2.3-.3.6-.7,1-.7.6-1,1.3-1.1.9-1.6.2c-.3-.5-.6-.7-.6-.7l.3,1s.4,1.5,1.2,2.4c1.1,1.2,2.1.9,3.1,1.6s1.4.3,2.3,1.2,1.9.9,2.3,2.1.9,2.3,1.2,3.4.7,1.5.4,2.3-.1,1-1.1,1.4-1.9,1.3-1.9,1.3v.3c.1,0,1-1.2,1.8-1.1s1.4-.6,2.2-.8.9-.5,1.8-.4,1.3-.5,2.6-1,3-1.2,3.8-1,.8.6,1.7,1,.8,1.1,1.6,1.7,1,1.2,1.8,2.4,1.1,1.5,1.1,1.5l.4-.3s-.2-.3-.6-1.1-.7-.8-1.1-1.7-.7-.9-.7-1.4.2-1.1.4-1.5.7-.8,1.4-1.2.4-.7,1-.9,1.1,0,1.6-1.2.4-1.8,1.6-2.6,1.6-1.1,2.2-1.4.9-.2,1.5-.5,1.5-.5,1.5-.5l-.3-.9h0ZM627,394.3c0-.4,0-.8.2-.8s.4.2.6.5.6.5.8.8-.1.7-.3.9-.6.4-.7.4-.4-.3-.5-.6-.2-.7,0-1.1h0ZM626.5,397c-.4.5-.8.5-1.4.7s-.6.3-1,.3-.3,0-.6,0-.2-.2-.5-.4-.4-.3-.6-.7-.4-.6-.5-.8,0-.3.4-.3c.2,0,.5.1.8,0s.2.2.4,0,.2,0,.6,0,.7,0,1.1,0,.9,0,1.2.2.4.6,0,1h0ZM616.7,390.4c.2-.5.8-1.1,1.4-1.3s.7-.6,1.8-.9,1.6-1,2-1.3,1.1-.6,1.6-.3c.1,0,0,.1.2.4s0,.5.5,1,.6,1,.7,1.7.2,1.1.4,1.5.6.9.8,1.4.3.6.3,1.4-.2,1.1-.8,1.3-.4,0-1.2,0-1,.2-1.9,0-1.4-.6-2-.7-1.3-.2-1.6-.5-.3,0-.8-.4-1.2-1.3-1.7-1.9,0-.7.3-1.2h0ZM614.1,390.4c.5-.3.6-.1,1-.3s.6-.2.8,0c.2.2,0,.1,0,.5s-.1.6-.2.9,0,.6-.2.7-.3-.2-.5-.3-.8,0-1,0-.4-.3-.5-.7,0-.5.5-.8ZM618.1,400.2c-.6-.3-.8-.3-1.4-.5s-.5-.4-1.1-.8-.5,0-.9-.3-.9-.3-.9-.3c-1.4-.4-1.9-.6-2.4-1.1s-.9-1-.7-1.5.4-.8.7-.9.5,0,.8-.5.4-.5.5-.9.5-.3,1-.5.8-.4,1.8,0,.9.2,1.3.5.8.2,1.1.4.7.2,1,.5.3.3.8.5.7.2,1.1.9,1.3,1.1,1.6,1.8,0,1-.2,1.2-.3.3-.7.5-.6.6-1.3.7-.6.3-.9.3-.7.3-1.3,0h0ZM621,408.4c-.2,0-.4.3-.6.2s-.1-.2,0-.5.1-.4.2-.4c.1,0,.2,0,.4,0s.5.2.5.4-.3.3-.4.4h0ZM628.5,406c-.5.1-.4.4-1.1.7s-1.5.5-2.2.8-2.1.6-2.6.6-1.2-.6-1.7-.8-.6-.7-.9-1.8-1-3-1.1-3.5,0-.7.7-1.3c0,0,.3-.1.5-.2s.6-.3,1-.5.6-.4,1-.5,1.2.2,1.8.6.4.9,1.2,1.2.7.5,1.3.8,0,.2,1.2,1.1,1.3,1.3,1.6,1.8-.2.9-.7,1h0ZM632.8,408.2c0,.3,0,.4-.3.4s-.3,0-.6-.3-.6-.7-.9-1.1-.8-.6-1.1-.8-.6-.5-.5-.7.2-.4.5-.4.6.4,1.1.5.7,0,1.1.6.7.8.9,1,0,.4,0,.7h0ZM634.7,406.2c-.2.2-.5.4-.9.5s-.8.2-1,0-.2-.4,0-.8.3-.3.7-.4.5-.2.7-.2.5,0,.7.2c0,.1,0,.5-.2.7h0ZM638.1,398.3c0,.4-.4.9-.2,1.7s0,.7,0,1.4-.1.6-.2,1.4-.4.4-.5,1-.6.7-1,.7-1.1.1-1.4.3-1.3.5-1.9.6-1.6.2-2.3-.3-1.4-.4-1.8-1.1-.6-.5-1-1.3-.8-.9-2-1.7-1.7-2-1.3-2.2.7-.5,1.2-.8.9-.7,1.2-1,.8-.6,1.3-.8.3,0,.9-.4.7-.4,1.2-.7.6-.6,1.2-.6,1.2-.4,1.7-.4,1.4-.2,2.3.3c.5.3,1,.5,1.6,1.4s1.2,2.2,1.1,2.7h0ZM640.1,400.3c-.3.4-.5.4-1,.9s-.4.5-.7-.1,0-1.1.1-1.8.2-1,.3-1.1c.2,0,.4.3.6.7s.2.3.6.6.3.4,0,.9h0Z"/>
    <path class="st11" d="M599.2,369.4s.2.3.4,1.2.6.9.5,1.4.4.8.2,1.3.1.6-.9.9-1.2.8-2.2,1.2c-1,.4-.9.8-2,1.1s-1.4.3-1.7-.4-.6-.7-1.7-2.1c-1.2-1.3-1.4-1.3-1.4-1.3v.2c-.1,0,1.9,1.7,2.2,2.3s.9.6.8,1.5c0,.8.1,1.5.5,2.4s0,.6.2,1.6,0,.9.1,2,0,1.2,0,1.7-.6.9-.9,1.7c-.4.8-1.1,1.1-1.7,1.3-.6.2-1.5.4-2.1.7-.6.3-1,.1-1.7.4-.6.3-2-.3-2.6-.7s-.8-.6-.8-.6l-.8.3s1,1.3,1.2,1.9.2.6.8,1.3.1,1,1,2.2c.9,1.2,1,1.4,1.7,2.3s.4.8.7,1.3.5.7.6,1.4c0,.7.1,1.3-.3,1.9s-.8.6-1,1.1-.5.7-1,1.3-.7.7-1,1-.2.3-.8.6-1.1.7-1.6,1.1-1.1.3-1.1.3l2.1,1.2c1.4-3.4,1.4-2.3,1.8-3s.4-.8.9-1.2.9-1.3,1.7-1.8c.8-.5,1.9-.5,2.4,0,.4.4.6.3,1,.8.4.5.6.7,1.2,1.1s.7,1.4.6,2-.6,1-.6,1l.5.4s1.4-1,2.2-2.4,1.2-2.2,1.9-3.2c.7-1,.4-1.4,1.3-2.3s1-1.8,2.2-2.2,2.3-.7,3.5-1,1.5-.6,2.4-.3c.8.3,1,.2,1.3,1.2.4,1,1.2,1.9,1.2,1.9h.3c0-.1-1.1-1.1-1-1.9s-.5-1.4-.7-2.2-.4-1-.4-1.8-.4-1.4-.9-2.7-1-3-.8-3.9.6-.7,1.1-1.6c.5-.9,1.2-.8,1.7-1.5.6-.7,0-.9-.5-.9-.5,0-1.1-.2-1.5-.5-.4-.3-.8-.7-1.1-1.5s-.7-.5-.8-1.1c-.1-.6,0-1.1-1.1-1.7s-1.7-.5-2.5-1.7-1-1.6-1.3-2.3-.2-.8-.4-1.5c-.3-1-1.1-1.7-1.1-1.7l-.3.4h0ZM594.7,386.5c-.4,0-.8,0-.8-.2,0-.3.3-.4.5-.6s.6-.6.8-.8c.3-.2.7.2.9.4.2.2.4.6.4.7s-.3.4-.6.5-.7.1-1.1,0h0ZM597.4,387.2c.5.4.5.9.6,1.4s.3.6.2,1c0,.4,0,.3,0,.6s-.2.1-.5.5c-.3.3-.4.4-.7.6s-.6.4-.9.5-.3,0-.3-.4c0-.2.2-.5,0-.8-.1-.3.2-.2,0-.4s0-.2,0-.6c0-.5,0-.7.1-1.1.2-.4.1-.9.2-1.2s.6-.3,1,0ZM590.3,396.7c-.5-.2-1.1-.9-1.2-1.4-.1-.6-.5-.8-.8-1.8-.3-1.1-1-1.7-1.2-2.1-.3-.4-.5-1.1-.3-1.6,0-.1.1,0,.4-.1.3,0,.5,0,1.1-.4.5-.4,1-.6,1.7-.7s1.1-.1,1.5-.4.9-.5,1.5-.7c.5-.2.6-.3,1.4-.3s1.1.3,1.2.8,0,.4,0,1.2c0,.8.2,1-.2,1.9s-.6,1.3-.8,2c-.1.7-.2,1.3-.6,1.6-.3.3,0,.3-.5.7s-1.3,1.1-2,1.6-.7-.1-1.2-.4h0ZM590.2,399.2c-.3-.5,0-.6-.2-1-.1-.5-.2-.6,0-.8.2-.1.1,0,.5,0s.6.1.9.3c.3.1.6,0,.7.2s-.2.3-.3.5,0,.8-.1.9-.3.4-.8.4c-.5,0-.5,0-.7-.5h0ZM600.2,395.7c-.3.6-.3.8-.5,1.4s-.4.5-.8,1-.1.5-.3.9-.3.8-.3.8c-.4,1.3-.7,1.9-1.2,2.4s-1,.8-1.5.6-.7-.5-.9-.8,0-.5-.4-.8c-.4-.4-.4-.4-.9-.6-.4-.2-.3-.5-.5-1.1-.2-.5-.3-.8,0-1.8.4-.9.2-.9.5-1.2s.2-.8.5-1.1c.3-.3.2-.7.5-1,.3-.3.3-.2.5-.8.3-.5.2-.7.9-1.1s1.2-1.3,1.9-1.5,1,0,1.2.3.2.3.4.8.5.6.6,1.3c0,.7.3.6.2.9,0,.4.2.7,0,1.3h0ZM608.5,393.3c0,.2.2.5.1.6s-.2.1-.5,0-.4-.1-.4-.2c0-.1,0-.2,0-.4.1-.2.2-.5.4-.5s.3.3.4.5h0ZM606.4,385.7c0,.5.4.4.6,1.1.2.7.4,1.5.7,2.3s.5,2.1.5,2.6-.6,1.2-.9,1.7-.7.5-1.9.8c-1.2.3-3.1.9-3.5.9-.4,0-.7,0-1.3-.8,0,0-.1-.3-.2-.6s-.3-.7-.5-1-.4-.6-.5-1c-.1-.4.2-1.2.7-1.7.5-.5.9-.4,1.3-1.1.4-.8.6-.7.9-1.3s.2,0,1.2-1.2,1.3-1.3,1.9-1.5.9.2,1,.7h0ZM608.9,381.5c.3,0,.4,0,.4.3s0,.3-.3.6-.7.6-1.1.9c-.4.3-.6.7-.8,1.1-.2.3-.5.6-.7.5s-.4-.2-.4-.5c0-.4.4-.6.6-1,.2-.5.1-.7.6-1s.8-.7,1.1-.8.4,0,.7.1h0ZM606.9,379.5c.2.2.4.5.4.9,0,.4.2.8,0,1-.1.2-.5.2-.8,0s-.3-.3-.4-.7-.2-.5-.2-.7,0-.5.3-.6c.1,0,.5,0,.7.2ZM599.3,375.6c.4.1.8.4,1.7.3.8-.1.7,0,1.4,0s.6.1,1.4.2c.8,0,.4.4,1,.5s.6.6.6,1,0,1.1.2,1.4c.1.3.5,1.3.5,1.9,0,.6,0,1.6-.4,2.3s-.5,1.3-1.2,1.8c-.8.4-.5.6-1.4.9s-.9.8-1.8,1.9c-.9,1.1-2,1.6-2.3,1.2-.2-.5-.5-.7-.7-1.2s-.6-.9-.9-1.3-.5-.9-.7-1.3,0-.3-.3-.9-.4-.7-.6-1.2-.5-.6-.5-1.2-.4-1.2-.3-1.7-.1-1.4.4-2.3c.3-.5.6-.9,1.5-1.5s2.3-1.1,2.7-.9h0ZM601.4,373.8c.4.3.4.6.8,1,.4.4.4.5-.1.7-.6.2-1.1-.1-1.8-.2s-1-.2-1.1-.4c0-.2.4-.4.7-.5.3-.1.3-.2.7-.5s.5-.2.9,0h0Z"/>
    <path class="st11" d="M591.5,372.8c-.4-1.2,0-2.5,0-3.8s-.4-2.2-.5-2.7,0-2.7.2-3c.2-.3-.1,0-.4,0s-.8.6-.8.6c0,0,.4,0,.6.2s.1,2.2.6,3.6c.5,1.4-1,4.2-1.7,4.7-.2,0-.4.2-.8.2-.9.2-.9.7-1.4.5s-.8.4-1.3.3-.6.1-1-.8-.9-1.1-1.3-2.1-.9-.9-1.2-1.9-.4-1.4.3-1.7c.5-.3.7-.5,1.4-1.2,0,0,0-.1-.1-.2-.2.2-.4.3-.5.4-.6.4-.6.9-1.4.9s-1.5.2-2.3.7-.6,0-1.6.3-.9,0-2,.2-1.2,0-1.7,0-.9-.5-1.7-.8-1.1-1-1.4-1.6-.4-1.5-.8-2.1-.2-1-.5-1.7.2-2,.6-2.6,4.2-3.3,4.2-3.3l-.3-.8s-4.9,3.5-5.5,3.8c-.6.3-.6.2-1.3.8s-1,.2-2.1,1.1-1.4,1.1-2.3,1.8-.8.4-1.3.8-.6.5-1.4.6-1.3.2-1.9-.2-.7-.7-1.1-1-.7-.4-1.4-.9-.8-.6-1.1-1-.3-.2-.7-.7-.7-1-1.1-1.6-.4-1.1-.4-1.1l-1.1,2.2c3.4,1.3,2.4,1.3,3.1,1.7s.8.3,1.3.9,1.4.9,1.9,1.7.6,1.9.2,2.3-.3.6-.7,1-.7.6-1,1.3-1.3.8-1.9.7-1-.5-1-.5l-.3.5s1,1.3,2.5,2.1,2.3,1,3.3,1.7,1.4.3,2.3,1.2,1.9.9,2.3,2.1.9,2.3,1.2,3.4.7,1.5.4,2.3-.1,1-1.1,1.4-1.9,1.3-1.9,1.3v.3c.1,0,1-1.2,1.8-1.1s1.4-.6,2.2-.8.9-.5,1.8-.4,1.3-.5,2.6-1,3-1.2,3.8-1,.8.6,1.7,1,.8,1.1,1.6,1.7,1,1.2,1.8,2.4,1.1,1.5,1.1,1.5l.4-.3s-.2-.3-.6-1.1-.7-.8-1.1-1.7-.7-.9-.7-1.4.2-1.1.4-1.5.7-.8,1.4-1.2.4-.7,1-.9,1.1,0,1.6-1.2.4-1.8,1.6-2.6,1.6-1.1,2.2-1.4.9-.2,1.5-.5c.2-.1.5-.3.8-.3,0,0,0,0,0,0h0c0,0,.1,0,.2,0,.5-.1.9,0,1.2.3l.7.5.7.5s-.4-.4-.7-1.6h0ZM572.4,368.4c0-.4,0-.8.2-.8s.4.2.6.5.6.5.8.8-.1.7-.3.9-.6.4-.7.4-.4-.3-.5-.6-.2-.7,0-1.1h0ZM571.9,371c-.4.5-.8.5-1.4.7s-.6.3-1,.3-.3,0-.6,0-.2-.2-.5-.4-.4-.3-.6-.7-.4-.6-.5-.8,0-.3.4-.3c.2,0,.5.1.8,0s.2.2.4,0c.3-.1.2,0,.6,0,.5,0,.7,0,1.1,0s.9,0,1.2.2.4.6,0,1h0ZM562.1,364.5c.2-.5.8-1.1,1.4-1.3s.7-.6,1.8-.9,1.6-1,2-1.3,1.1-.6,1.6-.3c.1,0,0,.1.2.4s0,.5.5,1,.6,1,.7,1.7.2,1.1.4,1.5.6.9.8,1.4.3.6.3,1.4-.2,1.1-.8,1.3-.4,0-1.2,0c-.8,0-1,.2-1.9,0s-1.4-.6-2-.7-1.3-.2-1.6-.5-.3,0-.8-.4-1.2-1.3-1.7-1.9,0-.7.3-1.2h0ZM559.5,364.5c.5-.3.6-.1,1-.3s.6-.2.8,0c.2.2,0,.1,0,.5s-.1.6-.2.9,0,.6-.2.7-.3-.2-.5-.3-.8,0-1,0-.4-.3-.5-.7,0-.5.5-.8ZM563.5,374.3c-.6-.3-.8-.3-1.4-.5s-.5-.4-1.1-.8-.5,0-.9-.3-.9-.3-.9-.3c-1.4-.4-1.9-.6-2.4-1.1s-.9-1-.7-1.5.4-.8.7-.9.5,0,.8-.5.4-.5.5-.9.5-.3,1-.5.8-.4,1.8,0,.9.2,1.3.5.8.2,1.1.4.7.2,1,.5.3.3.8.5.7.2,1.1.9,1.3,1.1,1.6,1.8,0,1-.2,1.2-.3.3-.7.5-.6.6-1.3.7-.6.3-.9.3-.7.3-1.3,0h0ZM566.4,382.5c-.2,0-.4.3-.6.2s-.1-.2,0-.5.1-.4.2-.4c.1,0,.2,0,.4,0s.5.2.5.4-.3.3-.4.4h0ZM573.9,380c-.5.1-.4.4-1.1.7s-1.5.5-2.2.8-2.1.6-2.6.6-1.2-.6-1.7-.8-.6-.7-.9-1.8-1-3-1.1-3.5,0-.7.7-1.3c0,0,.3-.1.5-.2s.6-.3,1-.5.6-.4,1-.5,1.2.2,1.8.6c.5.5.4.9,1.2,1.2s.7.5,1.3.8,0,.2,1.2,1.1,1.3,1.3,1.6,1.8-.2.9-.7,1h0ZM578.2,382.3c0,.3,0,.4-.3.4s-.3,0-.6-.3-.6-.7-.9-1.1-.8-.6-1.1-.8-.6-.5-.5-.7.2-.4.5-.4.6.4,1.1.5.7,0,1.1.6.7.8.9,1,0,.4,0,.7h0ZM580.1,380.2c-.2.2-.5.4-.9.5-.4,0-.8.2-1,0s-.2-.4,0-.8.3-.3.7-.4c.4,0,.5-.2.7-.2.3,0,.5,0,.7.2,0,.1,0,.5-.2.7h0ZM583.5,372.4c0,.4-.4.9-.2,1.7s0,.7,0,1.4-.1.6-.2,1.4-.4.4-.5,1-.6.7-1,.7-1.1.1-1.4.3-1.3.5-1.9.6-1.6.2-2.3-.3-1.4-.4-1.8-1.1-.6-.5-1-1.3-.8-.9-2-1.7-1.7-2-1.3-2.2.7-.5,1.2-.8.9-.7,1.2-1,.8-.6,1.3-.8.3,0,.9-.4.7-.4,1.2-.7.6-.6,1.2-.6,1.2-.4,1.7-.4,1.4-.2,2.3.3c.5.3,1,.5,1.6,1.4s1.2,2.2,1.1,2.7h0ZM585.5,374.4c-.3.4-.5.4-1,.9s-.4.5-.7-.1,0-1.1.1-1.8.2-1,.3-1.1c.2,0,.4.3.6.7s.2.3.6.6.3.4,0,.9h0Z"/>
    <path class="st11" d="M611,398.1c1,1-1.6,2.6-4.3,2.7s-3.7,1.3-4.9.3-2.2-2.9-2.2-2.9l-.7,1.1s.8.4,1.8,1.1,1.3,1.3,1.6,1.5.8,1.4.8,1.4.7,0,.7-.1-.5-.9-.3-1.1,1-.8,1.6-.8,2.6-.3,3.6-.5,2.1-.7,3-1.2,1.6-.6,2.3-.3-.2-.5-.4-.4-2.9-1.8-2.9-1.8c0,0-1.4-1.2-1-.6s1.2,1.7,1.2,1.7h0Z"/>
    <path class="st11" d="M585.4,387.8c-.9-2.1-4.1-.5-4.8-1.7,0,0-.9-.6-.7.1s.6,1.1.3,2.1-.7,1.7-1.9,2.8c-1.2,1.2-1,1.1-.2.6s1.1-.5,2.9-.7c.8,0,1.4-.3,1.9-.6,1-.3,2.2-.7,2.5-.1.4.9.9-.4,0-2.4h0ZM580.4,389.3c0-.2.2-1.2.6-1.7s.7-.8,1.7-.6,1.5,1.1,1.3,1.7c-.1.4-.5.5-.9.6-1,0-2.6.3-2.6,0Z"/>
    <path class="st11" d="M615.7,364.2c.8-1.2-2.3-3.2-2.9-3.5s-3.4.5-4.3,0-1,0-1.9-.4-2.1-1-2.8-.5,0-.7.2-.7,1.1-2.9.9-1.7,1.8,2.6,2.5,2.6,1.5.8,2.1.6,2.8-.7,3.9-.5,2.3.8,3.7.8,2.1.6,3.1.3l-.6.4s-1,.6-.8.3-.4-.7-1.2-.7-1.3,0-2.3-.3-1.9-.5-2-.5.2,0,0,0,.4.6.5.8,1.5,1.1,1.8,1.4.6.5,1,.1c.4-.4.2.5,0,.5s-.8,1-.8,1l-.2-.2Z"/>
    <rect id="SVGID" class="st0" x="555.7" y="359" width="84.5" height="45.2"/>
  </g>
  <circle class="st10" cx="599" cy="382.7" r="21.8"/>
  <circle class="st6" cx="598.9" cy="382.6" r="23"/>
</svg>