<?xml version="1.0" encoding="UTF-8"?>
<svg id="Layer_1" xmlns="http://www.w3.org/2000/svg" xmlns:xlink="http://www.w3.org/1999/xlink" version="1.1" viewBox="0 0 678.6 506.5">
  <!-- Generator: Adobe Illustrator 30.1.0, SVG Export Plug-In . SVG Version: 2.1.1 Build 136)  -->
  <defs>
    <style>
      .st0, .st1, .st2, .st3, .st4, .st5 {
        stroke: #fff;
      }

      .st0, .st1, .st2, .st3, .st4, .st5, .st6 {
        fill: none;
      }

      .st0, .st5, .st6 {
        stroke-miterlimit: 10;
      }

      .st7 {
        fill: url(#radial-gradient);
      }

      .st8, .st9 {
        fill: #80d0da;
      }

      .st9 {
        isolation: isolate;
        opacity: .2;
      }

      .st10 {
        fill: #d5d6d9;
      }

      .st11 {
        fill: #fff;
      }

      .st1 {
        stroke-miterlimit: 10;
        stroke-width: 1px;
      }

      .st2 {
        stroke-miterlimit: 10;
        stroke-width: 1px;
      }

      .st3 {
        stroke-miterlimit: 10;
        stroke-width: 1px;
      }

      .st4 {
        stroke-miterlimit: 10;
        stroke-width: 1px;
      }

      .st12 {
        fill: #47607e;
      }

      .st13 {
        fill: #48a9bf;
      }

      .st14 {
        fill: #00306b;
      }

      .st15 {
        fill: #b1b5bb;
      }

      .st5, .st6 {
        stroke-width: 2px;
      }

      .st6 {
        stroke: #9fa6ad;
      }
    </style>
    <radialGradient id="radial-gradient" cx="326.2" cy="266.7" fx="326.2" fy="266.7" r="20.6" gradientTransform="translate(0 506.5) scale(1 -1)" gradientUnits="userSpaceOnUse">
      <stop offset=".8" stop-color="#231f20" stop-opacity="0"/>
      <stop offset="1" stop-color="#231f20" stop-opacity=".5"/>
    </radialGradient>
  </defs>
  <path class="st11" d="M443.9,133.8v-1.8h9.9v-1.2h29l29.5,30.2v38.7h-28.9v78.4h12.6v39.7l-12.4,14.2-173.9-.7h-63.7v16.4h-41.2l-30.8-31.1-7.1-38.1,2.2-.4-16-75.9-7.3-42.4,28.4-28.1h32.7v2.4c-3.2-2.5-51.3-39.3-82.9-22.1-36.9,20.1-21.5,97.9-18.8,111.5,15.5,78.3,79.6,158.2,160.8,184,113.6,36,261.3-33.7,336.1-181.1L367,18.8c-46,.1-92,.2-137.9.4v-3.4h-44.6v3.3h-34.4v-2.6h-44v2.1h-18.1v2.8h-55.7v-2.7h-13l-11.2,10.8c0,0-.1,13.7-.1,13.7h2.2v39.5h4.8l12.4,60.2-3.9.7,8.7,44.7,4.1-.7,6.7,32.1-2.3.6-3.7.7,12.4,63,4.1-1,7.3,35.9-17.8,3.8,23.8,122,10.9-3.6v14.7l11.1,11.1h12.9v8h104.9v-1.8h20.9v-4.4h38.7v4.2h20.2v-8.4h16.9v9.1h45.1v-8.7h16.2v8h22.3v-5.1h35.2v5.6h101v-13.3h82.9v2.4h13.6l10.8-10.8v-13.3h-2.5v-39.4h3.7v-79.9h-8v-16.2h3.9v-45h-3.9v-33.4h4v-46.7h-4v-33h4.1v-45.6h-4.1v-18.2h6.1v-40.3h2.1v-13.5l-10.2-10.5h-14.1v2.4h-62.2v-2.4h-43.9v2.1h-35v-2.4h-44.7v2.7h-54.7v-2.2l76.9,117.2Z"/>
  <path class="st10" d="M444.9,286.8v-87.6h67.3v-7.3h-58.9v-58.9h-6.9v32.9h-109c-.7-2.9-2.5-5.3-5-6.8v-25.4s-11.1,0-11.3.2v24.5c-3,1.5-5.2,4.2-6.1,7.5h-128.3v22.1l-36.4,6.1,1,6.4,42.3-6.8-.5-3.4v-18.1h24.4v96.8l-51.6,9.5,1.4,7.4,51.7-9.5,19.7,19.7v51.7h6.4v-50.2h72.4c.7,1.9,2,3.5,3.6,4.6v47.7h11.3v-48.2c1.3-1.1,2.3-2.5,2.9-4.1h116.4v-4h44.9v-6.7h-52.9v-.2c0,0,1.2,0,1.2,0ZM319.8,213c-12.2,2.9-21.3,13.9-21.3,27s9.1,24.1,21.3,27v20.5c-1.1,1-1.9,2.3-2.4,3.7h-74.5c0,.1-18.9-18.8-18.9-18.8v-84.4l15.7-15.7h75.5c.8,2.5,2.4,4.6,4.5,6v34.6ZM438.4,279.4l-11.8,11.8h-91.2c-.5-1.4-1.3-2.7-2.4-3.7v-20.6c12-3.1,20.9-14,20.9-26.9s-8.9-23.9-20.9-26.9v-35c1.9-1.4,3.3-3.4,4.1-5.7h91.7l9.5,9.5v97.6Z"/>
  <path class="st10" d="M678.4,495.5c.1-.2.2-.5.2-.8l-.2.8Z"/>
  <rect class="st10" x="20.2" y="303.3" width="44.9" height="18.4" transform="translate(-64.8 16) rotate(-12.2)"/>
  <rect class="st10" x="302.6" y="461.4" width="47.1" height="44.9"/>
  <rect class="st15" x="105.3" width="21.3" height="20.6"/>
  <rect class="st15" y="45.3" width="11.3" height="25.4"/>
  <rect class="st15" x="3.9" y="82.7" width="15.1" height="27.7" transform="translate(-20.1 4.6) rotate(-12.2)"/>
  <rect class="st15" x="15.2" y="144.7" width="11.4" height="22" transform="translate(-32.4 7.9) rotate(-12.2)"/>
  <rect class="st15" x="20.3" y="168.5" width="11.4" height="21.9" transform="translate(-37.3 9.5) rotate(-12.2)"/>
  <rect class="st15" x="29.6" y="221.7" width="10.6" height="22" transform="translate(-42.7 10.6) rotate(-10.7)"/>
  <rect class="st15" x="161.8" y="213.4" width="18.3" height="54.6" transform="translate(-41.8 36) rotate(-10.7)"/>
  <polygon class="st15" points="206.4 151.5 206.4 132.3 185.2 132.3 179.9 126.9 174.5 132.3 151.9 132.3 151.9 143.2 140.1 144.3 142.1 164.7 141.3 165.5 142.3 166.5 144 183.7 165.1 181.6 164 170 182.5 151.5 206.4 151.5"/>
  <rect class="st15" x="36.5" y="245.8" width="9.9" height="38.5" transform="translate(-55 14.7) rotate(-12.2)"/>
  <rect class="st15" x="130.1" width="21.3" height="20.6"/>
  <rect class="st15" x="184.4" width="21.2" height="20.6"/>
  <rect class="st15" x="209.1" width="21.2" height="20.6"/>
  <rect class="st15" x="263.4" width="40.6" height="20.6"/>
  <rect class="st15" x="347.8" width="40.6" height="20.6"/>
  <rect class="st14" x="308.1" y="16.9" width="35.7" height="117.5"/>
  <rect class="st15" x="421.3" width="21.5" height="20.6"/>
  <rect class="st15" x="446.1" width="21.5" height="20.6"/>
  <rect class="st15" x="500.5" width="21.5" height="20.6"/>
  <rect class="st15" x="525.3" width="21.5" height="20.6"/>
  <rect class="st15" x="626.7" y="43.3" width="21.5" height="38.6"/>
  <rect class="st15" x="626.7" y="98.2" width="17.2" height="20.8"/>
  <rect class="st15" x="626.7" y="123.2" width="17.2" height="20.8"/>
  <rect class="st15" x="626.7" y="177.5" width="17.2" height="20.8"/>
  <rect class="st15" x="626.7" y="202.5" width="17.2" height="20.8"/>
  <rect class="st15" x="626.7" y="256.7" width="17.2" height="20.8"/>
  <rect class="st15" x="621" y="281.7" width="22.9" height="37"/>
  <rect class="st15" x="216.6" y="461.4" width="60.7" height="30.2"/>
  <rect class="st15" x="386.7" y="461.4" width="36.7" height="22"/>
  <rect class="st15" x="445.6" y="459.4" width="78.4" height="24"/>
  <polygon class="st10" points="67.6 443.9 57 445.9 60.2 462 48 464.1 54.8 497.9 61.7 506.5 99.9 506.2 99.7 490.7 101.6 490.7 101.6 465.6 78.4 439.8 67.6 443.9"/>
  <polygon class="st15" points="230.4 347 230.4 331.4 213.1 331.4 190.2 308.3 187.8 295.4 170.9 297.9 174.4 316.8 205.3 347.2 230.4 347"/>
  <rect class="st15" x="254.2" y="314.3" width="32.2" height="16"/>
  <rect class="st15" x="367.1" y="303.4" width="78.4" height="27.6"/>
  <rect class="st15" x="459.8" y="205.2" width="23.4" height="70.1"/>
  <polygon class="st15" points="462.2 130.8 462.2 150.8 475.8 150.8 483.3 158.6 497.6 145 483.3 130.9 462.2 130.8"/>
  <polygon class="st15" points="486.2 161.2 500 147.4 512.7 160.4 512.7 181.2 495.6 181.2 495.6 171.7 486.2 161.2"/>
  <rect class="st15" x="395.3" y="134.9" width="45.6" height="16"/>
  <rect class="st15" x="209.9" y="134.9" width="47.1" height="16"/>
  <rect class="st15" x="356.2" y="134.9" width="35.6" height="16"/>
  <rect class="st15" x="260.8" y="134.9" width="37.9" height="16"/>
  <g>
    <path class="st14" d="M344.6,134.2h99.9v-1.8h9.9v-1.2h29l29.5,30.2v38.7h-28.9v78.4h12.6v39.7l-12.4,14.2-173.9-.7h-63.7v16.4h-41.2l-30.8-31.1-7.1-38.1,2.2-.4-16-75.9-7.3-42.4,28.4-28.1h32.7v2.4h99.9V17.1h-22.6v2.5h-55.2v-3.4h-44.6v3.3h-34.4v-2.6h-44v2.1h-18.1v2.8h-55.7v-2.7h-13l-11.2,10.8c0,0-.1,13.7-.1,13.7h2.2v39.5h4.8l12.4,60.2-3.9.7,8.7,44.7,4.1-.7,6.7,32.1-2.3.6-3.7.7,12.4,63,4.1-1,7.3,35.9-17.8,3.8,23.8,122,10.9-3.6v14.7l11.1,11.1h12.9v8h104.9v-1.8h20.9v-4.4h38.7v4.2h20.2v-8.4h16.9v9.1h45.1v-8.7h16.2v8h22.3v-5.1h35.2v5.6h101v-13.3h82.9v2.4h13.6l10.8-10.8v-13.3h-2.5v-39.4h3.7v-79.9h-8v-16.2h3.9v-45h-3.9v-33.4h4v-46.7h-4v-33h4.1v-45.6h-4.1v-18.2h6.1v-40.3h2.1v-13.5l-10.2-10.5h-14.1v2.4h-62.2v-2.4h-43.9v2.1h-35v-2.4h-44.7v2.7h-54.7v-2.2h-23.3l.3,117.2h0Z"/>
    <path class="st5" d="M344.6,134.2h99.9v-1.8h9.9v-1.2h29l29.5,30.2v38.7h-28.9v78.4h12.6v39.7l-12.4,14.2-173.9-.7h-63.7v16.4h-41.2l-30.8-31.1-7.1-38.1,2.2-.4-16-75.9-7.3-42.4,28.4-28.1h32.7v2.4h99.9V17.1h-22.6v2.5h-55.2v-3.4h-44.6v3.3h-34.4v-2.6h-44v2.1h-18.1v2.8h-55.7v-2.7h-13l-11.2,10.8c0,0-.1,13.7-.1,13.7h2.2v39.5h4.8l12.4,60.2-3.9.7,8.7,44.7,4.1-.7,6.7,32.1-2.3.6-3.7.7,12.4,63,4.1-1,7.3,35.9-17.8,3.8,23.8,122,10.9-3.6v14.7l11.1,11.1h12.9v8h104.9v-1.8h20.9v-4.4h38.7v4.2h20.2v-8.4h16.9v9.1h45.1v-8.7h16.2v8h22.3v-5.1h35.2v5.6h101v-13.3h82.9v2.4h13.6l10.8-10.8v-13.3h-2.5v-39.4h3.7v-79.9h-8v-16.2h3.9v-45h-3.9v-33.4h4v-46.7h-4v-33h4.1v-45.6h-4.1v-18.2h6.1v-40.3h2.1v-13.5l-10.2-10.5h-14.1v2.4h-62.2v-2.4h-43.9v2.1h-35v-2.4h-44.7v2.7h-54.7v-2.2h-23.3l.3,117.2h0Z"/>
  </g>
  <polygon class="st15" points="523.9 483.4 445.6 483.4 445.6 459.4 461.6 459.4 461.6 464.4 506.9 464.6 507.2 459.4 523.9 459.4 523.9 483.4"/>
  <line class="st0" x1="127.8" y1="17" x2="127.8" y2="79.7"/>
  <line class="st0" x1="207.3" y1="17" x2="207.3" y2="79.7"/>
  <line class="st0" x1="167.8" y1="19.2" x2="167.8" y2="79.7"/>
  <line class="st0" x1="246.4" y1="19.2" x2="246.4" y2="79.7"/>
  <rect class="st0" x="257.8" y="90.1" width="49.7" height="43.6"/>
  <rect class="st0" x="344.3" y="90.1" width="49.7" height="43.6"/>
  <polyline class="st0" points="393.9 90.1 443.9 90.1 443.9 133.7 393.9 133.7"/>
  <rect class="st0" x="207.3" y="90.1" width="50.4" height="43.6"/>
  <polygon class="st0" points="123.6 111.2 144.9 90.1 207.3 90.1 207.3 131.4 174.9 131.4 159.6 147 123.6 111.2"/>
  <path class="st0" d="M404.9,19.2v61.1h-60.7V16.3h23.1v2.2h54.7v-2.7h44.7v2.4h33.4v-2.1h47.1v2.4h60.6v-2.4h14.1l10.2,10.5v13.5h-2.1v41.4h-6.1v17.7h4.1v45.3h-4.1v32.5h4v46.8h-4v32.4h3.9v46.2h-3.9v15.9h8v80h-3.7v39.4h2.5v13.3l-10.8,10.8h-13.6v-2.4h-99.4v4.5h-45.2c0,.1,0-4.3,0-4.3h-16.6v13h-22.2c0,0,0-5.5,0-5.5h-35.7v5.1h-22.3v-8h-16.2v8.7h-45.1v-9.1h-16.9v8.4h-20.2v-4.2h-38.7v4.4h-20.9v1.8h-104.9v-8h-12.9l-11.1-11.1v-14.7l-10.9,3.6-23.8-122,17.8-3.8-7.3-35.9-4.1,1-12.4-63,3.7-.7,2.3-.6-6.3-30.3-4.1.7-9.2-46.4,3.9-.7-12.4-60.2h-4.8v-36.5h-2.2s.2-16.7.1-16.7l11.2-10.8h13v2.7h55.7v-2.8h18.1v-2.1h44v2.6h34.4v-3.3h46v3.4h53.8v-2.5h22.7v63.3H89.6v-13.1h-14.2l-6.2-6.2V21.7"/>
  <polyline class="st0" points="404.9 80.3 445.1 80.3 445.1 16.8"/>
  <polyline class="st0" points="445.1 80.3 484 80.3 484 19.2"/>
  <polyline class="st0" points="483.1 80.3 523.8 80.3 523.8 17.2"/>
  <polyline class="st0" points="523.9 80.3 563.3 80.3 563.3 19.2"/>
  <polyline class="st0" points="629.8 80.6 584.9 80.6 584.9 88.2 565 88.2 565 81.7 563.3 81.7 563.3 79.4"/>
  <polyline class="st0" points="565 88.3 565 120.7 628 120.7"/>
  <polyline class="st0" points="565 121.1 565 160.9 623 160.9"/>
  <polyline class="st0" points="565 160.9 565 200 626.7 200"/>
  <polyline class="st0" points="565 200.6 565 239.7 622.9 239.7"/>
  <polyline class="st0" points="565 240.4 565 279.5 626.9 279.5"/>
  <polyline class="st0" points="565 279.1 565 318.3 622.9 318.3"/>
  <polyline class="st0" points="565 318.6 565 358.7 630.9 358.7"/>
  <polyline class="st0" points="565 357.6 565 397.7 632.3 397.7"/>
  <path class="st0" d="M246.5,468.1v-67.9h-39.4v72.6h20.7v-4.6s18.8,0,18.7-.1Z"/>
  <polyline class="st0" points="365.9 471.8 365.9 400.2 405.3 400.2 405.3 467.2"/>
  <polygon class="st0" points="246.2 400.2 286.6 400.2 286.6 462.9 286.6 472.3 266.4 472.3 266.4 468.1 246.5 468.1 246.2 400.2"/>
  <polygon class="st0" points="444.9 400.2 485.2 400.2 485.2 455.7 485.2 464.1 462.1 464.1 462.1 460.4 445.2 460.4 444.9 400.2"/>
  <polygon class="st0" points="524 400.2 484.3 400.2 484.3 455.7 484.3 464.1 506.8 464.1 506.8 459.6 523.7 459.6 524 400.2"/>
  <polygon class="st0" points="563.5 459.6 523.8 459.6 523.8 408.6 523.8 400.2 555.6 400.2 555.6 409.2 563.1 409.2 563.5 459.6"/>
  <polyline class="st0" points="405.3 400.2 445 400.2 445 471.8"/>
  <polyline class="st0" points="444.6 400.1 484.3 400.1 484.3 482.1"/>
  <polyline class="st0" points="484.1 400.1 523.7 400.1 523.7 459.3"/>
  <polyline class="st0" points="523 400.1 555.6 400.1 555.6 409.1 563.3 409.1 563.3 459.3"/>
  <polyline class="st0" points="555.6 400.1 555.6 388.9 564.9 388.9"/>
  <polyline class="st0" points="443.9 132.1 453.7 132.1 453.7 106.4 475.2 106.4 475.2 90.1 443.9 90.1"/>
  <polyline class="st0" points="475.2 89.9 475.2 88.3 511.4 88.3 533.3 110.1 498 145.8 483.3 130.9 454.1 130.9"/>
  <polyline class="st0" points="498 145.8 512.7 160.4 512.7 190.6 538.1 190.6 538.1 175.7 536.8 175.7 536.8 169.4 554.1 169.4 554.1 132.1 551.3 132.1 541.9 122.3 543.9 120.4 533.6 110.6"/>
  <polyline class="st0" points="123.6 111.2 111.1 124.8 113.3 141.2 98 143.7 105 178.4 120.9 175.2 125.4 197.7 151 193 145.6 160.3 159.6 147"/>
  <polygon class="st0" points="111.8 208.8 152.4 201.3 168.5 277.4 126.7 286.1 111.8 208.8"/>
  <polygon class="st0" points="127.8 294.3 168.9 286.1 174.4 316.3 190 332.1 163.3 358.8 152.2 347.4 138.2 349.4 127.8 294.3"/>
  <polyline class="st0" points="163.3 358.8 177.6 373.2 165.9 384.6 171.2 389.9 215.1 389.4 215.1 372.3 237.3 372.3 237.3 347 205.1 347 190 332.1"/>
  <path class="st0" d="M246.2,389v-58.2h63.8v39.8h-22.4v18.2s-41.3.3-41.3.2c0,0,0,0,0,0h0Z"/>
  <g>
    <polyline class="st12" points="126.9 473.2 126.9 423.7 140.6 411 169.3 411 169.3 473.7"/>
    <polyline class="st0" points="126.9 473.2 126.9 423.7 140.6 411 169.3 411 169.3 473.7"/>
  </g>
  <line class="st0" x1="206.7" y1="411" x2="169.3" y2="411"/>
  <g>
    <path class="st12" d="M207.1,400.2h-59.8l-11.8-12.3-15.8-80.4-74.9,15.6,22.2,121.1,10.9-3.6v14.7l11.1,11.1h12.9v8h25.2v-50.7l13-13,66.7-.2s-.2-10.7.2-10.3h0Z"/>
    <path class="st0" d="M207.1,400.2h-59.8l-11.8-12.3-15.8-80.4-74.9,15.6,22.2,121.1,10.9-3.6v14.7l11.1,11.1h12.9v8h25.2v-50.7l13-13,66.7-.2s-.2-10.7.2-10.3h0Z"/>
  </g>
  <g>
    <polygon class="st14" points="94.7 312.6 99.6 335.7 100.9 342.3 63.8 349.7 65.3 355.4 52.2 357.9 50.6 358.3 43.9 322.7 94.7 312.6"/>
    <polygon class="st0" points="94.7 312.6 99.6 335.7 100.9 342.3 63.8 349.7 65.3 355.4 52.2 357.9 50.6 358.3 43.9 322.7 94.7 312.6"/>
  </g>
  <polyline class="st0" points="42.9 243 104.9 230.6 97.3 191.9 40.7 203"/>
  <polyline class="st0" points="28.9 165 89.6 153.4 97.3 191.9"/>
  <polyline class="st0" points="25.1 125 82 114.8 89.6 153.4"/>
  <polyline class="st0" points="58.1 299.8 116.4 288.9 104.9 230.6"/>
  <polygon class="st0" points="154 372.5 142.1 359.7 153.2 348.7 165.8 361.2 154 372.5"/>
  <polygon class="st0" points="165.9 384.5 154.1 372.5 165.8 361.2 177.6 373 165.9 384.5"/>
  <polyline class="st0" points="138.2 349.7 141.8 359.4 142.3 359.9"/>
  <line class="st0" x1="104.9" y1="177.9" x2="111.8" y2="209.3"/>
  <polyline class="st0" points="89.7 79.5 81.4 87.4 73.2 81.2 11 81.2"/>
  <line class="st0" x1="82" y1="114.8" x2="81.4" y2="86.9"/>
  <polyline class="st0" points="98 143.7 92 97.4 100 89.7 144.9 90.1"/>
  <line class="st0" x1="95.8" y1="126.9" x2="111.1" y2="124.8"/>
  <polyline class="st0" points="94.4 115.3 107.8 113 114.9 120.1"/>
  <polyline class="st0" points="512.7 190.6 512.7 199.5 554.1 199.5 554.1 169.4"/>
  <polyline class="st0" points="512.7 199.5 483.6 199.5 483.6 278.6 496.7 278.6 496.7 317.7 484.2 331.7 423.8 331.7 342.6 331.7 310 331.7"/>
  <polyline class="st0" points="554.1 199.5 554.1 288.1 533.1 288.1 533.1 295.7 554 295.7 554 365.6 529.9 389.9 297.8 389.9"/>
  <line class="st0" x1="246.2" y1="389" x2="215.1" y2="389.4"/>
  <line class="st0" x1="246.3" y1="347.4" x2="236.9" y2="347.4"/>
  <line class="st0" x1="307.5" y1="90.8" x2="307.3" y2="79.7"/>
  <line class="st0" x1="344.2" y1="80.3" x2="344.2" y2="90.1"/>
  <line class="st0" x1="307.2" y1="16.3" x2="343.8" y2="16.3"/>
  <line class="st0" x1="307.2" y1="133.7" x2="343.8" y2="133.7"/>
  <g>
    <rect class="st12" x="169.3" y="410.8" width="37.6" height="63.4"/>
    <rect class="st0" x="169.3" y="410.8" width="37.6" height="63.4"/>
  </g>
  <polygon class="st0" points="73.9 296.7 99.3 292.1 101.1 300.6 75.7 305.1 73.9 296.7"/>
  <line class="st0" x1="96.6" y1="292.7" x2="98.4" y2="301.1"/>
  <line class="st0" x1="93.7" y1="293.2" x2="95.5" y2="301.6"/>
  <line class="st0" x1="90.9" y1="293.7" x2="92.7" y2="302.1"/>
  <line class="st0" x1="88" y1="294.2" x2="89.8" y2="302.6"/>
  <line class="st0" x1="85.2" y1="294.7" x2="87" y2="303.1"/>
  <line class="st0" x1="82.4" y1="295.2" x2="84.1" y2="303.6"/>
  <line class="st0" x1="79.5" y1="295.7" x2="81.3" y2="304.1"/>
  <line class="st0" x1="76.7" y1="296.2" x2="78.4" y2="304.6"/>
  <rect class="st1" x="107.9" y="177.5" width="7.3" height="23.1" transform="translate(-37 27.4) rotate(-12)"/>
  <rect class="st3" x="116.8" y="188.5" width="7.3" height="10.3" transform="translate(-37.8 29.4) rotate(-12.1)"/>
  <line class="st0" x1="109.8" y1="198.6" x2="117" y2="197.1"/>
  <line class="st0" x1="109.3" y1="196.1" x2="116.4" y2="194.5"/>
  <line class="st0" x1="108.7" y1="193.6" x2="115.9" y2="192.1"/>
  <line class="st0" x1="108.2" y1="191" x2="115.4" y2="189.5"/>
  <line class="st0" x1="107.7" y1="188.5" x2="114.8" y2="187"/>
  <line class="st0" x1="107.1" y1="186" x2="114.3" y2="184.4"/>
  <line class="st0" x1="106.6" y1="183.5" x2="113.8" y2="182"/>
  <line class="st0" x1="106.1" y1="181" x2="113.2" y2="179.4"/>
  <line class="st0" x1="117.2" y1="196.9" x2="124.4" y2="195.3"/>
  <line class="st0" x1="116.7" y1="194.4" x2="123.8" y2="192.9"/>
  <line class="st0" x1="116.1" y1="191.9" x2="123.3" y2="190.3"/>
  <rect class="st0" x="452.2" y="98.7" width="22.6" height="7.2"/>
  <rect class="st0" x="452.2" y="91.1" width="10.1" height="7.2"/>
  <line class="st0" x1="472.4" y1="105.9" x2="472.4" y2="98.7"/>
  <line class="st0" x1="469.8" y1="105.9" x2="469.8" y2="98.7"/>
  <line class="st0" x1="467.3" y1="105.9" x2="467.3" y2="98.7"/>
  <line class="st0" x1="464.8" y1="105.9" x2="464.8" y2="98.7"/>
  <line class="st0" x1="462.3" y1="105.9" x2="462.3" y2="98.7"/>
  <line class="st0" x1="459.7" y1="105.9" x2="459.7" y2="98.7"/>
  <line class="st0" x1="457.2" y1="105.9" x2="457.2" y2="98.7"/>
  <line class="st0" x1="454.7" y1="105.9" x2="454.7" y2="98.7"/>
  <line class="st0" x1="459.7" y1="98.5" x2="459.7" y2="91.3"/>
  <line class="st0" x1="457.2" y1="98.5" x2="457.2" y2="91.3"/>
  <line class="st0" x1="454.7" y1="98.5" x2="454.7" y2="91.3"/>
  <polygon class="st0" points="546.6 176.3 546.5 191.9 553.9 191.9 554 176.3 546.6 176.3"/>
  <polygon class="st0" points="538.9 189.4 539 176.3 546.1 176.3 546.2 189.4 538.9 189.4"/>
  <line class="st0" x1="553.9" y1="191.7" x2="546.6" y2="191.7"/>
  <line class="st0" x1="553.9" y1="189.1" x2="546.6" y2="189.1"/>
  <line class="st0" x1="553.9" y1="186.5" x2="546.6" y2="186.5"/>
  <line class="st0" x1="554" y1="183.9" x2="546.6" y2="183.9"/>
  <line class="st0" x1="554" y1="181.4" x2="546.6" y2="181.4"/>
  <line class="st0" x1="554" y1="178.8" x2="546.6" y2="178.8"/>
  <line class="st0" x1="546.4" y1="183.9" x2="539" y2="183.9"/>
  <line class="st0" x1="546.4" y1="186.6" x2="539" y2="186.6"/>
  <line class="st0" x1="546.4" y1="181.4" x2="539" y2="181.4"/>
  <line class="st0" x1="546.4" y1="178.8" x2="539" y2="178.8"/>
  <polygon class="st0" points="220.4 380.5 237.1 380.7 237.1 372.8 220.4 372.7 220.4 380.5"/>
  <polygon class="st0" points="237.2 388.8 223.4 388.9 223.1 381.1 237.1 381 237.2 388.8"/>
  <line class="st0" x1="237" y1="372.7" x2="237" y2="380.6"/>
  <line class="st0" x1="234.2" y1="372.7" x2="234.2" y2="380.6"/>
  <line class="st0" x1="231.4" y1="372.7" x2="231.4" y2="380.5"/>
  <line class="st0" x1="228.6" y1="372.7" x2="228.6" y2="380.5"/>
  <line class="st0" x1="225.9" y1="372.7" x2="225.9" y2="380.5"/>
  <line class="st0" x1="223.1" y1="372.7" x2="223.1" y2="380.5"/>
  <line class="st0" x1="231.3" y1="380.8" x2="231.3" y2="388.7"/>
  <line class="st0" x1="234.1" y1="380.8" x2="234.1" y2="388.7"/>
  <line class="st0" x1="228.6" y1="380.8" x2="228.6" y2="388.7"/>
  <line class="st0" x1="225.8" y1="380.8" x2="225.8" y2="388.7"/>
  <line class="st0" x1="423.5" y1="390" x2="423.5" y2="331.7"/>
  <line class="st0" x1="405.3" y1="390" x2="405.3" y2="331.7"/>
  <line class="st0" x1="404.8" y1="371.8" x2="423.6" y2="371.8"/>
  <polyline class="st0" points="521.3 97.6 531.2 87.7 544.7 87.7 554.1 97.3 554.1 110.9 543.9 120.4"/>
  <line class="st0" x1="119.8" y1="307.4" x2="116.4" y2="288.9"/>
  <polyline class="st0" points="140.5 393 148.4 385.4 139.6 377 133.9 377.9"/>
  <rect class="st0" x="498.4" y="377.9" width="20.1" height="12"/>
  <rect class="st0" x="497.2" y="278.1" width="9" height="18.6"/>
  <rect class="st2" x="520.3" y="363.8" width="31.5" height="16.3" transform="translate(-106 488) rotate(-45)"/>
  <polyline class="st0" points="496.7 317.7 506.4 317.7 506.4 329.2 513.3 329.2 513.3 339.7 535.6 360.8"/>
  <line class="st0" x1="537.3" y1="308.3" x2="537.3" y2="295.7"/>
  <line class="st0" x1="530" y1="310.9" x2="525.1" y2="310.9"/>
  <polyline class="st0" points="554.2 295.9 525.3 295.9 525.3 298.1"/>
  <line class="st0" x1="543.7" y1="315.3" x2="543.7" y2="304.7"/>
  <line class="st0" x1="538.3" y1="337.7" x2="538.3" y2="314.5"/>
  <line class="st0" x1="525.4" y1="337.7" x2="525.4" y2="319.3"/>
  <line class="st0" x1="513.6" y1="319.8" x2="525.8" y2="319.8"/>
  <line class="st0" x1="525.6" y1="324.6" x2="538.1" y2="324.6"/>
  <line class="st0" x1="525.6" y1="320.7" x2="538.1" y2="320.7"/>
  <line class="st0" x1="543.1" y1="310.2" x2="554.3" y2="310.2"/>
  <line class="st0" x1="543.1" y1="305.1" x2="554.3" y2="305.1"/>
  <polyline class="st0" points="544.4 344.9 544.4 352.3 541.8 354.8"/>
  <line class="st0" x1="544.4" y1="340.3" x2="544.4" y2="333.9"/>
  <line class="st0" x1="544" y1="339.8" x2="554.3" y2="339.8"/>
  <line class="st0" x1="543.9" y1="344.8" x2="554.3" y2="344.8"/>
  <line class="st0" x1="543.9" y1="334.2" x2="554.3" y2="334.2"/>
  <line class="st0" x1="513.4" y1="329.2" x2="525.8" y2="329.2"/>
  <line class="st0" x1="513.8" y1="320.3" x2="513.8" y2="311.9"/>
  <rect class="st0" x="538.4" y="315" width="15.6" height="10.2"/>
  <rect class="st0" x="513.8" y="297.9" width="11.6" height="14.4"/>
  <polygon class="st0" points="541.8 354.8 535.6 361 529.7 355 535.8 348.8 541.8 354.8"/>
  <polyline class="st0" points="310.5 369.9 310.5 389.9 297.9 389.9 297.9 382 310.6 382"/>
  <polyline class="st0" points="287.4 382 293.4 382 297.9 382"/>
  <line class="st0" x1="118.9" y1="300.6" x2="129.1" y2="299"/>
  <line class="st0" x1="115.6" y1="282.7" x2="125.8" y2="281.1"/>
  <polyline class="st0" points="555.9 388.9 549 388.9 560.4 377.4 565.3 377.4"/>
  <line class="st0" x1="142.1" y1="359.7" x2="153.6" y2="348.5"/>
  <polygon class="st0" points="542 378 552.7 366.4 541.8 355.6 530.4 367 542 378"/>
  <polygon class="st0" points="530.8 388.9 541.9 378 530.4 366.9 519.7 377.6 530.8 388.9"/>
  <line class="st0" x1="552.9" y1="366.6" x2="541.5" y2="355.4"/>
  <rect class="st0" x="512.2" y="211.7" width="27.1" height="54.7"/>
  <polyline class="st0" points="533.1 288.1 515.8 288.1 515.8 278.6 532.8 278.6"/>
  <polyline class="st0" points="533 266.2 533 251.5 539.5 251.5"/>
  <line class="st0" x1="533.1" y1="253.6" x2="539.3" y2="253.6"/>
  <line class="st0" x1="533.1" y1="255.5" x2="539.3" y2="255.5"/>
  <line class="st0" x1="533.1" y1="257.7" x2="539.3" y2="257.7"/>
  <line class="st0" x1="533.1" y1="259.8" x2="539.3" y2="259.8"/>
  <line class="st0" x1="547.5" y1="361.3" x2="554" y2="354.8"/>
  <polyline class="st0" points="304.7 467.4 309.1 467.4 323.1 462.3 330 462.3 343.3 467.7 348.9 467.7"/>
  <line class="st0" x1="527.9" y1="104.7" x2="545.6" y2="88.3"/>
  <line class="st0" x1="286.4" y1="421.7" x2="365.8" y2="421.7"/>
  <line class="st0" x1="286.6" y1="400.2" x2="365.9" y2="400.2"/>
  <polyline class="st0" points="47.1 341.6 58.4 339.7 62.2 342.3 99.6 335.7 94.7 312.3"/>
  <rect class="st4" x="104.8" y="309" width="15.9" height="8.6" transform="translate(-61.7 29.7) rotate(-11.8)"/>
  <line class="st0" x1="100.8" y1="300.7" x2="118.2" y2="297.4"/>
  <g>
    <path class="st13" d="M316.5,257c0,.3-.1.4-.2.4,0,0,0,0,.1,0,0,0,.2-.2.3-.3.1-.2.2-.4.3-.7-.2,0-.3.3-.4.6Z"/>
    <path class="st13" d="M311.3,230.4c0,0,0,0,0,.2,0,.7-.3,1.2-.1,1.8s.3.6.7.1c.2-.3.4-.4.6-.5,0-.1-.1-.3-.2-.4-.3-.4-.6-.8-.9-1.2Z"/>
    <path class="st13" d="M312.7,247.5c-.3-.5-1.5-.2-2.5.1-.5.3-1.1.5-1.9.6-.8,0-1.3.1-1.6.2.1.7.3.5.7.7.4.2,4.2-.8,4.7-.7.3,0,.7,0,1.2-.2,0,0-.1-.2-.2-.3,0,0,0-.1-.1-.2,0,0-.1-.1-.2-.2Z"/>
    <path class="st13" d="M305.3,240.8c0,0,0,.2-.1.3-.4.6-.3,1.4-.2,2.5,0,1.1.6,1.1.8,2.2.2.8.5,1.2.7,1.8.6-.7.9-1.3,1.1-2,.3-1,0-1.4-.3-2.1,0-.1-.2-.3-.3-.4-.8-1-1-1.7-1.6-2.2Z"/>
    <path class="st13" d="M309.9,235.2c-.2.1-.5.3-.8.5.3,0,.6-.1.8-.5Z"/>
    <path class="st13" d="M305.9,247.6c-.2,0-.4.4-.6,1,0,0,.2-.2.3-.2.2-.2.4-.4.5-.5,0-.1-.1-.2-.2-.2Z"/>
    <path class="st13" d="M312,232.8s0,0,0,0c-.4.3-.6.5-.7.8.2-.2.5-.3.7-.7Z"/>
    <path class="st13" d="M306.9,237.1c.1,0,.3-.2.6-.4-.2-.2-.4-.3-.6-.2-.3,0-.3.1-.7.2-.4,0-.6,0-.7.4s-.2.7,0,.8c.1.1.4,0,.7,0,.3-.5.5-.8.7-.9Z"/>
    <path class="st13" d="M304.8,240.3c-.4-.5-.5-1-1.2-1.3-.4-.2-.6-.4-.7-.5,0,.5,0,1,0,1.5s0,1.3,0,1.9c.7-.3.9-.9,1.7-1.3,0,0,.2-.1.3-.2Z"/>
    <path class="st13" d="M306.6,237.9c.3,0,.5-.2.7-.4h0c.1-.1.2-.3.2-.4,0,0,0,0,0,0-.3.2-.6.5-.8.8Z"/>
    <path class="st13" d="M348.6,247.2c0,.1-.2.3-.2.5,0-.2.1-.4.2-.5Z"/>
    <path class="st13" d="M335.7,260.6c-.6-.3-.9,0-1.3,0s-.3.2-.9.3c-.7,0-.8.4-1.3.7-.4.2-.5.3-.7.5-.2.2-.4.4-.3.9,2-.4,3.8-1.1,5.6-2-.4-.1-.6-.2-1.1-.4h0Z"/>
    <path class="st13" d="M326.7,255.8l.2-.3c0,0-.1.2-.2.3Z"/>
    <path class="st13" d="M312.1,229.9c-.1-.3-.3-.5-.4-.4,0,0,0,0-.1.2.1,0,.3.2.6.3Z"/>
    <path class="st13" d="M311.3,234.7c.3,0,.4.2.7.1.3-.1.6-.5,1.1-.8s.5-.6.6-1c.2-.5.6-.7.6-1,0-.3-.1-.4-.3-.5-.3.1-.5.3-.9.5-.2.3-.4.7-.8,1-.4.3-.8.6-1.1.9,0,0-.1.1-.1.1,0,.1,0,.2-.1.3,0,0,0,0,0,.1,0,.3,0,.3.4.3Z"/>
    <path class="st13" d="M323.7,230.8c-.2-.5-.4-1-.7-1.3s-.7-.8-.9-1.3-.5-.7-.7-1.2c-.2-.5-1.4.1-2.3,1.2-.2.2-.3.4-.5.6,0,.4,0,.9.2,1.3h0c.4,1.1.7,1.6.7,1.6.9,1,1.1,1.1,1.4,1.7.3.7.6.6,1.7.4,1-.3,1-.7,1.9-1.1-.1-.3-.2-.5-.5-1-.4-.6-.2-.5-.3-.9Z"/>
    <path class="st13" d="M320,226.2h0c.5-.5.8-1.4.7-1.7s-.3-.6-.5-1-.4-.8-.5-1-.2-.6-.2-.6c-.5-.7-.9-.8-1.3-.8,0,0,0,0,0,0,0,.8,0,2,0,2.4,0,.5.5,1.5.5,2.7,0,.4,0,.8,0,1.1,0,0,0,0,0,0,.4-.8.8-.6,1.3-1.1Z"/>
    <path class="st13" d="M326.8,230c-.4.8-.9,1.2-.9,1.7,0,0,0,.1,0,.2.3-.2.5-.4,1-.5,1-.3.7-.4.9-.9.2-.5-.3-.8-.3-1.2-.3.2-.5.4-.6.8Z"/>
    <path class="st13" d="M312.9,222.8c-.3.5-.9,1.2-.9,1.7s.2,1.8.5,2.6c.3.8.5,1.6.7,2.3s.5.6.6,1.1c0,0,0,0,0,0,.2-.1.5-.3.8-.2.5.1.5-.3,1.4-.5.4,0,.6-.2.8-.2.7-.4,2.3-3.3,1.7-4.7-.5-1.4-.5-3.4-.6-3.6-.8.2-2.1.6-3,.8-1.2.3-1.6.3-1.9.8Z"/>
    <path class="st13" d="M304.7,244.8c-.5-1-.8-1.3-1.3-1.7-.1-.1-.3-.2-.4-.3.3,2.1.8,4.2,1.6,6.1,0-.7.4-1,.5-1.4.2-.4,0-1.8-.5-2.8Z"/>
    <path class="st13" d="M326.1,221.9s0,0,0,0c-.2.3-.2.8-.3,1.2-.1.7-.4,1.1-.8,2s-.2,1.1-.2,1.9c0,.8-.1.6,0,1.2.1.6.5.8,1.2.8.7,0,.8,0,1.4-.3,0,0,0,0,0,0-.1-.2-.3-.4-.4-.9,0-.3,0-.5-.1-.6,0,0,0-.2-.2-.5,0,0,0,0,0,0h0s0,0,0,0c-.2-.3-.4-.8-.8-1.3-.9-1.1,1.1-2.9.4-3.4Z"/>
    <path class="st13" d="M325.5,229.6h0c-.4,0-.8,0-1.1,0s-.6.3-.6.5.2.6.4.7.6.5.9.4c.3-.2.6-.6.8-.8.3-.2.5-.4.5-.6,0-.3-.4-.1-.8-.2Z"/>
    <path class="st13" d="M323.9,229c.1-.3,0-.8.2-1.2s.1-.6.1-1.1,0-.4,0-.6.1-.2,0-.4,0-.6,0-.8c0-.4,0-.4-.3-.4-.2,0-.5.3-.9.5-.3.2-.4.3-.7.6-.3.3-.4.2-.5.5s0,.2,0,.6.1.5.2,1c.1.5.1,1,.6,1.4s.9.3,1,0Z"/>
    <path class="st13" d="M319.9,221.7c0,.4.2.3.2.9s.4.9.6,1.3.3.6.4.8c.2.2.5.5,1.2.3.7-.2,1.2-1.1,1.9-1.5.7-.4.7-.6.9-1.1.3-.5.2-.4.5-.8,0,0,0,0,0,0-.4-.5-.5-1-1.2-1.4-.9-.4-.8-.9-1.7-1-.6-.1-1.6.1-2.5.5,0,.2-.2.4-.3.7-.3.6,0,.9,0,1.3Z"/>
    <path class="st13" d="M314,235.4c0-.4,0-.6-.4-.7s-.7-.2-.8,0h0c-.1.2,0,.6,0,1,0,.4.2.7.4.9s.6.3.7.2c.3-.1.3-.4.3-.6s-.1-.4-.2-.7Z"/>
    <path class="st13" d="M319.8,242.9c-.2.5.3.8.3,1.2.3-.2.5-.4.6-.8.4-.8.9-1.2.9-1.7,0,0,0-.1,0-.2-.3.2-.5.4-1,.5-1,.3-.7.4-.9.9Z"/>
    <path class="st13" d="M317.9,241.6c-.8-1.2-1.4-1.1-2.5-1.7-1.1-.6-1-1.1-1.1-1.7-.1-.6-.4-.4-.8-1.1s-.7-1.2-1.1-1.5c-.4-.3-1-.5-1.5-.5,0,0-.1,0-.2,0,0,0,0,0,0,0-.5,1.1-1,1.1-1.6,1.2-.6.1-.3.5-1,.9s-1.1.8-1.4,1.2-.4,1-.4,1.5c0,.5.3.6.7,1.4s.7.9,1.1,1.7c0,.1,0,.2.1.3.7,1.1,3.8-.3,4.7,1.6,0,0,0,0,0,0,.6.5,1.9,1,2.6.7s1.1,0,1.7-.4c.6-.3,1.5-.5,2.1-.7,0,0,.2,0,.3-.1,0-.2,0-.3-.2-.6-.3-.7-.5-1.1-1.3-2.3Z"/>
    <path class="st13" d="M320,240.9c-.7,0-1.2-.4-1.8-.2-.6.2-.6.2-.1.7.4.4.4.7.8,1s.5.4.9,0,.3-.4.7-.5c.3-.1.8-.4.7-.5,0-.2-.4-.3-1.1-.4Z"/>
    <path class="st13" d="M312.3,227.3c-.5-1.3-1-1.8-.9-2.7,0-.7-.1-1-.3-1.5,0,0,0,0,0,0,0,0-.2.2-.2.2,0,.1-.2.2-.2.2h0c-.2.2-.4.3-.6.5-.7.3-.6.7-.3,1.7s.8,1,1.2,1.9c.4,1,1,1.1,1.3,2.1,0,.1,0,.2.1.3.2,0,.4.2.7.3,0-.9-.5-2.1-.8-3Z"/>
    <path class="st13" d="M330.2,218.7c.2-.2.2-.3,0-.8,0-.1,0-.2,0-.3,0,0-.2,0-.3,0-.6.1-.3.5-1,.9.3.1.4.2.8.2.4,0,.4,0,.5,0Z"/>
    <path class="st13" d="M311.6,222.2c0,0,0,.1,0,.2.1,0,.3-.2.4-.3-.2,0-.3,0-.4,0Z"/>
    <path class="st13" d="M316.9,230.3c0,0-.1,0-.2,0,0,0,0,0,0,0,0,0,0,0,0,0-.2.2-.3.3-.7.6-.8.4-.7,1.1-1.2,1.8-.5.7-.4,1.7-.4,2.3,0,.6.4,1.7.5,1.9.1.3.2,1,.2,1.4s0,.9.6,1,.3.5,1,.5c.8,0,.7.2,1.4.2s.6.2,1.4,0,1.3.2,1.7.3c.2,0,.5,0,.8,0,0-.1,0-.3,0-.4-.2-1.1,0-1-.1-2-.2-1,.2-.7-.2-1.6-.4-.9-.6-1.5-.5-2.4s-.5-.8-.8-1.5c-.2-.4-1.3-1.4-1.9-1.9-.3-.3-.7-.5-1.2-.3Z"/>
    <path class="st13" d="M312.1,223.3c.2,0,.3-.3.4-.5h0c.1-.2,0-.3,0-.4,0,0,0,0,0,0,0,0,0,0,0,0-.3,0-.5.1-.8.3,0,0,0,0,0,.1,0,.2.2.5.4.5Z"/>
    <path class="st13" d="M322,243.8h0c.4,0,.8,0,1.1,0s.6-.3.6-.5-.2-.6-.4-.7c-.2-.2-.6-.5-.9-.4-.3.2-.6.6-.8.8-.3.2-.5.4-.5.6,0,.3.4.1.8.2Z"/>
    <path class="st13" d="M325.1,238c.5-.9.3-1.8.4-2.3,0-.5-.4-1.1-.3-1.7,0-.4-.1-.6-.3-.8-.4.2-.7.3-1,.5-.9.6-1.2,1-1.5,1.5-.5.9-.3,1.8-.4,2.3,0,.5.4,1.1.3,1.7,0,.4.1.6.3.8.4-.2.7-.3,1-.5.9-.6,1.2-1,1.5-1.5Z"/>
    <path class="st13" d="M325.9,235.4c.2,1-.2.7.2,1.6.4.9.6,1.5.5,2.4,0,.8.5.8.8,1.5.2.4,1.3,1.4,1.9,1.9.3.3.7.5,1.2.3,0,0,.1,0,.2,0,0,0,0,0,0,0,0,0,0,0,0,0,.2-.2.3-.3.7-.6.8-.4.7-1.1,1.2-1.8.5-.7.4-1.7.4-2.3,0-.6-.4-1.7-.5-1.9-.1-.3-.2-1-.2-1.4s0-.9-.6-1-.3-.5-1-.5c-.8,0-.7-.2-1.4-.2s-.6-.2-1.4,0c-.8.1-1.3-.2-1.7-.3h0c-.2,0-.5,0-.8,0,0,.1,0,.3,0,.4.2,1.1,0,1,.1,2Z"/>
    <path class="st13" d="M320.7,246.2c0,0,0,.2.2.5,0,0,0,0,0,0h0c.2.3.4.8.8,1.3.9,1.1-1.1,2.9-.4,3.4,0,0,0,0,0,0,.2-.3.2-.8.3-1.2.1-.7.4-1.1.8-2s.2-1.1.2-1.9c0-.8.1-.6,0-1.2s-.5-.8-1.2-.8c-.7,0-.8,0-1.4.3,0,0,0,0,0,0,.1.2.3.4.4.9,0,.2,0,.4.1.6Z"/>
    <path class="st13" d="M328,241.7c-.9-1-1.1-1.1-1.4-1.7-.3-.7-.6-.6-1.7-.4-1,.3-1,.7-1.9,1.1.1.3.2.5.5,1,.4.6.2.5.3.9s.4,1,.7,1.3.7.8.9,1.3.5.7.7,1.2c.2.5,1.4-.1,2.3-1.2.2-.2.3-.4.5-.6,0-.4,0-.9-.2-1.3-.4-1.2-.7-1.6-.7-1.6Z"/>
    <path class="st13" d="M317.7,247.3c.8,0,2-.8,2.3-1-.2-.2-.3-.5-.4-.9s-.1-.3-.1-.5c-.3.1-.5.3-.7.4-.4.2-.8.3-1.5.4s-1.2.3-1.7.7-.8.4-1.1.4-.3,0-.4.1c-.2.3-.1.7,0,1,1.2-.3,2.6-.8,3.7-.7Z"/>
    <path class="st13" d="M333.8,240.4c-.2.5-.6.7-.6,1,0,.3.1.4.3.5.3-.1.5-.3.9-.5.2-.3.4-.7.8-1,.4-.3.8-.6,1.1-.9,0,0,.1-.1.1-.1,0-.1,0-.2.1-.3,0,0,0,0,0-.1,0-.3,0-.3-.4-.3h0c-.3,0-.4-.2-.7-.1-.3.1-.6.5-1.1.8-.5.3-.5.6-.6,1Z"/>
    <path class="st13" d="M327.5,232.5c.7,0,1.2.4,1.8.2.6-.2.6-.2.1-.7-.4-.4-.4-.7-.8-1h0c-.4-.3-.5-.4-.9,0s-.3.4-.7.5c-.3.1-.8.4-.7.5,0,.2.4.3,1.1.4Z"/>
    <path class="st13" d="M333.4,237.9c0,.4,0,.6.4.7s.7.2.8,0c.1-.2,0-.6,0-1,0-.4-.2-.7-.4-.9s-.6-.3-.7-.2c-.3.1-.3.4-.3.6s.1.4.2.7Z"/>
    <path class="st13" d="M315.4,259.7c0-.1,0-.3-.1-.3,0,0-.1.2-.2.2-.3.2-.5.4-.6.6.3.2.6.4.9.5,0-.3.1-.7,0-1Z"/>
    <path class="st13" d="M317.6,253.9c.5.2.6.8,1.2.4.5-.4,1.1-.8,1.5-1.2.1-.3.2-.7.2-1,0-.5.5-.8.4-1.7,0-.9.9-1.1.5-1.9-.2-.4-.5-.9-.8-1.4,0,0,0,0,0,0l.6,1.1s-3.5-.2-4.2-.2c-.8,0-1.8.2-2.8.4,0,.1.1.2.2.3.3.4,1,1,1.2,2.1s.6,1.3.8,1.8c.1.6.7,1.2,1.2,1.4h0Z"/>
    <path class="st13" d="M330.3,262.9c-.3,0-.2,0-.6,0s-.5.2-1,.3c-.3,0-.5.1-.7.2.9,0,1.7-.2,2.6-.3,0,0,0-.1-.3-.2Z"/>
    <path class="st13" d="M329.2,262.2c.4-.3-.2-1.4-1.3-2.2s-1.6-.9-2-1.7c-.1-.2-.2-.4-.3-.5-.5.8-.9,1.5-1.6,2.8-.8,1.5-2.2,2.4-2.2,2.4l-.5-.4s.5-.4.6-1c0-.6,0-1.6-.6-2-.6-.4-.8-.6-1.2-1.1-.4-.5-.6-.3-1-.8-.4-.4-1.5-.4-2.4,0-.3.2-.5.4-.8.7,0,.3-.1.4-.1.9,0,.7-.2.6,0,1.4,0,0,0,.1,0,.2,3.1,1.5,6.7,2.4,10.4,2.4s.8,0,1.3,0c.2-.1.3-.3.5-.4.5-.3.7-.5,1.2-.8Z"/>
    <path class="st13" d="M319,255.4c0,0,0,.1.1.1.1-.1.3-.3.2-.4,0-.1-.2-.1-.4-.2,0,.2,0,.3,0,.4Z"/>
    <path class="st13" d="M318.6,254.8c-.3-.1-.4-.2-.8-.2-.4,0-.4,0-.5,0-.2.2-.2.3,0,.8,0,.1,0,.2,0,.3,0,0,.2,0,.3,0,.6-.1.3-.5,1-.9Z"/>
    <path class="st13" d="M307.7,246.6c0,.2,1.6-.1,2.6,0,.4,0,.8-.2.9-.6.2-.6-.3-1.5-1.3-1.7s-1.2.1-1.7.6-.6,1.5-.6,1.7Z"/>
    <path class="st13" d="M317.5,256.5c.3.5.3.6.7.5.5,0,.7-.3.8-.4,0,0,0-.3,0-.5,0,0,0,0,0,0-.3.1-1,.2-1.4.3,0,0,0,0-.1,0,0,0,0,0,0,.2h0Z"/>
    <path class="st13" d="M314.7,259.3c-.4-.2-1.2-.6-2.5-.6.6.4,1.1.8,1.7,1.2.2-.1.3-.2.5-.4,0,0,.2-.1.3-.2Z"/>
    <path class="st13" d="M322.9,253.1c.9.4.8.9,1.7,1,.6.1,1.6-.1,2.5-.5,0-.2.2-.4.3-.7h0c.3-.6,0-.9,0-1.3,0-.4-.2-.3-.2-.9,0-.7-.4-.9-.6-1.3s-.3-.6-.4-.8c-.2-.2-.5-.5-1.2-.3-.7.2-1.2,1.1-1.9,1.5-.7.4-.7.6-.9,1.1-.3.5-.2.4-.5.8,0,0,0,0,0,0,.4.5.5,1,1.2,1.4Z"/>
    <path class="st13" d="M314.2,260s0,0,0,0c0,0,0,0,0,0,0,0,0,0,0,0Z"/>
    <path class="st13" d="M333.7,242.9s0,0,0,0c-.2.1-.5.3-.8.2-.5-.1-.5.3-1.4.5-.4,0-.6.2-.8.2-.7.4-2.3,3.3-1.7,4.7.5,1.4.5,3.4.6,3.6.8-.2,2.1-.6,3-.8,1.2-.3,1.6-.3,1.9-.8.3-.5.9-1.2.9-1.7s-.2-1.8-.5-2.6c-.3-.8-.5-1.6-.7-2.3-.2-.7-.5-.6-.6-1.1Z"/>
    <path class="st13" d="M312.7,256c-.7,0-1.5-.8-2.1-.6-.3,0-.9.2-1.7.4.8.9,1.7,1.7,2.7,2.5,1.3,0,2.5-.3,3.4-.5-.5-.9-1.8-1.7-2.3-1.7Z"/>
    <path class="st13" d="M321.1,254.9c.1-.4.2-.7,0-.8-.1,0-.3,0-.5,0,0,.2,0,.3-.4,1,0,.2-.1.3-.2.4,0,0,.2,0,.4-.1.4,0,.6,0,.7-.4Z"/>
    <path class="st13" d="M306.6,250c.3-.4.5-.5.2-.9-.3-.4-.4-.4-.4-.7-.3,0-.6.2-1,.5,0,0,0,0,0,0,0,0,0,0-.1,0,0,0,0,0,0,0,0,.2-.2.5-.3.7.1.3.3.6.5,1,0,0,0,0,0,0,.5-.3.8-.2,1.1-.6Z"/>
    <path class="st13" d="M311.7,255.4c.9.5,1,0,1.9.4h0c.9.4,2.1,1,2.8.5.2-.3.4-.4.7-.5,0-.2,0-.4,0-.7,0-.7-.3-.9-.6-1.4s0-.4-.7-1.3c-.6-.9-.8-1.2-1.7-2.3-.6-.8-.6-1.2-.7-1.7-2,.5-3.9,1.2-4.4,1.3-.7.2-1.9.6-3.2,1.1,0,0-.1,0-.2.1.9,1.6,1.9,3.1,3.1,4.5,1-.1,2.4-.4,3,0Z"/>
    <path class="st13" d="M322.9,254.9c.5.2.7.5,1.1.5s.4-.2.5-.4-.2-.6-.5-.7c-.3-.2-.8-.4-1.1-.8s-.6-.8-.9-1.1c-.2-.2-.3-.2-.4-.2,0,.2-.1.4-.3.5-.2.2-.2.4-.2.6.1.2.5.5.8,1,.3.5.6.4,1.1.6Z"/>
    <path class="st13" d="M335,250.5c-.1.2,0,.3,0,.4,0,0,0,0,0,0,0,0,0,0,0,0,.3,0,.5-.1.8-.3,0,0,0,0,0-.1h0c0-.2-.2-.5-.4-.5-.2,0-.3.3-.4.5Z"/>
    <path class="st13" d="M333.1,242.1c-.1,0-.2,0-.4,0-.2,0-.4.2-.7.3.3-.1.6,0,1.1-.3,0,0,0,0,0,0Z"/>
    <path class="st13" d="M329.2,249.9h0c0-.5-.5-1.5-.5-2.7,0-.4,0-.8,0-1.1,0,0,0,0,0,0-.4.8-.8.6-1.3,1.1-.5.5-.8,1.4-.7,1.7.1.4.3.6.5,1s.4.8.5,1,.2.6.2.6c.5.7.9.8,1.3.8,0,0,0,0,0,0,0-.8,0-2,0-2.4Z"/>
    <path class="st13" d="M323.4,249c.2,0,.5-.3.9-.5.3-.2.4-.3.7-.6.3-.3.4-.2.5-.5s0-.2,0-.6-.1-.5-.2-1c-.1-.5-.1-1-.6-1.4s-.9-.3-1,0c-.1.3,0,.8-.2,1.2s-.1.6-.1,1.1,0,.4,0,.6-.1.2,0,.4c.1.3,0,.6,0,.8,0,.4,0,.4.3.4Z"/>
    <path class="st13" d="M335.9,251.1c0,0,0-.1,0-.2-.1,0-.3.2-.4.3.2,0,.3,0,.4,0Z"/>
    <path class="st13" d="M326.4,254.2c-.7.2-.6.5-1.1.7-.5.1-.9.5-.7,1,.2.4.3.7.8,1.2,0-.1.1-.5.3-.8.2-.3,0-.4.3-.9.4-.5.6-.4.8-1,0-.2.1-.3.1-.4-.2,0-.5.2-.7.2Z"/>
    <path class="st13" d="M323.1,255.8c-.7-.5-1.7-.3-2.3-.3-.2,0-.6,0-.9.2-.1.5,0,.8.1,1.2.2.5,0,.9.5,1.1.4.2.5.2.9.6.4.4.3.5.4.8.1.3.4.6.9.8.5.2,1-.1,1.5-.6.5-.5.7-.9,1.1-2-.1-.1-.2-.2-.4-.5-.5-.7-1.1-.7-1.8-1.1Z"/>
    <path class="st13" d="M314.7,231.2c.2,0,.4-.2.7-.3-.3.1-.6,0-1.1.3,0,0,0,0,0,0,.1,0,.2,0,.4,0Z"/>
    <path class="st13" d="M348.9,241.3c-1.1-.9-1.6-.9-2-1.7s-.5-.6-1-1.3c-.5-.7-1.1-.7-1.8-1.1-.7-.5-1.7-.3-2.3-.3-.6,0-1.6.4-1.9.6-.2,0-.6.2-1,.2-.8.8-1.7,1.6-1.7,1.6h0c0,0-.2.2-.2.2,0,.7-.2.7-.2,1.3,0,.7-.2.6,0,1.4.1.7,0,1.2-.2,1.6.2.2.2.2.5.4.3.3.4.5,1.1,1,.7.5.9.7,1.4.9s.5.6,1.1,1,1.2.3,1.9.2c.7,0,.9-.3,1.4-.6.5-.3.4,0,1.3-.8s1.1-.9,2.3-1.8c1-.8,1.4-.6,2-1,0-.3,0-.6.1-.9-.2-.3-.5-.5-.8-.8Z"/>
    <path class="st13" d="M346.3,236.1c-.5.1-.9.5-.7,1s.4.9,1.6,1.8c1.2.9.7.9,1.2,1.1.6.3.5.5,1.3.8,0,0,0,0,0,0,0-.3,0-.7,0-1,0-1.8-.2-3.5-.6-5.1-.7.3-1.3.5-1.9.7-.7.2-.6.5-1.1.7Z"/>
    <path class="st13" d="M342,248.5c-.6.2-.8,0-1,0,0,.4.3.6.5.6.2,0,.8,0,1,0,.2,0,.3.3.5.3.2,0,0-.4.2-.7,0-.2.1-.3.2-.5-.4,0-.6,0-1.3.1Z"/>
    <path class="st13" d="M342.9,224.1c0,.8-.4,1.2-.6,1.6h0c-.2.4,0,1.8.5,2.8.5,1,.8,1.3,1.3,1.7.8.6,1.7.6,2.2.7.5.1,1.1-.2,1.7,0,0,0,0,0,0,0-1.1-2.7-2.7-5.1-4.7-7.2-.1,0-.3.2-.5.3,0,0,0,0,0,0Z"/>
    <path class="st13" d="M305.7,236.6c.6,0,1.6-.4,1.9-.6.2,0,.6-.2,1-.2.8-.8,1.7-1.6,1.7-1.6,0,0,.2-.2.2-.2,0-.7.2-.7.2-1.3,0-.7.2-.6,0-1.4-.1-.7,0-1.2.2-1.6-.2-.2-.2-.2-.5-.4-.3-.3-.4-.5-1.1-1-.7-.5-.9-.7-1.4-.9-.4-.2-.5-.5-.9-.8-1.9,2.8-3.3,6-3.8,9.5,0,0,.2,0,.3.2.7.5,1.7.3,2.3.3Z"/>
    <path class="st13" d="M343.2,247.6s0,0,0,0c0-.1,0-.1,0-.2-.2-.2-.3-.2-.8,0s-.5,0-1,.3c-.3.2-.4.3-.5.4.3,0,.5,0,.7,0,.5,0,1.1-.4,1.7-.4Z"/>
    <path class="st13" d="M346.5,231.5c-1,0-.7-.3-1.6,0s-1.2,1-2,1.4-.2.1-.3.2c.4.5.5,1,1.2,1.3.9.4.8.9,1.7,1,.8.2,2.3-.4,3.6-.9-.2-1-.5-2-.9-2.9-.9,0-.9-.2-1.8-.2Z"/>
    <path class="st13" d="M348.3,245.1c-.4.5-.3,1,0,1,.2,0,.4,0,.7,0,.2-.6.3-1.1.4-1.7-.4,0-.8.2-1.1.6h0Z"/>
    <path class="st13" d="M345.6,246.4c.6-.5.4-.2.9-.4h0c.5-.2,1-.4,1.3-.8,0,0,.2-.2.3-.3-.3.2-.6.4-1,.5-1.1.3-1.2.7-1.8.9-.4.1-.8.5-1.1.8,0,0,0,0,.1,0,.5-.2.6-.2,1.2-.7Z"/>
    <path class="st13" d="M348.9,244.4c0,0,.1,0,.2-.1.2,0,.3-.2.4-.3,0,0,0,0,0,0,0,0-.2.1-.3.2,0,0-.2.2-.3.3Z"/>
    <path class="st13" d="M345.7,248.2c-.5,0-.6-.2-1.7,0-.2,0-.3,0-.5,0,0,.1,0,.3.2.6.5.6,1.3,1.5,1.7,1.9s.4.1.8.4c.1.1.4.2.6.3.4-.7.8-1.4,1.1-2.2-.1,0-.3-.2-.5-.3-.8-.3-1.2-.8-1.7-.8Z"/>
    <path class="st13" d="M345.3,251.2c-.3-.3-.7-.1-1.1-.4-.4-.3-.3-.1-1.3-.5-1-.4-1.2-.2-1.8,0s-.9,0-1,.5-.2.5-.5.9c-.3.4-.5.3-.8.5s-.6.4-.7.9.2,1,.7,1.5c.5.5,1,.7,2.4,1.1,0,0,.5,0,.9.3s.3,0,.9.3c0,0,.1,0,.1.1,1.3-1.3,2.5-2.9,3.5-4.5,0,0,0,0-.2-.2-.3-.3-.8-.2-1-.5Z"/>
    <path class="st13" d="M303.7,238.6c.3.4.6.8.9,1.1.2.2.3.2.5.2.2-.3.3-.6.5-.9,0,0,0-.1,0-.2-.1-.3-.5-.5-.9-1-.3-.5-.6-.4-1.1-.6-.3,0-.5-.3-.7-.4,0,.4,0,.7-.1,1.1.3.1.6.3.8.6Z"/>
    <path class="st13" d="M343.2,223.6c0,0-.1-.2-.2-.2,0,.1,0,.2,0,.5.1,0,.2-.2.3-.2Z"/>
    <path class="st13" d="M347.7,246.6c0-.3-.4-.6-.5-.6s-.5.2-.7.4c-.2.2-.5.6-.3.9.2.3.6.5.8.8.2.3.4.5.6.5s.1-.4.2-.8h0c0-.4,0-.8,0-1.1Z"/>
    <path class="st13" d="M328.5,216.8c0,0,0,.3,0,.5,0,0,0,0,0,0,.3-.1,1-.2,1.4-.3,0,0,0,0,.1,0,0,0,0,0,0-.2,0,0,0-.2-.1-.2-.4,0-.8-.1-1.1-.1-.1,0-.2.2-.2.3Z"/>
    <path class="st13" d="M326.9,219.3c0-.2,0-.3.4-1,0-.2.1-.3.2-.4,0,0-.2,0-.4.1-.4,0-.6,0-.7.4s-.2.7,0,.8c.1,0,.3,0,.5,0Z"/>
    <path class="st13" d="M341.3,225.6c0,.1.1.2.2.2.2,0,.4-.4.6-1,0,0-.2.1-.2.2-.2.2-.4.4-.6.5Z"/>
    <path class="st13" d="M323.5,219.1c.3.2.8.4,1.1.8s.6.8.9,1.1c.2.2.3.2.4.2,0-.2.1-.4.3-.5.2-.2.2-.4.2-.6-.1-.2-.5-.5-.8-1-.3-.5-.6-.4-1.1-.6-.5-.2-.7-.5-1.1-.5s-.4.2-.5.4.2.6.5.7Z"/>
    <path class="st13" d="M316.3,220.6c.5,0,1.8-.3,2.5-.6.5-.5.7-1.1,1.4-1.7.2-.1.3-.3.4-.4,0,0-.2-.3-.4-.7-2,.6-4,1.4-5.8,2.4,0,0,.1,0,.2.1.6.3,1.3.8,1.7.8Z"/>
    <path class="st13" d="M310.8,223.1c0,0,.2-.2.3-.3,0,0,0,0,0,0,0-.2-.1-.4-.2-.6-.6.6-1.3,1.2-1.8,1.8.1,0,.3,0,.4,0,.8,0,.8-.5,1.4-.9Z"/>
    <path class="st13" d="M314.6,221c.2,0,.4-.2.4-.4s-.3-.3-.5-.4c-.2,0-.3,0-.4,0,0,0-.2.2-.2.4,0,.3,0,.4,0,.5.1.1.4-.1.6-.2Z"/>
    <path class="st13" d="M312.5,221.9c.9-.4.8-.6,1-1.4,0-.2,0-.3,0-.5-.7.5-1.4,1-2.1,1.5.2,0,.4.1.6.2.1,0,.3,0,.4,0Z"/>
    <path class="st13" d="M328.5,218.4c0-.2,0-.3,0-.4,0,0,0-.1-.1-.1-.1.1-.3.3-.2.4,0,.1.2.1.4.2Z"/>
    <path class="st13" d="M331.2,217c-.2.3-.4.4-.7.5,0,.2,0,.4,0,.7,0,.7.3.9.6,1.4s0,.4.7,1.3c.6.9.8,1.2,1.7,2.3.6.8.6,1.2.7,1.7,2-.5,3.9-1.2,4.4-1.3.7-.2,1.9-.6,3.2-1.1,0,0,.2,0,.3-.1-3-2.7-6.6-4.6-10.6-5.4,0,0-.1,0-.2,0,0,0,0,0,0,0Z"/>
    <path class="st13" d="M320.5,217.9c0-.1.2-.3.2-.4l-.2.4Z"/>
    <path class="st13" d="M340.9,223.4c-.3.4-.5.5-.2.9.3.4.4.4.4.7.3,0,.6-.2,1-.5,0,0,0,0,0,0,0,0,.1,0,.2-.1,0,0,0,0,0,0,.2-.5.4-.8.3-1.3-.1-.1-.3-.3-.4-.4,0,0-.1,0-.2.1-.5.3-.8.2-1.1.6Z"/>
    <path class="st13" d="M309.3,228c.4.5.6.5,1.3.9,0,0,.1,0,.2,0-.2-.6-.5-1.4-1-2-.7-.9-1.1-1.1-1.6-1.4-.1,0-.2-.1-.4-.1-.2.2-.3.4-.5.6,0,0,0,.2.1.3.5.8,1.4,1.1,1.9,1.7Z"/>
    <path class="st13" d="M321.7,217.1c-.2.3,0,.4-.3.9-.4.5-.6.4-.8,1,0,.2-.1.3-.1.4.2,0,.5-.2.7-.2.7-.2.6-.5,1.1-.7h0c.5-.1.9-.5.7-1-.1-.3-.2-.5-.4-.8-.2,0-.4,0-.6.1,0,0,0,.2-.1.3h0Z"/>
    <path class="st13" d="M324.3,217.6c.7.5,1.7.3,2.3.3.2,0,.6,0,.9-.2.1-.5,0-.8-.1-1.2,0,0,0,0,0-.1-.3,0-.7,0-1,0-1.2,0-2.4,0-3.6.3.4.5,1,.5,1.6.9Z"/>
    <path class="st13" d="M341.3,256.4c-.7-.3-1.4-.2-2.3.3s-2,.9-3,1.2c-.2,0-.4,0-.6.1,0,.2.1.3.2.5.4,1.1,1.3,1.2,2.2,1.9,1.8-1,3.4-2.2,4.9-3.6-.4-.2-.7-.2-1.2-.5,0,0,0,0,0,0Z"/>
    <path class="st13" d="M330.7,216.8s0,0-.1,0c0,0,0,.1,0,.2,0,0,.1,0,.2-.1Z"/>
    <path class="st13" d="M330.5,225.5c.8,0,1.8-.2,2.8-.4,0-.1-.1-.2-.2-.3-.3-.4-1-1-1.2-2.1-.3-1.1-.6-1.3-.8-1.8-.1-.6-.7-1.2-1.2-1.4s-.6-.8-1.2-.4c-.5.4-1.1.8-1.5,1.2-.1.3-.2.7-.2,1,0,.5-.5.8-.4,1.7,0,.9-.9,1.1-.5,1.9.2.4.5.9.8,1.4,0,0,0,0,0,0l-.6-1.1s3.5.2,4.2.2Z"/>
    <path class="st13" d="M330.3,227.6c.7-.1,1.2-.3,1.7-.7s.8-.4,1.1-.4.3,0,.4-.1c.2-.3.1-.7,0-1-1.2.3-2.6.8-3.7.7-.8,0-2,.8-2.3,1,.2.2.3.5.4.9,0,.2.1.3.1.5.3-.1.5-.3.7-.4.4-.2.8-.3,1.5-.4Z"/>
    <path class="st13" d="M334.6,225.6c0,0,.1.1.2.3,0,0,0,0,0,.1.4.4,1.5,0,2.4-.2.5-.3,1.1-.5,1.9-.6.8,0,1.3-.1,1.6-.2-.1-.7-.3-.5-.7-.7-.4-.2-4.2.8-4.7.7-.3,0-.7,0-1.2.2,0,0,.1.2.2.3,0,0,0,.1.1.2Z"/>
    <path class="st13" d="M335.9,243.9s0,0,.1-.2c-.1,0-.3-.2-.6-.3.1.3.3.5.4.4Z"/>
    <path class="st13" d="M336.6,249.9c0,0,.1-.1.1-.1h0c.2-.2.4-.3.6-.5.7-.3.6-.7.3-1.7s-.8-1-1.2-1.9c-.4-1-1-1.1-1.3-2.1,0-.1,0-.2-.1-.3-.2,0-.4-.2-.7-.3,0,.9.5,2.1.8,3,.5,1.3,1,1.8.9,2.7,0,.7.1,1,.3,1.5,0,0,0,0,0,0,.1-.1.2-.2.3-.3Z"/>
    <path class="st13" d="M340.2,229.9c0,.1.2.3.3.4.8,1,1,1.7,1.6,2.2,0,0,0-.2.1-.3.4-.6.3-1.4.2-2.5,0-1.1-.6-1.1-.8-2.2-.2-.8-.5-1.2-.7-1.8-.6.7-.9,1.3-1.1,2-.3,1,0,1.4.3,2.1Z"/>
    <path class="st13" d="M337.5,238.1c.2-.1.5-.3.8-.5-.3,0-.6.1-.8.5Z"/>
    <path class="st13" d="M339.3,247.8c.4.2.7.2,1.1.3,0-.3-.2-.7-.4-1-.5-.8-1.4-1.1-1.9-1.7-.4-.5-.6-.5-1.3-.9,0,0-.1,0-.2,0,.2.6.5,1.4,1,2,.7.9,1.1,1.1,1.6,1.4Z"/>
    <path class="st13" d="M338.5,236.9c.6-.1.3-.5,1-.9s1.1-.8,1.4-1.2.4-1,.4-1.5c0-.5-.3-.6-.7-1.4s-.7-.9-1.1-1.7c0,0,0-.2-.1-.3-.6-1.2-3.8.3-4.7-1.6,0,0,0,0,0,0-.6-.5-1.9-1-2.6-.7s-1.1,0-1.7.4c-.6.3-1.5.5-2.1.7,0,0-.2,0-.3.1,0,.2,0,.3.2.6.3.7.5,1.1,1.3,2.3s1.4,1.1,2.5,1.7c1.1.6,1,1.1,1.1,1.7.1.6.4.4.8,1.1s.7,1.2,1.1,1.5c.4.3,1,.5,1.5.5,0,0,.1,0,.2,0,0,0,0,0,0,0,.5-1.1,1-1.1,1.6-1.2Z"/>
    <path class="st13" d="M341.9,234.5c.1.3.5.5.9,1,.3.5.6.4,1.1.6.5.2.7.5,1.1.5s.4-.2.5-.4-.2-.6-.5-.7c-.3-.2-.8-.4-1.1-.8s-.6-.8-.9-1.1c-.2-.2-.3-.2-.5-.2-.2.3-.3.6-.5.9,0,0,0,.1,0,.2h0Z"/>
    <path class="st13" d="M337.2,226.8c-.4,0-.8.2-.9.6-.2.6.3,1.5,1.3,1.7s1.2-.1,1.7-.6h0c.4-.5.6-1.5.6-1.7,0-.2-1.6.1-2.6,0Z"/>
    <path class="st13" d="M336.2,239.8c-.2.2-.5.3-.7.7,0,0,0,0,0,0,.3-.3.6-.5.7-.8Z"/>
    <path class="st13" d="M340.6,236.9c.3,0,.3-.1.7-.2.4,0,.6,0,.7-.4s.2-.7,0-.8c-.1-.1-.4,0-.7,0-.3.5-.5.8-.7.9-.1,0-.3.2-.6.4.2.2.4.3.6.2Z"/>
    <path class="st13" d="M336.2,242.8c0-.7.3-1.2.1-1.8s-.3-.6-.7-.1c-.2.3-.4.4-.6.5,0,.1.1.3.2.4.3.4.6.8.9,1.2,0,0,0,0,0-.2h0Z"/>
    <path class="st13" d="M340.1,235.9c-.1.1-.2.3-.2.4,0,0,0,0,0,0,.3-.2.6-.5.8-.8-.3,0-.5.2-.7.4h0Z"/>
    <path class="st13" d="M334,258.1c.2,0,.5,0,.7,0-.2-.8-.6-1.8-.8-2.6h0c-.3-1.1-.3-1.6-.9-1.8-.6-.3-1.3-.8-1.7-.8s-1.8.3-2.5.6c-.5.5-.7,1.1-1.4,1.7-.2.1-.3.3-.4.4,0,0,1,1.8,2.2,2.9,1.1,1,2.1-.2,4.9-.3Z"/>
    <path class="st13" d="M333.9,252.8c-.2.8,0,1.2.4,2.3.3.9.6,1.8.9,2.8,2.2-.5,3.9-1.7,3-2.6h0s-.4-.5-.7-1c-.1-.2-.3-.4-.5-.7,0,0,0,0,0,0,0,0,0,0,0,0-.1-.2-.3-.5-.4-.8-.4-1-.5-.9-1.3-1.2-.1,0-.3,0-.4,0-.9.4-.8.6-1,1.4Z"/>
    <path class="st13" d="M332.9,253.2c.2,0,.3,0,.4,0,0,0,.2-.2.2-.4,0-.3,0-.4,0-.5-.1-.1-.4.1-.6.2-.2,0-.4.2-.4.4s.3.3.5.4Z"/>
    <path class="st13" d="M330.8,259.3c-.2.3.3,1.1.3,1.1s-.6.2-.7.1c0,0-.5-1.2-.8-1.4s-.6-.7-1.6-1.5c-.8-.5-1.4-.9-1.7-1,0,.2-.2.4-.4.7,0,0,0,0,0,0,0,0,.2.1.3.2,1.2.9.7.9,1.2,1.1.6.3.5.5,1.3.8.8.3.7.7,1.2,1.2s1.4.8,1.8.6c.3-.1.6-.3,1-.5s.8-.4,1-.5c.2,0,.5-.2.5-.2.7-.6.7-.9.7-1.3,0-.1,0-.4-.2-.7-.9.1-2,.3-2.3.3-.5,0-1.4.6-1.6.8Z"/>
    <path class="st13" d="M338.5,251.7c.3-.7.5-.9,1-1.3s.3-.6.7-1c.1-.2.2-.4.2-.7,0,0,0,0,0,0-.9.5-1.5.6-2.3.7-.8,0-.8.5-1.4.9,0,0-.2.2-.3.2,0,0,0,0,0,0,0,.5.4.9.6,1.3.4.6,1.2.4,1.5-.2Z"/>
    <path class="st13" d="M343.2,247.6c-.6,0-1.2.4-1.7.4-.2,0-.4,0-.7,0,0,0,0,.2,0,.4,0,0,0,0,0,.1.3,0,.4.1,1,0,.7-.2.9-.1,1.3-.1,0-.1,0-.2,0-.4,0-.2,0-.2,0-.3,0,0,0,0,0,0Z"/>
    <path class="st9" d="M343.2,247.6c-.6,0-1.2.4-1.7.4-.2,0-.4,0-.7,0,0,0,0,.2,0,.4,0,0,0,0,0,.1.3,0,.4.1,1,0,.7-.2.9-.1,1.3-.1,0-.1,0-.2,0-.4,0-.2,0-.2,0-.3,0,0,0,0,0,0Z"/>
    <path class="st13" d="M325.9,229c-.7,0-1.1-.3-1.2-.8-.1-.6,0-.4,0-1.2,0-.8-.2-1,.2-1.9s.6-1.3.8-2c0-.5.2-.9.3-1.2,0,0-.2-.2-.2-.2,0,0,0,0,0,0-.3.3-.3.2-.5.8-.3.5-.2.7-.9,1.1-.7.4-1.2,1.3-1.9,1.5-.7.2-1,0-1.2-.3-.2-.2-.2-.3-.4-.8s-.5-.6-.6-1.3-.3-.6-.2-.9-.2-.7,0-1.3c.2-.3.2-.5.3-.7-.4.2-.9.3-1.3.5-.2,0-.4.2-.5.2,0,0,0,0,0,0,0,.1-.1.4-.2.7,0,0,0,0,0,0,.4,0,.7,0,1.3.8,0,0,.1.3.2.6s.3.7.5,1,.4.6.5,1-.2,1.2-.7,1.7h0c-.5.5-.9.4-1.3,1.1,0,0,0,0,0,0,0,.5,0,.9,0,1.4.1-.2.3-.4.5-.6.9-1.1,2-1.6,2.3-1.2.2.5.5.7.7,1.2s.6.9.9,1.3.5.9.7,1.3,0,.3.3.9c.3.5.4.6.5,1,0,0,0,0,0,0,.6-.2.9-.5,1.2-.7,0,0,0-.1,0-.2,0-.5.6-.9.9-1.7.2-.4.4-.6.6-.8,0,0,0,0,0,0,0-.2,0-.3-.1-.5,0,0,0,0,0,0-.5.2-.6.3-1.4.3ZM322.8,228.9c-.5-.4-.5-.9-.6-1.4-.1-.5-.3-.6-.2-1s0-.3,0-.6.2-.1.5-.5c.3-.3.4-.4.7-.6.3-.2.6-.4.9-.5.2,0,.3,0,.3.4,0,.2-.2.5,0,.8s-.2.2,0,.4,0,.2,0,.6,0,.7-.1,1.1-.1.9-.2,1.2-.6.3-1,0ZM325.7,230.4c-.3.2-.6.6-.8.8-.3.2-.7-.2-.9-.4s-.4-.6-.4-.7.3-.4.6-.5.7-.1,1.1,0h0c.4,0,.8,0,.8.2,0,.3-.3.4-.5.6Z"/>
    <path class="st9" d="M325.9,229c-.7,0-1.1-.3-1.2-.8-.1-.6,0-.4,0-1.2,0-.8-.2-1,.2-1.9s.6-1.3.8-2c0-.5.2-.9.3-1.2,0,0-.2-.2-.2-.2,0,0,0,0,0,0-.3.3-.3.2-.5.8-.3.5-.2.7-.9,1.1-.7.4-1.2,1.3-1.9,1.5-.7.2-1,0-1.2-.3-.2-.2-.2-.3-.4-.8s-.5-.6-.6-1.3-.3-.6-.2-.9-.2-.7,0-1.3c.2-.3.2-.5.3-.7-.4.2-.9.3-1.3.5-.2,0-.4.2-.5.2,0,0,0,0,0,0,0,.1-.1.4-.2.7,0,0,0,0,0,0,.4,0,.7,0,1.3.8,0,0,.1.3.2.6s.3.7.5,1,.4.6.5,1-.2,1.2-.7,1.7h0c-.5.5-.9.4-1.3,1.1,0,0,0,0,0,0,0,.5,0,.9,0,1.4.1-.2.3-.4.5-.6.9-1.1,2-1.6,2.3-1.2.2.5.5.7.7,1.2s.6.9.9,1.3.5.9.7,1.3,0,.3.3.9c.3.5.4.6.5,1,0,0,0,0,0,0,.6-.2.9-.5,1.2-.7,0,0,0-.1,0-.2,0-.5.6-.9.9-1.7.2-.4.4-.6.6-.8,0,0,0,0,0,0,0-.2,0-.3-.1-.5,0,0,0,0,0,0-.5.2-.6.3-1.4.3ZM322.8,228.9c-.5-.4-.5-.9-.6-1.4-.1-.5-.3-.6-.2-1s0-.3,0-.6.2-.1.5-.5c.3-.3.4-.4.7-.6.3-.2.6-.4.9-.5.2,0,.3,0,.3.4,0,.2-.2.5,0,.8s-.2.2,0,.4,0,.2,0,.6,0,.7-.1,1.1-.1.9-.2,1.2-.6.3-1,0ZM325.7,230.4c-.3.2-.6.6-.8.8-.3.2-.7-.2-.9-.4s-.4-.6-.4-.7.3-.4.6-.5.7-.1,1.1,0h0c.4,0,.8,0,.8.2,0,.3-.3.4-.5.6Z"/>
    <path class="st13" d="M330.8,243.9c.2,0,.4-.2.8-.2.9-.2.9-.7,1.4-.5.3,0,.5-.1.8-.2,0-.3-.3-.7-.6-.7,0,0,0,0,0,0-.5.2-.7.2-1.1.3-.3.2-.7.5-1.2,1.1-1,1.1-.9.6-1.2,1.2-.3.5-.5.5-.8,1.2,0,.4,0,.8,0,1.1,0,1.3.4,2.2.5,2.7h0c0,.4,0,1.6,0,2.4,0,0,.3,0,.5,0-.1-.3-.1-2.2-.6-3.6-.5-1.4,1-4.2,1.7-4.7Z"/>
    <path class="st9" d="M330.8,243.9c.2,0,.4-.2.8-.2.9-.2.9-.7,1.4-.5.3,0,.5-.1.8-.2,0-.3-.3-.7-.6-.7,0,0,0,0,0,0-.5.2-.7.2-1.1.3-.3.2-.7.5-1.2,1.1-1,1.1-.9.6-1.2,1.2-.3.5-.5.5-.8,1.2,0,.4,0,.8,0,1.1,0,1.3.4,2.2.5,2.7h0c0,.4,0,1.6,0,2.4,0,0,.3,0,.5,0-.1-.3-.1-2.2-.6-3.6-.5-1.4,1-4.2,1.7-4.7Z"/>
    <path class="st13" d="M322.9,240.7c.9-.4.9-.8,1.9-1.1,1.1-.3,1.4-.3,1.7.4.3.6.5.7,1.4,1.7,0,0,.4.4.7,1.6.1.4.2.9.2,1.3.5-.7.7-1,1.4-1.3.4-.2.5-.3.7-.4,0,0,0,0,0,0,0,0,0,0,0,0,0,0-.1,0-.2,0-.5.1-.9,0-1.2-.3-.6-.5-1.7-1.5-1.9-1.9-.3-.6-.9-.6-.8-1.5,0-.8-.1-1.5-.5-2.4-.4-.9,0-.6-.2-1.6-.2-1,0-.9-.1-2,0-.2,0-.3,0-.4-.3,0-.6.2-.9.3.2.2.3.4.3.8,0,.6.4,1.2.3,1.7,0,.5.1,1.4-.4,2.3-.3.5-.6.9-1.5,1.5-.3.2-.7.4-1,.5,0,.1.1.2.2.4,0,.1,0,.2,0,.3Z"/>
    <path class="st9" d="M322.9,240.7c.9-.4.9-.8,1.9-1.1,1.1-.3,1.4-.3,1.7.4.3.6.5.7,1.4,1.7,0,0,.4.4.7,1.6.1.4.2.9.2,1.3.5-.7.7-1,1.4-1.3.4-.2.5-.3.7-.4,0,0,0,0,0,0,0,0,0,0,0,0,0,0-.1,0-.2,0-.5.1-.9,0-1.2-.3-.6-.5-1.7-1.5-1.9-1.9-.3-.6-.9-.6-.8-1.5,0-.8-.1-1.5-.5-2.4-.4-.9,0-.6-.2-1.6-.2-1,0-.9-.1-2,0-.2,0-.3,0-.4-.3,0-.6.2-.9.3.2.2.3.4.3.8,0,.6.4,1.2.3,1.7,0,.5.1,1.4-.4,2.3-.3.5-.6.9-1.5,1.5-.3.2-.7.4-1,.5,0,.1.1.2.2.4,0,.1,0,.2,0,.3Z"/>
    <path class="st13" d="M348.9,244.4c-.2.2-.5.4-.8.6-.1,0-.2.2-.3.3-.3.3-.8.6-1.3.8h0c-.5.2-.3,0-.9.4-.6.5-.7.4-1.2.7,0,0,0,0-.1,0-.1.2-.2.3-.3.5h0c-.1.3-.4.5-.5.6.1,0,.3,0,.5,0,1.1-.2,1.2,0,1.7,0s.9.5,1.7.8c.2,0,.3.2.5.3.2-.5.4-1,.6-1.5,0-.2,0-.4.2-.5.1-.3.2-.7.3-1-.3,0-.5,0-.7,0-.3,0-.4-.6,0-1h0c.3-.4.7-.5,1.1-.6,0-.2,0-.3,0-.5-.1,0-.2.2-.4.3,0,0-.1,0-.2.1ZM347.8,247.7c0,.4,0,.8-.2.8s-.4-.2-.6-.5c-.2-.3-.6-.5-.8-.8-.2-.3.1-.7.3-.9.2-.2.6-.4.7-.4s.4.3.5.6.2.7,0,1.1h0Z"/>
    <path class="st9" d="M348.9,244.4c-.2.2-.5.4-.8.6-.1,0-.2.2-.3.3-.3.3-.8.6-1.3.8h0c-.5.2-.3,0-.9.4-.6.5-.7.4-1.2.7,0,0,0,0-.1,0-.1.2-.2.3-.3.5h0c-.1.3-.4.5-.5.6.1,0,.3,0,.5,0,1.1-.2,1.2,0,1.7,0s.9.5,1.7.8c.2,0,.3.2.5.3.2-.5.4-1,.6-1.5,0-.2,0-.4.2-.5.1-.3.2-.7.3-1-.3,0-.5,0-.7,0-.3,0-.4-.6,0-1h0c.3-.4.7-.5,1.1-.6,0-.2,0-.3,0-.5-.1,0-.2.2-.4.3,0,0-.1,0-.2.1ZM347.8,247.7c0,.4,0,.8-.2.8s-.4-.2-.6-.5c-.2-.3-.6-.5-.8-.8-.2-.3.1-.7.3-.9.2-.2.6-.4.7-.4s.4.3.5.6.2.7,0,1.1h0Z"/>
    <path class="st13" d="M335.7,240.9c.4-.4.4-.5.7.1s0,1.1-.1,1.8h0c0,0,0,.1,0,.2,0,.1.2.2.3.4.1.1.2.2.2.3.1-.4.3-.8.2-1.6-.2-.8,0-.7,0-1.4,0-.6.1-.6.2-1.3-.3.2-.5.3-.8.5-.2.3-.4.5-.7.8-.2.3-.3.4-.4.6,0,0,0,0,0,.1.2-.1.4-.2.6-.5Z"/>
    <path class="st9" d="M335.7,240.9c.4-.4.4-.5.7.1s0,1.1-.1,1.8h0c0,0,0,.1,0,.2,0,.1.2.2.3.4.1.1.2.2.2.3.1-.4.3-.8.2-1.6-.2-.8,0-.7,0-1.4,0-.6.1-.6.2-1.3-.3.2-.5.3-.8.5-.2.3-.4.5-.7.8-.2.3-.3.4-.4.6,0,0,0,0,0,.1.2-.1.4-.2.6-.5Z"/>
    <path class="st13" d="M336.5,239.1c0,.1,0,.2-.1.3,0-.1.1-.2.1-.3Z"/>
    <path class="st9" d="M336.5,239.1c0,.1,0,.2-.1.3,0-.1.1-.2.1-.3Z"/>
    <path class="st13" d="M333.6,242c.2.1.6-.1.7-.5,0,0,0,0,0,0-.3.2-.6.4-.9.5,0,0,0,0,0,0Z"/>
    <path class="st9" d="M333.6,242c.2.1.6-.1.7-.5,0,0,0,0,0,0-.3.2-.6.4-.9.5,0,0,0,0,0,0Z"/>
    <path class="st13" d="M345.6,235.5c-.9-.2-.8-.6-1.7-1-.7-.4-.8-.9-1.2-1.3,0,.1-.2.2-.3.4.2,0,.3,0,.5.2.3.3.6.7.9,1.1s.8.6,1.1.8c.3.2.6.5.5.7s-.2.4-.5.4-.6-.4-1.1-.5c-.5-.2-.7,0-1.1-.6-.3-.5-.7-.8-.9-1h0c0,0,0-.1,0-.2-.2.4-.4.7-.6,1,.3,0,.6-.1.7,0,.2.1.2.4,0,.8s-.3.3-.7.4c-.4,0-.5.2-.7.2-.2,0-.5,0-.6-.2-.3.2-.7.5-1,.9.4,0,.7-.1,1-.2.3-.1,1.3-.5,1.9-.6.6,0,1.6-.2,2.3.3.7.5,1.4.4,1.8,1.1.5.7.6.5,1,1.3s.8.9,2,1.7c.3.2.6.5.8.8,0-.4,0-.7,0-1.1,0,0,0,0,0,0-.8-.3-.7-.5-1.3-.8-.6-.3,0-.2-1.2-1.1-1.2-.9-1.3-1.3-1.6-1.8s.2-.9.7-1c.5-.1.4-.4,1.1-.7.6-.2,1.2-.4,1.9-.7,0,0,0-.1,0-.2-1.3.5-2.8,1.1-3.6.9Z"/>
    <path class="st9" d="M345.6,235.5c-.9-.2-.8-.6-1.7-1-.7-.4-.8-.9-1.2-1.3,0,.1-.2.2-.3.4.2,0,.3,0,.5.2.3.3.6.7.9,1.1s.8.6,1.1.8c.3.2.6.5.5.7s-.2.4-.5.4-.6-.4-1.1-.5c-.5-.2-.7,0-1.1-.6-.3-.5-.7-.8-.9-1h0c0,0,0-.1,0-.2-.2.4-.4.7-.6,1,.3,0,.6-.1.7,0,.2.1.2.4,0,.8s-.3.3-.7.4c-.4,0-.5.2-.7.2-.2,0-.5,0-.6-.2-.3.2-.7.5-1,.9.4,0,.7-.1,1-.2.3-.1,1.3-.5,1.9-.6.6,0,1.6-.2,2.3.3.7.5,1.4.4,1.8,1.1.5.7.6.5,1,1.3s.8.9,2,1.7c.3.2.6.5.8.8,0-.4,0-.7,0-1.1,0,0,0,0,0,0-.8-.3-.7-.5-1.3-.8-.6-.3,0-.2-1.2-1.1-1.2-.9-1.3-1.3-1.6-1.8s.2-.9.7-1c.5-.1.4-.4,1.1-.7.6-.2,1.2-.4,1.9-.7,0,0,0-.1,0-.2-1.3.5-2.8,1.1-3.6.9Z"/>
    <path class="st13" d="M329.9,219.5c.5.2,1.1.9,1.2,1.4.1.6.5.8.8,1.8.3,1.1,1,1.7,1.2,2.1,0,0,.1.2.2.3.3,0,.5-.1.8-.2-.1-.4,0-.8-.7-1.7-.9-1.2-1-1.4-1.7-2.3-.6-.9-.4-.8-.7-1.3s-.5-.7-.6-1.4c0-.2,0-.4,0-.7-.1,0-.2,0-.3,0,0,0,0,.2,0,.3.1.5.2.6,0,.8-.2.1-.1,0-.5,0-.4,0-.5-.1-.8-.2,0,0,0,0,0,0-.7.4-1.1.8-1.4,1.2-.1.2-.2.4-.3.6.5-.4,1-.9,1.5-1.2.6-.5.7.1,1.2.4Z"/>
    <path class="st9" d="M329.9,219.5c.5.2,1.1.9,1.2,1.4.1.6.5.8.8,1.8.3,1.1,1,1.7,1.2,2.1,0,0,.1.2.2.3.3,0,.5-.1.8-.2-.1-.4,0-.8-.7-1.7-.9-1.2-1-1.4-1.7-2.3-.6-.9-.4-.8-.7-1.3s-.5-.7-.6-1.4c0-.2,0-.4,0-.7-.1,0-.2,0-.3,0,0,0,0,.2,0,.3.1.5.2.6,0,.8-.2.1-.1,0-.5,0-.4,0-.5-.1-.8-.2,0,0,0,0,0,0-.7.4-1.1.8-1.4,1.2-.1.2-.2.4-.3.6.5-.4,1-.9,1.5-1.2.6-.5.7.1,1.2.4Z"/>
    <path class="st13" d="M337.5,238.1c.1-.4.4-.5.8-.5.4-.4.9-.8,1.6-1.3,0-.1,0-.3.2-.4h0c.2-.2.4-.4.7-.4.7-.9.9-2.1,1.3-2.9-.6-.5-.8-1.2-1.6-2.2-.1-.2-.2-.3-.3-.4-.3-.7-.6-1.1-.3-2.1.2-.7.5-1.3,1.1-2,0-.2-.1-.3-.1-.5,0-.1,0-.2,0-.3-.4,0-.9.1-1.6.2-.8,0-1.4.3-1.9.6-.9.3-2.1.6-2.4.2,0,0,0,0,0-.1,0-.1-.1-.2-.2-.3,0,0,0-.1-.1-.2,0-.1-.1-.2-.2-.3-.3,0-.5.1-.8.2.1.3.2.7,0,1,0,.1-.1,0-.4.1s-.5,0-1.1.4-1,.6-1.7.7-1.1.1-1.5.4c-.2.1-.5.3-.7.4,0,.2,0,.3.1.5,0,0,.2,0,.3-.1.6-.2,1.5-.4,2.1-.7.6-.3,1-.1,1.7-.4s2,.3,2.6.7c0,0,0,0,0,0,.9,2,4.1.5,4.7,1.6,0,0,0,.2.1.3.4.8.7.8,1.1,1.7s.7.9.7,1.4c0,.5-.2,1.1-.4,1.5s-.7.8-1.4,1.2-.4.7-1,.9c-.6.1-1.1,0-1.6,1.2,0,0,0,0,0,0,0,0,.1,0,.2,0,0,0,0,0,0,0,.1,0,.3,0,.4-.1ZM339.2,228.5h0c-.4.5-.7.8-1.7.6s-1.5-1.1-1.3-1.7c.1-.4.5-.5.9-.6,1,0,2.6-.3,2.6,0,0,.2-.2,1.2-.6,1.7Z"/>
    <path class="st9" d="M337.5,238.1c.1-.4.4-.5.8-.5.4-.4.9-.8,1.6-1.3,0-.1,0-.3.2-.4h0c.2-.2.4-.4.7-.4.7-.9.9-2.1,1.3-2.9-.6-.5-.8-1.2-1.6-2.2-.1-.2-.2-.3-.3-.4-.3-.7-.6-1.1-.3-2.1.2-.7.5-1.3,1.1-2,0-.2-.1-.3-.1-.5,0-.1,0-.2,0-.3-.4,0-.9.1-1.6.2-.8,0-1.4.3-1.9.6-.9.3-2.1.6-2.4.2,0,0,0,0,0-.1,0-.1-.1-.2-.2-.3,0,0,0-.1-.1-.2,0-.1-.1-.2-.2-.3-.3,0-.5.1-.8.2.1.3.2.7,0,1,0,.1-.1,0-.4.1s-.5,0-1.1.4-1,.6-1.7.7-1.1.1-1.5.4c-.2.1-.5.3-.7.4,0,.2,0,.3.1.5,0,0,.2,0,.3-.1.6-.2,1.5-.4,2.1-.7.6-.3,1-.1,1.7-.4s2,.3,2.6.7c0,0,0,0,0,0,.9,2,4.1.5,4.7,1.6,0,0,0,.2.1.3.4.8.7.8,1.1,1.7s.7.9.7,1.4c0,.5-.2,1.1-.4,1.5s-.7.8-1.4,1.2-.4.7-1,.9c-.6.1-1.1,0-1.6,1.2,0,0,0,0,0,0,0,0,.1,0,.2,0,0,0,0,0,0,0,.1,0,.3,0,.4-.1ZM339.2,228.5h0c-.4.5-.7.8-1.7.6s-1.5-1.1-1.3-1.7c.1-.4.5-.5.9-.6,1,0,2.6-.3,2.6,0,0,.2-.2,1.2-.6,1.7Z"/>
    <path class="st13" d="M338,249.4c.8,0,1.5-.2,2.3-.7,0,0,0,0,0,0,0-.2,0-.4,0-.7-.3,0-.7,0-1.1-.3-.5-.3-1-.5-1.6-1.4-.4-.6-.8-1.4-1-2-.2-.2-.1-.3-.7-.6,0,0,0,.1-.1.2-.1,0-.3-.2-.4-.4-.1,0-.2-.1-.4-.2,0,0,0,.2.1.3.4,1,.9,1.1,1.3,2.1.4,1,.9.9,1.2,1.9s.4,1.4-.3,1.7c-.3.1-.4.3-.6.5h0s0,0-.1.1c0,0-.2.2-.3.3,0,0,0,0,0,0,0,0,0,.2,0,.3.1,0,.2-.2.3-.2.6-.4.6-.9,1.4-.9Z"/>
    <path class="st9" d="M338,249.4c.8,0,1.5-.2,2.3-.7,0,0,0,0,0,0,0-.2,0-.4,0-.7-.3,0-.7,0-1.1-.3-.5-.3-1-.5-1.6-1.4-.4-.6-.8-1.4-1-2-.2-.2-.1-.3-.7-.6,0,0,0,.1-.1.2-.1,0-.3-.2-.4-.4-.1,0-.2-.1-.4-.2,0,0,0,.2.1.3.4,1,.9,1.1,1.3,2.1.4,1,.9.9,1.2,1.9s.4,1.4-.3,1.7c-.3.1-.4.3-.6.5h0s0,0-.1.1c0,0-.2.2-.3.3,0,0,0,0,0,0,0,0,0,.2,0,.3.1,0,.2-.2.3-.2.6-.4.6-.9,1.4-.9Z"/>
    <path class="st13" d="M329.7,262.9c.4,0,.3,0,.6,0,.2,0,.2,0,.3.2.2,0,.5,0,.7-.1,0-.5,0-.8.3-.9.2-.2.3-.3.7-.5.4-.2.6-.6,1.3-.7.7,0,.6-.3.9-.3s.7-.3,1.3,0h0c.5.2.7.3,1.1.4.3-.1.6-.3.9-.4-.9-.7-1.7-.9-2.2-1.9,0-.2-.1-.3-.2-.5-.2,0-.4,0-.6.1,0,.3.2.6.2.7,0,.4,0,.7-.7,1.3,0,0-.3.1-.5.2-.2,0-.6.3-1,.5s-.6.4-1,.5c-.3.1-1.2-.2-1.8-.6s-.4-.9-1.2-1.2c-.8-.3-.7-.5-1.3-.8-.6-.3,0-.2-1.2-1.1-.1,0-.2-.2-.3-.2,0,.1-.2.2-.2.3,0,.1.2.3.3.5.4.9.8.9,2,1.7s1.7,2,1.3,2.2c-.4.3-.7.5-1.2.8-.2,0-.4.2-.5.4.1,0,.3,0,.4,0,.2,0,.5-.1.7-.2.5-.1.6-.3,1-.3Z"/>
    <path class="st9" d="M329.7,262.9c.4,0,.3,0,.6,0,.2,0,.2,0,.3.2.2,0,.5,0,.7-.1,0-.5,0-.8.3-.9.2-.2.3-.3.7-.5.4-.2.6-.6,1.3-.7.7,0,.6-.3.9-.3s.7-.3,1.3,0h0c.5.2.7.3,1.1.4.3-.1.6-.3.9-.4-.9-.7-1.7-.9-2.2-1.9,0-.2-.1-.3-.2-.5-.2,0-.4,0-.6.1,0,.3.2.6.2.7,0,.4,0,.7-.7,1.3,0,0-.3.1-.5.2-.2,0-.6.3-1,.5s-.6.4-1,.5c-.3.1-1.2-.2-1.8-.6s-.4-.9-1.2-1.2c-.8-.3-.7-.5-1.3-.8-.6-.3,0-.2-1.2-1.1-.1,0-.2-.2-.3-.2,0,.1-.2.2-.2.3,0,.1.2.3.3.5.4.9.8.9,2,1.7s1.7,2,1.3,2.2c-.4.3-.7.5-1.2.8-.2,0-.4.2-.5.4.1,0,.3,0,.4,0,.2,0,.5-.1.7-.2.5-.1.6-.3,1-.3Z"/>
    <path class="st13" d="M332.9,253.6c.6.3.6.7.9,1.8h0c.2.8.6,1.8.8,2.6.2,0,.4,0,.6,0-.4-.9-.7-1.8-.9-2.8-.3-1.1-.7-1.5-.4-2.3.2-.8.2-1,1-1.4-.6,0-1,.2-2,.4-1.1.3-2.3.6-3.5,1-.4.1-.6.3-.8.5.8-.3,2.1-.6,2.5-.6s1.2.6,1.7.8ZM332.9,252.4c.2,0,.4-.3.6-.2.1.1.1.2,0,.5,0,.3-.1.4-.2.4-.1,0-.2,0-.4,0-.2,0-.5-.2-.5-.4s.3-.3.4-.4Z"/>
    <path class="st9" d="M332.9,253.6c.6.3.6.7.9,1.8h0c.2.8.6,1.8.8,2.6.2,0,.4,0,.6,0-.4-.9-.7-1.8-.9-2.8-.3-1.1-.7-1.5-.4-2.3.2-.8.2-1,1-1.4-.6,0-1,.2-2,.4-1.1.3-2.3.6-3.5,1-.4.1-.6.3-.8.5.8-.3,2.1-.6,2.5-.6s1.2.6,1.7.8ZM332.9,252.4c.2,0,.4-.3.6-.2.1.1.1.2,0,.5,0,.3-.1.4-.2.4-.1,0-.2,0-.4,0-.2,0-.5-.2-.5-.4s.3-.3.4-.4Z"/>
    <path class="st13" d="M321.2,248.1l-.6-1.1s0,0,0,0c.3.4.6,1,.8,1.4.4.8-.6,1.1-.5,1.9,0,.9-.4,1.2-.4,1.7,0,.3,0,.6-.2,1,.2-.2.3-.3.5-.4.4-.4.2-.4.5-.7,0,0,.2-.2.2-.3,0,0,0,0,0,0-.7-.5,1.3-2.3.4-3.4-.4-.5-.7-1-.8-1.3h0s0,0,0,0c-.1-.3-.2-.5-.2-.5,0-.2,0-.4-.1-.6,0-.5-.2-.7-.4-.9-.2,0-.5.2-.7.3,0,.1,0,.3.1.5.1.3.3.6.4.9-.3.3-1.5,1.1-2.3,1-1.1-.1-2.5.3-3.7.7,0,0,0,.2.1.3,1-.2,2-.4,2.8-.4.7,0,4.2.2,4.2.2Z"/>
    <path class="st9" d="M321.2,248.1l-.6-1.1s0,0,0,0c.3.4.6,1,.8,1.4.4.8-.6,1.1-.5,1.9,0,.9-.4,1.2-.4,1.7,0,.3,0,.6-.2,1,.2-.2.3-.3.5-.4.4-.4.2-.4.5-.7,0,0,.2-.2.2-.3,0,0,0,0,0,0-.7-.5,1.3-2.3.4-3.4-.4-.5-.7-1-.8-1.3h0s0,0,0,0c-.1-.3-.2-.5-.2-.5,0-.2,0-.4-.1-.6,0-.5-.2-.7-.4-.9-.2,0-.5.2-.7.3,0,.1,0,.3.1.5.1.3.3.6.4.9-.3.3-1.5,1.1-2.3,1-1.1-.1-2.5.3-3.7.7,0,0,0,.2.1.3,1-.2,2-.4,2.8-.4.7,0,4.2.2,4.2.2Z"/>
    <path class="st13" d="M318.9,256s0,0,0,0c0-.2,0-.3,0-.4,0,0,0,0,0-.1,0,0,0,0-.1-.1,0,0,0-.3,0-.4-.1,0-.2,0-.3,0,0,0,0,0,0,0-.7.4-.4.7-1,.9-.1,0-.2,0-.3,0,0,.2,0,.3.1.6,0,0,0,0,.1,0,.4,0,1.1-.1,1.4-.3Z"/>
    <path class="st9" d="M318.9,256s0,0,0,0c0-.2,0-.3,0-.4,0,0,0,0,0-.1,0,0,0,0-.1-.1,0,0,0-.3,0-.4-.1,0-.2,0-.3,0,0,0,0,0,0,0-.7.4-.4.7-1,.9-.1,0-.2,0-.3,0,0,.2,0,.3.1.6,0,0,0,0,.1,0,.4,0,1.1-.1,1.4-.3Z"/>
    <path class="st13" d="M315.9,259.4c0-.5,0-.6.1-.9-.3.3-.5.6-.8.9,0,0,0,.2.1.3.1.3,0,.7,0,1,.2,0,.3.2.5.3,0,0,0-.1,0-.2-.2-.8,0-.7,0-1.4Z"/>
    <path class="st9" d="M315.9,259.4c0-.5,0-.6.1-.9-.3.3-.5.6-.8.9,0,0,0,.2.1.3.1.3,0,.7,0,1,.2,0,.3.2.5.3,0,0,0-.1,0-.2-.2-.8,0-.7,0-1.4Z"/>
    <path class="st13" d="M330.1,217.1c.2,0,.3,0,.5-.1,0,0,0-.1,0-.2-.2,0-.5,0-.7-.1,0,0,0,.1.1.2,0,0,0,.1,0,.2Z"/>
    <path class="st9" d="M330.1,217.1c.2,0,.3,0,.5-.1,0,0,0-.1,0-.2-.2,0-.5,0-.7-.1,0,0,0,.1.1.2,0,0,0,.1,0,.2Z"/>
    <path class="st13" d="M306.6,237.9c.2-.3.5-.6.8-.8,0,0,0,0,0,0,0-.1,0-.3,0-.3,0,0,0,0,0,0-.2.2-.4.3-.6.4-.2,0-.5.4-.7.9,0,0,.2,0,.3,0,0,0,.1,0,.2,0Z"/>
    <path class="st9" d="M306.6,237.9c.2-.3.5-.6.8-.8,0,0,0,0,0,0,0-.1,0-.3,0-.3,0,0,0,0,0,0-.2.2-.4.3-.6.4-.2,0-.5.4-.7.9,0,0,.2,0,.3,0,0,0,.1,0,.2,0Z"/>
    <path class="st13" d="M305.9,247.6c0,0,.2,0,.2.2,0,0,.2-.2.3-.3-.2-.6-.5-1-.7-1.8-.2-1-.7-1.1-.8-2.2,0-1.1-.2-1.9.2-2.5,0,0,0-.2.1-.3,0,0-.1-.1-.2-.2-.1-.1-.2-.2-.3-.3,0,0-.2.2-.3.2-.7.4-1,1-1.7,1.3,0,.3,0,.7.1,1,.1,0,.3.2.4.3.5.4.8.7,1.3,1.7s.7,2.4.5,2.8c-.2.4-.5.7-.5,1.4,0,0,0,.1,0,.2.2-.2.5-.4.7-.6.2-.6.4-.9.6-1Z"/>
    <path class="st9" d="M305.9,247.6c0,0,.2,0,.2.2,0,0,.2-.2.3-.3-.2-.6-.5-1-.7-1.8-.2-1-.7-1.1-.8-2.2,0-1.1-.2-1.9.2-2.5,0,0,0-.2.1-.3,0,0-.1-.1-.2-.2-.1-.1-.2-.2-.3-.3,0,0-.2.2-.3.2-.7.4-1,1-1.7,1.3,0,.3,0,.7.1,1,.1,0,.3.2.4.3.5.4.8.7,1.3,1.7s.7,2.4.5,2.8c-.2.4-.5.7-.5,1.4,0,0,0,.1,0,.2.2-.2.5-.4.7-.6.2-.6.4-.9.6-1Z"/>
    <path class="st13" d="M314.6,221.6c-.7.2-1.3.8-2.1.8,0,0,0,0,0,0,0,.1,0,.2,0,.4h0c-.1.2-.2.5-.4.5-.2,0-.3-.3-.4-.5,0,0,0,0,0-.1-.2.1-.4.3-.5.4.2.5.3.8.3,1.5,0,.9.4,1.4.9,2.7.3,1,.7,2.1.8,3-.3-.1-.5-.2-.7-.3.3.7.4.5.8.6.2,0,.4,0,.5,0,0,0,0,0,0,0,0-.5-.4-.4-.6-1.1s-.4-1.5-.7-2.3c-.3-.8-.5-2.1-.5-2.6s.6-1.2.9-1.7c.3-.5.7-.5,1.9-.8.9-.2,2.3-.6,3-.8,0,0,0,0,0,0-.2-.2-.6-.2-.6-.2h0c-.3.1-.5.2-.9.2-.9,0-1,.3-1.8.4Z"/>
    <path class="st9" d="M314.6,221.6c-.7.2-1.3.8-2.1.8,0,0,0,0,0,0,0,.1,0,.2,0,.4h0c-.1.2-.2.5-.4.5-.2,0-.3-.3-.4-.5,0,0,0,0,0-.1-.2.1-.4.3-.5.4.2.5.3.8.3,1.5,0,.9.4,1.4.9,2.7.3,1,.7,2.1.8,3-.3-.1-.5-.2-.7-.3.3.7.4.5.8.6.2,0,.4,0,.5,0,0,0,0,0,0,0,0-.5-.4-.4-.6-1.1s-.4-1.5-.7-2.3c-.3-.8-.5-2.1-.5-2.6s.6-1.2.9-1.7c.3-.5.7-.5,1.9-.8.9-.2,2.3-.6,3-.8,0,0,0,0,0,0-.2-.2-.6-.2-.6-.2h0c-.3.1-.5.2-.9.2-.9,0-1,.3-1.8.4Z"/>
    <path class="st13" d="M326,221.1c0,0,.1,0,.2,0,.3,0,.3,0,.3-.4h0c0-.3.2-.4,0-.7,0,0,0,0,0,0,0,.2,0,.4-.2.6-.1.2-.2.3-.3.5Z"/>
    <path class="st9" d="M326,221.1c0,0,.1,0,.2,0,.3,0,.3,0,.3-.4h0c0-.3.2-.4,0-.7,0,0,0,0,0,0,0,.2,0,.4-.2.6-.1.2-.2.3-.3.5Z"/>
    <path class="st13" d="M305.2,239.9c.3,0,.3,0,.3-.4h0c0-.2.1-.4.1-.5-.2.3-.3.6-.5.9,0,0,0,0,.1,0Z"/>
    <path class="st9" d="M305.2,239.9c.3,0,.3,0,.3-.4h0c0-.2.1-.4.1-.5-.2.3-.3.6-.5.9,0,0,0,0,.1,0Z"/>
    <path class="st13" d="M304.8,249.3c0,.1.1.2.2.4,0-.2.2-.4.3-.7-.2.1-.3.2-.4.3Z"/>
    <path class="st9" d="M304.8,249.3c0,.1.1.2.2.4,0-.2.2-.4.3-.7-.2.1-.3.2-.4.3Z"/>
    <path class="st13" d="M310.2,234.2s-.8.8-1.7,1.6c.2,0,.3,0,.4,0,0,0,.1,0,.2,0,.3-.2.5-.4.8-.5,0,0,0,0,0-.1.1-.6.4-.3.5-1,0,0,0,0,0,0,0,0-.2.1-.2.2Z"/>
    <path class="st9" d="M310.2,234.2s-.8.8-1.7,1.6c.2,0,.3,0,.4,0,0,0,.1,0,.2,0,.3-.2.5-.4.8-.5,0,0,0,0,0-.1.1-.6.4-.3.5-1,0,0,0,0,0,0,0,0-.2.1-.2.2Z"/>
    <path class="st13" d="M342.9,224.1c.2-.1.3-.2.5-.3,0,0-.1-.1-.2-.2,0,0-.2.1-.3.2,0,0,0,.2,0,.3Z"/>
    <path class="st9" d="M342.9,224.1c.2-.1.3-.2.5-.3,0,0-.1-.1-.2-.2,0,0-.2.1-.3.2,0,0,0,.2,0,.3Z"/>
    <path class="st13" d="M311.3,230.4c.3.4.6.8.9,1.2.1.1.2.3.2.4.1,0,.2-.2.4-.4h0c.3-.4.4-.5,0-.9-.4-.3-.4-.3-.6-.6,0,0,0-.2-.1-.2-.2-.1-.4-.2-.6-.3,0,.2-.2.4-.2.8Z"/>
    <path class="st9" d="M311.3,230.4c.3.4.6.8.9,1.2.1.1.2.3.2.4.1,0,.2-.2.4-.4h0c.3-.4.4-.5,0-.9-.4-.3-.4-.3-.6-.6,0,0,0-.2-.1-.2-.2-.1-.4-.2-.6-.3,0,.2-.2.4-.2.8Z"/>
    <path class="st13" d="M311.1,222.8c0,0,.1-.1.2-.2,0,0,0,0,0,0,0,0,0,0,0,0,0,0,.1-.1.2-.2,0,0,0-.2,0-.2.1-.1.2-.1.4,0,.1,0,.3-.2.4-.2,0,0,0,0,0,0-.1,0-.2,0-.4,0-.3,0-.5-.1-.6-.2-.2.2-.5.4-.7.6,0,.2.2.4.2.6,0,0,0,0,0,0Z"/>
    <path class="st9" d="M311.1,222.8c0,0,.1-.1.2-.2,0,0,0,0,0,0,0,0,0,0,0,0,0,0,.1-.1.2-.2,0,0,0-.2,0-.2.1-.1.2-.1.4,0,.1,0,.3-.2.4-.2,0,0,0,0,0,0-.1,0-.2,0-.4,0-.3,0-.5-.1-.6-.2-.2.2-.5.4-.7.6,0,.2.2.4.2.6,0,0,0,0,0,0Z"/>
    <path class="st13" d="M324.7,255.8c-.2-.5.2-.9.7-1,.5-.1.4-.4,1.1-.7.2,0,.4-.1.7-.2,0,0,0-.2,0-.2-1,.3-1.9.6-2.5.5-.9-.2-.8-.6-1.7-1-.8-.4-.8-.9-1.2-1.4-.1.1-.2.3-.2.4.1,0,.2,0,.4.2.3.3.6.7.9,1.1s.8.6,1.1.8c.3.2.6.5.5.7s-.2.4-.5.4-.6-.4-1.1-.5c-.5-.2-.7,0-1.1-.6-.3-.4-.7-.7-.8-1,0,.2,0,.3-.2.5,0,.1-.1.2-.2.3.2,0,.4,0,.5,0,.2.1.2.4,0,.8s-.3.3-.7.4c-.2,0-.3,0-.4.1,0,0,0,.1,0,.2.3,0,.6-.2.9-.2.6,0,1.6-.2,2.3.3.7.5,1.4.4,1.8,1.1.2.3.3.4.4.5,0-.1,0-.2.1-.3,0,0,0,0,0,0-.5-.5-.7-.8-.8-1.2Z"/>
    <path class="st9" d="M324.7,255.8c-.2-.5.2-.9.7-1,.5-.1.4-.4,1.1-.7.2,0,.4-.1.7-.2,0,0,0-.2,0-.2-1,.3-1.9.6-2.5.5-.9-.2-.8-.6-1.7-1-.8-.4-.8-.9-1.2-1.4-.1.1-.2.3-.2.4.1,0,.2,0,.4.2.3.3.6.7.9,1.1s.8.6,1.1.8c.3.2.6.5.5.7s-.2.4-.5.4-.6-.4-1.1-.5c-.5-.2-.7,0-1.1-.6-.3-.4-.7-.7-.8-1,0,.2,0,.3-.2.5,0,.1-.1.2-.2.3.2,0,.4,0,.5,0,.2.1.2.4,0,.8s-.3.3-.7.4c-.2,0-.3,0-.4.1,0,0,0,.1,0,.2.3,0,.6-.2.9-.2.6,0,1.6-.2,2.3.3.7.5,1.4.4,1.8,1.1.2.3.3.4.4.5,0-.1,0-.2.1-.3,0,0,0,0,0,0-.5-.5-.7-.8-.8-1.2Z"/>
    <path class="st13" d="M342.1,224.4s0,0,0,0c-.4.3-.6.4-1,.5,0,0,0,0,0,0,0,.2,0,.4.2.6.2-.2.3-.4.6-.5,0,0,.2-.1.2-.2,0,0,0,0,0,0,0-.2,0-.3.2-.4,0,0,0,0,0,0,0,0-.1,0-.2.1Z"/>
    <path class="st9" d="M342.1,224.4s0,0,0,0c-.4.3-.6.4-1,.5,0,0,0,0,0,0,0,.2,0,.4.2.6.2-.2.3-.4.6-.5,0,0,.2-.1.2-.2,0,0,0,0,0,0,0-.2,0-.3.2-.4,0,0,0,0,0,0,0,0-.1,0-.2.1Z"/>
    <path class="st13" d="M307.9,227.4c.5.2.7.4,1.4.9.7.5.8.6,1.1,1,.2.3.3.3.5.4,0,0,0,0,0-.1,0-.1,0-.4,0-.7,0,0,0,0-.2,0-.7-.3-.8-.3-1.3-.9-.4-.5-1.4-.9-1.9-1.7,0,0,0-.2-.1-.3-.1.2-.3.4-.4.6.4.3.5.6.9.8Z"/>
    <path class="st9" d="M307.9,227.4c.5.2.7.4,1.4.9.7.5.8.6,1.1,1,.2.3.3.3.5.4,0,0,0,0,0-.1,0-.1,0-.4,0-.7,0,0,0,0-.2,0-.7-.3-.8-.3-1.3-.9-.4-.5-1.4-.9-1.9-1.7,0,0,0-.2-.1-.3-.1.2-.3.4-.4.6.4.3.5.6.9.8Z"/>
    <path class="st13" d="M335,250.9c0,0,.1.2.4.2,0,0,0,0,0,0,.2,0,.3-.2.4-.3,0,0,0-.2,0-.2-.2.2-.5.3-.8.3,0,0,0,0,0,0Z"/>
    <path class="st9" d="M335,250.9c0,0,.1.2.4.2,0,0,0,0,0,0,.2,0,.3-.2.4-.3,0,0,0-.2,0-.2-.2.2-.5.3-.8.3,0,0,0,0,0,0Z"/>
    <path class="st13" d="M309,249.7c.4-.1,2.3-.8,4.4-1.3,0,0,0-.2,0-.2-.5.1-.9.2-1.2.2-.5,0-4.2,1-4.7.7-.4-.2-.6,0-.7-.7,0,0-.2,0-.3,0,0,.3.2.3.4.7.3.4.2.5-.2.9s-.6.3-1.1.6c0,0,0,0,0,0,0,0,0,.2.1.3,0,0,.1,0,.2-.1,1.3-.6,2.5-.9,3.2-1.1Z"/>
    <path class="st9" d="M309,249.7c.4-.1,2.3-.8,4.4-1.3,0,0,0-.2,0-.2-.5.1-.9.2-1.2.2-.5,0-4.2,1-4.7.7-.4-.2-.6,0-.7-.7,0,0-.2,0-.3,0,0,.3.2.3.4.7.3.4.2.5-.2.9s-.6.3-1.1.6c0,0,0,0,0,0,0,0,0,.2.1.3,0,0,.1,0,.2-.1,1.3-.6,2.5-.9,3.2-1.1Z"/>
    <path class="st13" d="M320.2,218.3c-.6.6-.9,1.2-1.4,1.7,0,0,0,0,0,0,.5-.2,1-.4,1.6-.6,0-.1,0-.2.1-.4.2-.6.4-.5.8-1,.4-.5.1-.5.3-.9h0c0,0,.1-.2.1-.3-.6.1-1.1.2-1.7.4.2.4.4.7.4.7,0,.1-.2.2-.4.4ZM320.8,217.5c0,.1-.1.2-.2.4l.2-.4Z"/>
    <path class="st9" d="M320.2,218.3c-.6.6-.9,1.2-1.4,1.7,0,0,0,0,0,0,.5-.2,1-.4,1.6-.6,0-.1,0-.2.1-.4.2-.6.4-.5.8-1,.4-.5.1-.5.3-.9h0c0,0,.1-.2.1-.3-.6.1-1.1.2-1.7.4.2.4.4.7.4.7,0,.1-.2.2-.4.4ZM320.8,217.5c0,.1-.1.2-.2.4l.2-.4Z"/>
    <path class="st13" d="M326.9,219.3c.2,0,.3,0,.5,0,.4,0,.7-.3.9-.5h0c0,0,.1-.2.2-.3-.2,0-.3,0-.4-.2,0-.2.1-.3.2-.4-.1-.1-.3-.1-.5,0-.1,0-.2,0-.4.1,0,.1,0,.3-.2.4-.3.6-.3.8-.4,1Z"/>
    <path class="st9" d="M326.9,219.3c.2,0,.3,0,.5,0,.4,0,.7-.3.9-.5h0c0,0,.1-.2.2-.3-.2,0-.3,0-.4-.2,0-.2.1-.3.2-.4-.1-.1-.3-.1-.5,0-.1,0-.2,0-.4.1,0,.1,0,.3-.2.4-.3.6-.3.8-.4,1Z"/>
    <path class="st13" d="M314.7,259.5c0,0,0-.1.1-.2,0,0,0,0-.1,0,0,0-.2.1-.3.2-.2.1-.4.3-.5.4.1,0,.2.1.3.2,0,0,0,0,0,0,.1-.1.3-.3.4-.5Z"/>
    <path class="st9" d="M314.7,259.5c0,0,0-.1.1-.2,0,0,0,0-.1,0,0,0-.2.1-.3.2-.2.1-.4.3-.5.4.1,0,.2.1.3.2,0,0,0,0,0,0,.1-.1.3-.3.4-.5Z"/>
    <path class="st13" d="M312.7,256c.6,0,1.8.8,2.3,1.7.6-.1,1.1-.3,1.3-.3,0,0,.2-.2.2-.4,0-.3.2-.5.4-.6,0-.2,0-.4,0-.6-.2,0-.5.2-.7.5-.7.5-1.9,0-2.8-.5h0c-.9-.4-1,.2-1.9-.4-.6-.3-1.9-.1-3,0,.1.1.2.2.3.4.7-.1,1.4-.3,1.7-.4.6-.2,1.3.6,2.1.6Z"/>
    <path class="st9" d="M312.7,256c.6,0,1.8.8,2.3,1.7.6-.1,1.1-.3,1.3-.3,0,0,.2-.2.2-.4,0-.3.2-.5.4-.6,0-.2,0-.4,0-.6-.2,0-.5.2-.7.5-.7.5-1.9,0-2.8-.5h0c-.9-.4-1,.2-1.9-.4-.6-.3-1.9-.1-3,0,.1.1.2.2.3.4.7-.1,1.4-.3,1.7-.4.6-.2,1.3.6,2.1.6Z"/>
    <path class="st13" d="M327.5,217.7c.4-.1.8-.3,1-.4,0-.2,0-.5,0-.5,0,0,.1-.2.2-.3-.5,0-.9,0-1.4-.1,0,0,0,0,0,.1.1.4.2.7.1,1.2Z"/>
    <path class="st9" d="M327.5,217.7c.4-.1.8-.3,1-.4,0-.2,0-.5,0-.5,0,0,.1-.2.2-.3-.5,0-.9,0-1.4-.1,0,0,0,0,0,.1.1.4.2.7.1,1.2Z"/>
    <path class="st13" d="M320.9,240.5c-.4-.1-.8-.4-1.7-.3s-.7,0-1.4,0-.6-.1-1.4-.2c-.8,0-.4-.4-1-.5s-.6-.6-.6-1,0-1.1-.2-1.4c-.1-.3-.5-1.3-.5-1.9,0-.6,0-1.6.4-2.3.5-.7.5-1.3,1.2-1.8.4-.2.5-.4.7-.6-.2,0-.5.2-.7.3-.2,0-.3.1-.4.2-.2.1-.4.2-.7.3-.1,0-.3,0-.4,0-.1,0-.3.1-.4.2.2,0,.3.2.3.5,0,.4-.4.6-.6,1-.2.5-.1.7-.6,1s-.8.7-1.1.8c-.3.1-.4,0-.7-.1s-.4,0-.4-.3c0,0,0,0,0-.1,0,.3-.2.6-.4.9,0,0,.1,0,.2,0,.5,0,1.1.2,1.5.5.4.3.8.7,1.1,1.5s.7.5.8,1.1c.1.6,0,1.1,1.1,1.7,1.1.6,1.7.5,2.5,1.7s1,1.6,1.3,2.3c.1.2.2.4.2.6.2,0,.5-.2.7-.4,0-.5-.4-.8-.3-1.2.2-.5-.1-.6.9-.9.4-.1.7-.3,1-.5,0-.3.1-.5,0-1.1-.4,0-.7.1-.8,0ZM314,236.8c-.1,0-.5,0-.7-.2s-.4-.5-.4-.9c0-.4-.2-.8,0-1h0c.1-.2.5-.2.8,0s.3.3.4.7c0,.4.2.5.2.7s0,.5-.3.6ZM320.4,241.8c-.3.1-.3.2-.7.5s-.5.2-.9,0-.4-.6-.8-1c-.4-.4-.4-.5.1-.7.6-.2,1.1.1,1.8.2s1,.2,1.1.4c0,.2-.4.4-.7.5Z"/>
    <path class="st9" d="M320.9,240.5c-.4-.1-.8-.4-1.7-.3s-.7,0-1.4,0-.6-.1-1.4-.2c-.8,0-.4-.4-1-.5s-.6-.6-.6-1,0-1.1-.2-1.4c-.1-.3-.5-1.3-.5-1.9,0-.6,0-1.6.4-2.3.5-.7.5-1.3,1.2-1.8.4-.2.5-.4.7-.6-.2,0-.5.2-.7.3-.2,0-.3.1-.4.2-.2.1-.4.2-.7.3-.1,0-.3,0-.4,0-.1,0-.3.1-.4.2.2,0,.3.2.3.5,0,.4-.4.6-.6,1-.2.5-.1.7-.6,1s-.8.7-1.1.8c-.3.1-.4,0-.7-.1s-.4,0-.4-.3c0,0,0,0,0-.1,0,.3-.2.6-.4.9,0,0,.1,0,.2,0,.5,0,1.1.2,1.5.5.4.3.8.7,1.1,1.5s.7.5.8,1.1c.1.6,0,1.1,1.1,1.7,1.1.6,1.7.5,2.5,1.7s1,1.6,1.3,2.3c.1.2.2.4.2.6.2,0,.5-.2.7-.4,0-.5-.4-.8-.3-1.2.2-.5-.1-.6.9-.9.4-.1.7-.3,1-.5,0-.3.1-.5,0-1.1-.4,0-.7.1-.8,0ZM314,236.8c-.1,0-.5,0-.7-.2s-.4-.5-.4-.9c0-.4-.2-.8,0-1h0c.1-.2.5-.2.8,0s.3.3.4.7c0,.4.2.5.2.7s0,.5-.3.6ZM320.4,241.8c-.3.1-.3.2-.7.5s-.5.2-.9,0-.4-.6-.8-1c-.4-.4-.4-.5.1-.7.6-.2,1.1.1,1.8.2s1,.2,1.1.4c0,.2-.4.4-.7.5Z"/>
    <path class="st13" d="M312.3,232.9c.4-.3.6-.7.8-1-.3.2-.6.4-1,.7,0,0,0,0-.1,0,0,0,0,0,0,0-.2.4-.4.6-.7.7,0,.1-.1.3-.2.4,0,0,0,0,.1-.1.3-.3.7-.6,1.1-.9Z"/>
    <path class="st9" d="M312.3,232.9c.4-.3.6-.7.8-1-.3.2-.6.4-1,.7,0,0,0,0-.1,0,0,0,0,0,0,0-.2.4-.4.6-.7.7,0,.1-.1.3-.2.4,0,0,0,0,.1-.1.3-.3.7-.6,1.1-.9Z"/>
    <path class="st8" d="M338.5,223.6c-.4.1-2.3.8-4.4,1.3-.3,0-.5.1-.8.2-1,.2-2,.4-2.8.4-.7,0-4.2-.2-4.2-.2l.6,1.1c.1.1.3.4.6.7.3-.2,1.5-1.1,2.3-1,1.1.1,2.5-.3,3.7-.7.3,0,.6-.2.8-.2.5-.1.9-.2,1.2-.2.5,0,4.2-1,4.7-.7.4.2.6,0,.7.7,0,0,0,.2,0,.3,0,.2,0,.4.1.5.2.6.5,1,.7,1.8.2,1,.7,1.1.8,2.2,0,1.1.2,1.9-.2,2.5,0,0,0,.2-.1.3-.4.8-.6,2-1.3,2.9-.2.3-.5.6-.8.8,0,0,0,0,0,0-.7.4-1.2.9-1.6,1.3-.3.2-.5.4-.8.5-.1,0-.3.1-.4.1,0,0,0,0,0,0,.4.1.6.4.2.9,0,0,0,0,0,0h0s.8-.8,1.7-1.6c.4-.3.7-.6,1-.9.2-.2.4-.3.6-.4.2,0,.5-.4.7-.9.2-.3.4-.7.6-1,.2-.3.3-.6.5-.9.1-.2.2-.3.3-.4,0,0,.2-.2.3-.2.8-.4,1-1.2,2-1.4s.6.1,1.6,0c.9,0,.9.1,1.8.2,0-.2-.2-.5-.3-.7,0,0,0,0,0,0-.5-.1-1.2.2-1.7,0-.5-.1-1.4-.1-2.2-.7-.5-.4-.8-.7-1.3-1.7-.5-1-.7-2.4-.5-2.8h0c.2-.4.5-.8.6-1.6,0,0,0,0,0,0,0,0,0-.2,0-.3,0-.2,0-.3,0-.5-.1-.1-.3-.3-.4-.4,0,.5-.2.9-.3,1.3,0,.1-.1.3-.2.4,0,0,0,0,0,0-.2.6-.4.9-.6,1,0,0-.2,0-.2-.2,0-.2-.1-.4-.2-.6,0,0,0,0,0,0,0-.3-.2-.3-.4-.7-.3-.4-.2-.5.2-.9s.6-.3,1.1-.6c0,0,.1,0,.2-.1,0,0-.1-.1-.2-.2,0,0-.2,0-.3.1-1.3.6-2.5.9-3.2,1.1Z"/>
    <path class="st8" d="M305.2,249s0,0,.1,0c-.4.2-.6.4-.6.3,0,0,0,0,0,0,.1,0,.3-.2.4-.3,0,0,0,0,0,0Z"/>
    <path class="st8" d="M305.6,248.4s0,0,0,0c0,0-.2.2-.3.2-.2.2-.5.4-.7.6,0,0,0,0,0,.1,0,0,.3-.3.9-.9Z"/>
    <path class="st8" d="M314.8,259.4c.4-.5.6-.8.9-1.2.2-.4.5-.5.8-.8,0,0,0,0-.1,0-.2,0-.7.2-1.3.3-.9.2-2.1.4-3.4.5.2.1.3.3.5.4,1.3,0,2.1.4,2.5.6,0,0,.1,0,.1,0Z"/>
    <path class="st8" d="M326.5,226.7c.1.3.2.4.2.5,0-.3-.2-.4-.2-.5Z"/>
    <path class="st8" d="M310.9,223.4c0,0-.1.1-.2.2h0s0,0,.2-.2Z"/>
    <path class="st8" d="M310.8,223.1s0,0,0,0c.1,0,.3-.2.5-.4,0,0-.2.1-.2.2-.1,0-.2.2-.3.3Z"/>
    <path class="st8" d="M312.5,221.9s0,0,0,0c-.2,0-.3.1-.4.2-.2,0-.3.2-.4.3,0,0-.2.1-.2.2,0,0,0,.1.1.2-.1.1-.3.3-.4.4,0,0,0,0,0,0,.1-.1.3-.3.5-.4.2-.2.5-.3.8-.3,0,0,0,0,0,0,.8,0,1.4-.6,2.1-.8.7-.2.9-.5,1.8-.4.3,0,.6,0,.9-.2,0,0,.6-.6.8-.6.2,0,.5-.3.4,0,.2,0,.3-.2.5-.2.4-.2.9-.3,1.3-.5,1-.3,1.9-.6,2.5-.5.9.2.8.6,1.7,1,.8.4.8.9,1.2,1.4,0,0,.2.2.2.2,0,0,0,0,0,0,.7.5-1.3,2.3-.4,3.4.4.5.7,1,.8,1.3l.3-.4s0,0,0,0c-.3-.4-.6-1-.8-1.4-.4-.8.6-1.1.5-1.9,0-.9.4-1.2.4-1.7,0-.3,0-.6.2-1,0-.2.1-.4.3-.6.3-.4.7-.8,1.4-1.2,0,0,0,0,0,0,.7-.4.4-.7,1-.9.1,0,.2,0,.3,0,.1,0,.2,0,.3,0,.2,0,.4-.2.7-.5-.3.2-.3,0-.2-.2,0,0-.2,0-.3,0,0,0,0,.1-.2.1-.1,0-.3,0-.5.1,0,0,0,0-.1,0-.4,0-1.1.1-1.4.3,0,0,0,0,0,0-.2,0-.6.2-1,.4-.3,0-.6.2-.9.2-.6,0-1.6.2-2.3-.3-.6-.4-1.2-.4-1.6-.9-.1,0-.2,0-.3,0,.2.3.3.5.4.8.2.5-.2.9-.7,1h0c-.5.1-.4.4-1.1.7-.2,0-.4.1-.7.2-.5.2-1,.3-1.6.6,0,0,0,0,0,0-.8.3-2.1.6-2.5.6s-1.2-.6-1.7-.8c0,0-.1,0-.2-.1-.2.1-.5.3-.7.4,0,.1,0,.3,0,.5-.2.8-.2,1-1,1.4ZM326.4,218.4c.1-.4.3-.3.7-.4.2,0,.3,0,.4-.1.1,0,.2,0,.4-.1.2,0,.4,0,.5,0,0,0,0,0,.1.1,0,0,0,.3,0,.4,0,.1,0,.2-.2.3h0c-.2.2-.5.4-.9.5-.2,0-.4,0-.5,0-.2,0-.4,0-.5,0-.2-.1-.2-.4,0-.8ZM323,218.3c0-.2.2-.4.5-.4s.6.4,1.1.5c.5.2.7,0,1.1.6.3.4.7.7.8,1,0,0,0,0,0,0,.1.3,0,.4,0,.7h0c0,.3,0,.4-.3.4,0,0-.1,0-.2,0-.1,0-.2,0-.4-.2-.3-.3-.6-.7-.9-1.1s-.8-.6-1.1-.8c-.3-.2-.6-.5-.5-.7ZM314,220.6c0-.3.1-.4.2-.4.1,0,.2,0,.4,0,.2,0,.5.2.5.4s-.3.3-.4.4-.4.3-.6.2c-.1-.1-.1-.2,0-.5Z"/>
    <path class="st8" d="M345.4,245.7c-.9.7-.8.4-1.3.8-.5.3-.6.5-1.4.6-.7,0-1.3.2-1.9-.2s-.7-.7-1.1-1-.7-.4-1.4-.9c-.7-.5-.8-.6-1.1-1-.2-.3-.3-.3-.5-.4,0,0-.1-.2-.2-.3,0-.1-.2-.2-.3-.4-.3-.4-.6-.8-.9-1.2-.1-.1-.2-.3-.2-.4,0,0,0,0,0-.1-.3.3-.5.4-.7,1,0,.2,0,.5,0,.9.3.1.5.2.7.3.1,0,.3.1.4.2.2.1.4.2.6.3.6.3.5.5.7.6,0,0,0,0,.2,0,.7.3.8.3,1.3.9.4.5,1.4.9,1.9,1.7.2.3.3.7.4,1,0,.2,0,.5,0,.7,0,.3-.1.5-.2.7-.4.5-.3.6-.7,1s-.7.6-1,1.3c-.3.7-1.1.8-1.5.2.1.3.2.6.2.9,0,.3.1.6.3.9.3.2.6.5.6.5,0,0,2.7,1.8,2.9,1.8.2,0,1.1.7.4.4.5.3.8.3,1.2.5.2-.2.4-.3.5-.5,0,0,0,0-.1-.1-.5-.4-.5,0-.9-.3s-.9-.3-.9-.3c-1.4-.4-1.9-.6-2.4-1.1-.5-.5-.9-1-.7-1.5s.4-.8.7-.9.5,0,.8-.5c.3-.4.4-.5.5-.9s.5-.3,1-.5.8-.4,1.8,0c1,.4.9.2,1.3.5.4.3.8.2,1.1.4s.7.2,1,.5c0,0,.1.1.2.2,0-.1.1-.3.2-.4-.2,0-.4-.2-.6-.3-.3-.3-.3,0-.8-.4s-1.2-1.3-1.7-1.9c-.2-.3-.2-.4-.2-.6,0-.2.3-.3.5-.6h0c0-.2.2-.3.3-.5.3-.4.7-.7,1.1-.8.6-.2.7-.6,1.8-.9.4-.1.7-.3,1-.5.3-.2.6-.4.8-.6.1-.1.2-.2.3-.3,0,0,.2-.1.3-.2,0-.3.1-.7.2-1-.6.4-.9.1-2,1-1.1.9-1.4,1.1-2.3,1.8ZM343.3,247.9c0,.2,0,.3,0,.4,0,.2-.1.3-.2.5-.1.3,0,.6-.2.7-.2,0-.3-.2-.5-.3-.2,0-.8,0-1,0-.1,0-.4-.2-.5-.6,0,0,0,0,0-.1,0-.2,0-.3,0-.4,0-.1.2-.2.5-.4.5-.3.6-.1,1-.3s.6-.2.8,0c0,0,.1.1,0,.2,0,0,0,.1,0,.3Z"/>
    <path class="st8" d="M337.1,253.6c.2.3.3.5.5.7-.2-.2-.3-.5-.5-.7Z"/>
    <path class="st8" d="M315,259.6c0,0,.1-.1.2-.2.2-.3.5-.6.8-.9.2-.3.5-.5.8-.7.8-.5,1.9-.5,2.4,0,.4.4.6.3,1,.8.4.5.6.7,1.2,1.1.6.4.7,1.4.6,2,0,.6-.6,1-.6,1l.5.4s1.4-1,2.2-2.4c.7-1.2,1-2,1.6-2.8,0-.1.2-.2.2-.3,0,0,0,0,0,0,.2-.3.3-.5.4-.7,0,0-.1,0-.1,0l.5-.7c0,0,.1-.2.2-.3h0c0,0,0,0,0,0,0-.1.2-.3.4-.4.6-.6.9-1.2,1.4-1.7.2-.2.5-.4.8-.5,1.2-.4,2.3-.7,3.5-1,1-.2,1.4-.5,2-.4.1,0,.2,0,.4,0,.8.3,1,.2,1.3,1.2,0,.3.2.6.4.8-.1-.2,0,0,.4.2-.2-.3-.3-.6-.3-.9,0-.3,0-.6-.2-.9-.2-.4-.5-.9-.6-1.3,0,0,0,0,0,0,0,0,0-.2,0-.3-.2-.5-.3-.8-.3-1.5,0-.9-.4-1.4-.9-2.7-.3-1-.7-2.1-.8-3,0-.3,0-.6,0-.9.2-.6.4-.7.7-1,.1-.1.3-.3.4-.6,0,0,0,0,0,0,.2-.4.4-.6.7-.7.3-.2.5-.3.8-.5,0,0,.2-.1.2-.2,0,0,0,0,0,0,.4-.5.2-.8-.2-.9,0,0-.1,0-.2,0,0,0-.1,0-.2,0-.5,0-1.1-.2-1.5-.5-.4-.3-.8-.7-1.1-1.5s-.7-.5-.8-1.1c-.1-.6,0-1.1-1.1-1.7-1.1-.6-1.7-.5-2.5-1.7s-1-1.6-1.3-2.3c-.1-.2-.2-.4-.2-.6,0-.1,0-.3-.1-.5,0-.1,0-.3-.1-.5-.1-.3-.3-.6-.4-.9-.2-.4-.4-.6-.6-.7,0,0,0,0,0,0,0,0,0,0,0,0l-.3.4h0s0,0,0,0c0,0,.1.2.2.5,0,.2.1.4.1.6,0,.5.2.7.4.9.1.2.2.3.1.5,0,0,0,0,0,0,0,.5.4.8.3,1.2-.2.5.1.6-.9.9-.4.1-.7.3-1,.5-.3.2-.6.5-1.2.7,0,0,0,0,0,0-.9.4-.9.8-1.9,1.1-1.1.3-1.4.3-1.7-.4-.3-.6-.5-.7-1.4-1.7,0,0,0,0,0,0l-.7-.5-.7-.5s0,0,0,0c.6.5,1.7,1.5,1.9,1.9.3.6.9.6.8,1.5s.1,1.5.5,2.4c.4.9,0,.6.2,1.6.2,1,0,.9.1,2,0,.2,0,.3,0,.4,0,.6,0,.8,0,1.1,0,0,0,.1,0,.2,0,.5-.6.9-.9,1.7-.2.4-.4.6-.6.8-.2.2-.5.3-.7.4,0,0-.2,0-.3.1-.6.2-1.5.4-2.1.7-.6.3-1,.1-1.7.4s-2-.3-2.6-.7c0,0,0,0,0,0,0,0,0,0,0,0h0c.8,1.8.6,2.9.2,2.7,0,0,0,.1.1.2,0,.1.1.2.2.3,0,0,0,.2,0,.2.1.4,0,.8.7,1.7.9,1.2,1,1.4,1.7,2.3.6.9.4.8.7,1.3s.5.7.6,1.4c0,.2,0,.4,0,.7,0,.2,0,.4,0,.6,0,.2-.1.5-.3.7,0,.1-.2.2-.3.3-.3.3-.6.4-.8.8-.2.4-.4.7-.9,1.2,0,0,0,.1-.1.2-.2.2-.3.4-.4.5,0,0,0,0,0,0,0,0,.2,0,.3.1.1-.2.3-.4.6-.6ZM326.9,254.4c-.2.6-.4.5-.8,1-.4.5-.1.5-.3.9-.2.3-.3.7-.3.8,0,0,0,0,0,0,0,.1,0,.2-.1.3-.4,1.1-.6,1.6-1.1,2-.5.5-1,.8-1.5.6-.5-.2-.7-.5-.9-.8-.1-.3,0-.5-.4-.8-.4-.4-.4-.4-.9-.6-.4-.2-.3-.5-.5-1.1-.1-.4-.2-.7-.1-1.2,0,0,0-.1,0-.2,0-.1,0-.3.2-.4.3-.6.3-.8.4-1,0,0,0-.1.2-.3.1-.2.2-.3.2-.5,0-.2,0-.4.2-.6.1-.2.2-.3.3-.5,0-.1.1-.3.2-.4,0,0,0,0,0,0,.3-.3.3-.2.5-.8.3-.5.2-.7.9-1.1.7-.4,1.2-1.3,1.9-1.5.7-.2,1,0,1.2.3.2.2.2.3.4.8s.5.6.6,1.3c0,.7.3.6.2.9,0,.4.2.7,0,1.3h0c-.2.3-.2.5-.3.7,0,0,0,.2,0,.2,0,.1,0,.2-.1.4ZM323.2,247.8c-.1-.3.2-.2,0-.4s0-.2,0-.6,0-.7.1-1.1.1-.9.2-1.2c.1-.3.6-.3,1,0s.5.9.6,1.4c.1.5.3.6.2,1s0,.3,0,.6-.2.1-.5.5c-.3.3-.4.4-.7.6-.3.2-.6.4-.9.5-.2,0-.3,0-.3-.4,0-.2.2-.5,0-.8ZM335.8,250.5h0s0,0,0,.1c0,0,0,.2,0,.2,0,0,0,.2,0,.2-.1.1-.2.1-.4,0,0,0,0,0,0,0-.3,0-.4-.1-.4-.2,0,0,0,0,0,0,0-.1,0-.2,0-.4.1-.2.2-.5.4-.5.2,0,.3.3.4.5ZM335.5,248.8c0,.5-.6,1.2-.9,1.7-.3.5-.7.5-1.9.8-.9.2-2.3.6-3,.8-.2,0-.4,0-.5,0,0,0,0,0,0,0-.4,0-.7,0-1.3-.8,0,0-.1-.3-.2-.6s-.3-.7-.5-1-.4-.6-.5-1c-.1-.4.2-1.2.7-1.7.5-.5.9-.4,1.3-1.1,0,0,0,0,0,0,.3-.7.6-.6.8-1.2.3-.6.2,0,1.2-1.2.6-.6.9-1,1.2-1.1.2-.1.4-.2.7-.3.1,0,.3,0,.4,0,.3,0,.5.4.6.7,0,0,0,0,0,0,0,.5.4.4.6,1.1.2.7.4,1.5.7,2.3.3.8.5,2.1.5,2.6ZM335.5,238.6c.3-.1.4,0,.7.1h0c.3,0,.4,0,.4.3,0,0,0,0,0,.1,0,.1,0,.2-.1.3,0,0,0,0-.1.1-.3.3-.7.6-1.1.9-.4.3-.6.7-.8,1,0,0,0,0,0,0-.2.3-.5.6-.7.5,0,0,0,0,0,0-.2,0-.3-.2-.3-.5,0-.4.4-.6.6-1,.2-.5.1-.7.6-1,.5-.3.8-.7,1.1-.8ZM333.5,236.5c.1,0,.5,0,.7.2s.4.5.4.9c0,.4.2.8,0,1-.1.2-.5.2-.8,0s-.3-.3-.4-.7c0-.4-.2-.5-.2-.7s0-.5.3-.6ZM327.1,231.6c.3-.1.3-.2.7-.5s.5-.2.9,0h0c.4.3.4.6.8,1,.4.4.4.5-.1.7-.6.2-1.1-.1-1.8-.2s-1-.2-1.1-.4c0-.2.4-.4.7-.5ZM322.3,239.3c0-.6-.4-1.2-.3-1.7,0-.5-.1-1.4.4-2.3.3-.5.6-.9,1.5-1.5.3-.2.7-.4,1-.5.3-.1.6-.2.9-.3.4,0,.7-.1.8,0h0c.4.1.8.4,1.7.3.8-.1.7,0,1.4,0s.6.1,1.4.2c.8,0,.4.4,1,.5s.6.6.6,1,0,1.1.2,1.4c.1.3.5,1.3.5,1.9,0,.6,0,1.6-.4,2.3-.5.7-.5,1.3-1.2,1.8-.4.2-.5.4-.7.6-.1.1-.3.2-.7.4-.7.3-.9.6-1.4,1.3-.1.2-.3.4-.5.6-.9,1.1-2,1.6-2.3,1.2-.2-.5-.5-.7-.7-1.2s-.6-.9-.9-1.3-.5-.9-.7-1.3,0-.3-.3-.9c-.3-.5-.4-.6-.5-1,0,0,0-.2,0-.3,0-.2-.1-.3-.2-.4-.2-.2-.3-.4-.3-.8ZM321.7,242.9c.3-.2.6-.6.8-.8.3-.2.7.2.9.4.2.2.4.6.4.7s-.3.4-.6.5-.7.1-1.1,0h0c-.4,0-.8,0-.8-.2,0-.3.3-.4.5-.6ZM316.3,252.5c-.1-.6-.5-.8-.8-1.8s-1-1.7-1.2-2.1c0,0-.1-.2-.2-.3,0,0,0-.2-.1-.3-.1-.3-.2-.7,0-1,0-.1.1,0,.4-.1s.5,0,1.1-.4,1-.6,1.7-.7,1.1-.1,1.5-.4c.2-.1.5-.3.7-.4.2-.1.5-.2.7-.3,0,0,0,0,0,0,.5-.2.6-.3,1.4-.3.7,0,1.1.3,1.2.8s0,.4,0,1.2c0,.8.2,1-.2,1.9s-.6,1.3-.8,2c0,.5-.2.9-.3,1.2,0,.1-.1.2-.2.3-.3.3,0,.3-.5.7-.1.1-.3.3-.5.4-.5.4-1,.9-1.5,1.2-.6.5-.7-.1-1.2-.4h0c-.5-.2-1.1-.9-1.2-1.4ZM317.3,255.7c0,0,0-.2,0-.3-.1-.5-.2-.6,0-.8.2-.1.1,0,.5,0,.4,0,.5.1.8.2,0,0,0,0,0,0,.1,0,.2,0,.3,0,.2,0,.3,0,.4.2,0,.2-.1.3-.2.4,0,0,0,0,0,.1,0,0,0,.2,0,.4,0,.2,0,.5,0,.5,0,.2-.3.4-.8.4-.5,0-.5,0-.7-.5h0c0,0,0-.1,0-.2,0-.2,0-.4-.1-.6Z"/>
    <path class="st8" d="M304.8,240.3c0,.1.2.2.3.3,0,0,.1.1.2.2.6.5.8,1.2,1.6,2.2.1.2.2.3.3.4,0,0,0,0,0,0-.3-.7.7-.1.7-.1,0,0,0,0,0,0,0,0,0-.2-.1-.3-.4-.8-.7-.8-1.1-1.7s-.7-.9-.7-1.4c0-.5.2-1.1.4-1.5s.7-.8,1.4-1.2.4-.7,1-.9c.6-.1,1.1,0,1.6-1.2,0,0,0,0,0,0,.2-.3.3-.6.4-.9,0-.1,0-.2.1-.3,0-.1.1-.3.2-.4.2-.3.4-.5.7-.8,0,0,0,0,.1,0,.4-.3.7-.5,1-.7.3-.2.6-.4.9-.5.1,0,.2-.1.4-.2,0,0,0,0,0,0,.5-.2.7-.2,1.1-.3.1,0,.3,0,.4-.2.2-.1.5-.2.7-.3,0,0,0,0,0,0,0,0,0,0,0,0,0,0,.1,0,.2,0,.5-.1.9,0,1.2.3,0,0,0,0,0,0l.7.5.7.5s0,0,0,0c0,0-.4-.5-.7-1.6h0c-.1-.4-.2-.9-.2-1.3,0-.4,0-.9,0-1.4,0-.4,0-.8,0-1.1,0-1.3-.4-2.2-.5-2.7,0-.4,0-1.6,0-2.4,0-.3,0-.6.2-.7,0,0,0,0,0,0,.1-.2-.2,0-.4,0-.2,0-.8.6-.8.6h0s.4,0,.6.2c0,0,0,0,0,0,.1.3.1,2.2.6,3.6.5,1.4-1,4.2-1.7,4.7-.2,0-.4.2-.8.2-.9.2-.9.7-1.4.5-.3,0-.5.1-.8.2-.2,0-.3.1-.5,0-.4-.1-.6,0-.8-.6,0,0,0-.2-.1-.3-.4-1-.9-1.1-1.3-2.1-.4-1-.9-.9-1.2-1.9s-.4-1.4.3-1.7c.3-.1.4-.3.6-.5,0,0,.1-.1.2-.2,0,0,.1-.1.2-.2.1-.1.2-.2.4-.4,0,0,0,0-.1-.2,0,0,0,0,0,0,0,0,0,0,0,0-.2.2-.3.3-.5.4,0,0,0,0,0,0-.6.4-.6.9-1.4.9-.1,0-.3,0-.4,0-.4.5-.8,1-1.2,1.5.1,0,.2,0,.4.1.5.3,1,.5,1.6,1.4.4.6.8,1.4,1,2,0,.3.1.5,0,.7,0,0,0,0,0,.1-.1.4-.3.8-.2,1.6.2.8,0,.7,0,1.4,0,.6-.1.6-.2,1.3,0,0,0,0,0,0,0,.8-.4.4-.5,1,0,0,0,0,0,.1-.1.4-.4.5-.8.5,0,0-.1,0-.2,0-.1,0-.3,0-.4,0-.4,0-.7.1-1,.2-.3.1-1.3.5-1.9.6-.6,0-1.6.2-2.3-.3,0,0-.2-.1-.3-.2,0,.2,0,.4,0,.7.2.1.4.3.7.4.5.2.7,0,1.1.6.3.5.7.8.9,1,0,0,0,.1,0,.2,0,.2-.1.3-.1.5h0c0,.3,0,.4-.3.4,0,0,0,0-.1,0-.2,0-.3,0-.5-.2-.3-.3-.6-.7-.9-1.1-.2-.3-.5-.5-.8-.6,0,.2,0,.3,0,.5.2.2.4.3.7.5.7.4.8.9,1.2,1.3ZM312.1,229.9c0,0,0,.2.1.2.1.3.2.3.6.6.4.3.3.4,0,.9h0c-.1.2-.2.3-.4.4-.2.1-.4.2-.6.5-.4.4-.4.5-.7-.1s0-1.1.1-1.8c0,0,0-.1,0-.2,0-.4.1-.7.2-.8,0,0,0-.1.1-.2.1,0,.3.2.4.4ZM305.5,238c-.2-.1-.2-.4,0-.8s.3-.3.7-.4c.4,0,.5-.2.7-.2.2,0,.5,0,.6.2,0,0,0,0,0,0,0,0,0,.2,0,.3,0,.1,0,.3-.2.4h0c-.2.2-.4.4-.7.4,0,0-.1,0-.2,0,0,0-.2,0-.3,0-.3,0-.6.1-.7,0Z"/>
    <path class="st8" d="M339,256.8c.9-.5,1.6-.6,2.3-.3,0,0,0,0,0,0,.7.3-.2-.5-.4-.4-.2,0-2.9-1.8-2.9-1.8,0,0-.3-.3-.6-.5-.3-.2-.5-.4-.4-.2,0,0,0,0,0,0,0,0,0,0,0,0,.1.2.3.4.5.7.4.5.7,1,.7,1h0c.8.9-.8,2.1-3,2.6-.2,0-.4,0-.6,0-.2,0-.5,0-.7,0-2.8.1-3.7,1.3-4.9.3-1.1-1-2.1-2.9-2.2-2.9,0,0,0,0,0,0h0c0,0-.2.3-.2.3l-.5.7s0,0,.1,0c.3.1.9.5,1.7,1,1,.7,1.3,1.3,1.6,1.5s.8,1.4.8,1.4c0,0,.7,0,.7-.1s-.5-.9-.3-1.1c.2-.3,1-.8,1.6-.8.4,0,1.4-.1,2.3-.3.2,0,.4,0,.6-.1.2,0,.5,0,.6-.1,1-.3,2.1-.7,3-1.2Z"/>
    <path class="st8" d="M305.3,249s0,0,0,0c.4-.3.6-.4,1-.5,0,0,.2,0,.3,0,.4,0,.9-.1,1.6-.2.8,0,1.4-.3,1.9-.6,1-.3,2.2-.7,2.5-.1,0,.1.1.2.2.2.4.3.6-.9-.2-2.7h0s0,0,0,0c-1-1.9-4.1-.5-4.7-1.6,0,0,0,0,0,0,0,0-.9-.6-.7.1,0,0,0,0,0,0,.3.7.6,1.1.3,2.1-.2.7-.5,1.3-1.1,2,0,0-.2.2-.3.3-.2.2-.3.3-.5.5,0,0,0,0,0,0-.6.6-.9.8-.9.9,0,0,0,0,0,0,0,0,.2,0,.6-.3ZM309.9,244.2c1,.2,1.5,1.1,1.3,1.7-.1.4-.5.5-.9.6-1,0-2.6.3-2.6,0,0-.2.2-1.2.6-1.7s.7-.8,1.7-.6Z"/>
    <path class="st8" d="M331.2,217s0,0,0,0c0,0,.1,0,.2,0-.1,0-.2,0-.4,0-.1.2-.1.4.2.2Z"/>
  </g>
  <circle class="st7" cx="326.3" cy="239.9" r="21.8"/>
  <circle class="st6" cx="326.2" cy="239.9" r="23"/>
</svg>