<?xml version="1.0" encoding="UTF-8"?>
<svg id="Layer_1" xmlns="http://www.w3.org/2000/svg" version="1.1" viewBox="0 0 1224 792">
  <!-- Generator: Adobe Illustrator 30.1.0, SVG Export Plug-In . SVG Version: 2.1.1 Build 136)  -->
  <defs>
    <style>
      .st0 {
        stroke: #f6f6f6;
      }

      .st0, .st1, .st2, .st3, .st4 {
        stroke-miterlimit: 10;
      }

      .st0, .st1, .st5 {
        fill: none;
      }

      .st1, .st2, .st3, .st5, .st4 {
        stroke: #fff;
      }

      .st6 {
        fill: #d5d6d9;
      }

      .st2 {
        stroke-width: 2px;
      }

      .st2, .st7, .st4 {
        fill: #00306b;
      }

      .st3 {
        fill: #47607e;
      }

      .st8 {
        fill: #fff;
      }

      .st5 {
        stroke-miterlimit: 10;
        stroke-width: 1px;
      }

      .st9 {
        fill: #b1b5bb;
      }
    </style>
  </defs>
  <path class="st6" d="M711.2,456.9v-87.6h67.3v-7.3h-58.9v-58.9h-6.9v32.9h-109c-.7-2.9-2.5-5.3-5-6.8v-25.4s-11.1,0-11.3.2v24.5c-3,1.5-5.2,4.2-6.1,7.5h-128.3v22.1l-36.4,6.1,1,6.4,42.3-6.8-.5-3.4v-18.1h24.4v96.8l-51.6,9.5,1.4,7.4,51.7-9.5,19.7,19.7v51.7h6.4v-50.2h72.4c.7,1.9,2,3.5,3.6,4.6v47.7h11.3v-48.2c1.3-1.1,2.3-2.5,2.9-4.1h116.4v-4h44.9v-6.7h-52.9v-.2c0,0,1.2,0,1.2,0ZM586.1,383.1c-12.2,2.9-21.3,13.9-21.3,27s9.1,24.1,21.3,27v20.5c-1.1,1-1.9,2.3-2.4,3.7h-74.5c0,.1-18.9-18.8-18.9-18.8v-84.4l15.7-15.7h75.5c.8,2.5,2.4,4.6,4.5,6v34.6ZM704.8,449.6l-11.8,11.8h-91.2c-.5-1.4-1.3-2.7-2.4-3.7v-20.6c12-3.1,20.9-14,20.9-26.9s-8.9-23.9-20.9-26.9v-35c1.9-1.4,3.3-3.4,4.1-5.7h91.7l9.5,9.5v97.6Z"/>
  <rect class="st6" x="286.5" y="473.4" width="44.9" height="18.4" transform="translate(-94.7 75.9) rotate(-12.2)"/>
  <polygon class="st9" points="790.2 653.6 711.9 653.6 711.9 629.6 727.9 629.6 727.9 634.5 773.2 634.7 773.5 629.6 790.2 629.6 790.2 653.6"/>
  <path class="st2" d="M898.6,211v-13.5l-10.2-10.5h-22.3v-8.4h-31v8.4h-224.6c0,.1,0,.2,0,.2l-114.6-.9-139.6-.2v-7.6h-41.8v8.2l-26.4-.2-13.3,13.5c0,0-.1,13.7-.1,13.7h2.2v39.5l39.3,201.2,4.1-1,7.3,35.9-17.8,3.8,23.8,122,10.9-3.6v14.7l11.1,11.1h12.9v8h104.9v-1.8h20.9v-4.4h38.7v4.2h20.2v-8.4h16.6v9.1h45.4v-8.7h16.2v8h22.3v-5.1h35.2v5.6h101v-13.3h82.9v2.4h13.6l10.8-10.8v-13.3h-2.5v-39.4h3.7v-40.6h-12.4v-39.1h12.4c0-.1-2.4-.1-2.4-.1l.5-278.4h2.1Z"/>
  <polyline class="st1" points="834.7 187.4 834.7 190.6 866.3 190.6 866.3 187"/>
  <rect class="st4" x="709.2" y="249.8" width="18.2" height="10.9"/>
  <polyline class="st3" points="493.9 644.7 474.1 644.7 474.4 570.3 494.2 570.3"/>
  <polyline class="st1" points="631.4 641.2 631.4 570.4 671.6 570.3 671.6 637.3"/>
  <path class="st3" d="M552.7,633.4v9.5h-20.1v-4.2h-38.8l-.3-68.3h16l2.4,3.8h19v20.6h-2.6v22.7h24.4s.1,15.9,0,16.1h0Z"/>
  <polyline class="st1" points="671.6 570.3 711.3 570.3 711.3 574.4"/>
  <polyline class="st1" points="708.5 276.5 743 276.5 743 260.4 708.8 260.4"/>
  <line class="st1" x1="481.4" y1="559.6" x2="481.4" y2="533.1"/>
  <polyline class="st1" points="429.6 528.9 443.9 543.3 432.2 554.6"/>
  <polygon class="st1" points="420.2 542.4 408.8 529.6 419.6 518.8 432.1 531.4 420.2 542.4"/>
  <polygon class="st1" points="432.2 554.6 420.4 542.6 432.1 531.3 443.9 543.1 432.2 554.6"/>
  <polyline class="st1" points="362.6 298.5 372.8 347.3 378.5 378.9 380.5 390.1 420 382.7 418.1 374.2 394.7 378.5 374.7 278.2"/>
  <line class="st1" x1="512.4" y1="559.7" x2="481.3" y2="559.7"/>
  <g>
    <polygon class="st1" points="382.3 356.5 384.6 368.9 377.6 370.1 375.3 357.7 382.3 356.5"/>
    <rect class="st5" x="384.1" y="358.2" width="7.1" height="10" transform="translate(-56.2 71.3) rotate(-9.8)"/>
    <line class="st1" x1="377.1" y1="367.6" x2="384.2" y2="366.4"/>
    <line class="st1" x1="376.7" y1="365.2" x2="383.7" y2="363.9"/>
    <line class="st1" x1="376.3" y1="362.7" x2="383.3" y2="361.5"/>
    <line class="st1" x1="375.9" y1="360.2" x2="382.9" y2="359"/>
    <line class="st1" x1="375.4" y1="357.7" x2="382.5" y2="356.5"/>
    <line class="st1" x1="384.4" y1="366.2" x2="391.4" y2="365"/>
    <line class="st1" x1="384" y1="363.8" x2="391" y2="362.6"/>
    <line class="st1" x1="383.5" y1="361.3" x2="390.6" y2="360.1"/>
  </g>
  <g>
    <polygon class="st1" points="376.2 441 374.5 431.3 367.7 432.4 369.4 442.1 376.2 441"/>
    <line class="st1" x1="368.5" y1="439.9" x2="375.6" y2="438.6"/>
    <line class="st1" x1="368.1" y1="437.4" x2="375.1" y2="436.2"/>
    <line class="st1" x1="367.7" y1="434.9" x2="374.7" y2="433.7"/>
  </g>
  <g>
    <rect class="st1" x="721.2" y="268.6" width="21.8" height="6.9"/>
    <rect class="st1" x="721.1" y="261.2" width="9.7" height="6.9"/>
    <line class="st1" x1="740.6" y1="275.5" x2="740.6" y2="268.6"/>
    <line class="st1" x1="738.1" y1="275.5" x2="738.1" y2="268.6"/>
    <line class="st1" x1="735.7" y1="275.5" x2="735.7" y2="268.6"/>
    <line class="st1" x1="733.3" y1="275.5" x2="733.3" y2="268.6"/>
    <line class="st1" x1="730.8" y1="275.5" x2="730.8" y2="268.6"/>
    <line class="st1" x1="728.4" y1="275.5" x2="728.4" y2="268.6"/>
    <line class="st1" x1="726" y1="275.5" x2="726" y2="268.6"/>
    <line class="st1" x1="723.5" y1="275.5" x2="723.5" y2="268.6"/>
    <line class="st1" x1="728.4" y1="268.3" x2="728.4" y2="261.4"/>
    <line class="st1" x1="726" y1="268.3" x2="726" y2="261.4"/>
    <line class="st1" x1="723.5" y1="268.3" x2="723.5" y2="261.4"/>
  </g>
  <g>
    <polygon class="st1" points="487.7 551.7 502.5 551.7 502.5 544.4 487.8 544.4 487.7 551.7"/>
    <polygon class="st1" points="502.4 559.3 490 559.4 490.1 552.2 502.5 552 502.4 559.3"/>
    <line class="st1" x1="502.4" y1="544.4" x2="502.3" y2="551.6"/>
    <line class="st1" x1="499.9" y1="544.4" x2="499.9" y2="551.6"/>
    <line class="st1" x1="497.4" y1="544.4" x2="497.4" y2="551.6"/>
    <line class="st1" x1="495" y1="544.4" x2="494.9" y2="551.6"/>
    <line class="st1" x1="492.6" y1="544.4" x2="492.5" y2="551.7"/>
    <line class="st1" x1="490.1" y1="544.4" x2="490.1" y2="551.7"/>
    <line class="st1" x1="497.3" y1="551.9" x2="497.3" y2="559.1"/>
    <line class="st1" x1="499.8" y1="551.9" x2="499.8" y2="559.1"/>
    <line class="st1" x1="494.9" y1="551.9" x2="494.9" y2="559.2"/>
    <line class="st1" x1="492.5" y1="551.9" x2="492.4" y2="559.2"/>
  </g>
  <path class="st1" d="M375.9,420.4l10.2,57.1.2,1.1,1.9,9.6,13.7,70,11.8,12.1h60.7c.1,0,0,12,0,12h-80.7c0-.1,0,61.8,0,61.8l-25.4.3v-8h-12.9l-11.1-11.1v-14.7l-10.9,3.6-15.8-86.2-6.4-34.9,74.9-15.6"/>
  <polygon class="st1" points="819.3 536.7 797 559 785.5 547.6 807.7 525.2 819.3 536.7"/>
  <line class="st1" x1="381.9" y1="452.8" x2="392" y2="450.8"/>
  <polyline class="st1" points="419.9 518.6 408.5 529.8 399.7 486.1 371.1 491.8 369 481.1 386.8 477.6"/>
  <polygon class="st1" points="808.3 548.1 819 536.5 808.1 525.7 796.7 537.1 808.3 548.1"/>
  <polygon class="st1" points="797.5 559 808.2 548.1 796.7 537 786 547.7 797.5 559"/>
  <line class="st1" x1="818.9" y1="537" x2="807.5" y2="525.8"/>
  <polyline class="st1" points="569.8 637.6 575.4 637.6 589.4 632.4 596.3 632.4 609.6 637.8 615.2 637.8"/>
  <rect class="st1" x="552.9" y="587.1" width="23.7" height="11.3"/>
  <path class="st1" d="M576.2,598.4h21.2v-11.3h-21.1s0,11.6,0,11.3Z"/>
  <polyline class="st1" points="571.6 580.7 571.6 571.1 533.4 571.1 530.8 574.3"/>
  <polyline class="st1" points="571.6 571.1 595.2 571.1 597.4 573.8 611.4 573.8 631.2 573.8 631.2 598.4 597.4 598.4"/>
  <line class="st1" x1="597.2" y1="581.1" x2="597.2" y2="573.8"/>
  <polyline class="st1" points="531 574.2 531 594.7 553 594.7"/>
  <polyline class="st1" points="549 571 549 583.8 552.9 583.8 552.9 587.1"/>
  <rect class="st1" x="528.3" y="594.7" width="24.4" height="22.7"/>
  <polygon class="st3" points="474.3 582.4 405.6 582.1 393.2 582.1 393.2 596.2 368.8 596.2 368.8 645.4 408.6 645.4 408.6 645.3 474.1 645.8 474.3 582.4"/>
  <polyline class="st1" points="402.2 558.7 393.6 558.7 393.6 594"/>
  <line class="st1" x1="393.6" y1="582.2" x2="405.4" y2="582.2"/>
  <polyline class="st1" points="314.4 511.6 324.8 509.8 328.5 512.4 365.9 505.8 361 482.4"/>
  <polygon class="st3" points="365.9 505.8 367.2 512.4 330.1 519.8 331.6 525.6 318.5 528 316.9 528.4 333.5 614.5 344.6 611.1 344.6 625.9 355.6 637.1 368.6 637.1 368.6 596.2 393.6 596.2 393.6 558.7 401.9 558.6 401.9 556.7 418.2 540.2 408.7 529.5 399.6 486.2 371.1 491.8 369 481.1 361 482.7 365.9 505.8"/>
  <path class="st3" d="M817.2,608.8v-22.6l-15.6-16h-51s-16.7,0-16.7,0l-3.6,4.3h-19.3c0-.1,0,69.2,0,69.2h78.5v-34.9s27.1,0,27.6,0h0Z"/>
  <line class="st1" x1="508.5" y1="430.4" x2="508.5" y2="487.6"/>
  <line class="st1" x1="524.3" y1="430.4" x2="524.3" y2="487.6"/>
  <line class="st1" x1="540.1" y1="430.4" x2="540.1" y2="487.6"/>
  <line class="st1" x1="555.9" y1="430.4" x2="555.9" y2="487.6"/>
  <line class="st1" x1="571.9" y1="430.4" x2="571.9" y2="487.6"/>
  <line class="st1" x1="587.4" y1="430.4" x2="587.4" y2="487.6"/>
  <line class="st1" x1="619.6" y1="430.4" x2="619.6" y2="487.6"/>
  <line class="st1" x1="603.2" y1="430.4" x2="603.2" y2="487.6"/>
  <line class="st1" x1="537.5" y1="521.3" x2="537.5" y2="550.7"/>
  <line class="st1" x1="524.3" y1="521.3" x2="524.3" y2="550.7"/>
  <line class="st1" x1="641.8" y1="521.3" x2="641.8" y2="550.7"/>
  <line class="st1" x1="655.7" y1="521.3" x2="655.7" y2="550.7"/>
  <path class="st1" d="M669.9,550.7v-29.4s4.7,0,4.7,0v29.4"/>
  <line class="st1" x1="688.9" y1="521.3" x2="688.9" y2="550.7"/>
  <line class="st1" x1="703.4" y1="521.3" x2="703.4" y2="550.7"/>
  <line class="st1" x1="718.8" y1="521.3" x2="718.8" y2="550.7"/>
  <line class="st1" x1="733.6" y1="521.3" x2="733.6" y2="550.7"/>
  <path class="st1" d="M747.6,550.7v-29.4s4.6-.1,4.7,0v29.4"/>
  <polyline class="st1" points="771.1 550.7 771.1 521.3 779.4 521.3"/>
  <polygon class="st1" points="779.4 550.8 779.4 521.3 803.6 521.3 807.7 525.2 782.2 550.8 779.4 550.8"/>
  <polyline class="st1" points="552.9 550.7 552.9 521.3 558.9 521.3 558.9 550.7"/>
  <line class="st1" x1="573.4" y1="521.3" x2="573.4" y2="550.7"/>
  <path class="st1" d="M587.4,550.7v-29.4h6v29.4"/>
  <line class="st1" x1="608.2" y1="521.3" x2="608.2" y2="550.7"/>
  <line class="st1" x1="622.2" y1="520.7" x2="622.2" y2="550.1"/>
  <line class="st1" x1="633.6" y1="430.4" x2="633.6" y2="487.6"/>
  <line class="st1" x1="651.5" y1="431.2" x2="651.5" y2="488.3"/>
  <line class="st1" x1="668.1" y1="430.4" x2="668.1" y2="487.6"/>
  <line class="st1" x1="666.5" y1="340.4" x2="666.5" y2="397.5"/>
  <line class="st1" x1="650.9" y1="340.4" x2="650.9" y2="397.5"/>
  <line class="st1" x1="635.2" y1="340.4" x2="635.2" y2="397.5"/>
  <line class="st1" x1="619.2" y1="340.4" x2="619.2" y2="397.5"/>
  <line class="st1" x1="603.4" y1="340.4" x2="603.4" y2="397.5"/>
  <line class="st1" x1="587.6" y1="340.4" x2="587.6" y2="397.5"/>
  <line class="st1" x1="571.8" y1="340.4" x2="571.8" y2="397.5"/>
  <line class="st1" x1="555.9" y1="340.4" x2="555.9" y2="397.5"/>
  <line class="st1" x1="540.2" y1="340.4" x2="540.2" y2="397.5"/>
  <line class="st1" x1="524.5" y1="340.4" x2="524.5" y2="397.5"/>
  <line class="st1" x1="508.8" y1="340.4" x2="508.8" y2="397.5"/>
  <line class="st1" x1="493.3" y1="340.4" x2="493.3" y2="397.5"/>
  <line class="st1" x1="473.9" y1="340.4" x2="473.9" y2="369.3"/>
  <line class="st1" x1="478" y1="340.4" x2="478" y2="369.3"/>
  <line class="st1" x1="710.9" y1="368.9" x2="477.9" y2="368.9"/>
  <line class="st1" x1="680.7" y1="340.4" x2="680.7" y2="397.5"/>
  <polyline class="st1" points="711 340.4 711 450.8 750.4 450.8"/>
  <line class="st1" x1="778.7" y1="340.4" x2="778.7" y2="370.7"/>
  <line class="st1" x1="697.8" y1="458.9" x2="697.8" y2="487.6"/>
  <line class="st1" x1="711.2" y1="450.9" x2="711.2" y2="487.6"/>
  <line class="st1" x1="707.2" y1="430.6" x2="707.2" y2="459.3"/>
  <line class="st1" x1="720.9" y1="458.9" x2="720.9" y2="487.6"/>
  <line class="st1" x1="734.5" y1="458.9" x2="734.5" y2="487.6"/>
  <line class="st1" x1="793.6" y1="451" x2="793.6" y2="487.3"/>
  <line class="st1" x1="748.6" y1="458.9" x2="748.6" y2="487.6"/>
  <line class="st1" x1="793.3" y1="469.8" x2="779.3" y2="469.8"/>
  <line class="st1" x1="779.5" y1="458.9" x2="779.5" y2="487.3"/>
  <line class="st1" x1="823" y1="483" x2="793.5" y2="483"/>
  <line class="st1" x1="823" y1="486.9" x2="793.5" y2="486.9"/>
  <line class="st1" x1="823" y1="468.6" x2="793.5" y2="468.6"/>
  <line class="st1" x1="823" y1="454" x2="793.5" y2="454"/>
  <polyline class="st1" points="682.8 458.9 477.4 458.9 477.4 430.7 469.2 430.9 480.8 487.3 493.2 487.6 493.2 430.4"/>
  <line class="st1" x1="471.6" y1="442.3" x2="477.5" y2="436.7"/>
  <line class="st1" x1="472.2" y1="445.8" x2="477.5" y2="440.6"/>
  <line class="st1" x1="472.8" y1="448.8" x2="477.5" y2="444.2"/>
  <line class="st1" x1="473.3" y1="451.9" x2="477.5" y2="447.7"/>
  <line class="st1" x1="474" y1="455.1" x2="477.5" y2="451.7"/>
  <line class="st1" x1="474.7" y1="458" x2="477.5" y2="455.2"/>
  <line class="st1" x1="476" y1="463.9" x2="481.2" y2="458.9"/>
  <line class="st1" x1="476.5" y1="467.1" x2="484.8" y2="459.1"/>
  <line class="st1" x1="477.3" y1="470" x2="488.3" y2="459.2"/>
  <line class="st1" x1="477.8" y1="473.3" x2="492.1" y2="458.8"/>
  <line class="st1" x1="478.6" y1="476.2" x2="493.3" y2="461.5"/>
  <line class="st1" x1="479.2" y1="479.3" x2="493.1" y2="465.3"/>
  <line class="st1" x1="480" y1="482.2" x2="493.1" y2="469"/>
  <line class="st1" x1="480.5" y1="485.3" x2="493" y2="472.9"/>
  <line class="st1" x1="482.2" y1="487.3" x2="493.3" y2="476.4"/>
  <line class="st1" x1="486.3" y1="487.4" x2="493.3" y2="480.5"/>
  <line class="st1" x1="489.9" y1="487.4" x2="493.3" y2="484"/>
  <line class="st1" x1="470.7" y1="439.5" x2="477.5" y2="433"/>
  <line class="st1" x1="470.1" y1="436.6" x2="476.1" y2="430.7"/>
  <line class="st1" x1="469.6" y1="433.7" x2="472.5" y2="430.7"/>
  <line class="st1" x1="457.6" y1="249.4" x2="457.6" y2="277.9"/>
  <polyline class="st1" points="276 216.3 288.1 216.3 288.1 191 329.8 191 362.5 191"/>
  <path class="st1" d="M484.5,249.4v57.1s-10.7.2-10.7,0v-57.1h10.7Z"/>
  <line class="st1" x1="497.9" y1="249.4" x2="497.9" y2="306.6"/>
  <path class="st1" d="M519.6,249.4v57.1c.2.2-7.6,0-7.6,0v-57.1s7.7-.2,7.6,0h0Z"/>
  <line class="st1" x1="533.8" y1="249.4" x2="533.8" y2="306.6"/>
  <path class="st1" d="M570.8,249.8v56.8h5.7v-56.8s-5.5-.2-5.7,0Z"/>
  <path class="st1" d="M556.3,306.6v-57.1c.1-.1-8.5,0-8.5,0v57.1s8.4.2,8.5,0Z"/>
  <line class="st1" x1="589.4" y1="250.2" x2="589.4" y2="307.3"/>
  <path class="st1" d="M603.8,307.3v-57.1s11.9.2,11.8,0v27.6"/>
  <path class="st1" d="M629.6,277.8v-27.6s8.1.1,8,0v27.6"/>
  <line class="st1" x1="651.8" y1="250.2" x2="651.8" y2="277.8"/>
  <path class="st1" d="M666.1,277.8v-27.6s7.4-.1,7.4,0v27.6"/>
  <line class="st1" x1="687.9" y1="250.2" x2="687.9" y2="277.8"/>
  <line class="st1" x1="758.4" y1="250.2" x2="758.4" y2="306.5"/>
  <line class="st1" x1="772.6" y1="250.2" x2="772.6" y2="306.5"/>
  <line class="st1" x1="726.9" y1="276.4" x2="726.9" y2="306.5"/>
  <line class="st1" x1="712.7" y1="276.4" x2="712.7" y2="306.5"/>
  <path class="st1" d="M791.6,306.5v-56.3c.1-.1-4.9,0-4.9,0v56.3s4.6-.3,4.9,0Z"/>
  <line class="st1" x1="805.4" y1="250.2" x2="805.4" y2="306.5"/>
  <line class="st1" x1="819.5" y1="250.2" x2="819.5" y2="306.5"/>
  <line class="st1" x1="819.4" y1="277.9" x2="758" y2="277.9"/>
  <line class="st1" x1="702.4" y1="250.2" x2="702.4" y2="277.8"/>
  <polyline class="st1" points="702.4 277.9 442.6 277.9 442.6 249.7 434.4 249.9 445.9 306.3 454.6 306.6 454.5 277.7"/>
  <line class="st1" x1="436.8" y1="261.3" x2="442.6" y2="255.7"/>
  <line class="st1" x1="437.4" y1="264.8" x2="442.6" y2="259.6"/>
  <line class="st1" x1="438" y1="267.8" x2="442.6" y2="263.2"/>
  <line class="st1" x1="438.5" y1="270.9" x2="442.6" y2="266.7"/>
  <line class="st1" x1="439.2" y1="274.1" x2="442.6" y2="270.7"/>
  <line class="st1" x1="439.9" y1="277" x2="442.6" y2="274.2"/>
  <line class="st1" x1="441.2" y1="282.9" x2="446.4" y2="277.9"/>
  <line class="st1" x1="441.6" y1="286.1" x2="450.2" y2="277.9"/>
  <line class="st1" x1="442.5" y1="289" x2="453.8" y2="277.9"/>
  <line class="st1" x1="442.9" y1="292.3" x2="454.4" y2="280.9"/>
  <line class="st1" x1="443.8" y1="295.2" x2="454.5" y2="284.6"/>
  <line class="st1" x1="444.4" y1="298.3" x2="454.5" y2="288"/>
  <line class="st1" x1="445.2" y1="301.2" x2="454.5" y2="291.7"/>
  <line class="st1" x1="445.7" y1="304.3" x2="454.6" y2="295.5"/>
  <line class="st1" x1="447.4" y1="306.3" x2="454.5" y2="299.2"/>
  <line class="st1" x1="451.5" y1="306.4" x2="454.5" y2="303.3"/>
  <line class="st1" x1="435.9" y1="258.5" x2="442.6" y2="252"/>
  <line class="st1" x1="435.3" y1="255.6" x2="441.3" y2="249.7"/>
  <line class="st1" x1="434.8" y1="252.7" x2="437.7" y2="249.7"/>
  <g>
    <line class="st1" x1="454" y1="352.4" x2="459.4" y2="347.3"/>
    <line class="st1" x1="454.6" y1="355.9" x2="459.4" y2="351.3"/>
    <line class="st1" x1="455.3" y1="358.9" x2="459.5" y2="354.7"/>
    <line class="st1" x1="455.8" y1="362" x2="459.4" y2="358.4"/>
    <line class="st1" x1="456.4" y1="365.2" x2="459.4" y2="362.3"/>
    <line class="st1" x1="457.1" y1="368.1" x2="459.4" y2="365.8"/>
    <line class="st1" x1="459.4" y1="378.8" x2="464.8" y2="373.4"/>
    <line class="st1" x1="459.5" y1="382.1" x2="468.5" y2="373.4"/>
    <line class="st1" x1="460.1" y1="385.2" x2="472.2" y2="373.7"/>
    <line class="st1" x1="461" y1="388.4" x2="475.9" y2="373.4"/>
    <line class="st1" x1="461.6" y1="391.6" x2="477.5" y2="375.4"/>
    <line class="st1" x1="462.3" y1="394.1" x2="477.6" y2="379.1"/>
    <line class="st1" x1="463.4" y1="397" x2="477.5" y2="383"/>
    <line class="st1" x1="466.7" y1="397.4" x2="477.8" y2="386.5"/>
    <line class="st1" x1="470.8" y1="397.5" x2="477.7" y2="390.6"/>
    <line class="st1" x1="453.2" y1="349.6" x2="459.3" y2="343.8"/>
    <line class="st1" x1="452.6" y1="346.7" x2="459.4" y2="340.2"/>
    <line class="st1" x1="452.1" y1="343.8" x2="455.7" y2="340.1"/>
  </g>
  <line class="st1" x1="682.9" y1="431.2" x2="682.9" y2="488.3"/>
  <g>
    <line class="st1" x1="686.9" y1="460.2" x2="693.1" y2="454.4"/>
    <line class="st1" x1="687.1" y1="463.6" x2="693.1" y2="457.8"/>
    <line class="st1" x1="686.9" y1="467.4" x2="693" y2="461.4"/>
    <line class="st1" x1="686.9" y1="471.1" x2="693" y2="465.3"/>
    <line class="st1" x1="686.9" y1="475.1" x2="693" y2="469.3"/>
    <line class="st1" x1="686.8" y1="478.6" x2="693" y2="472.5"/>
    <line class="st1" x1="686.9" y1="482.2" x2="693" y2="476.2"/>
    <line class="st1" x1="687.1" y1="485.8" x2="693" y2="480.1"/>
    <line class="st1" x1="689.2" y1="487.3" x2="693" y2="483.6"/>
    <line class="st1" x1="687.1" y1="434.4" x2="691.1" y2="430.5"/>
    <line class="st1" x1="686.9" y1="438.2" x2="693" y2="432.2"/>
    <line class="st1" x1="686.9" y1="441.8" x2="693" y2="436"/>
    <line class="st1" x1="686.9" y1="445.8" x2="693" y2="440"/>
    <line class="st1" x1="686.8" y1="449.3" x2="693" y2="443.2"/>
    <line class="st1" x1="686.9" y1="452.9" x2="693" y2="447"/>
    <line class="st1" x1="687.1" y1="456.5" x2="693" y2="450.8"/>
    <rect class="st1" x="687" y="430.5" width="6.1" height="56.9"/>
  </g>
  <g>
    <line class="st1" x1="601.6" y1="550.4" x2="595.1" y2="559.9"/>
    <line class="st1" x1="605.4" y1="550.6" x2="598.9" y2="559.9"/>
    <line class="st1" x1="609.7" y1="550.4" x2="603" y2="559.8"/>
    <line class="st1" x1="613.8" y1="550.3" x2="607.3" y2="559.8"/>
    <line class="st1" x1="618.2" y1="550.3" x2="611.8" y2="559.8"/>
    <line class="st1" x1="622.2" y1="550.2" x2="615.4" y2="559.9"/>
    <line class="st1" x1="626.2" y1="550.4" x2="619.5" y2="559.8"/>
    <line class="st1" x1="630.3" y1="550.6" x2="623.9" y2="559.8"/>
    <line class="st1" x1="632" y1="553.9" x2="627.8" y2="559.9"/>
    <line class="st1" x1="572.6" y1="550.6" x2="568.3" y2="556.8"/>
    <line class="st1" x1="576.9" y1="550.4" x2="570.1" y2="559.8"/>
    <line class="st1" x1="581" y1="550.3" x2="574.4" y2="559.8"/>
    <line class="st1" x1="585.4" y1="550.3" x2="578.9" y2="559.8"/>
    <line class="st1" x1="589.3" y1="550.2" x2="582.5" y2="559.9"/>
    <line class="st1" x1="593.4" y1="550.4" x2="586.7" y2="559.8"/>
    <line class="st1" x1="597.4" y1="550.6" x2="591.1" y2="559.8"/>
    <rect class="st1" x="568.3" y="550.5" width="63.8" height="9.4"/>
  </g>
  <g>
    <line class="st1" x1="687.4" y1="370" x2="695" y2="364.2"/>
    <line class="st1" x1="687.6" y1="373.4" x2="695" y2="367.6"/>
    <line class="st1" x1="687.4" y1="377.2" x2="694.9" y2="371.2"/>
    <line class="st1" x1="687.3" y1="380.9" x2="694.9" y2="375"/>
    <line class="st1" x1="687.3" y1="384.8" x2="694.9" y2="379"/>
    <line class="st1" x1="687.3" y1="388.3" x2="695" y2="382.3"/>
    <line class="st1" x1="687.4" y1="391.9" x2="694.9" y2="386"/>
    <line class="st1" x1="687.6" y1="395.5" x2="694.9" y2="389.9"/>
    <line class="st1" x1="690.2" y1="397.1" x2="695" y2="393.3"/>
    <line class="st1" x1="687.6" y1="344.1" x2="692.5" y2="340.3"/>
    <line class="st1" x1="687.4" y1="347.9" x2="694.9" y2="341.9"/>
    <line class="st1" x1="687.3" y1="351.6" x2="694.9" y2="345.8"/>
    <line class="st1" x1="687.3" y1="355.6" x2="694.9" y2="349.8"/>
    <line class="st1" x1="687.3" y1="359.1" x2="695" y2="353"/>
    <line class="st1" x1="687.4" y1="362.7" x2="694.9" y2="356.7"/>
    <line class="st1" x1="687.6" y1="366.3" x2="694.9" y2="360.6"/>
    <rect class="st1" x="687.5" y="340.3" width="7.5" height="56.9"/>
  </g>
  <g>
    <line class="st1" x1="754.4" y1="487.1" x2="759.4" y2="483.3"/>
    <line class="st1" x1="752" y1="463.2" x2="757" y2="459.4"/>
    <line class="st1" x1="751.9" y1="467.1" x2="759.3" y2="461.1"/>
    <line class="st1" x1="751.8" y1="470.7" x2="759.3" y2="464.9"/>
    <line class="st1" x1="751.8" y1="474.7" x2="759.3" y2="468.9"/>
    <line class="st1" x1="751.7" y1="478.2" x2="759.4" y2="472.1"/>
    <line class="st1" x1="751.9" y1="481.8" x2="759.3" y2="475.8"/>
    <line class="st1" x1="752.1" y1="485.4" x2="759.3" y2="479.7"/>
    <rect class="st1" x="751.9" y="459.4" width="7.5" height="27.8"/>
  </g>
  <g>
    <line class="st1" x1="624.8" y1="549" x2="641.6" y2="535.4"/>
    <line class="st1" x1="628.8" y1="549.3" x2="641.6" y2="539.1"/>
    <line class="st1" x1="633.6" y1="549.3" x2="641.6" y2="542.8"/>
    <line class="st1" x1="637.6" y1="549.3" x2="641.9" y2="546.1"/>
    <line class="st1" x1="622.4" y1="525.2" x2="627.3" y2="521.3"/>
    <line class="st1" x1="622.2" y1="529" x2="631.9" y2="521.5"/>
    <line class="st1" x1="622.2" y1="532.6" x2="636.2" y2="521.5"/>
    <line class="st1" x1="622.2" y1="536.6" x2="640.2" y2="521.7"/>
    <line class="st1" x1="622.1" y1="540.1" x2="641.8" y2="524.1"/>
    <line class="st1" x1="622.3" y1="543.7" x2="641.5" y2="528.1"/>
    <line class="st1" x1="622.4" y1="547.3" x2="641.6" y2="531.6"/>
    <rect class="st1" x="622.3" y="521.3" width="19.3" height="27.8"/>
    <line class="st1" x1="524" y1="550.4" x2="779.3" y2="550.4"/>
    <rect class="st1" x="525.6" y="550.5" width="16.6" height="9.3"/>
    <rect class="st1" x="542.4" y="550.5" width="25.6" height="9.3"/>
  </g>
  <g>
    <line class="st1" x1="752" y1="453.9" x2="755.8" y2="459.3"/>
    <line class="st1" x1="775.7" y1="451.2" x2="779.5" y2="456.6"/>
    <line class="st1" x1="771.9" y1="451" x2="777.9" y2="459.2"/>
    <line class="st1" x1="768.3" y1="451" x2="774.1" y2="459.2"/>
    <line class="st1" x1="764.4" y1="451" x2="770.1" y2="459.2"/>
    <line class="st1" x1="760.9" y1="450.9" x2="766.9" y2="459.3"/>
    <line class="st1" x1="757.3" y1="451.1" x2="763.2" y2="459.2"/>
    <line class="st1" x1="753.7" y1="451.3" x2="759.3" y2="459.2"/>
    <rect class="st1" x="751.9" y="451.1" width="27.7" height="8.2"/>
  </g>
  <g>
    <line class="st1" x1="857.3" y1="444.4" x2="861.1" y2="449.3"/>
    <line class="st1" x1="881" y1="442.1" x2="884.9" y2="446.9"/>
    <line class="st1" x1="877.3" y1="441.9" x2="883.2" y2="449.2"/>
    <line class="st1" x1="873.6" y1="441.9" x2="879.4" y2="449.2"/>
    <line class="st1" x1="869.7" y1="441.9" x2="875.4" y2="449.2"/>
    <line class="st1" x1="866.2" y1="441.8" x2="872.2" y2="449.3"/>
    <line class="st1" x1="862.6" y1="441.9" x2="868.5" y2="449.2"/>
    <line class="st1" x1="859" y1="442.1" x2="864.7" y2="449.2"/>
    <rect class="st1" x="857.2" y="442" width="27.7" height="7.3"/>
  </g>
  <g>
    <line class="st1" x1="857.3" y1="453.4" x2="861.1" y2="458.3"/>
    <line class="st1" x1="881" y1="451" x2="884.9" y2="455.9"/>
    <line class="st1" x1="877.3" y1="450.9" x2="883.2" y2="458.2"/>
    <line class="st1" x1="873.6" y1="450.8" x2="879.4" y2="458.2"/>
    <line class="st1" x1="869.7" y1="450.8" x2="875.4" y2="458.2"/>
    <line class="st1" x1="866.2" y1="450.7" x2="872.2" y2="458.3"/>
    <line class="st1" x1="862.6" y1="450.9" x2="868.5" y2="458.2"/>
    <line class="st1" x1="859" y1="451.1" x2="864.7" y2="458.2"/>
    <rect class="st1" x="857.2" y="450.9" width="27.7" height="7.3"/>
  </g>
  <g>
    <line class="st1" x1="702.2" y1="279.5" x2="708.5" y2="273.8"/>
    <line class="st1" x1="702.3" y1="282.9" x2="708.5" y2="277.2"/>
    <line class="st1" x1="702.2" y1="286.8" x2="708.4" y2="280.8"/>
    <line class="st1" x1="702.2" y1="290.4" x2="708.4" y2="284.6"/>
    <line class="st1" x1="702.2" y1="294.4" x2="708.4" y2="288.6"/>
    <line class="st1" x1="702.1" y1="297.9" x2="708.4" y2="291.8"/>
    <line class="st1" x1="702.2" y1="301.5" x2="708.4" y2="295.5"/>
    <line class="st1" x1="702.4" y1="305.1" x2="708.4" y2="299.4"/>
    <line class="st1" x1="704.1" y1="306.9" x2="708.4" y2="302.9"/>
    <line class="st1" x1="702.3" y1="253.7" x2="706.4" y2="249.8"/>
    <line class="st1" x1="702.2" y1="257.5" x2="708.4" y2="251.5"/>
    <line class="st1" x1="702.2" y1="261.2" x2="708.4" y2="255.3"/>
    <line class="st1" x1="702.2" y1="265.1" x2="708.4" y2="259.3"/>
    <line class="st1" x1="702.1" y1="268.6" x2="708.4" y2="262.6"/>
    <line class="st1" x1="702.2" y1="272.2" x2="708.4" y2="266.3"/>
    <line class="st1" x1="702.4" y1="275.8" x2="708.4" y2="270.2"/>
    <rect class="st1" x="702.3" y="249.8" width="6.2" height="57.1"/>
  </g>
  <g>
    <line class="st1" x1="743.1" y1="279.5" x2="755.7" y2="266.8"/>
    <line class="st1" x1="743.2" y1="282.9" x2="755.6" y2="270.7"/>
    <line class="st1" x1="743.1" y1="286.8" x2="755.7" y2="274.1"/>
    <line class="st1" x1="743" y1="290.4" x2="755.9" y2="277.8"/>
    <line class="st1" x1="743" y1="294.4" x2="755.8" y2="281.6"/>
    <line class="st1" x1="743" y1="297.9" x2="755.8" y2="285.3"/>
    <line class="st1" x1="743.1" y1="301.5" x2="755.6" y2="289.2"/>
    <line class="st1" x1="743.3" y1="305.1" x2="755.7" y2="293"/>
    <line class="st1" x1="745.2" y1="306.8" x2="755.6" y2="296.9"/>
    <line class="st1" x1="748.8" y1="306.7" x2="755.6" y2="300.4"/>
    <line class="st1" x1="752.5" y1="306.8" x2="755.6" y2="303.9"/>
    <line class="st1" x1="736" y1="260.4" x2="746.7" y2="249.8"/>
    <line class="st1" x1="731.4" y1="260.4" x2="742.1" y2="249.8"/>
    <line class="st1" x1="727.8" y1="259.7" x2="737.3" y2="249.8"/>
    <line class="st1" x1="727.9" y1="255" x2="732.8" y2="249.9"/>
    <line class="st1" x1="740.6" y1="260.2" x2="751" y2="249.7"/>
    <line class="st1" x1="743" y1="261.2" x2="754.2" y2="249.8"/>
    <line class="st1" x1="743" y1="265.1" x2="755.7" y2="251.9"/>
    <line class="st1" x1="743" y1="268.6" x2="755.5" y2="255.9"/>
    <line class="st1" x1="743.1" y1="272.2" x2="755.6" y2="260"/>
    <line class="st1" x1="743.3" y1="275.8" x2="755.7" y2="263.4"/>
    <polygon class="st1" points="727.9 249.8 727.9 260.4 743.2 260.4 743.2 306.8 755.7 306.8 755.7 249.8 727.9 249.8"/>
  </g>
  <g>
    <line class="st1" x1="750.4" y1="341.9" x2="752.3" y2="340.1"/>
    <line class="st1" x1="750.6" y1="345.5" x2="755.9" y2="340.2"/>
    <line class="st1" x1="750.4" y1="349.6" x2="760.2" y2="340.4"/>
    <line class="st1" x1="750.4" y1="353.5" x2="764.6" y2="340"/>
    <line class="st1" x1="750.4" y1="357.6" x2="764.6" y2="344"/>
    <line class="st1" x1="750.3" y1="361.4" x2="764.6" y2="348"/>
    <line class="st1" x1="750.5" y1="365.2" x2="764.4" y2="352.1"/>
    <line class="st1" x1="750.6" y1="369.1" x2="764.5" y2="356.2"/>
    <line class="st1" x1="753" y1="370.7" x2="764.4" y2="360.3"/>
    <line class="st1" x1="756.9" y1="370.7" x2="764.4" y2="364"/>
    <line class="st1" x1="760.9" y1="370.9" x2="764.4" y2="367.8"/>
    <rect class="st1" x="750.5" y="340.2" width="14" height="30.6"/>
  </g>
  <g>
    <line class="st1" x1="703.3" y1="522.9" x2="705.4" y2="521.3"/>
    <line class="st1" x1="703.5" y1="526.3" x2="709.4" y2="521.4"/>
    <line class="st1" x1="703.3" y1="530.2" x2="713.2" y2="521.5"/>
    <line class="st1" x1="703.2" y1="533.8" x2="718.1" y2="521.2"/>
    <line class="st1" x1="703.2" y1="537.8" x2="719" y2="524"/>
    <line class="st1" x1="703.2" y1="541.3" x2="719" y2="527.7"/>
    <line class="st1" x1="703.3" y1="544.9" x2="718.9" y2="531.6"/>
    <line class="st1" x1="703.5" y1="548.5" x2="718.9" y2="535.4"/>
    <line class="st1" x1="706.2" y1="550" x2="718.9" y2="539.3"/>
    <line class="st1" x1="710.5" y1="550.1" x2="718.9" y2="542.8"/>
    <line class="st1" x1="715" y1="550.2" x2="718.9" y2="546.3"/>
    <rect class="st1" x="703.4" y="521.4" width="15.6" height="28.7"/>
  </g>
  <line class="st1" x1="693.1" y1="459" x2="749" y2="459"/>
  <polygon class="st1" points="778.3 438.2 778.3 370.7 750.5 370.7 750.5 450.9 806.8 450.9 806.8 438.2 778.3 438.2"/>
  <path class="st1" d="M478,369v28.4c0,.1-.3-23.8-.3-23.8h-18.4v-33.7h-7.9l11.1,57.2h15.5"/>
  <rect class="st1" x="459.2" y="369" width="18.6" height="4.4"/>
  <rect class="st1" x="603.6" y="278" width="98.7" height="28.9"/>
  <rect class="st1" x="779.5" y="451" width="13.9" height="35.9"/>
  <rect class="st1" x="806.8" y="403.7" width="13.7" height="44.4"/>
  <rect class="st1" x="806.8" y="370.7" width="13.7" height="33.1"/>
  <line class="st1" x1="301.8" y1="216.2" x2="301.8" y2="190.9"/>
  <polyline class="st1" points="303.2 249.7 303.2 278.2 303.2 294.4"/>
  <polyline class="st1" points="318.6 249.7 318.6 278.2 318.6 291.3"/>
  <polyline class="st1" points="333.8 249.7 333.8 278.2 333.8 288.7"/>
  <line class="st1" x1="348.7" y1="278.2" x2="348.7" y2="249.7"/>
  <line class="st1" x1="289.3" y1="278.2" x2="289.3" y2="249.7"/>
  <polyline class="st1" points="314.5 190.9 314.5 216.2 321.6 216.2 321.6 190.9"/>
  <path class="st1" d="M334.8,190.9v25.3s2.6.1,2.6,0v-25.3"/>
  <path class="st1" d="M350.5,190.9v25.3s12.1.1,12.1,0v-29.4"/>
  <line class="st1" x1="376.9" y1="216.2" x2="376.9" y2="186.8"/>
  <path class="st1" d="M391.2,186.8v29.4s9.7,0,9.6,0v-29.4"/>
  <line class="st1" x1="415" y1="216.2" x2="415" y2="186.8"/>
  <path class="st1" d="M429.1,186.8v29.4s11,.1,11.2,0v-29.4"/>
  <line class="st1" x1="454.6" y1="216.2" x2="454.6" y2="186.8"/>
  <path class="st1" d="M468.8,186.8v29.4h11.1v-29.4"/>
  <line class="st1" x1="494.2" y1="216.2" x2="494.2" y2="186.8"/>
  <path class="st1" d="M508.3,186.8v29.4s11.4.1,11.3,0v-29.4"/>
  <line class="st1" x1="533.7" y1="216.2" x2="533.7" y2="186.8"/>
  <polyline class="st1" points="547.9 186.8 547.9 216.2 556.5 216.2 556.5 186.8"/>
  <polyline class="st1" points="570.8 186.8 570.8 216.2 578.4 216.2 578.4 186.5"/>
  <line class="st1" x1="592.9" y1="216.2" x2="592.9" y2="186.5"/>
  <polyline class="st1" points="607.2 186.5 607.2 216.2 615.9 216.2 615.9 186.5"/>
  <polyline class="st1" points="630.1 186.5 630.1 216.2 637.7 216.2 637.7 186.5"/>
  <line class="st1" x1="651.9" y1="216.2" x2="651.9" y2="186.5"/>
  <polyline class="st1" points="666.2 186.5 666.2 216.2 677.3 216.2 677.3 186.5"/>
  <line class="st1" x1="691.4" y1="216.2" x2="691.4" y2="186.5"/>
  <polyline class="st1" points="705.8 186.5 705.8 216.2 716.9 216.2 716.9 187.7"/>
  <line class="st1" x1="731.2" y1="216.2" x2="731.2" y2="187.7"/>
  <polyline class="st1" points="745.1 187.7 745.1 216.2 756.2 216.2 756.2 187.7"/>
  <line class="st1" x1="770.5" y1="216.2" x2="770.5" y2="187.7"/>
  <polyline class="st1" points="784.8 187.7 784.8 216.2 795.9 216.2 795.9 187.7"/>
  <line class="st1" x1="810.1" y1="216.2" x2="810.1" y2="187.7"/>
  <polyline class="st1" points="824.4 187.7 824.4 216.2 841.6 216.2 841.6 190.6"/>
  <line class="st1" x1="854.9" y1="216.2" x2="854.9" y2="190.6"/>
  <line class="st1" x1="856.3" y1="235.4" x2="885.4" y2="235.4"/>
  <path class="st1" d="M885.4,258.2h-29.1s-.2-7.4,0-7.6h29.1"/>
  <line class="st1" x1="856.3" y1="272.4" x2="885.4" y2="272.4"/>
  <path class="st1" d="M885.4,297.8h-29.1s0-11.3,0-11.3h29.1"/>
  <line class="st1" x1="856.3" y1="312" x2="885.4" y2="312"/>
  <polyline class="st1" points="885.4 337.4 856.3 337.4 856.3 326.1 885.4 326.1"/>
  <line class="st1" x1="856.3" y1="351.6" x2="885.4" y2="351.6"/>
  <path class="st1" d="M885.4,376.3h-29.1s0-10.5,0-10.4h29.1"/>
  <line class="st1" x1="856.3" y1="390.7" x2="885.4" y2="390.7"/>
  <polyline class="st1" points="885.4 405.4 856.3 405.4 856.3 413.4 885.4 413.4"/>
  <line class="st1" x1="856.3" y1="427.7" x2="885.4" y2="427.7"/>
  <line class="st1" x1="856.3" y1="472.8" x2="885.4" y2="472.8"/>
  <line class="st1" x1="856.3" y1="487" x2="885.4" y2="487"/>
  <line class="st1" x1="856.7" y1="442" x2="885.4" y2="442"/>
  <polyline class="st1" points="858.4 190.1 858.4 212.7 897 212.7"/>
  <polyline class="st1" points="868.9 212.8 868.9 230.3 897 230.3"/>
  <rect class="st1" x="885.3" y="230.4" width="11.7" height="20.3"/>
  <rect class="st1" x="885.3" y="250.6" width="9.9" height="41.6"/>
  <rect class="st1" x="885.3" y="331.4" width="9.9" height="39.7"/>
  <rect class="st1" x="885.3" y="371.1" width="9.9" height="39.7"/>
  <rect class="st1" x="885.3" y="410.7" width="9.9" height="39.7"/>
  <rect class="st1" x="885.3" y="450.3" width="9.9" height="38.4"/>
  <rect class="st1" x="885.3" y="292" width="9.9" height="39.4"/>
  <rect class="st1" x="856.8" y="487" width="28.1" height="41.9"/>
  <g>
    <line class="st1" x1="348.7" y1="279.6" x2="361.4" y2="266.9"/>
    <line class="st1" x1="348.9" y1="283" x2="361.3" y2="270.8"/>
    <line class="st1" x1="348.7" y1="286.8" x2="361.4" y2="274.2"/>
    <line class="st1" x1="348.7" y1="290.5" x2="361.5" y2="277.9"/>
    <line class="st1" x1="349.1" y1="293.8" x2="361.4" y2="281.6"/>
    <line class="st1" x1="349.2" y1="297.3" x2="361.4" y2="285.3"/>
    <line class="st1" x1="349.6" y1="300.7" x2="361.3" y2="289.3"/>
    <line class="st1" x1="353.4" y1="300.7" x2="361.9" y2="292.5"/>
    <line class="st1" x1="358.5" y1="299.5" x2="362.5" y2="295.9"/>
    <line class="st1" x1="348.9" y1="253.8" x2="352.9" y2="249.9"/>
    <line class="st1" x1="348.7" y1="257.6" x2="356.6" y2="249.8"/>
    <line class="st1" x1="348.7" y1="261.3" x2="359.9" y2="249.9"/>
    <line class="st1" x1="348.7" y1="265.2" x2="361.4" y2="252"/>
    <line class="st1" x1="348.6" y1="268.7" x2="361.1" y2="256"/>
    <line class="st1" x1="348.7" y1="272.3" x2="361.2" y2="260.1"/>
    <line class="st1" x1="348.9" y1="275.9" x2="361.4" y2="263.5"/>
    <polygon class="st1" points="361.4 279.3 361.4 249.9 348.8 249.9 348.8 279.3 348.8 289 349.6 301.7 362.6 298.5 361.4 288.9 361.4 279.3"/>
  </g>
  <line class="st1" x1="778.4" y1="451.1" x2="778.4" y2="438.4"/>
  <polyline class="st1" points="785.1 340 785.1 370.4 799.1 370.4 799.1 340"/>
  <polyline class="st1" points="805.5 340 805.5 370.4 818.8 370.4 818.8 340"/>
  <line class="st1" x1="778.3" y1="370.7" x2="806.8" y2="370.7"/>
  <line class="st1" x1="778.3" y1="381.3" x2="806.8" y2="381.3"/>
  <line class="st1" x1="779.6" y1="527.8" x2="786.1" y2="521.3"/>
  <line class="st1" x1="779.6" y1="532.6" x2="790.8" y2="521.3"/>
  <line class="st1" x1="779.5" y1="537.5" x2="796.1" y2="521.2"/>
  <line class="st1" x1="779.6" y1="542.6" x2="800.9" y2="521.3"/>
  <line class="st1" x1="779.5" y1="547.4" x2="804.7" y2="522.1"/>
  <polyline class="st1" points="819.3 536.7 823.5 541.2 830.2 553.6 830 630.7"/>
  <polyline class="st1" points="829.8 567.3 814.6 567.3 810.1 562.6 826.5 546.8"/>
  <polyline class="st1" points="864.1 529.2 864.1 544.9 868.3 544.9 868.1 609.1 865.1 609.1 865.1 629.7 873.5 629.7 873.5 633.7"/>
  <line class="st1" x1="868.3" y1="544.9" x2="899.2" y2="544.9"/>
  <g>
    <polygon class="st1" points="871.9 529.5 897.7 529.4 897.7 536.9 871.9 537 871.9 529.5"/>
    <line class="st1" x1="895" y1="529.4" x2="895" y2="536.9"/>
    <line class="st1" x1="892" y1="529.5" x2="892" y2="536.9"/>
    <line class="st1" x1="889.2" y1="529.5" x2="889.2" y2="537"/>
    <line class="st1" x1="886.2" y1="529.5" x2="886.3" y2="537"/>
    <line class="st1" x1="883.4" y1="529.5" x2="883.4" y2="537"/>
    <line class="st1" x1="880.5" y1="529.5" x2="880.5" y2="537"/>
    <line class="st1" x1="877.6" y1="529.5" x2="877.6" y2="537"/>
    <line class="st1" x1="874.7" y1="529.5" x2="874.7" y2="537"/>
  </g>
  <polygon class="st1" points="388.6 250.1 399.3 250.1 404.5 275.6 388.5 277.8 388.6 250.1"/>
  <line class="st1" x1="282.8" y1="278" x2="348.8" y2="278"/>
  <line class="st1" x1="361.5" y1="278" x2="388.3" y2="278"/>
  <line class="st1" x1="286.5" y1="297.9" x2="348.2" y2="285.6"/>
  <line class="st1" x1="355.7" y1="324" x2="349.6" y2="301.7"/>
  <polyline class="st1" points="305.1 393.6 368 381.3 355.9 323.7"/>
  <polyline class="st1" points="316.9 452.9 369.8 442.1 365.6 422.2 375.9 420.4 368 381.3"/>
  <polyline class="st1" points="331.7 449.8 336.2 469.6 382.8 460"/>
  <line class="st1" x1="323.4" y1="463.7" x2="334.5" y2="461"/>
  <line class="st1" x1="326.7" y1="478.8" x2="383.9" y2="467.6"/>
  <line class="st1" x1="403" y1="418.8" x2="431.4" y2="413.2"/>
  <polyline class="st1" points="400.2 405.9 428.6 400.3 427.1 391.8 398.8 396.9 413.4 468.3 441.3 462.7 442.5 469.6 415.1 474.1 417.9 489.5 445.2 483.9"/>
  <polyline class="st1" points="409.6 450.1 437.2 444.6 437.9 448.5 410.4 454"/>
  <polyline class="st1" points="406.1 432.6 434.4 427 435 430.6 406.8 436.1"/>
  <polyline class="st1" points="411.9 461.6 394.6 465.5 387.6 427.6 377.4 429.3"/>
  <polyline class="st1" points="421.8 520.6 431.6 510.1 454.2 532.7 443.6 543.3"/>
  <polyline class="st1" points="443.7 542.9 460 559.7 482.1 559.7"/>
  <line class="st1" x1="401.7" y1="557.1" x2="418.2" y2="540.1"/>
  <polyline class="st1" points="453.6 532.6 481.8 533 481.8 543"/>
  <line class="st1" x1="633.5" y1="550.8" x2="779.4" y2="550.8"/>
  <rect class="st0" x="481.9" y="521.3" width="32.6" height="22.8"/>
  <polyline class="st1" points="407.3 463 412.8 495.1 440.8 489.5 443.9 507.4 436.3 515.1"/>
  <line class="st1" x1="722.8" y1="574.2" x2="722.8" y2="559.6"/>
  <polyline class="st1" points="632.1 559.9 796.5 560.4 797.5 559"/>
  <line class="st1" x1="363" y1="299" x2="378.2" y2="295.8"/>
  <line class="st1" x1="366.1" y1="314.8" x2="381.6" y2="311.4"/>
  <line class="st1" x1="372.8" y1="349" x2="388.2" y2="346.5"/>
  <line class="st1" x1="420" y1="382.7" x2="422.1" y2="392.9"/>
  <line class="st1" x1="387.6" y1="427.6" x2="380.5" y2="390.1"/>
  <line class="st1" x1="389.9" y1="438.4" x2="406.7" y2="435"/>
  <line class="st1" x1="406.8" y1="520.6" x2="419.6" y2="518.6"/>
  <path class="st8" d="M334.8,181.8v5.4h-17v-5.4h17M335.8,180.8h-19v7.4h19v-7.4h0Z"/>
  <path class="st8" d="M353.2,181.8v5.4h-15.3v-5.4h15.3M354.2,180.8h-17.3v7.4h17.3v-7.4h0Z"/>
  <path class="st8" d="M862.8,181.8v5.8h-24.4v-5.8h24.4M863.8,180.8h-26.4v7.8h26.4v-7.8h0Z"/>
  <line class="st1" x1="380.6" y1="305.3" x2="409.5" y2="299.6"/>
  <line class="st1" x1="383.3" y1="320.1" x2="412" y2="314.4"/>
  <line class="st1" x1="369.8" y1="332.9" x2="385.2" y2="329.6"/>
  <g>
    <polygon class="st1" points="380.8 489.3 388.2 487.7 386.1 477.6 378.7 479.3 380.8 489.3"/>
    <line class="st1" x1="380.4" y1="478.4" x2="382.6" y2="488.8"/>
    <line class="st1" x1="382.3" y1="478.1" x2="384.6" y2="488.4"/>
    <line class="st1" x1="384.1" y1="477.6" x2="386.3" y2="487.9"/>
  </g>
  <line class="st1" x1="509.6" y1="559.4" x2="509.6" y2="570.6"/>
  <line class="st1" x1="460" y1="559.7" x2="460" y2="570.2"/>
  <line class="st1" x1="817.2" y1="629.8" x2="817.2" y2="608.8"/>
  <polyline class="st1" points="442.6 500 436.9 500.1 429.3 507.8 431.6 510.1"/>
  <polyline class="st1" points="361.4 249.9 369.1 249.8 369.1 278.1"/>
  <polygon class="st7" points="587.7 655.4 591.3 649.1 594.9 655.4 587.7 655.4"/>
  <polygon class="st7" points="314.8 478 321.7 480.4 316.2 485.1 314.8 478"/>
  <g>
    <path class="st8" d="M378,266.1c0,0-.2,0-.3,0-.8-.2-1.4-.9-1.5-1.8,0-.8.4-1.6,1.1-2,0,0,0,0,.1,0,0,.1,0,.3,0,.4,0,0,0,.1-.1.1-.6.4-.8.9-.7,1.6.1.7.5,1.1,1.2,1.3.7.2,1.5-.2,1.8-.8,0,0,0-.1,0-.2,0,.2.1.3.2.5,0,0,0,.1,0,.2-.3.5-.8.8-1.3.8,0,0,0,0,0,0h-.5s0,0,0,0Z"/>
    <path class="st8" d="M378.5,259.6s0,0,.1,0c.3.1.4.4.3.8,0,.3-.3.5-.7.5-.3,0-.6-.2-.6-.5,0-.3,0-.6.4-.7,0,0,0,0,.1,0h.3s0,0,0,0Z"/>
    <path class="st8" d="M379,262c.3,0,.7,0,1,0,.2,0,.3,0,.3.2,0,.2,0,.3-.3.3-.3,0-.6,0-.9,0,0,0-.1,0-.2,0v.8s0,0,.1,0c.3,0,.6,0,1,0,.2,0,.3,0,.4.3.1.3.2.6.3.9,0,.1,0,.2.2.1.1,0,.2,0,.3,0,.2,0,.3.1.3.3,0,.2-.1.3-.3.3-.3,0-.6,0-.8,0,0,0,0,0-.1-.1-.1-.3-.2-.6-.3-.9,0-.1,0-.2-.2-.2-.4,0-.9,0-1.3,0-.4,0-.7-.3-.7-.6,0-.6,0-1.3,0-1.9,0,0,0-.1,0-.2,0-.2.2-.3.4-.3.2,0,.4,0,.4.2.1.2.2.5.3.8h0Z"/>
  </g>
  <g>
    <path class="st8" d="M397.2,313.1c0,0-.2,0-.3,0-.8-.2-1.4-.9-1.5-1.8,0-.8.4-1.6,1.1-2,0,0,0,0,.1,0,0,.1,0,.3,0,.4,0,0,0,.1-.1.1-.6.4-.8.9-.7,1.6.1.7.5,1.1,1.2,1.3.7.2,1.5-.2,1.8-.8,0,0,0-.1,0-.2,0,.2.1.3.2.5,0,0,0,.1,0,.2-.3.5-.8.8-1.3.8,0,0,0,0,0,0h-.5s0,0,0,0Z"/>
    <path class="st8" d="M397.7,306.6s0,0,.1,0c.3.1.4.4.3.8,0,.3-.3.5-.7.5-.3,0-.6-.2-.6-.5,0-.3,0-.6.4-.7,0,0,0,0,.1,0h.3s0,0,0,0Z"/>
    <path class="st8" d="M398.2,309.1c.3,0,.7,0,1,0,.2,0,.3,0,.3.2,0,.2,0,.3-.3.3-.3,0-.6,0-.9,0,0,0-.1,0-.2,0v.8s0,0,.1,0c.3,0,.6,0,1,0,.2,0,.3,0,.4.3.1.3.2.6.3.9,0,.1,0,.2.2.1.1,0,.2,0,.3,0,.2,0,.3.1.3.3,0,.2-.1.3-.3.3-.3,0-.6,0-.8,0,0,0,0,0-.1-.1-.1-.3-.2-.6-.3-.9,0-.1,0-.2-.2-.2-.4,0-.9,0-1.3,0-.4,0-.7-.3-.7-.6,0-.6,0-1.3,0-1.9,0,0,0-.1,0-.2,0-.2.2-.3.4-.3.2,0,.4,0,.4.2.1.2.2.5.3.8h0Z"/>
  </g>
  <g>
    <path class="st8" d="M415.9,412.4c0,0-.2,0-.3,0-.8-.2-1.4-.9-1.5-1.8,0-.8.4-1.6,1.1-2,0,0,0,0,.1,0,0,.1,0,.3,0,.4,0,0,0,.1-.1.1-.6.4-.8.9-.7,1.6.1.7.5,1.1,1.2,1.3.7.2,1.5-.2,1.8-.8,0,0,0-.1,0-.2,0,.2.1.3.2.5,0,0,0,.1,0,.2-.3.5-.8.8-1.3.8,0,0,0,0,0,0h-.5s0,0,0,0Z"/>
    <path class="st8" d="M416.4,405.9s0,0,.1,0c.3.1.4.4.3.8,0,.3-.3.5-.7.5-.3,0-.6-.2-.6-.5,0-.3,0-.6.4-.7,0,0,0,0,.1,0h.3s0,0,0,0Z"/>
    <path class="st8" d="M416.9,408.4c.3,0,.7,0,1,0,.2,0,.3,0,.3.2,0,.2,0,.3-.3.3-.3,0-.6,0-.9,0,0,0-.1,0-.2,0v.8s0,0,.1,0c.3,0,.6,0,1,0,.2,0,.3,0,.4.3.1.3.2.6.3.9,0,.1,0,.2.2.1.1,0,.2,0,.3,0,.2,0,.3.1.3.3,0,.2-.1.3-.3.3-.3,0-.6,0-.8,0,0,0,0,0-.1-.1-.1-.3-.2-.6-.3-.9,0-.1,0-.2-.2-.2-.4,0-.9,0-1.3,0-.4,0-.7-.3-.7-.6,0-.6,0-1.3,0-1.9,0,0,0-.1,0-.2,0-.2.2-.3.4-.3.2,0,.4,0,.4.2.1.2.2.5.3.8h0Z"/>
  </g>
  <g>
    <path class="st8" d="M463.3,295.2c0,0-.2,0-.3,0-.8-.2-1.4-.9-1.5-1.8,0-.8.4-1.6,1.1-2,0,0,0,0,.1,0,0,.1,0,.3,0,.4,0,0,0,.1-.1.1-.6.4-.8.9-.7,1.6.1.7.5,1.1,1.2,1.3.7.2,1.5-.2,1.8-.8,0,0,0-.1,0-.2,0,.2.1.3.2.5,0,0,0,.1,0,.2-.3.5-.8.8-1.3.8,0,0,0,0,0,0h-.5s0,0,0,0Z"/>
    <path class="st8" d="M463.8,288.8s0,0,.1,0c.3.1.4.4.3.8,0,.3-.3.5-.7.5-.3,0-.6-.2-.6-.5,0-.3,0-.6.4-.7,0,0,0,0,.1,0h.3s0,0,0,0Z"/>
    <path class="st8" d="M464.3,291.2c.3,0,.7,0,1,0,.2,0,.3,0,.3.2,0,.2,0,.3-.3.3-.3,0-.6,0-.9,0,0,0-.1,0-.2,0v.8s0,0,.1,0c.3,0,.6,0,1,0,.2,0,.3,0,.4.3.1.3.2.6.3.9,0,.1,0,.2.2.1.1,0,.2,0,.3,0,.2,0,.3.1.3.3,0,.2-.1.3-.3.3-.3,0-.6,0-.8,0,0,0,0,0-.1-.1-.1-.3-.2-.6-.3-.9,0-.1,0-.2-.2-.2-.4,0-.9,0-1.3,0-.4,0-.7-.3-.7-.6,0-.6,0-1.3,0-1.9,0,0,0-.1,0-.2,0-.2.2-.3.4-.3.2,0,.4,0,.4.2.1.2.2.5.3.8h0Z"/>
  </g>
  <g>
    <path class="st8" d="M490.3,295.2c0,0-.2,0-.3,0-.8-.2-1.4-.9-1.5-1.8,0-.8.4-1.6,1.1-2,0,0,0,0,.1,0,0,.1,0,.3,0,.4,0,0,0,.1-.1.1-.6.4-.8.9-.7,1.6.1.7.5,1.1,1.2,1.3.7.2,1.5-.2,1.8-.8,0,0,0-.1,0-.2,0,.2.1.3.2.5,0,0,0,.1,0,.2-.3.5-.8.8-1.3.8,0,0,0,0,0,0h-.5s0,0,0,0Z"/>
    <path class="st8" d="M490.8,288.8s0,0,.1,0c.3.1.4.4.3.8,0,.3-.3.5-.7.5-.3,0-.6-.2-.6-.5,0-.3,0-.6.4-.7,0,0,0,0,.1,0h.3s0,0,0,0Z"/>
    <path class="st8" d="M491.3,291.2c.3,0,.7,0,1,0,.2,0,.3,0,.3.2,0,.2,0,.3-.3.3-.3,0-.6,0-.9,0,0,0-.1,0-.2,0v.8s0,0,.1,0c.3,0,.6,0,1,0,.2,0,.3,0,.4.3.1.3.2.6.3.9,0,.1,0,.2.2.1.1,0,.2,0,.3,0,.2,0,.3.1.3.3,0,.2-.1.3-.3.3-.3,0-.6,0-.8,0,0,0,0,0-.1-.1-.1-.3-.2-.6-.3-.9,0-.1,0-.2-.2-.2-.4,0-.9,0-1.3,0-.4,0-.7-.3-.7-.6,0-.6,0-1.3,0-1.9,0,0,0-.1,0-.2,0-.2.2-.3.4-.3.2,0,.4,0,.4.2.1.2.2.5.3.8h0Z"/>
  </g>
  <g>
    <path class="st8" d="M703.1,476.6c0,0-.2,0-.3,0-.8-.2-1.4-.9-1.5-1.8,0-.8.4-1.6,1.1-2,0,0,0,0,.1,0,0,.1,0,.3,0,.4,0,0,0,.1-.1.1-.6.4-.8.9-.7,1.6.1.7.5,1.1,1.2,1.3.7.2,1.5-.2,1.8-.8,0,0,0-.1,0-.2,0,.2.1.3.2.5,0,0,0,.1,0,.2-.3.5-.8.8-1.3.8,0,0,0,0,0,0h-.5s0,0,0,0Z"/>
    <path class="st8" d="M703.6,470.1s0,0,.1,0c.3.1.4.4.3.8,0,.3-.3.5-.7.5-.3,0-.6-.2-.6-.5,0-.3,0-.6.4-.7,0,0,0,0,.1,0h.3s0,0,0,0Z"/>
    <path class="st8" d="M704.1,472.6c.3,0,.7,0,1,0,.2,0,.3,0,.3.2,0,.2,0,.3-.3.3-.3,0-.6,0-.9,0,0,0-.1,0-.2,0v.8s0,0,.1,0c.3,0,.6,0,1,0,.2,0,.3,0,.4.3.1.3.2.6.3.9,0,.1,0,.2.2.1.1,0,.2,0,.3,0,.2,0,.3.1.3.3,0,.2-.1.3-.3.3-.3,0-.6,0-.8,0,0,0,0,0-.1-.1-.1-.3-.2-.6-.3-.9,0-.1,0-.2-.2-.2-.4,0-.9,0-1.3,0-.4,0-.7-.3-.7-.6,0-.6,0-1.3,0-1.9,0,0,0-.1,0-.2,0-.2.2-.3.4-.3.2,0,.4,0,.4.2.1.2.2.5.3.8h0Z"/>
  </g>
  <g>
    <path class="st8" d="M726.9,476.6c0,0-.2,0-.3,0-.8-.2-1.4-.9-1.5-1.8,0-.8.4-1.6,1.1-2,0,0,0,0,.1,0,0,.1,0,.3,0,.4,0,0,0,.1-.1.1-.6.4-.8.9-.7,1.6.1.7.5,1.1,1.2,1.3.7.2,1.5-.2,1.8-.8,0,0,0-.1,0-.2,0,.2.1.3.2.5,0,0,0,.1,0,.2-.3.5-.8.8-1.3.8,0,0,0,0,0,0h-.5s0,0,0,0Z"/>
    <path class="st8" d="M727.4,470.1s0,0,.1,0c.3.1.4.4.3.8,0,.3-.3.5-.7.5-.3,0-.6-.2-.6-.5,0-.3,0-.6.4-.7,0,0,0,0,.1,0h.3s0,0,0,0Z"/>
    <path class="st8" d="M727.8,472.6c.3,0,.7,0,1,0,.2,0,.3,0,.3.2,0,.2,0,.3-.3.3-.3,0-.6,0-.9,0,0,0-.1,0-.2,0v.8s0,0,.1,0c.3,0,.6,0,1,0,.2,0,.3,0,.4.3.1.3.2.6.3.9,0,.1,0,.2.2.1.1,0,.2,0,.3,0,.2,0,.3.1.3.3,0,.2-.1.3-.3.3-.3,0-.6,0-.8,0,0,0,0,0-.1-.1-.1-.3-.2-.6-.3-.9,0-.1,0-.2-.2-.2-.4,0-.9,0-1.3,0-.4,0-.7-.3-.7-.6,0-.6,0-1.3,0-1.9,0,0,0-.1,0-.2,0-.2.2-.3.4-.3.2,0,.4,0,.4.2.1.2.2.5.3.8h0Z"/>
  </g>
  <g>
    <path class="st8" d="M768.5,476.6c0,0-.2,0-.3,0-.8-.2-1.4-.9-1.5-1.8,0-.8.4-1.6,1.1-2,0,0,0,0,.1,0,0,.1,0,.3,0,.4,0,0,0,.1-.1.1-.6.4-.8.9-.7,1.6.1.7.5,1.1,1.2,1.3.7.2,1.5-.2,1.8-.8,0,0,0-.1,0-.2,0,.2.1.3.2.5,0,0,0,.1,0,.2-.3.5-.8.8-1.3.8,0,0,0,0,0,0h-.5s0,0,0,0Z"/>
    <path class="st8" d="M769,470.1s0,0,.1,0c.3.1.4.4.3.8,0,.3-.3.5-.7.5-.3,0-.6-.2-.6-.5,0-.3,0-.6.4-.7,0,0,0,0,.1,0h.3s0,0,0,0Z"/>
    <path class="st8" d="M769.5,472.6c.3,0,.7,0,1,0,.2,0,.3,0,.3.2,0,.2,0,.3-.3.3-.3,0-.6,0-.9,0,0,0-.1,0-.2,0v.8s0,0,.1,0c.3,0,.6,0,1,0,.2,0,.3,0,.4.3.1.3.2.6.3.9,0,.1,0,.2.2.1.1,0,.2,0,.3,0,.2,0,.3.1.3.3,0,.2-.1.3-.3.3-.3,0-.6,0-.8,0,0,0,0,0-.1-.1-.1-.3-.2-.6-.3-.9,0-.1,0-.2-.2-.2-.4,0-.9,0-1.3,0-.4,0-.7-.3-.7-.6,0-.6,0-1.3,0-1.9,0,0,0-.1,0-.2,0-.2.2-.3.4-.3.2,0,.4,0,.4.2.1.2.2.5.3.8h0Z"/>
  </g>
  <g>
    <path class="st8" d="M490.3,266.8c0,0-.2,0-.3,0-.8-.2-1.4-.9-1.5-1.8,0-.8.4-1.6,1.1-2,0,0,0,0,.1,0,0,.1,0,.3,0,.4,0,0,0,.1-.1.1-.6.4-.8.9-.7,1.6.1.7.5,1.1,1.2,1.3.7.2,1.5-.2,1.8-.8,0,0,0-.1,0-.2,0,.2.1.3.2.5,0,0,0,.1,0,.2-.3.5-.8.8-1.3.8,0,0,0,0,0,0h-.5s0,0,0,0Z"/>
    <path class="st8" d="M490.8,260.3s0,0,.1,0c.3.1.4.4.3.8,0,.3-.3.5-.7.5-.3,0-.6-.2-.6-.5,0-.3,0-.6.4-.7,0,0,0,0,.1,0h.3s0,0,0,0Z"/>
    <path class="st8" d="M491.3,262.8c.3,0,.7,0,1,0,.2,0,.3,0,.3.2,0,.2,0,.3-.3.3-.3,0-.6,0-.9,0,0,0-.1,0-.2,0v.8s0,0,.1,0c.3,0,.6,0,1,0,.2,0,.3,0,.4.3.1.3.2.6.3.9,0,.1,0,.2.2.1.1,0,.2,0,.3,0,.2,0,.3.1.3.3,0,.2-.1.3-.3.3-.3,0-.6,0-.8,0,0,0,0,0-.1-.1-.1-.3-.2-.6-.3-.9,0-.1,0-.2-.2-.2-.4,0-.9,0-1.3,0-.4,0-.7-.3-.7-.6,0-.6,0-1.3,0-1.9,0,0,0-.1,0-.2,0-.2.2-.3.4-.3.2,0,.4,0,.4.2.1.2.2.5.3.8h0Z"/>
  </g>
  <g>
    <g>
      <path class="st8" d="M882.8,588h-3.1v-3.6h-.9v4.3c0,.1.1.2.2.2h4.5c.1,0,.2-.1.2-.2v-4.3h-.9v3.6h0Z"/>
      <path class="st8" d="M884.2,582.6h-1.8v-.7c0-.1-.1-.2-.2-.2h-1.8c-.1,0-.2.1-.2.2v.7h-1.8c-.2,0-.4.2-.4.4v.4c0,.2.2.4.4.4h5.8c.2,0,.4-.2.4-.4v-.4c0-.2-.2-.4-.4-.4h0ZM880.6,582.6v-.4h1.3v.4h-1.3Z"/>
    </g>
    <rect class="st8" x="880.4" y="584.5" width=".5" height="3.9"/>
    <rect class="st8" x="881.6" y="584.5" width=".5" height="3.9"/>
  </g>
  <g>
    <polygon class="st8" points="734.7 395.1 736.5 392.9 738.3 390.6 740.1 392.9 741.9 395.1 739 394 739 397.2 737.5 397.2 737.5 394.1 734.7 395.1"/>
    <polygon class="st8" points="726.2 392.7 724.4 394.9 722.6 397.2 720.8 394.9 719 392.7 721.9 393.8 721.9 390.6 723.4 390.6 723.4 393.7 726.2 392.7"/>
  </g>
  <g>
    <polygon class="st8" points="842.2 279.5 844 277.2 845.8 274.9 847.6 277.2 849.4 279.5 846.5 278.4 846.5 281.6 845.1 281.6 845.1 278.4 842.2 279.5"/>
    <polygon class="st8" points="833.8 277 832 279.3 830.2 281.6 828.4 279.3 826.5 277 829.4 278.1 829.4 274.9 830.9 274.9 830.9 278.1 833.8 277"/>
  </g>
  <g>
    <polygon class="st8" points="842.2 357.1 844 354.8 845.8 352.6 847.6 354.8 849.4 357.1 846.5 356 846.5 359.2 845.1 359.2 845.1 356 842.2 357.1"/>
    <polygon class="st8" points="833.8 354.6 832 356.9 830.2 359.2 828.4 356.9 826.5 354.6 829.4 355.7 829.4 352.6 830.9 352.6 830.9 355.7 833.8 354.6"/>
  </g>
  <g>
    <polygon class="st8" points="842.2 471.8 844 469.5 845.8 467.2 847.6 469.5 849.4 471.8 846.5 470.7 846.5 473.9 845.1 473.9 845.1 470.7 842.2 471.8"/>
    <polygon class="st8" points="833.8 469.3 832 471.6 830.2 473.9 828.4 471.6 826.5 469.3 829.4 470.4 829.4 467.2 830.9 467.2 830.9 470.4 833.8 469.3"/>
  </g>
  <g>
    <polygon class="st8" points="852.9 602.7 854.7 600.5 856.5 598.2 858.3 600.5 860.1 602.7 857.2 601.6 857.2 604.8 855.7 604.8 855.7 601.7 852.9 602.7"/>
    <polygon class="st8" points="844.4 600.3 842.6 602.5 840.8 604.8 839 602.5 837.2 600.3 840.1 601.4 840.1 598.2 841.6 598.2 841.6 601.3 844.4 600.3"/>
  </g>
  <g>
    <polygon class="st8" points="567.3 501.4 565.1 499.6 562.8 497.8 565.1 496 567.3 494.2 566.2 497.1 569.4 497.1 569.4 498.6 566.3 498.6 567.3 501.4"/>
    <polygon class="st8" points="564.9 509.9 567.1 511.7 569.4 513.5 567.1 515.3 564.9 517.1 566 514.2 562.8 514.2 562.8 512.7 565.9 512.7 564.9 509.9"/>
  </g>
  <g>
    <polygon class="st8" points="809.7 501.4 807.4 499.6 805.1 497.8 807.4 496 809.7 494.2 808.6 497.1 811.8 497.1 811.8 498.6 808.6 498.6 809.7 501.4"/>
    <polygon class="st8" points="807.2 509.9 809.5 511.7 811.8 513.5 809.5 515.3 807.2 517.1 808.3 514.2 805.1 514.2 805.1 512.7 808.3 512.7 807.2 509.9"/>
  </g>
  <g>
    <polygon class="st8" points="567.3 411.4 565.1 409.6 562.8 407.8 565.1 406 567.3 404.2 566.2 407 569.4 407 569.4 408.5 566.3 408.5 567.3 411.4"/>
    <polygon class="st8" points="564.9 419.8 567.1 421.6 569.4 423.4 567.1 425.2 564.9 427 566 424.1 562.8 424.1 562.8 422.7 565.9 422.7 564.9 419.8"/>
  </g>
  <g>
    <polygon class="st8" points="568.7 320.1 565.7 318.3 562.8 316.5 565.7 314.7 568.7 312.8 567.3 315.7 571.4 315.7 571.4 317.2 567.3 317.2 568.7 320.1"/>
    <polygon class="st8" points="565.5 328.5 568.4 330.3 571.4 332.1 568.4 333.9 565.5 335.7 566.9 332.8 562.8 332.8 562.8 331.4 566.9 331.4 565.5 328.5"/>
  </g>
  <g>
    <polygon class="st8" points="658.6 320.1 655.7 318.3 652.7 316.5 655.7 314.7 658.6 312.8 657.2 315.7 661.3 315.7 661.3 317.2 657.2 317.2 658.6 320.1"/>
    <polygon class="st8" points="655.4 328.5 658.3 330.3 661.3 332.1 658.3 333.9 655.4 335.7 656.8 332.8 652.7 332.8 652.7 331.4 656.8 331.4 655.4 328.5"/>
  </g>
  <g>
    <polygon class="st8" points="793.7 320.1 790.8 318.3 787.8 316.5 790.8 314.7 793.7 312.8 792.3 315.7 796.4 315.7 796.4 317.2 792.3 317.2 793.7 320.1"/>
    <polygon class="st8" points="790.5 328.5 793.5 330.3 796.4 332.1 793.5 333.9 790.5 335.7 791.9 332.8 787.8 332.8 787.8 331.4 791.9 331.4 790.5 328.5"/>
  </g>
  <g>
    <polygon class="st8" points="567.3 228.9 565.1 227.1 562.8 225.3 565.1 223.5 567.3 221.7 566.2 224.5 569.4 224.5 569.4 226 566.3 226 567.3 228.9"/>
    <polygon class="st8" points="564.9 237.3 567.1 239.1 569.4 240.9 567.1 242.7 564.9 244.5 566 241.6 562.8 241.6 562.8 240.2 565.9 240.2 564.9 237.3"/>
  </g>
  <g>
    <polygon class="st8" points="458.3 228.9 456 227.1 453.7 225.3 456 223.5 458.3 221.7 457.2 224.5 460.4 224.5 460.4 226 457.2 226 458.3 228.9"/>
    <polygon class="st8" points="455.8 237.3 458.1 239.1 460.4 240.9 458.1 242.7 455.8 244.5 456.9 241.6 453.7 241.6 453.7 240.2 456.9 240.2 455.8 237.3"/>
  </g>
  <g>
    <polygon class="st8" points="335.3 228.9 333 227.1 330.8 225.3 333 223.5 335.3 221.7 334.2 224.5 337.4 224.5 337.4 226 334.2 226 335.3 228.9"/>
    <polygon class="st8" points="332.8 237.3 335.1 239.1 337.4 240.9 335.1 242.7 332.8 244.5 333.9 241.6 330.8 241.6 330.8 240.2 333.9 240.2 332.8 237.3"/>
  </g>
  <g>
    <polygon class="st8" points="669.2 228.9 667 227.1 664.7 225.3 667 223.5 669.2 221.7 668.1 224.5 671.3 224.5 671.3 226 668.2 226 669.2 228.9"/>
    <polygon class="st8" points="666.8 237.3 669 239.1 671.3 240.9 669 242.7 666.8 244.5 667.9 241.6 664.7 241.6 664.7 240.2 667.8 240.2 666.8 237.3"/>
  </g>
  <g>
    <polygon class="st8" points="790.4 228.9 788.1 227.1 785.9 225.3 788.1 223.5 790.4 221.7 789.3 224.5 792.5 224.5 792.5 226 789.3 226 790.4 228.9"/>
    <polygon class="st8" points="787.9 237.3 790.2 239.1 792.5 240.9 790.2 242.7 787.9 244.5 789.1 241.6 785.9 241.6 785.9 240.2 789 240.2 787.9 237.3"/>
  </g>
  <g>
    <polygon class="st8" points="462.6 462.3 463.9 459.6 465.2 457 467.4 458.9 469.7 460.7 466.6 460.3 467.3 463.4 465.9 463.7 465.2 460.6 462.6 462.3"/>
    <polygon class="st8" points="453.9 461.6 452.6 464.2 451.3 466.8 449.1 464.9 446.8 463.1 449.9 463.6 449.2 460.5 450.6 460.2 451.3 463.3 453.9 461.6"/>
  </g>
  <g>
    <polygon class="st8" points="432 303.1 433.2 300.5 434.5 297.8 436.8 299.7 439 301.6 436 301.1 436.6 304.2 435.2 304.5 434.5 301.4 432 303.1"/>
    <polygon class="st8" points="423.2 302.4 421.9 305 420.6 307.6 418.4 305.8 416.1 303.9 419.2 304.4 418.5 301.3 419.9 301 420.6 304.1 423.2 302.4"/>
  </g>
</svg>