<?xml version="1.0" encoding="UTF-8"?>
<svg id="Layer_1" xmlns="http://www.w3.org/2000/svg" version="1.1" viewBox="0 0 627.1 477.9">
  <!-- Generator: Adobe Illustrator 30.1.0, SVG Export Plug-In . SVG Version: 2.1.1 Build 136)  -->
  <defs>
    <style>
      .st0 {
        stroke: #f6f6f6;
      }

      .st0, .st1, .st2, .st3, .st4 {
        stroke-miterlimit: 10;
      }

      .st0, .st1, .st5 {
        fill: none;
      }

      .st1, .st2, .st3, .st5, .st4 {
        stroke: #fff;
      }

      .st6 {
        fill: #d5d6d9;
      }

      .st2 {
        stroke-width: 2px;
      }

      .st2, .st7, .st4 {
        fill: #00306b;
      }

      .st3 {
        fill: #47607e;
      }

      .st8 {
        fill: #fff;
      }

      .st5 {
        stroke-miterlimit: 10;
        stroke-width: 1px;
      }

      .st9 {
        fill: #b1b5bb;
      }
    </style>
  </defs>
  <path class="st6" d="M438.7,279.4v-87.6h67.3v-7.3h-58.9v-58.9h-6.9v32.9h-109c-.7-2.9-2.5-5.3-5-6.8v-25.4s-11.1,0-11.3.2v24.5c-3,1.5-5.2,4.2-6.1,7.5h-128.3v22.1l-36.4,6.1,1,6.4,42.3-6.8-.5-3.4v-18.1h24.4v96.8l-51.6,9.5,1.4,7.4,51.7-9.5,19.7,19.7v51.7h6.4v-50.2h72.4c.7,1.9,2,3.5,3.6,4.6v47.7h11.3v-48.2c1.3-1.1,2.3-2.5,2.9-4.1h116.4v-4h44.9v-6.7h-52.9v-.2c0,0,1.2,0,1.2,0ZM313.6,205.6c-12.2,2.9-21.3,13.9-21.3,27s9.1,24.1,21.3,27v20.5c-1.1,1-1.9,2.3-2.4,3.7h-74.5c0,.1-18.9-18.8-18.9-18.8v-84.4l15.7-15.7h75.5c.8,2.5,2.4,4.6,4.5,6v34.6ZM432.2,272l-11.8,11.8h-91.2c-.5-1.4-1.3-2.7-2.4-3.7v-20.6c12-3.1,20.9-14,20.9-26.9s-8.9-23.9-20.9-26.9v-35c1.9-1.4,3.3-3.4,4.1-5.7h91.7l9.5,9.5v97.6Z"/>
  <rect class="st6" x="14" y="295.9" width="44.9" height="18.4" transform="translate(-63.4 14.5) rotate(-12.2)"/>
  <polygon class="st9" points="517.7 476 439.3 476 439.3 452 455.3 452 455.3 457 500.7 457.1 501 452 517.7 452 517.7 476"/>
  <path class="st2" d="M626.1,33.4v-13.5l-10.2-10.5h-22.3V1h-31v8.4h-224.6c0,.1,0,.2,0,.2l-114.6-.9-139.6-.2V1h-41.8v8.2l-26.4-.2L2.4,22.5c0,0-.1,13.7-.1,13.7h2.2v39.5l39.3,201.2,4.1-1,7.3,35.9-17.8,3.8,23.8,122,10.9-3.6v14.7l11.1,11.1h12.9v8h104.9v-1.8h20.9v-4.4h38.7v4.2h20.2v-8.4h16.6v9.1h45.4v-8.7h16.2v8h22.3v-5.1h35.2v5.6h101v-13.3h82.9v2.4h13.6l10.8-10.8v-13.3h-2.5v-39.4h3.7v-40.6h-12.4v-39.1h12.4c0-.1-2.4-.1-2.4-.1l.5-278.4h2.1Z"/>
  <polyline class="st1" points="562.2 9.9 562.2 13.1 593.8 13.1 593.8 9.4"/>
  <rect class="st4" x="436.7" y="72.3" width="18.2" height="10.9"/>
  <polyline class="st3" points="221.3 467.1 201.6 467.1 201.9 392.8 221.7 392.8"/>
  <polyline class="st1" points="358.8 463.6 358.8 392.9 399.1 392.8 399.1 459.8"/>
  <path class="st3" d="M280.1,455.9v9.5h-20.1v-4.2h-38.8l-.3-68.3h16l2.4,3.8h19v20.6h-2.6v22.7h24.4s.1,15.9,0,16.1h0Z"/>
  <polyline class="st1" points="399.1 392.8 438.8 392.8 438.8 396.9"/>
  <polyline class="st1" points="436 99 470.5 99 470.5 82.9 436.2 82.9"/>
  <line class="st1" x1="208.9" y1="382" x2="208.9" y2="355.6"/>
  <polyline class="st1" points="157.1 351.4 171.3 365.8 159.6 377.1"/>
  <polygon class="st1" points="147.7 364.8 136.2 352.1 147 341.3 159.6 353.8 147.7 364.8"/>
  <polygon class="st1" points="159.6 377.1 147.9 365.1 159.6 353.8 171.4 365.6 159.6 377.1"/>
  <polyline class="st1" points="90.1 121 100.3 169.8 105.9 201.4 107.9 212.6 147.5 205.1 145.6 196.7 122.2 201 102.2 100.7"/>
  <line class="st1" x1="239.8" y1="382.2" x2="208.7" y2="382.2"/>
  <g>
    <polygon class="st1" points="109.8 179 112.1 191.3 105 192.6 102.8 180.2 109.8 179"/>
    <rect class="st5" x="111.6" y="180.7" width="7.1" height="10" transform="translate(-29.9 22.3) rotate(-9.8)"/>
    <line class="st1" x1="104.6" y1="190.1" x2="111.6" y2="188.9"/>
    <line class="st1" x1="104.2" y1="187.6" x2="111.2" y2="186.4"/>
    <line class="st1" x1="103.8" y1="185.2" x2="110.8" y2="184"/>
    <line class="st1" x1="103.3" y1="182.7" x2="110.4" y2="181.5"/>
    <line class="st1" x1="102.9" y1="180.2" x2="109.9" y2="179"/>
    <line class="st1" x1="111.9" y1="188.7" x2="118.9" y2="187.5"/>
    <line class="st1" x1="111.4" y1="186.3" x2="118.5" y2="185.1"/>
    <line class="st1" x1="111" y1="183.8" x2="118" y2="182.6"/>
  </g>
  <g>
    <polygon class="st1" points="103.7 263.5 102 253.7 95.2 254.9 96.9 264.6 103.7 263.5"/>
    <line class="st1" x1="96" y1="262.3" x2="103" y2="261.1"/>
    <line class="st1" x1="95.6" y1="259.9" x2="102.6" y2="258.7"/>
    <line class="st1" x1="95.2" y1="257.4" x2="102.2" y2="256.2"/>
  </g>
  <g>
    <rect class="st1" x="448.6" y="91.1" width="21.8" height="6.9"/>
    <rect class="st1" x="448.6" y="83.7" width="9.7" height="6.9"/>
    <line class="st1" x1="468.1" y1="98" x2="468.1" y2="91.1"/>
    <line class="st1" x1="465.6" y1="98" x2="465.6" y2="91.1"/>
    <line class="st1" x1="463.2" y1="98" x2="463.2" y2="91.1"/>
    <line class="st1" x1="460.8" y1="98" x2="460.8" y2="91.1"/>
    <line class="st1" x1="458.3" y1="98" x2="458.3" y2="91.1"/>
    <line class="st1" x1="455.9" y1="98" x2="455.9" y2="91.1"/>
    <line class="st1" x1="453.5" y1="98" x2="453.5" y2="91.1"/>
    <line class="st1" x1="451" y1="98" x2="451" y2="91.1"/>
    <line class="st1" x1="455.9" y1="90.8" x2="455.8" y2="83.9"/>
    <line class="st1" x1="453.5" y1="90.8" x2="453.5" y2="83.9"/>
    <line class="st1" x1="451" y1="90.8" x2="451" y2="83.9"/>
  </g>
  <g>
    <polygon class="st1" points="215.2 374.2 230 374.2 230 366.9 215.2 366.9 215.2 374.2"/>
    <polygon class="st1" points="229.9 381.7 217.5 381.9 217.5 374.6 230 374.5 229.9 381.7"/>
    <line class="st1" x1="229.8" y1="366.8" x2="229.8" y2="374.1"/>
    <line class="st1" x1="227.4" y1="366.8" x2="227.3" y2="374.1"/>
    <line class="st1" x1="224.9" y1="366.9" x2="224.9" y2="374.1"/>
    <line class="st1" x1="222.5" y1="366.9" x2="222.4" y2="374.1"/>
    <line class="st1" x1="220.1" y1="366.9" x2="220" y2="374.1"/>
    <line class="st1" x1="217.6" y1="366.9" x2="217.6" y2="374.2"/>
    <line class="st1" x1="224.8" y1="374.4" x2="224.7" y2="381.6"/>
    <line class="st1" x1="227.3" y1="374.4" x2="227.3" y2="381.6"/>
    <line class="st1" x1="222.4" y1="374.4" x2="222.3" y2="381.6"/>
    <line class="st1" x1="219.9" y1="374.4" x2="219.9" y2="381.7"/>
  </g>
  <path class="st1" d="M103.3,242.9l10.2,57.1.2,1.1,1.9,9.6,13.7,70,11.8,12.1h60.7c.1,0,0,12,0,12h-80.7c0-.1,0,61.8,0,61.8l-25.4.3v-8h-12.9l-11.1-11.1v-14.7l-10.9,3.6-15.8-86.2-6.4-34.9,74.9-15.6"/>
  <polygon class="st1" points="546.8 359.2 524.5 381.5 513 370.1 535.2 347.7 546.8 359.2"/>
  <line class="st1" x1="109.3" y1="275.3" x2="119.5" y2="273.3"/>
  <polyline class="st1" points="147.3 341.1 135.9 352.3 127.2 308.6 98.6 314.3 96.5 303.6 114.2 300"/>
  <polygon class="st1" points="535.7 370.6 546.5 359 535.6 348.1 524.2 359.6 535.7 370.6"/>
  <polygon class="st1" points="525 381.5 535.7 370.6 524.2 359.5 513.5 370.2 525 381.5"/>
  <line class="st1" x1="546.4" y1="359.5" x2="535" y2="348.3"/>
  <polyline class="st1" points="297.3 460 302.9 460 316.9 454.9 323.8 454.9 337.1 460.3 342.7 460.3"/>
  <rect class="st1" x="280.3" y="409.6" width="23.7" height="11.3"/>
  <path class="st1" d="M303.7,420.9h21.2v-11.3h-21.1s0,11.6,0,11.3Z"/>
  <polyline class="st1" points="299.1 403.1 299.1 393.6 260.9 393.6 258.2 396.7"/>
  <polyline class="st1" points="299.1 393.6 322.7 393.6 324.9 396.3 338.9 396.3 358.7 396.3 358.7 420.9 324.9 420.9"/>
  <line class="st1" x1="324.7" y1="403.6" x2="324.7" y2="396.3"/>
  <polyline class="st1" points="258.5 396.7 258.5 417.1 280.5 417.1"/>
  <polyline class="st1" points="276.5 393.5 276.5 406.3 280.3 406.3 280.3 409.6"/>
  <rect class="st1" x="255.8" y="417.1" width="24.4" height="22.7"/>
  <polygon class="st3" points="201.8 404.9 133.1 404.6 120.7 404.6 120.7 418.7 96.2 418.7 96.2 467.9 136.1 467.9 136.1 467.8 201.6 468.3 201.8 404.9"/>
  <polyline class="st1" points="129.7 381.1 121.1 381.1 121.1 416.5"/>
  <line class="st1" x1="121.1" y1="404.7" x2="132.9" y2="404.7"/>
  <polyline class="st1" points="41.9 334 52.2 332.3 56 334.9 93.3 328.3 88.5 304.9"/>
  <polygon class="st3" points="93.3 328.3 94.7 334.9 57.6 342.3 59.1 348 46 350.5 44.4 350.9 61 437 72.1 433.6 72.1 448.4 83.1 459.6 96.1 459.6 96.1 418.7 121.1 418.7 121.1 381.1 129.4 381.1 129.3 379.2 145.7 362.7 136.2 352 127.1 308.7 98.6 314.3 96.5 303.6 88.5 305.2 93.3 328.3"/>
  <path class="st3" d="M544.7,431.3v-22.6l-15.6-16h-51s-16.7,0-16.7,0l-3.6,4.3h-19.3c0-.1,0,69.2,0,69.2h78.5v-34.9s27.1,0,27.6,0h0Z"/>
  <line class="st1" x1="236" y1="252.9" x2="236" y2="310"/>
  <line class="st1" x1="251.8" y1="252.9" x2="251.8" y2="310"/>
  <line class="st1" x1="267.6" y1="252.9" x2="267.6" y2="310"/>
  <line class="st1" x1="283.3" y1="252.9" x2="283.3" y2="310"/>
  <line class="st1" x1="299.3" y1="252.9" x2="299.3" y2="310"/>
  <line class="st1" x1="314.9" y1="252.9" x2="314.9" y2="310"/>
  <line class="st1" x1="347.1" y1="252.9" x2="347.1" y2="310"/>
  <line class="st1" x1="330.7" y1="252.9" x2="330.7" y2="310"/>
  <line class="st1" x1="265" y1="343.7" x2="265" y2="373.1"/>
  <line class="st1" x1="251.8" y1="343.7" x2="251.8" y2="373.1"/>
  <line class="st1" x1="369.3" y1="343.7" x2="369.3" y2="373.1"/>
  <line class="st1" x1="383.2" y1="343.7" x2="383.2" y2="373.1"/>
  <path class="st1" d="M397.4,373.1v-29.4s4.7,0,4.7,0v29.4"/>
  <line class="st1" x1="416.4" y1="343.7" x2="416.4" y2="373.1"/>
  <line class="st1" x1="430.9" y1="343.7" x2="430.9" y2="373.1"/>
  <line class="st1" x1="446.3" y1="343.7" x2="446.3" y2="373.1"/>
  <line class="st1" x1="461.1" y1="343.7" x2="461.1" y2="373.1"/>
  <path class="st1" d="M475.1,373.1v-29.4s4.6-.1,4.7,0v29.4"/>
  <polyline class="st1" points="498.6 373.1 498.6 343.7 506.9 343.7"/>
  <polygon class="st1" points="506.9 373.3 506.9 343.7 531.1 343.7 535.2 347.7 509.7 373.3 506.9 373.3"/>
  <polyline class="st1" points="280.3 373.1 280.3 343.7 286.3 343.7 286.3 373.1"/>
  <line class="st1" x1="300.9" y1="343.7" x2="300.9" y2="373.1"/>
  <path class="st1" d="M314.9,373.1v-29.4h6v29.4"/>
  <line class="st1" x1="335.7" y1="343.7" x2="335.7" y2="373.1"/>
  <line class="st1" x1="349.7" y1="343.2" x2="349.7" y2="372.6"/>
  <line class="st1" x1="361.1" y1="252.9" x2="361.1" y2="310"/>
  <line class="st1" x1="379" y1="253.7" x2="379" y2="310.8"/>
  <line class="st1" x1="395.6" y1="252.9" x2="395.6" y2="310"/>
  <line class="st1" x1="393.9" y1="162.9" x2="393.9" y2="220"/>
  <line class="st1" x1="378.4" y1="162.9" x2="378.4" y2="220"/>
  <line class="st1" x1="362.7" y1="162.9" x2="362.7" y2="220"/>
  <line class="st1" x1="346.7" y1="162.9" x2="346.7" y2="220"/>
  <line class="st1" x1="330.8" y1="162.9" x2="330.8" y2="220"/>
  <line class="st1" x1="315.1" y1="162.9" x2="315.1" y2="220"/>
  <line class="st1" x1="299.3" y1="162.9" x2="299.3" y2="220"/>
  <line class="st1" x1="283.4" y1="162.9" x2="283.4" y2="220"/>
  <line class="st1" x1="267.7" y1="162.9" x2="267.7" y2="220"/>
  <line class="st1" x1="252" y1="162.9" x2="252" y2="220"/>
  <line class="st1" x1="236.3" y1="162.9" x2="236.3" y2="220"/>
  <line class="st1" x1="220.8" y1="162.9" x2="220.8" y2="220"/>
  <line class="st1" x1="201.3" y1="162.9" x2="201.3" y2="191.8"/>
  <line class="st1" x1="205.5" y1="162.9" x2="205.5" y2="191.8"/>
  <line class="st1" x1="438.4" y1="191.4" x2="205.4" y2="191.4"/>
  <line class="st1" x1="408.2" y1="162.9" x2="408.2" y2="220"/>
  <polyline class="st1" points="438.5 162.9 438.5 273.3 477.9 273.3"/>
  <line class="st1" x1="506.2" y1="162.9" x2="506.2" y2="193.1"/>
  <line class="st1" x1="425.2" y1="281.4" x2="425.2" y2="310"/>
  <line class="st1" x1="438.7" y1="273.4" x2="438.7" y2="310"/>
  <line class="st1" x1="434.7" y1="253.1" x2="434.7" y2="281.7"/>
  <line class="st1" x1="448.3" y1="281.4" x2="448.3" y2="310"/>
  <line class="st1" x1="462" y1="281.4" x2="462" y2="310"/>
  <line class="st1" x1="521.1" y1="273.4" x2="521.1" y2="309.7"/>
  <line class="st1" x1="476.1" y1="281.4" x2="476.1" y2="310"/>
  <line class="st1" x1="520.8" y1="292.3" x2="506.8" y2="292.3"/>
  <line class="st1" x1="507" y1="281.4" x2="507" y2="309.7"/>
  <line class="st1" x1="550.5" y1="305.5" x2="521" y2="305.5"/>
  <line class="st1" x1="550.5" y1="309.4" x2="521" y2="309.4"/>
  <line class="st1" x1="550.5" y1="291.1" x2="521" y2="291.1"/>
  <line class="st1" x1="550.5" y1="276.4" x2="521" y2="276.4"/>
  <polyline class="st1" points="410.2 281.4 204.9 281.4 204.9 253.1 196.7 253.4 208.2 309.8 220.7 310 220.7 252.9"/>
  <line class="st1" x1="199.1" y1="264.8" x2="204.9" y2="259.2"/>
  <line class="st1" x1="199.7" y1="268.3" x2="204.9" y2="263.1"/>
  <line class="st1" x1="200.3" y1="271.3" x2="204.9" y2="266.7"/>
  <line class="st1" x1="200.8" y1="274.4" x2="204.9" y2="270.2"/>
  <line class="st1" x1="201.5" y1="277.5" x2="204.9" y2="274.1"/>
  <line class="st1" x1="202.2" y1="280.5" x2="204.9" y2="277.7"/>
  <line class="st1" x1="203.5" y1="286.4" x2="208.7" y2="281.4"/>
  <line class="st1" x1="203.9" y1="289.6" x2="212.3" y2="281.6"/>
  <line class="st1" x1="204.8" y1="292.5" x2="215.8" y2="281.7"/>
  <line class="st1" x1="205.2" y1="295.7" x2="219.6" y2="281.3"/>
  <line class="st1" x1="206.1" y1="298.7" x2="220.8" y2="284"/>
  <line class="st1" x1="206.7" y1="301.7" x2="220.6" y2="287.8"/>
  <line class="st1" x1="207.5" y1="304.7" x2="220.6" y2="291.4"/>
  <line class="st1" x1="208" y1="307.8" x2="220.5" y2="295.4"/>
  <line class="st1" x1="209.7" y1="309.8" x2="220.8" y2="298.9"/>
  <line class="st1" x1="213.8" y1="309.9" x2="220.8" y2="303"/>
  <line class="st1" x1="217.4" y1="309.9" x2="220.8" y2="306.4"/>
  <line class="st1" x1="198.2" y1="262" x2="204.9" y2="255.5"/>
  <line class="st1" x1="197.6" y1="259.1" x2="203.6" y2="253.2"/>
  <line class="st1" x1="197.1" y1="256.1" x2="200" y2="253.2"/>
  <line class="st1" x1="185.1" y1="71.9" x2="185.1" y2="100.4"/>
  <polyline class="st1" points="3.5 38.8 15.5 38.8 15.5 13.5 57.3 13.5 90 13.5"/>
  <path class="st1" d="M211.9,71.9v57.1s-10.7.2-10.7,0v-57.1h10.7Z"/>
  <line class="st1" x1="225.3" y1="71.9" x2="225.3" y2="129"/>
  <path class="st1" d="M247.1,71.9v57.1c.2.2-7.6,0-7.6,0v-57.1s7.7-.2,7.6,0h0Z"/>
  <line class="st1" x1="261.3" y1="71.9" x2="261.3" y2="129"/>
  <path class="st1" d="M298.2,72.3v56.8h5.7v-56.8s-5.5-.2-5.7,0Z"/>
  <path class="st1" d="M283.8,129v-57.1c.1-.1-8.5,0-8.5,0v57.1s8.4.2,8.5,0Z"/>
  <line class="st1" x1="316.8" y1="72.7" x2="316.8" y2="129.8"/>
  <path class="st1" d="M331.3,129.8v-57.1s11.9.2,11.8,0v27.6"/>
  <path class="st1" d="M357.1,100.3v-27.6s8.1.1,8,0v27.6"/>
  <line class="st1" x1="379.3" y1="72.7" x2="379.3" y2="100.3"/>
  <path class="st1" d="M393.6,100.3v-27.6s7.4-.1,7.4,0v27.6"/>
  <line class="st1" x1="415.4" y1="72.7" x2="415.4" y2="100.3"/>
  <line class="st1" x1="485.9" y1="72.7" x2="485.9" y2="129"/>
  <line class="st1" x1="500.1" y1="72.7" x2="500.1" y2="129"/>
  <line class="st1" x1="454.4" y1="98.9" x2="454.4" y2="129"/>
  <line class="st1" x1="440.2" y1="98.9" x2="440.2" y2="129"/>
  <path class="st1" d="M519.1,129v-56.3c.1-.1-4.9,0-4.9,0v56.3s4.6-.3,4.9,0Z"/>
  <line class="st1" x1="532.9" y1="72.7" x2="532.9" y2="129"/>
  <line class="st1" x1="546.9" y1="72.7" x2="546.9" y2="129"/>
  <line class="st1" x1="546.9" y1="100.4" x2="485.4" y2="100.4"/>
  <line class="st1" x1="429.8" y1="72.7" x2="429.8" y2="100.3"/>
  <polyline class="st1" points="429.9 100.4 170.1 100.4 170.1 72.1 161.9 72.4 173.4 128.8 182.1 129 182 100.2"/>
  <line class="st1" x1="164.2" y1="83.8" x2="170.1" y2="78.2"/>
  <line class="st1" x1="164.9" y1="87.3" x2="170.1" y2="82.1"/>
  <line class="st1" x1="165.5" y1="90.3" x2="170.1" y2="85.7"/>
  <line class="st1" x1="166" y1="93.4" x2="170.1" y2="89.2"/>
  <line class="st1" x1="166.6" y1="96.5" x2="170.1" y2="93.1"/>
  <line class="st1" x1="167.4" y1="99.5" x2="170.1" y2="96.7"/>
  <line class="st1" x1="168.7" y1="105.4" x2="173.9" y2="100.4"/>
  <line class="st1" x1="169.1" y1="108.6" x2="177.7" y2="100.4"/>
  <line class="st1" x1="170" y1="111.5" x2="181.3" y2="100.4"/>
  <line class="st1" x1="170.4" y1="114.7" x2="181.9" y2="103.4"/>
  <line class="st1" x1="171.3" y1="117.7" x2="181.9" y2="107"/>
  <line class="st1" x1="171.9" y1="120.7" x2="181.9" y2="110.5"/>
  <line class="st1" x1="172.6" y1="123.7" x2="182" y2="114.1"/>
  <line class="st1" x1="173.2" y1="126.8" x2="182.1" y2="118"/>
  <line class="st1" x1="174.9" y1="128.8" x2="182" y2="121.7"/>
  <line class="st1" x1="179" y1="128.9" x2="182" y2="125.8"/>
  <line class="st1" x1="163.4" y1="81" x2="170.1" y2="74.5"/>
  <line class="st1" x1="162.8" y1="78.1" x2="168.8" y2="72.2"/>
  <line class="st1" x1="162.3" y1="75.1" x2="165.2" y2="72.2"/>
  <g>
    <line class="st1" x1="181.5" y1="174.9" x2="186.8" y2="169.8"/>
    <line class="st1" x1="182.1" y1="178.4" x2="186.9" y2="173.8"/>
    <line class="st1" x1="182.7" y1="181.4" x2="187" y2="177.1"/>
    <line class="st1" x1="183.2" y1="184.5" x2="186.8" y2="180.9"/>
    <line class="st1" x1="183.9" y1="187.6" x2="186.9" y2="184.8"/>
    <line class="st1" x1="184.6" y1="190.6" x2="186.9" y2="188.3"/>
    <line class="st1" x1="186.9" y1="201.3" x2="192.2" y2="195.9"/>
    <line class="st1" x1="187" y1="204.6" x2="196" y2="195.9"/>
    <line class="st1" x1="187.6" y1="207.7" x2="199.7" y2="196.1"/>
    <line class="st1" x1="188.5" y1="210.9" x2="203.3" y2="195.9"/>
    <line class="st1" x1="189.1" y1="214" x2="205" y2="197.9"/>
    <line class="st1" x1="189.8" y1="216.6" x2="205.1" y2="201.6"/>
    <line class="st1" x1="190.9" y1="219.5" x2="204.9" y2="205.5"/>
    <line class="st1" x1="194.2" y1="219.9" x2="205.2" y2="209"/>
    <line class="st1" x1="198.2" y1="220" x2="205.2" y2="213.1"/>
    <line class="st1" x1="180.6" y1="172.1" x2="186.7" y2="166.3"/>
    <line class="st1" x1="180.1" y1="169.2" x2="186.8" y2="162.7"/>
    <line class="st1" x1="179.5" y1="166.3" x2="183.2" y2="162.5"/>
  </g>
  <line class="st1" x1="410.4" y1="253.7" x2="410.4" y2="310.8"/>
  <g>
    <line class="st1" x1="414.4" y1="282.7" x2="420.5" y2="276.9"/>
    <line class="st1" x1="414.5" y1="286.1" x2="420.5" y2="280.3"/>
    <line class="st1" x1="414.4" y1="289.9" x2="420.5" y2="283.9"/>
    <line class="st1" x1="414.3" y1="293.6" x2="420.5" y2="287.8"/>
    <line class="st1" x1="414.3" y1="297.5" x2="420.5" y2="291.8"/>
    <line class="st1" x1="414.3" y1="301" x2="420.5" y2="295"/>
    <line class="st1" x1="414.4" y1="304.7" x2="420.5" y2="298.7"/>
    <line class="st1" x1="414.6" y1="308.3" x2="420.5" y2="302.6"/>
    <line class="st1" x1="416.7" y1="309.8" x2="420.5" y2="306"/>
    <line class="st1" x1="414.5" y1="256.9" x2="418.5" y2="253"/>
    <line class="st1" x1="414.4" y1="260.7" x2="420.5" y2="254.7"/>
    <line class="st1" x1="414.3" y1="264.3" x2="420.5" y2="258.5"/>
    <line class="st1" x1="414.3" y1="268.3" x2="420.5" y2="262.5"/>
    <line class="st1" x1="414.3" y1="271.8" x2="420.5" y2="265.7"/>
    <line class="st1" x1="414.4" y1="275.4" x2="420.5" y2="269.4"/>
    <line class="st1" x1="414.6" y1="279" x2="420.5" y2="273.3"/>
    <rect class="st1" x="414.5" y="253" width="6.1" height="56.9"/>
  </g>
  <g>
    <line class="st1" x1="329.1" y1="372.9" x2="322.6" y2="382.4"/>
    <line class="st1" x1="332.9" y1="373.1" x2="326.4" y2="382.4"/>
    <line class="st1" x1="337.2" y1="372.9" x2="330.4" y2="382.3"/>
    <line class="st1" x1="341.3" y1="372.8" x2="334.7" y2="382.3"/>
    <line class="st1" x1="345.7" y1="372.8" x2="339.2" y2="382.3"/>
    <line class="st1" x1="349.6" y1="372.7" x2="342.8" y2="382.3"/>
    <line class="st1" x1="353.7" y1="372.9" x2="347" y2="382.3"/>
    <line class="st1" x1="357.7" y1="373.1" x2="351.4" y2="382.3"/>
    <line class="st1" x1="359.4" y1="376.4" x2="355.2" y2="382.3"/>
    <line class="st1" x1="300.1" y1="373.1" x2="295.7" y2="379.3"/>
    <line class="st1" x1="304.3" y1="372.9" x2="297.6" y2="382.3"/>
    <line class="st1" x1="308.5" y1="372.8" x2="301.9" y2="382.3"/>
    <line class="st1" x1="312.9" y1="372.8" x2="306.4" y2="382.3"/>
    <line class="st1" x1="316.8" y1="372.7" x2="310" y2="382.3"/>
    <line class="st1" x1="320.9" y1="372.9" x2="314.2" y2="382.3"/>
    <line class="st1" x1="324.9" y1="373.1" x2="318.6" y2="382.3"/>
    <rect class="st1" x="295.7" y="373" width="63.8" height="9.4"/>
  </g>
  <g>
    <line class="st1" x1="414.9" y1="192.5" x2="422.5" y2="186.7"/>
    <line class="st1" x1="415.1" y1="195.9" x2="422.5" y2="190.1"/>
    <line class="st1" x1="414.9" y1="199.7" x2="422.4" y2="193.7"/>
    <line class="st1" x1="414.8" y1="203.4" x2="422.4" y2="197.5"/>
    <line class="st1" x1="414.8" y1="207.3" x2="422.4" y2="201.5"/>
    <line class="st1" x1="414.8" y1="210.8" x2="422.4" y2="204.7"/>
    <line class="st1" x1="414.9" y1="214.4" x2="422.4" y2="208.5"/>
    <line class="st1" x1="415.1" y1="218" x2="422.4" y2="212.4"/>
    <line class="st1" x1="417.7" y1="219.5" x2="422.4" y2="215.8"/>
    <line class="st1" x1="415.1" y1="166.6" x2="420" y2="162.8"/>
    <line class="st1" x1="414.9" y1="170.4" x2="422.4" y2="164.4"/>
    <line class="st1" x1="414.8" y1="174.1" x2="422.4" y2="168.3"/>
    <line class="st1" x1="414.8" y1="178" x2="422.4" y2="172.3"/>
    <line class="st1" x1="414.8" y1="181.5" x2="422.4" y2="175.5"/>
    <line class="st1" x1="414.9" y1="185.2" x2="422.4" y2="179.2"/>
    <line class="st1" x1="415.1" y1="188.8" x2="422.4" y2="183.1"/>
    <rect class="st1" x="415" y="162.8" width="7.5" height="56.9"/>
  </g>
  <g>
    <line class="st1" x1="481.9" y1="309.6" x2="486.9" y2="305.8"/>
    <line class="st1" x1="479.5" y1="285.7" x2="484.4" y2="281.9"/>
    <line class="st1" x1="479.3" y1="289.5" x2="486.8" y2="283.5"/>
    <line class="st1" x1="479.3" y1="293.2" x2="486.8" y2="287.4"/>
    <line class="st1" x1="479.3" y1="297.1" x2="486.8" y2="291.4"/>
    <line class="st1" x1="479.2" y1="300.6" x2="486.9" y2="294.6"/>
    <line class="st1" x1="479.4" y1="304.3" x2="486.8" y2="298.3"/>
    <line class="st1" x1="479.5" y1="307.9" x2="486.8" y2="302.2"/>
    <rect class="st1" x="479.4" y="281.9" width="7.5" height="27.8"/>
  </g>
  <g>
    <line class="st1" x1="352.3" y1="371.5" x2="369.1" y2="357.9"/>
    <line class="st1" x1="356.2" y1="371.8" x2="369.1" y2="361.6"/>
    <line class="st1" x1="361.1" y1="371.7" x2="369.1" y2="365.3"/>
    <line class="st1" x1="365.1" y1="371.7" x2="369.3" y2="368.6"/>
    <line class="st1" x1="349.9" y1="347.6" x2="354.8" y2="343.8"/>
    <line class="st1" x1="349.7" y1="351.5" x2="359.3" y2="344"/>
    <line class="st1" x1="349.6" y1="355.1" x2="363.7" y2="344"/>
    <line class="st1" x1="349.6" y1="359.1" x2="367.7" y2="344.2"/>
    <line class="st1" x1="349.6" y1="362.6" x2="369.3" y2="346.6"/>
    <line class="st1" x1="349.7" y1="366.2" x2="369" y2="350.6"/>
    <line class="st1" x1="349.9" y1="369.8" x2="369.1" y2="354.1"/>
    <rect class="st1" x="349.8" y="343.8" width="19.3" height="27.8"/>
    <line class="st1" x1="251.5" y1="372.9" x2="506.8" y2="372.9"/>
    <rect class="st1" x="253.1" y="373" width="16.6" height="9.3"/>
    <rect class="st1" x="269.9" y="373" width="25.6" height="9.3"/>
  </g>
  <g>
    <line class="st1" x1="479.5" y1="276.3" x2="483.2" y2="281.8"/>
    <line class="st1" x1="503.2" y1="273.7" x2="507" y2="279.1"/>
    <line class="st1" x1="499.4" y1="273.5" x2="505.4" y2="281.7"/>
    <line class="st1" x1="495.8" y1="273.4" x2="501.6" y2="281.7"/>
    <line class="st1" x1="491.8" y1="273.4" x2="497.6" y2="281.7"/>
    <line class="st1" x1="488.4" y1="273.4" x2="494.4" y2="281.8"/>
    <line class="st1" x1="484.7" y1="273.5" x2="490.7" y2="281.7"/>
    <line class="st1" x1="481.2" y1="273.7" x2="486.8" y2="281.7"/>
    <rect class="st1" x="479.4" y="273.6" width="27.7" height="8.2"/>
  </g>
  <g>
    <line class="st1" x1="584.8" y1="266.9" x2="588.6" y2="271.8"/>
    <line class="st1" x1="608.5" y1="264.6" x2="612.3" y2="269.4"/>
    <line class="st1" x1="604.7" y1="264.4" x2="610.7" y2="271.7"/>
    <line class="st1" x1="601.1" y1="264.3" x2="606.9" y2="271.7"/>
    <line class="st1" x1="597.2" y1="264.3" x2="602.9" y2="271.7"/>
    <line class="st1" x1="593.7" y1="264.3" x2="599.7" y2="271.8"/>
    <line class="st1" x1="590.1" y1="264.4" x2="596" y2="271.7"/>
    <line class="st1" x1="586.5" y1="264.6" x2="592.1" y2="271.7"/>
    <rect class="st1" x="584.7" y="264.5" width="27.7" height="7.3"/>
  </g>
  <g>
    <line class="st1" x1="584.8" y1="275.9" x2="588.6" y2="280.8"/>
    <line class="st1" x1="608.5" y1="273.5" x2="612.3" y2="278.4"/>
    <line class="st1" x1="604.7" y1="273.4" x2="610.7" y2="280.7"/>
    <line class="st1" x1="601.1" y1="273.3" x2="606.9" y2="280.7"/>
    <line class="st1" x1="597.2" y1="273.3" x2="602.9" y2="280.7"/>
    <line class="st1" x1="593.7" y1="273.2" x2="599.7" y2="280.8"/>
    <line class="st1" x1="590.1" y1="273.4" x2="596" y2="280.7"/>
    <line class="st1" x1="586.5" y1="273.6" x2="592.1" y2="280.7"/>
    <rect class="st1" x="584.7" y="273.4" width="27.7" height="7.3"/>
  </g>
  <g>
    <line class="st1" x1="429.7" y1="102" x2="435.9" y2="96.2"/>
    <line class="st1" x1="429.8" y1="105.4" x2="435.9" y2="99.6"/>
    <line class="st1" x1="429.7" y1="109.2" x2="435.9" y2="103.2"/>
    <line class="st1" x1="429.6" y1="112.9" x2="435.9" y2="107.1"/>
    <line class="st1" x1="429.6" y1="116.9" x2="435.9" y2="111.1"/>
    <line class="st1" x1="429.6" y1="120.4" x2="435.9" y2="114.3"/>
    <line class="st1" x1="429.7" y1="124" x2="435.9" y2="118"/>
    <line class="st1" x1="429.9" y1="127.6" x2="435.9" y2="121.9"/>
    <line class="st1" x1="431.5" y1="129.4" x2="435.9" y2="125.4"/>
    <line class="st1" x1="429.8" y1="76.2" x2="433.9" y2="72.3"/>
    <line class="st1" x1="429.7" y1="80" x2="435.9" y2="74"/>
    <line class="st1" x1="429.6" y1="83.6" x2="435.9" y2="77.8"/>
    <line class="st1" x1="429.6" y1="87.6" x2="435.9" y2="81.8"/>
    <line class="st1" x1="429.6" y1="91.1" x2="435.9" y2="85"/>
    <line class="st1" x1="429.7" y1="94.7" x2="435.9" y2="88.8"/>
    <line class="st1" x1="429.9" y1="98.3" x2="435.9" y2="92.6"/>
    <rect class="st1" x="429.7" y="72.3" width="6.2" height="57.1"/>
  </g>
  <g>
    <line class="st1" x1="470.6" y1="102" x2="483.2" y2="89.3"/>
    <line class="st1" x1="470.7" y1="105.4" x2="483.1" y2="93.2"/>
    <line class="st1" x1="470.6" y1="109.2" x2="483.2" y2="96.6"/>
    <line class="st1" x1="470.5" y1="112.9" x2="483.3" y2="100.3"/>
    <line class="st1" x1="470.5" y1="116.9" x2="483.3" y2="104"/>
    <line class="st1" x1="470.5" y1="120.4" x2="483.3" y2="107.7"/>
    <line class="st1" x1="470.6" y1="124" x2="483.1" y2="111.7"/>
    <line class="st1" x1="470.7" y1="127.6" x2="483.2" y2="115.4"/>
    <line class="st1" x1="472.7" y1="129.3" x2="483.1" y2="119.4"/>
    <line class="st1" x1="476.3" y1="129.2" x2="483.1" y2="122.9"/>
    <line class="st1" x1="480" y1="129.3" x2="483.1" y2="126.4"/>
    <line class="st1" x1="463.5" y1="82.9" x2="474.2" y2="72.3"/>
    <line class="st1" x1="458.8" y1="82.9" x2="469.5" y2="72.3"/>
    <line class="st1" x1="455.3" y1="82.2" x2="464.8" y2="72.3"/>
    <line class="st1" x1="455.3" y1="77.4" x2="460.3" y2="72.4"/>
    <line class="st1" x1="468.1" y1="82.7" x2="478.5" y2="72.2"/>
    <line class="st1" x1="470.5" y1="83.6" x2="481.7" y2="72.3"/>
    <line class="st1" x1="470.5" y1="87.6" x2="483.2" y2="74.4"/>
    <line class="st1" x1="470.5" y1="91.1" x2="483" y2="78.4"/>
    <line class="st1" x1="470.6" y1="94.7" x2="483.1" y2="82.5"/>
    <line class="st1" x1="470.7" y1="98.3" x2="483.2" y2="85.9"/>
    <polygon class="st1" points="455.4 72.3 455.4 82.9 470.6 82.9 470.6 129.3 483.2 129.3 483.2 72.3 455.4 72.3"/>
  </g>
  <g>
    <line class="st1" x1="477.9" y1="164.4" x2="479.8" y2="162.6"/>
    <line class="st1" x1="478.1" y1="168" x2="483.4" y2="162.7"/>
    <line class="st1" x1="477.9" y1="172" x2="487.7" y2="162.8"/>
    <line class="st1" x1="477.9" y1="175.9" x2="492.1" y2="162.5"/>
    <line class="st1" x1="477.9" y1="180.1" x2="492" y2="166.5"/>
    <line class="st1" x1="477.8" y1="183.9" x2="492" y2="170.4"/>
    <line class="st1" x1="477.9" y1="187.7" x2="491.9" y2="174.6"/>
    <line class="st1" x1="478.1" y1="191.5" x2="492" y2="178.6"/>
    <line class="st1" x1="480.5" y1="193.2" x2="491.9" y2="182.8"/>
    <line class="st1" x1="484.4" y1="193.2" x2="491.9" y2="186.5"/>
    <line class="st1" x1="488.4" y1="193.4" x2="491.9" y2="190.3"/>
    <rect class="st1" x="478" y="162.7" width="14" height="30.6"/>
  </g>
  <g>
    <line class="st1" x1="430.8" y1="345.4" x2="432.8" y2="343.8"/>
    <line class="st1" x1="430.9" y1="348.8" x2="436.8" y2="343.9"/>
    <line class="st1" x1="430.8" y1="352.6" x2="440.7" y2="344"/>
    <line class="st1" x1="430.7" y1="356.3" x2="445.6" y2="343.7"/>
    <line class="st1" x1="430.7" y1="360.3" x2="446.5" y2="346.4"/>
    <line class="st1" x1="430.6" y1="363.8" x2="446.5" y2="350.1"/>
    <line class="st1" x1="430.8" y1="367.4" x2="446.3" y2="354.1"/>
    <line class="st1" x1="431" y1="371" x2="446.4" y2="357.9"/>
    <line class="st1" x1="433.7" y1="372.5" x2="446.3" y2="361.8"/>
    <line class="st1" x1="438" y1="372.6" x2="446.3" y2="365.3"/>
    <line class="st1" x1="442.5" y1="372.7" x2="446.3" y2="368.8"/>
    <rect class="st1" x="430.9" y="343.9" width="15.6" height="28.7"/>
  </g>
  <line class="st1" x1="420.6" y1="281.5" x2="476.5" y2="281.5"/>
  <polygon class="st1" points="505.8 260.7 505.8 193.1 478 193.1 478 273.4 534.2 273.4 534.2 260.7 505.8 260.7"/>
  <path class="st1" d="M205.5,191.5v28.4c0,.1-.3-23.8-.3-23.8h-18.4v-33.7h-7.9l11.1,57.2h15.5"/>
  <rect class="st1" x="186.7" y="191.5" width="18.6" height="4.4"/>
  <rect class="st1" x="331.1" y="100.5" width="98.7" height="28.9"/>
  <rect class="st1" x="507" y="273.5" width="13.9" height="35.9"/>
  <rect class="st1" x="534.2" y="226.1" width="13.7" height="44.4"/>
  <rect class="st1" x="534.2" y="193.1" width="13.7" height="33.1"/>
  <line class="st1" x1="29.2" y1="38.7" x2="29.2" y2="13.4"/>
  <polyline class="st1" points="30.7 72.2 30.7 100.7 30.7 116.9"/>
  <polyline class="st1" points="46.1 72.2 46.1 100.7 46.1 113.8"/>
  <polyline class="st1" points="61.2 72.2 61.2 100.7 61.2 111.1"/>
  <line class="st1" x1="76.2" y1="100.7" x2="76.2" y2="72.2"/>
  <line class="st1" x1="16.8" y1="100.7" x2="16.8" y2="72.2"/>
  <polyline class="st1" points="42 13.4 42 38.7 49.1 38.7 49.1 13.4"/>
  <path class="st1" d="M62.3,13.4v25.3s2.6.1,2.6,0V13.4"/>
  <path class="st1" d="M78,13.4v25.3s12.1.1,12.1,0V9.3"/>
  <line class="st1" x1="104.4" y1="38.7" x2="104.4" y2="9.3"/>
  <path class="st1" d="M118.7,9.3v29.4s9.7,0,9.6,0V9.3"/>
  <line class="st1" x1="142.5" y1="38.7" x2="142.5" y2="9.3"/>
  <path class="st1" d="M156.6,9.3v29.4s11,.1,11.2,0V9.3"/>
  <line class="st1" x1="182.1" y1="38.7" x2="182.1" y2="9.3"/>
  <path class="st1" d="M196.3,9.3v29.4h11.1V9.3"/>
  <line class="st1" x1="221.7" y1="38.7" x2="221.7" y2="9.3"/>
  <path class="st1" d="M235.7,9.3v29.4s11.4.1,11.3,0V9.3"/>
  <line class="st1" x1="261.2" y1="38.7" x2="261.2" y2="9.3"/>
  <polyline class="st1" points="275.3 9.3 275.3 38.7 284 38.7 284 9.3"/>
  <polyline class="st1" points="298.3 9.3 298.3 38.7 305.8 38.7 305.8 9"/>
  <line class="st1" x1="320.3" y1="38.7" x2="320.3" y2="9"/>
  <polyline class="st1" points="334.7 9 334.7 38.7 343.3 38.7 343.3 9"/>
  <polyline class="st1" points="357.6 9 357.6 38.7 365.2 38.7 365.2 9"/>
  <line class="st1" x1="379.3" y1="38.7" x2="379.3" y2="9"/>
  <polyline class="st1" points="393.7 9 393.7 38.7 404.7 38.7 404.7 9"/>
  <line class="st1" x1="418.9" y1="38.7" x2="418.9" y2="9"/>
  <polyline class="st1" points="433.2 9 433.2 38.7 444.3 38.7 444.3 10.2"/>
  <line class="st1" x1="458.7" y1="38.7" x2="458.7" y2="10.2"/>
  <polyline class="st1" points="472.6 10.2 472.6 38.7 483.7 38.7 483.7 10.2"/>
  <line class="st1" x1="498" y1="38.7" x2="498" y2="10.2"/>
  <polyline class="st1" points="512.2 10.2 512.2 38.7 523.3 38.7 523.3 10.2"/>
  <line class="st1" x1="537.6" y1="38.7" x2="537.6" y2="10.2"/>
  <polyline class="st1" points="551.9 10.2 551.9 38.7 569.1 38.7 569.1 13.1"/>
  <line class="st1" x1="582.3" y1="38.7" x2="582.3" y2="13.1"/>
  <line class="st1" x1="583.8" y1="57.9" x2="612.8" y2="57.9"/>
  <path class="st1" d="M612.8,80.7h-29.1s-.2-7.4,0-7.6h29.1"/>
  <line class="st1" x1="583.8" y1="94.9" x2="612.8" y2="94.9"/>
  <path class="st1" d="M612.8,120.3h-29.1s0-11.3,0-11.3h29.1"/>
  <line class="st1" x1="583.8" y1="134.5" x2="612.8" y2="134.5"/>
  <polyline class="st1" points="612.8 159.9 583.8 159.9 583.8 148.6 612.8 148.6"/>
  <line class="st1" x1="583.8" y1="174.1" x2="612.8" y2="174.1"/>
  <path class="st1" d="M612.8,198.8h-29.1s0-10.5,0-10.4h29.1"/>
  <line class="st1" x1="583.8" y1="213.2" x2="612.8" y2="213.2"/>
  <polyline class="st1" points="612.8 227.9 583.8 227.9 583.8 235.9 612.8 235.9"/>
  <line class="st1" x1="583.8" y1="250.1" x2="612.8" y2="250.1"/>
  <line class="st1" x1="583.8" y1="295.3" x2="612.8" y2="295.3"/>
  <line class="st1" x1="583.8" y1="309.5" x2="612.8" y2="309.5"/>
  <line class="st1" x1="584.2" y1="264.4" x2="612.8" y2="264.4"/>
  <polyline class="st1" points="585.9 12.6 585.9 35.1 624.5 35.1"/>
  <polyline class="st1" points="596.3 35.3 596.3 52.8 624.5 52.8"/>
  <rect class="st1" x="612.8" y="52.9" width="11.7" height="20.3"/>
  <rect class="st1" x="612.8" y="73" width="9.9" height="41.6"/>
  <rect class="st1" x="612.8" y="153.9" width="9.9" height="39.7"/>
  <rect class="st1" x="612.8" y="193.6" width="9.9" height="39.7"/>
  <rect class="st1" x="612.8" y="233.1" width="9.9" height="39.7"/>
  <rect class="st1" x="612.8" y="272.8" width="9.9" height="38.4"/>
  <rect class="st1" x="612.8" y="114.5" width="9.9" height="39.4"/>
  <rect class="st1" x="584.2" y="309.4" width="28.1" height="41.9"/>
  <g>
    <line class="st1" x1="76.2" y1="102.1" x2="88.8" y2="89.4"/>
    <line class="st1" x1="76.3" y1="105.5" x2="88.8" y2="93.3"/>
    <line class="st1" x1="76.2" y1="109.3" x2="88.8" y2="96.7"/>
    <line class="st1" x1="76.1" y1="113" x2="89" y2="100.4"/>
    <line class="st1" x1="76.6" y1="116.3" x2="88.9" y2="104.1"/>
    <line class="st1" x1="76.7" y1="119.8" x2="88.9" y2="107.8"/>
    <line class="st1" x1="77.1" y1="123.2" x2="88.8" y2="111.8"/>
    <line class="st1" x1="80.8" y1="123.2" x2="89.4" y2="114.9"/>
    <line class="st1" x1="86" y1="122" x2="90" y2="118.4"/>
    <line class="st1" x1="76.3" y1="76.3" x2="80.4" y2="72.4"/>
    <line class="st1" x1="76.2" y1="80.1" x2="84.1" y2="72.3"/>
    <line class="st1" x1="76.1" y1="83.7" x2="87.4" y2="72.4"/>
    <line class="st1" x1="76.1" y1="87.7" x2="88.8" y2="74.5"/>
    <line class="st1" x1="76.1" y1="91.2" x2="88.6" y2="78.5"/>
    <line class="st1" x1="76.2" y1="94.8" x2="88.7" y2="82.6"/>
    <line class="st1" x1="76.4" y1="98.4" x2="88.8" y2="86"/>
    <polygon class="st1" points="88.8 101.8 88.8 72.4 76.3 72.4 76.3 101.8 76.3 111.4 77.1 124.2 90.1 121 88.8 111.4 88.8 101.8"/>
  </g>
  <line class="st1" x1="505.9" y1="273.6" x2="505.9" y2="260.9"/>
  <polyline class="st1" points="512.5 162.5 512.5 192.9 526.6 192.9 526.6 162.5"/>
  <polyline class="st1" points="533 162.5 533 192.9 546.3 192.9 546.3 162.5"/>
  <line class="st1" x1="505.8" y1="193.1" x2="534.2" y2="193.1"/>
  <line class="st1" x1="505.8" y1="203.8" x2="534.2" y2="203.8"/>
  <line class="st1" x1="507.1" y1="350.3" x2="513.6" y2="343.8"/>
  <line class="st1" x1="507.1" y1="355.1" x2="518.3" y2="343.8"/>
  <line class="st1" x1="507" y1="360" x2="523.6" y2="343.7"/>
  <line class="st1" x1="507" y1="365" x2="528.4" y2="343.8"/>
  <line class="st1" x1="507" y1="369.9" x2="532.2" y2="344.6"/>
  <polyline class="st1" points="546.8 359.2 551 363.7 557.7 376 557.5 453.1"/>
  <polyline class="st1" points="557.2 389.8 542.1 389.8 537.6 385 554 369.3"/>
  <polyline class="st1" points="591.6 351.7 591.6 367.4 595.8 367.4 595.6 431.6 592.6 431.6 592.6 452.1 601 452.1 601 456.1"/>
  <line class="st1" x1="595.8" y1="367.4" x2="626.7" y2="367.4"/>
  <g>
    <polygon class="st1" points="599.3 352 625.2 351.9 625.2 359.4 599.3 359.5 599.3 352"/>
    <line class="st1" x1="622.4" y1="351.9" x2="622.4" y2="359.4"/>
    <line class="st1" x1="619.5" y1="351.9" x2="619.5" y2="359.4"/>
    <line class="st1" x1="616.6" y1="352" x2="616.6" y2="359.4"/>
    <line class="st1" x1="613.7" y1="352" x2="613.7" y2="359.4"/>
    <line class="st1" x1="610.9" y1="352" x2="610.9" y2="359.5"/>
    <line class="st1" x1="607.9" y1="352" x2="608" y2="359.5"/>
    <line class="st1" x1="605" y1="352" x2="605.1" y2="359.5"/>
    <line class="st1" x1="602.1" y1="352" x2="602.1" y2="359.5"/>
  </g>
  <polygon class="st1" points="116.1 72.6 126.8 72.6 131.9 98 115.9 100.3 116.1 72.6"/>
  <line class="st1" x1="10.3" y1="100.4" x2="76.3" y2="100.4"/>
  <line class="st1" x1="89" y1="100.4" x2="115.8" y2="100.4"/>
  <line class="st1" x1="14" y1="120.4" x2="75.6" y2="108.1"/>
  <line class="st1" x1="83.2" y1="146.5" x2="77.1" y2="124.2"/>
  <polyline class="st1" points="32.5 216.1 95.5 203.8 83.3 146.2"/>
  <polyline class="st1" points="44.4 275.4 97.3 264.6 93.1 244.7 103.3 242.9 95.5 203.8"/>
  <polyline class="st1" points="59.2 272.3 63.6 292.1 110.3 282.5"/>
  <line class="st1" x1="50.9" y1="286.2" x2="62" y2="283.5"/>
  <line class="st1" x1="54.2" y1="301.3" x2="111.3" y2="290"/>
  <line class="st1" x1="130.5" y1="241.3" x2="158.9" y2="235.7"/>
  <polyline class="st1" points="127.6 228.4 156.1 222.8 154.6 214.3 126.3 219.4 140.8 290.8 168.8 285.2 169.9 292 142.6 296.6 145.4 312 172.7 306.4"/>
  <polyline class="st1" points="137.1 272.6 164.7 267.1 165.4 271 137.9 276.5"/>
  <polyline class="st1" points="133.6 255.1 161.9 249.4 162.5 253.1 134.3 258.6"/>
  <polyline class="st1" points="139.3 284.1 122.1 288 115.1 250 104.8 251.8"/>
  <polyline class="st1" points="149.3 343.1 159.1 332.6 181.6 355.2 171.1 365.7"/>
  <polyline class="st1" points="171.2 365.4 187.5 382.2 209.6 382.2"/>
  <line class="st1" x1="129.2" y1="379.6" x2="145.7" y2="362.6"/>
  <polyline class="st1" points="181.1 355.1 209.3 355.5 209.3 365.4"/>
  <line class="st1" x1="361" y1="373.3" x2="506.9" y2="373.3"/>
  <rect class="st0" x="209.4" y="343.8" width="32.6" height="22.8"/>
  <polyline class="st1" points="134.8 285.4 140.2 317.6 168.2 312 171.3 329.9 163.8 337.6"/>
  <line class="st1" x1="450.3" y1="396.7" x2="450.3" y2="382.1"/>
  <polyline class="st1" points="359.6 382.4 523.9 382.9 525 381.5"/>
  <line class="st1" x1="90.5" y1="121.4" x2="105.7" y2="118.3"/>
  <line class="st1" x1="93.6" y1="137.3" x2="109.1" y2="133.9"/>
  <line class="st1" x1="100.2" y1="171.5" x2="115.6" y2="169"/>
  <line class="st1" x1="147.5" y1="205.1" x2="149.6" y2="215.4"/>
  <line class="st1" x1="115.1" y1="250" x2="107.9" y2="212.6"/>
  <line class="st1" x1="117.4" y1="260.9" x2="134.2" y2="257.4"/>
  <line class="st1" x1="134.2" y1="343" x2="147.1" y2="341"/>
  <path class="st8" d="M62.2,4.3v5.4h-17v-5.4h17M63.2,3.3h-19v7.4h19V3.3h0Z"/>
  <path class="st8" d="M80.7,4.3v5.4h-15.3v-5.4h15.3M81.7,3.3h-17.3v7.4h17.3V3.3h0Z"/>
  <path class="st8" d="M590.3,4.3v5.8h-24.4v-5.8h24.4M591.3,3.3h-26.4v7.8h26.4V3.3h0Z"/>
  <line class="st1" x1="108.1" y1="127.8" x2="137" y2="122"/>
  <line class="st1" x1="110.8" y1="142.6" x2="139.5" y2="136.9"/>
  <line class="st1" x1="97.3" y1="155.4" x2="112.7" y2="152.1"/>
  <g>
    <polygon class="st1" points="108.3 311.8 115.7 310.1 113.6 300.1 106.2 301.8 108.3 311.8"/>
    <line class="st1" x1="107.9" y1="300.9" x2="110.1" y2="311.2"/>
    <line class="st1" x1="109.8" y1="300.5" x2="112" y2="310.9"/>
    <line class="st1" x1="111.6" y1="300.1" x2="113.8" y2="310.4"/>
  </g>
  <line class="st1" x1="237.1" y1="381.9" x2="237.1" y2="393.1"/>
  <line class="st1" x1="187.5" y1="382.2" x2="187.5" y2="392.7"/>
  <line class="st1" x1="544.7" y1="452.3" x2="544.7" y2="431.3"/>
  <polyline class="st1" points="170.1 322.5 164.3 322.6 156.8 330.3 159.1 332.6"/>
  <polyline class="st1" points="88.8 72.4 96.5 72.3 96.5 100.6"/>
  <polygon class="st7" points="315.1 477.9 318.8 471.6 322.4 477.9 315.1 477.9"/>
  <polygon class="st7" points="42.3 300.5 49.1 302.9 43.7 307.6 42.3 300.5"/>
  <g>
    <path class="st8" d="M105.5,88.6c0,0-.2,0-.3,0-.8-.2-1.4-.9-1.5-1.8,0-.8.4-1.6,1.1-2,0,0,0,0,.1,0,0,.1,0,.3,0,.4,0,0,0,.1-.1.1-.6.4-.8.9-.7,1.6.1.7.5,1.1,1.2,1.3.7.2,1.5-.2,1.8-.8,0,0,0-.1,0-.2,0,.2.1.3.2.5,0,0,0,.1,0,.2-.3.5-.8.8-1.3.8,0,0,0,0,0,0h-.5s0,0,0,0Z"/>
    <path class="st8" d="M106,82.1s0,0,.1,0c.3.1.4.4.3.8,0,.3-.3.5-.7.5-.3,0-.6-.2-.6-.5,0-.3,0-.6.4-.7,0,0,0,0,.1,0h.3s0,0,0,0Z"/>
    <path class="st8" d="M106.4,84.5c.3,0,.7,0,1,0,.2,0,.3,0,.3.2,0,.2,0,.3-.3.3-.3,0-.6,0-.9,0,0,0-.1,0-.2,0v.8s0,0,.1,0c.3,0,.6,0,1,0,.2,0,.3,0,.4.3.1.3.2.6.3.9,0,.1,0,.2.2.1.1,0,.2,0,.3,0,.2,0,.3.1.3.3,0,.2-.1.3-.3.3-.3,0-.6,0-.8,0,0,0,0,0-.1-.1-.1-.3-.2-.6-.3-.9,0-.1,0-.2-.2-.2-.4,0-.9,0-1.3,0-.4,0-.7-.3-.7-.6,0-.6,0-1.3,0-1.9,0,0,0-.1,0-.2,0-.2.2-.3.4-.3.2,0,.4,0,.4.2.1.2.2.5.3.8h0Z"/>
  </g>
  <g>
    <path class="st8" d="M124.7,135.6c0,0-.2,0-.3,0-.8-.2-1.4-.9-1.5-1.8,0-.8.4-1.6,1.1-2,0,0,0,0,.1,0,0,.1,0,.3,0,.4,0,0,0,.1-.1.1-.6.4-.8.9-.7,1.6.1.7.5,1.1,1.2,1.3.7.2,1.5-.2,1.8-.8,0,0,0-.1,0-.2,0,.2.1.3.2.5,0,0,0,.1,0,.2-.3.5-.8.8-1.3.8,0,0,0,0,0,0h-.5s0,0,0,0Z"/>
    <path class="st8" d="M125.2,129.1s0,0,.1,0c.3.1.4.4.3.8,0,.3-.3.5-.7.5-.3,0-.6-.2-.6-.5,0-.3,0-.6.4-.7,0,0,0,0,.1,0h.3s0,0,0,0Z"/>
    <path class="st8" d="M125.7,131.6c.3,0,.7,0,1,0,.2,0,.3,0,.3.2,0,.2,0,.3-.3.3-.3,0-.6,0-.9,0,0,0-.1,0-.2,0v.8s0,0,.1,0c.3,0,.6,0,1,0,.2,0,.3,0,.4.3.1.3.2.6.3.9,0,.1,0,.2.2.1.1,0,.2,0,.3,0,.2,0,.3.1.3.3,0,.2-.1.3-.3.3-.3,0-.6,0-.8,0,0,0,0,0-.1-.1-.1-.3-.2-.6-.3-.9,0-.1,0-.2-.2-.2-.4,0-.9,0-1.3,0-.4,0-.7-.3-.7-.6,0-.6,0-1.3,0-1.9,0,0,0-.1,0-.2,0-.2.2-.3.4-.3.2,0,.4,0,.4.2.1.2.2.5.3.8h0Z"/>
  </g>
  <g>
    <path class="st8" d="M143.4,234.9c0,0-.2,0-.3,0-.8-.2-1.4-.9-1.5-1.8,0-.8.4-1.6,1.1-2,0,0,0,0,.1,0,0,.1,0,.3,0,.4,0,0,0,.1-.1.1-.6.4-.8.9-.7,1.6.1.7.5,1.1,1.2,1.3.7.2,1.5-.2,1.8-.8,0,0,0-.1,0-.2,0,.2.1.3.2.5,0,0,0,.1,0,.2-.3.5-.8.8-1.3.8,0,0,0,0,0,0h-.5s0,0,0,0Z"/>
    <path class="st8" d="M143.9,228.4s0,0,.1,0c.3.1.4.4.3.8,0,.3-.3.5-.7.5-.3,0-.6-.2-.6-.5,0-.3,0-.6.4-.7,0,0,0,0,.1,0h.3s0,0,0,0Z"/>
    <path class="st8" d="M144.3,230.8c.3,0,.7,0,1,0,.2,0,.3,0,.3.2,0,.2,0,.3-.3.3-.3,0-.6,0-.9,0,0,0-.1,0-.2,0v.8s0,0,.1,0c.3,0,.6,0,1,0,.2,0,.3,0,.4.3.1.3.2.6.3.9,0,.1,0,.2.2.1.1,0,.2,0,.3,0,.2,0,.3.1.3.3,0,.2-.1.3-.3.3-.3,0-.6,0-.8,0,0,0,0,0-.1-.1-.1-.3-.2-.6-.3-.9,0-.1,0-.2-.2-.2-.4,0-.9,0-1.3,0-.4,0-.7-.3-.7-.6,0-.6,0-1.3,0-1.9,0,0,0-.1,0-.2,0-.2.2-.3.4-.3.2,0,.4,0,.4.2.1.2.2.5.3.8h0Z"/>
  </g>
  <g>
    <path class="st8" d="M190.8,117.7c0,0-.2,0-.3,0-.8-.2-1.4-.9-1.5-1.8,0-.8.4-1.6,1.1-2,0,0,0,0,.1,0,0,.1,0,.3,0,.4,0,0,0,.1-.1.1-.6.4-.8.9-.7,1.6.1.7.5,1.1,1.2,1.3.7.2,1.5-.2,1.8-.8,0,0,0-.1,0-.2,0,.2.1.3.2.5,0,0,0,.1,0,.2-.3.5-.8.8-1.3.8,0,0,0,0,0,0h-.5s0,0,0,0Z"/>
    <path class="st8" d="M191.3,111.2s0,0,.1,0c.3.1.4.4.3.8,0,.3-.3.5-.7.5-.3,0-.6-.2-.6-.5,0-.3,0-.6.4-.7,0,0,0,0,.1,0h.3s0,0,0,0Z"/>
    <path class="st8" d="M191.8,113.7c.3,0,.7,0,1,0,.2,0,.3,0,.3.2,0,.2,0,.3-.3.3-.3,0-.6,0-.9,0,0,0-.1,0-.2,0v.8s0,0,.1,0c.3,0,.6,0,1,0,.2,0,.3,0,.4.3.1.3.2.6.3.9,0,.1,0,.2.2.1.1,0,.2,0,.3,0,.2,0,.3.1.3.3,0,.2-.1.3-.3.3-.3,0-.6,0-.8,0,0,0,0,0-.1-.1-.1-.3-.2-.6-.3-.9,0-.1,0-.2-.2-.2-.4,0-.9,0-1.3,0-.4,0-.7-.3-.7-.6,0-.6,0-1.3,0-1.9,0,0,0-.1,0-.2,0-.2.2-.3.4-.3.2,0,.4,0,.4.2.1.2.2.5.3.8h0Z"/>
  </g>
  <g>
    <path class="st8" d="M217.8,117.7c0,0-.2,0-.3,0-.8-.2-1.4-.9-1.5-1.8,0-.8.4-1.6,1.1-2,0,0,0,0,.1,0,0,.1,0,.3,0,.4,0,0,0,.1-.1.1-.6.4-.8.9-.7,1.6.1.7.5,1.1,1.2,1.3.7.2,1.5-.2,1.8-.8,0,0,0-.1,0-.2,0,.2.1.3.2.5,0,0,0,.1,0,.2-.3.5-.8.8-1.3.8,0,0,0,0,0,0h-.5s0,0,0,0Z"/>
    <path class="st8" d="M218.3,111.2s0,0,.1,0c.3.1.4.4.3.8,0,.3-.3.5-.7.5-.3,0-.6-.2-.6-.5,0-.3,0-.6.4-.7,0,0,0,0,.1,0h.3s0,0,0,0Z"/>
    <path class="st8" d="M218.8,113.7c.3,0,.7,0,1,0,.2,0,.3,0,.3.2,0,.2,0,.3-.3.3-.3,0-.6,0-.9,0,0,0-.1,0-.2,0v.8s0,0,.1,0c.3,0,.6,0,1,0,.2,0,.3,0,.4.3.1.3.2.6.3.9,0,.1,0,.2.2.1.1,0,.2,0,.3,0,.2,0,.3.1.3.3,0,.2-.1.3-.3.3-.3,0-.6,0-.8,0,0,0,0,0-.1-.1-.1-.3-.2-.6-.3-.9,0-.1,0-.2-.2-.2-.4,0-.9,0-1.3,0-.4,0-.7-.3-.7-.6,0-.6,0-1.3,0-1.9,0,0,0-.1,0-.2,0-.2.2-.3.4-.3.2,0,.4,0,.4.2.1.2.2.5.3.8h0Z"/>
  </g>
  <g>
    <path class="st8" d="M430.6,299.1c0,0-.2,0-.3,0-.8-.2-1.4-.9-1.5-1.8,0-.8.4-1.6,1.1-2,0,0,0,0,.1,0,0,.1,0,.3,0,.4,0,0,0,.1-.1.1-.6.4-.8.9-.7,1.6.1.7.5,1.1,1.2,1.3.7.2,1.5-.2,1.8-.8,0,0,0-.1,0-.2,0,.2.1.3.2.5,0,0,0,.1,0,.2-.3.5-.8.8-1.3.8,0,0,0,0,0,0h-.5s0,0,0,0Z"/>
    <path class="st8" d="M431.1,292.6s0,0,.1,0c.3.1.4.4.3.8,0,.3-.3.5-.7.5-.3,0-.6-.2-.6-.5,0-.3,0-.6.4-.7,0,0,0,0,.1,0h.3s0,0,0,0Z"/>
    <path class="st8" d="M431.5,295.1c.3,0,.7,0,1,0,.2,0,.3,0,.3.2,0,.2,0,.3-.3.3-.3,0-.6,0-.9,0,0,0-.1,0-.2,0v.8s0,0,.1,0c.3,0,.6,0,1,0,.2,0,.3,0,.4.3.1.3.2.6.3.9,0,.1,0,.2.2.1.1,0,.2,0,.3,0,.2,0,.3.1.3.3,0,.2-.1.3-.3.3-.3,0-.6,0-.8,0,0,0,0,0-.1-.1-.1-.3-.2-.6-.3-.9,0-.1,0-.2-.2-.2-.4,0-.9,0-1.3,0-.4,0-.7-.3-.7-.6,0-.6,0-1.3,0-1.9,0,0,0-.1,0-.2,0-.2.2-.3.4-.3.2,0,.4,0,.4.2.1.2.2.5.3.8h0Z"/>
  </g>
  <g>
    <path class="st8" d="M454.3,299.1c0,0-.2,0-.3,0-.8-.2-1.4-.9-1.5-1.8,0-.8.4-1.6,1.1-2,0,0,0,0,.1,0,0,.1,0,.3,0,.4,0,0,0,.1-.1.1-.6.4-.8.9-.7,1.6.1.7.5,1.1,1.2,1.3.7.2,1.5-.2,1.8-.8,0,0,0-.1,0-.2,0,.2.1.3.2.5,0,0,0,.1,0,.2-.3.5-.8.8-1.3.8,0,0,0,0,0,0h-.5s0,0,0,0Z"/>
    <path class="st8" d="M454.8,292.6s0,0,.1,0c.3.1.4.4.3.8,0,.3-.3.5-.7.5-.3,0-.6-.2-.6-.5,0-.3,0-.6.4-.7,0,0,0,0,.1,0h.3s0,0,0,0Z"/>
    <path class="st8" d="M455.3,295.1c.3,0,.7,0,1,0,.2,0,.3,0,.3.2,0,.2,0,.3-.3.3-.3,0-.6,0-.9,0,0,0-.1,0-.2,0v.8s0,0,.1,0c.3,0,.6,0,1,0,.2,0,.3,0,.4.3.1.3.2.6.3.9,0,.1,0,.2.2.1.1,0,.2,0,.3,0,.2,0,.3.1.3.3,0,.2-.1.3-.3.3-.3,0-.6,0-.8,0,0,0,0,0-.1-.1-.1-.3-.2-.6-.3-.9,0-.1,0-.2-.2-.2-.4,0-.9,0-1.3,0-.4,0-.7-.3-.7-.6,0-.6,0-1.3,0-1.9,0,0,0-.1,0-.2,0-.2.2-.3.4-.3.2,0,.4,0,.4.2.1.2.2.5.3.8h0Z"/>
  </g>
  <g>
    <path class="st8" d="M496,299.1c0,0-.2,0-.3,0-.8-.2-1.4-.9-1.5-1.8,0-.8.4-1.6,1.1-2,0,0,0,0,.1,0,0,.1,0,.3,0,.4,0,0,0,.1-.1.1-.6.4-.8.9-.7,1.6.1.7.5,1.1,1.2,1.3.7.2,1.5-.2,1.8-.8,0,0,0-.1,0-.2,0,.2.1.3.2.5,0,0,0,.1,0,.2-.3.5-.8.8-1.3.8,0,0,0,0,0,0h-.5s0,0,0,0Z"/>
    <path class="st8" d="M496.5,292.6s0,0,.1,0c.3.1.4.4.3.8,0,.3-.3.5-.7.5-.3,0-.6-.2-.6-.5,0-.3,0-.6.4-.7,0,0,0,0,.1,0h.3s0,0,0,0Z"/>
    <path class="st8" d="M497,295.1c.3,0,.7,0,1,0,.2,0,.3,0,.3.2,0,.2,0,.3-.3.3-.3,0-.6,0-.9,0,0,0-.1,0-.2,0v.8s0,0,.1,0c.3,0,.6,0,1,0,.2,0,.3,0,.4.3.1.3.2.6.3.9,0,.1,0,.2.2.1.1,0,.2,0,.3,0,.2,0,.3.1.3.3,0,.2-.1.3-.3.3-.3,0-.6,0-.8,0,0,0,0,0-.1-.1-.1-.3-.2-.6-.3-.9,0-.1,0-.2-.2-.2-.4,0-.9,0-1.3,0-.4,0-.7-.3-.7-.6,0-.6,0-1.3,0-1.9,0,0,0-.1,0-.2,0-.2.2-.3.4-.3.2,0,.4,0,.4.2.1.2.2.5.3.8h0Z"/>
  </g>
  <g>
    <path class="st8" d="M217.8,89.3c0,0-.2,0-.3,0-.8-.2-1.4-.9-1.5-1.8,0-.8.4-1.6,1.1-2,0,0,0,0,.1,0,0,.1,0,.3,0,.4,0,0,0,.1-.1.1-.6.4-.8.9-.7,1.6.1.7.5,1.1,1.2,1.3.7.2,1.5-.2,1.8-.8,0,0,0-.1,0-.2,0,.2.1.3.2.5,0,0,0,.1,0,.2-.3.5-.8.8-1.3.8,0,0,0,0,0,0h-.5s0,0,0,0Z"/>
    <path class="st8" d="M218.3,82.8s0,0,.1,0c.3.1.4.4.3.8,0,.3-.3.5-.7.5-.3,0-.6-.2-.6-.5,0-.3,0-.6.4-.7,0,0,0,0,.1,0h.3s0,0,0,0Z"/>
    <path class="st8" d="M218.8,85.2c.3,0,.7,0,1,0,.2,0,.3,0,.3.2,0,.2,0,.3-.3.3-.3,0-.6,0-.9,0,0,0-.1,0-.2,0v.8s0,0,.1,0c.3,0,.6,0,1,0,.2,0,.3,0,.4.3.1.3.2.6.3.9,0,.1,0,.2.2.1.1,0,.2,0,.3,0,.2,0,.3.1.3.3,0,.2-.1.3-.3.3-.3,0-.6,0-.8,0,0,0,0,0-.1-.1-.1-.3-.2-.6-.3-.9,0-.1,0-.2-.2-.2-.4,0-.9,0-1.3,0-.4,0-.7-.3-.7-.6,0-.6,0-1.3,0-1.9,0,0,0-.1,0-.2,0-.2.2-.3.4-.3.2,0,.4,0,.4.2.1.2.2.5.3.8h0Z"/>
  </g>
  <g>
    <g>
      <path class="st8" d="M610.3,410.5h-3.1v-3.6h-.9v4.3c0,.1.1.2.2.2h4.5c.1,0,.2-.1.2-.2v-4.3h-.9v3.6h0Z"/>
      <path class="st8" d="M611.6,405.1h-1.8v-.7c0-.1-.1-.2-.2-.2h-1.8c-.1,0-.2.1-.2.2v.7h-1.8c-.2,0-.4.2-.4.4v.4c0,.2.2.4.4.4h5.8c.2,0,.4-.2.4-.4v-.4c0-.2-.2-.4-.4-.4h0ZM608,405.1v-.4h1.3v.4h-1.3Z"/>
    </g>
    <rect class="st8" x="607.9" y="407" width=".5" height="3.9"/>
    <rect class="st8" x="609.1" y="407" width=".5" height="3.9"/>
  </g>
  <g>
    <polygon class="st8" points="462.1 217.6 463.9 215.4 465.7 213.1 467.5 215.4 469.3 217.6 466.5 216.5 466.5 219.7 465 219.7 465 216.5 462.1 217.6"/>
    <polygon class="st8" points="453.7 215.1 451.9 217.4 450.1 219.7 448.3 217.4 446.5 215.1 449.4 216.3 449.4 213.1 450.8 213.1 450.8 216.2 453.7 215.1"/>
  </g>
  <g>
    <polygon class="st8" points="569.7 102 571.5 99.7 573.3 97.4 575.1 99.7 576.9 102 574 100.9 574 104 572.5 104 572.5 100.9 569.7 102"/>
    <polygon class="st8" points="561.2 99.5 559.4 101.8 557.6 104 555.8 101.8 554 99.5 556.9 100.6 556.9 97.4 558.4 97.4 558.4 100.6 561.2 99.5"/>
  </g>
  <g>
    <polygon class="st8" points="569.7 179.6 571.5 177.3 573.3 175 575.1 177.3 576.9 179.6 574 178.5 574 181.7 572.5 181.7 572.5 178.5 569.7 179.6"/>
    <polygon class="st8" points="561.2 177.1 559.4 179.4 557.6 181.7 555.8 179.4 554 177.1 556.9 178.2 556.9 175 558.4 175 558.4 178.2 561.2 177.1"/>
  </g>
  <g>
    <polygon class="st8" points="569.7 294.3 571.5 292 573.3 289.7 575.1 292 576.9 294.3 574 293.1 574 296.3 572.5 296.3 572.5 293.2 569.7 294.3"/>
    <polygon class="st8" points="561.2 291.8 559.4 294.1 557.6 296.3 555.8 294.1 554 291.8 556.9 292.9 556.9 289.7 558.4 289.7 558.4 292.9 561.2 291.8"/>
  </g>
  <g>
    <polygon class="st8" points="580.3 425.2 582.2 422.9 584 420.7 585.8 422.9 587.6 425.2 584.7 424.1 584.7 427.3 583.2 427.3 583.2 424.1 580.3 425.2"/>
    <polygon class="st8" points="571.9 422.7 570.1 425 568.3 427.3 566.5 425 564.7 422.7 567.6 423.9 567.6 420.7 569 420.7 569 423.8 571.9 422.7"/>
  </g>
  <g>
    <polygon class="st8" points="294.8 323.9 292.5 322.1 290.3 320.3 292.5 318.5 294.8 316.7 293.7 319.6 296.9 319.6 296.9 321 293.7 321 294.8 323.9"/>
    <polygon class="st8" points="292.3 332.3 294.6 334.2 296.9 336 294.6 337.8 292.3 339.6 293.4 336.7 290.3 336.7 290.3 335.2 293.4 335.2 292.3 332.3"/>
  </g>
  <g>
    <polygon class="st8" points="537.2 323.9 534.9 322.1 532.6 320.3 534.9 318.5 537.2 316.7 536.1 319.6 539.3 319.6 539.3 321 536.1 321 537.2 323.9"/>
    <polygon class="st8" points="534.7 332.3 537 334.2 539.3 336 537 337.8 534.7 339.6 535.8 336.7 532.6 336.7 532.6 335.2 535.8 335.2 534.7 332.3"/>
  </g>
  <g>
    <polygon class="st8" points="294.8 233.8 292.5 232 290.3 230.2 292.5 228.4 294.8 226.6 293.7 229.5 296.9 229.5 296.9 231 293.7 231 294.8 233.8"/>
    <polygon class="st8" points="292.3 242.3 294.6 244.1 296.9 245.9 294.6 247.7 292.3 249.5 293.4 246.6 290.3 246.6 290.3 245.1 293.4 245.1 292.3 242.3"/>
  </g>
  <g>
    <polygon class="st8" points="296.2 142.5 293.2 140.7 290.3 138.9 293.2 137.1 296.2 135.3 294.7 138.2 298.9 138.2 298.9 139.7 294.8 139.7 296.2 142.5"/>
    <polygon class="st8" points="293 151 295.9 152.8 298.9 154.6 295.9 156.4 293 158.2 294.4 155.3 290.3 155.3 290.3 153.8 294.4 153.8 293 151"/>
  </g>
  <g>
    <polygon class="st8" points="386.1 142.5 383.1 140.7 380.2 138.9 383.1 137.1 386.1 135.3 384.6 138.2 388.8 138.2 388.8 139.7 384.7 139.7 386.1 142.5"/>
    <polygon class="st8" points="382.9 151 385.8 152.8 388.8 154.6 385.8 156.4 382.9 158.2 384.3 155.3 380.2 155.3 380.2 153.8 384.3 153.8 382.9 151"/>
  </g>
  <g>
    <polygon class="st8" points="521.2 142.5 518.2 140.7 515.3 138.9 518.2 137.1 521.2 135.3 519.8 138.2 523.9 138.2 523.9 139.7 519.8 139.7 521.2 142.5"/>
    <polygon class="st8" points="518 151 520.9 152.8 523.9 154.6 520.9 156.4 518 158.2 519.4 155.3 515.3 155.3 515.3 153.8 519.4 153.8 518 151"/>
  </g>
  <g>
    <polygon class="st8" points="294.8 51.3 292.5 49.5 290.3 47.7 292.5 45.9 294.8 44.1 293.7 47 296.9 47 296.9 48.5 293.7 48.5 294.8 51.3"/>
    <polygon class="st8" points="292.3 59.8 294.6 61.6 296.9 63.4 294.6 65.2 292.3 67 293.4 64.1 290.3 64.1 290.3 62.7 293.4 62.7 292.3 59.8"/>
  </g>
  <g>
    <polygon class="st8" points="185.8 51.3 183.5 49.5 181.2 47.7 183.5 45.9 185.8 44.1 184.6 47 187.8 47 187.8 48.5 184.7 48.5 185.8 51.3"/>
    <polygon class="st8" points="183.3 59.8 185.6 61.6 187.8 63.4 185.6 65.2 183.3 67 184.4 64.1 181.2 64.1 181.2 62.7 184.4 62.7 183.3 59.8"/>
  </g>
  <g>
    <polygon class="st8" points="62.8 51.3 60.5 49.5 58.2 47.7 60.5 45.9 62.8 44.1 61.7 47 64.9 47 64.9 48.5 61.7 48.5 62.8 51.3"/>
    <polygon class="st8" points="60.3 59.8 62.6 61.6 64.9 63.4 62.6 65.2 60.3 67 61.4 64.1 58.2 64.1 58.2 62.7 61.4 62.7 60.3 59.8"/>
  </g>
  <g>
    <polygon class="st8" points="396.7 51.3 394.4 49.5 392.2 47.7 394.4 45.9 396.7 44.1 395.6 47 398.8 47 398.8 48.5 395.6 48.5 396.7 51.3"/>
    <polygon class="st8" points="394.2 59.8 396.5 61.6 398.8 63.4 396.5 65.2 394.2 67 395.3 64.1 392.2 64.1 392.2 62.7 395.3 62.7 394.2 59.8"/>
  </g>
  <g>
    <polygon class="st8" points="517.9 51.3 515.6 49.5 513.3 47.7 515.6 45.9 517.9 44.1 516.8 47 520 47 520 48.5 516.8 48.5 517.9 51.3"/>
    <polygon class="st8" points="515.4 59.8 517.7 61.6 520 63.4 517.7 65.2 515.4 67 516.5 64.1 513.3 64.1 513.3 62.7 516.5 62.7 515.4 59.8"/>
  </g>
  <g>
    <polygon class="st8" points="190.1 284.7 191.4 282.1 192.7 279.5 194.9 281.4 197.1 283.2 194.1 282.7 194.8 285.9 193.3 286.2 192.7 283.1 190.1 284.7"/>
    <polygon class="st8" points="181.3 284.1 180.1 286.7 178.8 289.3 176.5 287.4 174.3 285.6 177.3 286.1 176.7 282.9 178.1 282.6 178.8 285.7 181.3 284.1"/>
  </g>
  <g>
    <polygon class="st8" points="159.4 125.5 160.7 122.9 162 120.3 164.2 122.2 166.5 124 163.4 123.5 164.1 126.7 162.7 127 162 123.9 159.4 125.5"/>
    <polygon class="st8" points="150.7 124.9 149.4 127.5 148.1 130.1 145.9 128.2 143.6 126.4 146.7 126.9 146 123.8 147.4 123.4 148.1 126.5 150.7 124.9"/>
  </g>
</svg>